<svg xmlns="http://www.w3.org/2000/svg" width="700" height="400" viewBox="0 0 700 400" role="img">
  <title>Expected Cache Misses vs Dataset Size</title>
  <rect width="700" height="400" fill="white"/>
  <rect x="0" y="0" width="700" height="400" fill="rgb(255,255,255)"/>
  <polyline points="92.3091,275 118.21364,275 144.1182,275 170.02274,221 195.92728,221 221.83182,221 247.73637,221 273.64093,167 299.54547,167 325.45,167 351.35455,167 377.2591,113 403.16364,113 429.0682,113 454.97275,113 480.8773,59 506.78183,59 532.6864,59 558.59094,59" fill="none" stroke="rgb(31,119,180)" stroke-width="1.5"/>
  <polyline points="92.3091,329 118.21364,329 144.1182,329 170.02274,329 195.92728,329 221.83182,329 247.73637,329 273.64093,329 299.54547,329 325.45,329 351.35455,329 377.2591,329 403.16364,329 429.0682,329 454.97275,329 480.8773,329 506.78183,329 532.6864,329 558.59094,329" fill="none" stroke="rgb(255,127,14)" stroke-width="1.5"/>
  <line x1="40.5" y1="32" x2="40.5" y2="356" stroke="rgb(0,0,0)" stroke-width="1"/>
  <line x1="40.5" y1="356" x2="610.4" y2="356" stroke="rgb(0,0,0)" stroke-width="1"/>
  <text x="40.5" y="368.6" font-family="serif" font-size="9" fill="rgb(0,0,0)" text-anchor="middle">8</text>
  <text x="92.3091" y="368.6" font-family="serif" font-size="9" fill="rgb(0,0,0)" text-anchor="middle">10</text>
  <text x="144.1182" y="368.6" font-family="serif" font-size="9" fill="rgb(0,0,0)" text-anchor="middle">12</text>
  <text x="195.92728" y="368.6" font-family="serif" font-size="9" fill="rgb(0,0,0)" text-anchor="middle">14</text>
  <text x="247.73637" y="368.6" font-family="serif" font-size="9" fill="rgb(0,0,0)" text-anchor="middle">16</text>
  <text x="299.54547" y="368.6" font-family="serif" font-size="9" fill="rgb(0,0,0)" text-anchor="middle">18</text>
  <text x="351.35455" y="368.6" font-family="serif" font-size="9" fill="rgb(0,0,0)" text-anchor="middle">20</text>
  <text x="403.16364" y="368.6" font-family="serif" font-size="9" fill="rgb(0,0,0)" text-anchor="middle">22</text>
  <text x="454.97275" y="368.6" font-family="serif" font-size="9" fill="rgb(0,0,0)" text-anchor="middle">24</text>
  <text x="506.78183" y="368.6" font-family="serif" font-size="9" fill="rgb(0,0,0)" text-anchor="middle">26</text>
  <text x="558.59094" y="368.6" font-family="serif" font-size="9" fill="rgb(0,0,0)" text-anchor="middle">28</text>
  <text x="610.4" y="368.6" font-family="serif" font-size="9" fill="rgb(0,0,0)" text-anchor="middle">30</text>
  <text x="36.9" y="329" font-family="serif" font-size="9" fill="rgb(0,0,0)" text-anchor="end">2</text>
  <text x="36.9" y="275" font-family="serif" font-size="9" fill="rgb(0,0,0)" text-anchor="end">3</text>
  <text x="36.9" y="221" font-family="serif" font-size="9" fill="rgb(0,0,0)" text-anchor="end">4</text>
  <text x="36.9" y="167" font-family="serif" font-size="9" fill="rgb(0,0,0)" text-anchor="end">5</text>
  <text x="36.9" y="113" font-family="serif" font-size="9" fill="rgb(0,0,0)" text-anchor="end">6</text>
  <text x="36.9" y="59" font-family="serif" font-size="9" fill="rgb(0,0,0)" text-anchor="end">7</text>
  <text x="325.45" y="387" font-family="serif" font-size="10" fill="rgb(0,0,0)" text-anchor="middle">Dataset Size (log₂ N)</text>
  <text x="18" y="194" font-family="serif" font-size="10" fill="rgb(0,0,0)" text-anchor="middle" transform="rotate(-90,18,194)">Cache Misses per Lookup</text>
  <rect x="625.4" y="37" width="12" height="12" fill="rgb(31,119,180)" rx="2"/>
  <text x="642.4" y="47.2" font-family="serif" font-size="9" fill="rgb(0,0,0)">B-Tree</text>
  <rect x="625.4" y="50.5" width="12" height="12" fill="rgb(255,127,14)" rx="2"/>
  <text x="642.4" y="60.7" font-family="serif" font-size="9" fill="rgb(0,0,0)">Learned Index</text>
  <text x="350" y="22" font-family="serif" font-size="12" fill="rgb(0,0,0)" font-weight="bold" text-anchor="middle">Expected Cache Misses vs Dataset Size</text>
</svg>
