<svg xmlns="http://www.w3.org/2000/svg" width="700" height="400" viewBox="0 0 700 400" role="img">
  <title>CDF of Clustered Keys</title>
  <rect width="700" height="400" fill="white"/>
  <rect x="0" y="0" width="700" height="400" fill="rgb(255,255,255)"/>
  <polyline points="109.058334,329 111.676254,327.9488 114.29417,326.89673 116.91208,325.84372 119.53,324.78967 122.14792,323.7345 124.76584,322.67804 127.38374,321.62024 130.00166,320.56085 132.61958,319.49982 135.2375,318.4369 137.85541,317.37192 140.47334,316.3047 143.09125,315.23495 145.70917,314.16248 148.32707,313.08698 150.945,312.00815 153.56291,310.92566 156.18083,309.8391 158.79875,308.74817 161.41667,307.65237 164.03458,306.5512 166.6525,305.44424 169.27042,304.33084 171.88834,303.21042 174.50624,302.0823 177.12416,300.94583 179.74208,299.80017 182.36,298.64456 184.9779,297.4781 187.59583,296.29977 190.21375,295.10867 192.83167,293.90372 195.44957,292.68378 198.06749,291.44766 200.68541,290.1942 203.30333,288.92212 205.92125,287.63013 208.53915,286.31696 211.15707,284.98126 213.775,283.62177 216.39291,282.23724 219.01082,280.8265 221.62874,279.3885 224.24667,277.92224 226.86458,276.4269 229.4825,274.90195 232.10042,273.347 234.71832,271.7619 237.33624,270.14688 239.95415,268.50256 242.57207,266.82977 245.19,265.12985 247.80792,263.40448 250.42583,261.65576 253.04375,259.88614 255.66165,258.09848 258.27957,256.29596 260.8975,254.48196 263.5154,252.66017 266.13333,250.83441 268.75125,249.00851 271.36917,247.18643 273.9871,245.37189 276.605,243.5686 279.2229,241.77998 281.84082,240.00916 284.45877,238.25897 287.07666,236.53188 289.69458,234.82996 292.3125,233.15488 294.93042,231.5079 297.54834,229.88992 300.16623,228.30148 302.78418,226.74275 305.4021,225.21356 308.02,223.71353 310.6379,222.24202 313.25583,220.79817 315.87375,219.38095 318.49167,217.98924 321.1096,216.62177 323.7275,215.27722 326.34543,213.95425 328.96335,212.65143 331.58127,211.36736 334.19916,210.10063 336.81708,208.84988 339.435,207.61375 342.05292,206.3909 344.67084,205.18005 347.28876,203.97995 349.90668,202.78937 352.5246,201.60718 355.14252,200.43219 357.7604,199.26334 360.37833,198.09956 362.99628,196.93979 365.61417,195.783 368.2321,194.6282 370.85,193.47438 373.46793,192.32057 376.08585,191.16579 378.70374,190.009 381.32166,188.84923 383.93958,187.68542 386.5575,186.5166 389.1754,185.34163 391.79337,184.15941 394.4113,182.96884 397.02917,181.76872 399.6471,180.55788 402.265,179.33502 404.88293,178.09889 407.50085,176.84814 410.11874,175.58142 412.73666,174.29736 415.35458,172.99454 417.9725,171.67155 420.59042,170.32703 423.2083,168.95955 425.82623,167.56784 428.44415,166.15063 431.0621,164.70676 433.68002,163.23524 436.29794,161.73521 438.91586,160.20604 441.53375,158.6473 444.15167,157.05885 446.7696,155.44089 449.3875,153.79391 452.00543,152.11884 454.62332,150.41692 457.24124,148.6898 459.85916,146.93964 462.47708,145.16881 465.095,143.38017 467.7129,141.57689 470.33084,139.76236 472.94876,137.94026 475.56668,136.11438 478.1846,134.28862 480.80252,132.46683 483.42044,130.65283 486.03833,128.85028 488.65625,127.06264 491.27417,125.29303 493.8921,123.5443 496.51,121.81894 499.1279,120.119 501.74582,118.44623 504.36374,116.801895 506.98166,115.186905 509.5996,113.60182 512.2175,112.046844 514.8354,110.52188 517.4533,109.02655 520.0712,107.56029 522.68915,106.12225 525.30707,104.71155 527.925,103.32701 530.5429,101.96753 533.1608,100.63185 535.77875,99.318665 538.39667,98.02664 541.0146,96.75458 543.63245,95.50113 546.25037,94.265015 548.86835,93.045074 551.48627,91.84009 554.1042,90.64899 556.7221,89.4707 559.33997,88.30423 561.9579,87.14859 564.5758,86.00296 567.1937,84.866486 569.81165,83.73837 572.42957,82.61795 575.0475,81.50455 577.6654,80.39755 580.2833,79.29642 582.90125,78.20059 585.51917,77.10965 588.1371,76.02316 590.755,74.94064 593.3729,73.86182 595.99084,72.786285 598.60876,71.71384 601.2267,70.644104 603.8446,69.57684 606.4625,68.5119 609.08044,67.448975 611.6983,66.38791 614.3162,65.32855 616.93414,64.27072 619.55206,63.214294 622.17,62.15912 624.7879,61.105072 627.4058,60.052063 630.02374,59" fill="none" stroke="rgb(31,119,180)" stroke-width="1.5"/>
  <line x1="56.7" y1="32" x2="56.7" y2="356" stroke="rgb(0,0,0)" stroke-width="1"/>
  <line x1="56.7" y1="356" x2="685" y2="356" stroke="rgb(0,0,0)" stroke-width="1"/>
  <text x="109.058334" y="368.6" font-family="serif" font-size="9" fill="rgb(0,0,0)" text-anchor="middle">0</text>
  <text x="239.95415" y="368.6" font-family="serif" font-size="9" fill="rgb(0,0,0)" text-anchor="middle">50</text>
  <text x="370.85" y="368.6" font-family="serif" font-size="9" fill="rgb(0,0,0)" text-anchor="middle">100</text>
  <text x="501.74582" y="368.6" font-family="serif" font-size="9" fill="rgb(0,0,0)" text-anchor="middle">150</text>
  <text x="632.64166" y="368.6" font-family="serif" font-size="9" fill="rgb(0,0,0)" text-anchor="middle">200</text>
  <text x="53.100002" y="329" font-family="serif" font-size="9" fill="rgb(0,0,0)" text-anchor="end">0</text>
  <text x="53.100002" y="275" font-family="serif" font-size="9" fill="rgb(0,0,0)" text-anchor="end">0.20</text>
  <text x="53.100002" y="221" font-family="serif" font-size="9" fill="rgb(0,0,0)" text-anchor="end">0.40</text>
  <text x="53.100002" y="167" font-family="serif" font-size="9" fill="rgb(0,0,0)" text-anchor="end">0.60</text>
  <text x="53.100002" y="113" font-family="serif" font-size="9" fill="rgb(0,0,0)" text-anchor="end">0.80</text>
  <text x="53.100002" y="59" font-family="serif" font-size="9" fill="rgb(0,0,0)" text-anchor="end">1</text>
  <text x="370.85" y="387" font-family="serif" font-size="10" fill="rgb(0,0,0)" text-anchor="middle">Key</text>
  <text x="34.2" y="194" font-family="serif" font-size="10" fill="rgb(0,0,0)" text-anchor="middle" transform="rotate(-90,34.2,194)">Position (normalized)</text>
  <text x="350" y="22" font-family="serif" font-size="12" fill="rgb(0,0,0)" font-weight="bold" text-anchor="middle">CDF of Clustered Keys</text>
</svg>
