<svg xmlns="http://www.w3.org/2000/svg" width="700" height="400" viewBox="0 0 700 400" role="img">
  <title>CDF of Uniformly Distributed Keys</title>
  <rect width="700" height="400" fill="white"/>
  <rect x="0" y="0" width="700" height="400" fill="rgb(255,255,255)"/>
  <polyline points="109.058334,329 111.676254,327.65 114.29417,326.3 116.91208,324.95 119.53,323.6 122.14792,322.25 124.76584,320.9 127.38374,319.55 130.00166,318.2 132.61958,316.85 135.2375,315.5 137.85541,314.15 140.47334,312.8 143.09125,311.45 145.70917,310.1 148.32707,308.75 150.945,307.4 153.56291,306.05 156.18083,304.7 158.79875,303.35 161.41667,302 164.03458,300.65 166.6525,299.3 169.27042,297.95 171.88834,296.6 174.50624,295.25 177.12416,293.9 179.74208,292.55 182.36,291.2 184.9779,289.85 187.59583,288.5 190.21375,287.15 192.83167,285.8 195.44957,284.45 198.06749,283.1 200.68541,281.75 203.30333,280.4 205.92125,279.05 208.53915,277.7 211.15707,276.35 213.775,275 216.39291,273.65 219.01082,272.3 221.62874,270.95 224.24667,269.6 226.86458,268.25 229.4825,266.9 232.10042,265.55 234.71832,264.2 237.33624,262.85 239.95415,261.5 242.57207,260.15 245.19,258.8 247.80792,257.45 250.42583,256.1 253.04375,254.75 255.66165,253.4 258.27957,252.05 260.8975,250.70001 263.5154,249.35 266.13333,248 268.75125,246.65 271.36917,245.3 273.9871,243.95 276.605,242.6 279.2229,241.25 281.84082,239.9 284.45877,238.54999 287.07666,237.2 289.69458,235.85 292.3125,234.5 294.93042,233.15 297.54834,231.8 300.16623,230.45001 302.78418,229.1 305.4021,227.75 308.02,226.4 310.6379,225.05 313.25583,223.7 315.87375,222.35 318.49167,221 321.1096,219.65001 323.7275,218.3 326.34543,216.95 328.96335,215.6 331.58127,214.25 334.19916,212.9 336.81708,211.55 339.435,210.2 342.05292,208.84999 344.67084,207.5 347.28876,206.15 349.90668,204.8 352.5246,203.45 355.14252,202.1 357.7604,200.75 360.37833,199.40001 362.99628,198.05 365.61417,196.7 368.2321,195.35 370.85,194 373.46793,192.65 376.08585,191.3 378.70374,189.95 381.32166,188.6 383.93958,187.25 386.5575,185.90001 389.1754,184.55 391.79337,183.2 394.4113,181.84999 397.02917,180.5 399.6471,179.15 402.265,177.8 404.88293,176.45 407.50085,175.1 410.11874,173.75 412.73666,172.4 415.35458,171.05 417.9725,169.7 420.59042,168.35 423.2083,167 425.82623,165.65001 428.44415,164.3 431.0621,162.95 433.68002,161.59999 436.29794,160.25 438.91586,158.9 441.53375,157.55 444.15167,156.2 446.7696,154.85 449.3875,153.5 452.00543,152.15 454.62332,150.8 457.24124,149.45 459.85916,148.1 462.47708,146.75 465.095,145.40001 467.7129,144.05 470.33084,142.7 472.94876,141.34999 475.56668,140 478.1846,138.65 480.80252,137.3 483.42044,135.95 486.03833,134.6 488.65625,133.25 491.27417,131.9 493.8921,130.55 496.51,129.2 499.1279,127.850006 501.74582,126.5 504.36374,125.15001 506.98166,123.8 509.5996,122.45 512.2175,121.09999 514.8354,119.75 517.4533,118.399994 520.0712,117.05 522.68915,115.7 525.30707,114.350006 527.925,113 530.5429,111.649994 533.1608,110.3 535.77875,108.95 538.39667,107.600006 541.0146,106.25 543.63245,104.90001 546.25037,103.55 548.86835,102.2 551.48627,100.84999 554.1042,99.5 556.7221,98.149994 559.33997,96.79999 561.9579,95.45001 564.5758,94.100006 567.1937,92.75 569.81165,91.399994 572.42957,90.04999 575.0475,88.70001 577.6654,87.350006 580.2833,86 582.90125,84.649994 585.51917,83.30002 588.1371,81.94998 590.755,80.600006 593.3729,79.25 595.99084,77.899994 598.60876,76.54999 601.2267,75.20001 603.8446,73.850006 606.4625,72.5 609.08044,71.149994 611.6983,69.79999 614.3162,68.45001 616.93414,67.100006 619.55206,65.75 622.17,64.399994 624.7879,63.05002 627.4058,61.69998 630.02374,60.350006" fill="none" stroke="rgb(31,119,180)" stroke-width="1.5"/>
  <line x1="56.7" y1="32" x2="56.7" y2="356" stroke="rgb(0,0,0)" stroke-width="1"/>
  <line x1="56.7" y1="356" x2="685" y2="356" stroke="rgb(0,0,0)" stroke-width="1"/>
  <text x="109.058334" y="368.6" font-family="serif" font-size="9" fill="rgb(0,0,0)" text-anchor="middle">0</text>
  <text x="239.95415" y="368.6" font-family="serif" font-size="9" fill="rgb(0,0,0)" text-anchor="middle">50</text>
  <text x="370.85" y="368.6" font-family="serif" font-size="9" fill="rgb(0,0,0)" text-anchor="middle">100</text>
  <text x="501.74582" y="368.6" font-family="serif" font-size="9" fill="rgb(0,0,0)" text-anchor="middle">150</text>
  <text x="632.64166" y="368.6" font-family="serif" font-size="9" fill="rgb(0,0,0)" text-anchor="middle">200</text>
  <text x="53.100002" y="329" font-family="serif" font-size="9" fill="rgb(0,0,0)" text-anchor="end">0</text>
  <text x="53.100002" y="275" font-family="serif" font-size="9" fill="rgb(0,0,0)" text-anchor="end">0.20</text>
  <text x="53.100002" y="221" font-family="serif" font-size="9" fill="rgb(0,0,0)" text-anchor="end">0.40</text>
  <text x="53.100002" y="167" font-family="serif" font-size="9" fill="rgb(0,0,0)" text-anchor="end">0.60</text>
  <text x="53.100002" y="113" font-family="serif" font-size="9" fill="rgb(0,0,0)" text-anchor="end">0.80</text>
  <text x="53.100002" y="59" font-family="serif" font-size="9" fill="rgb(0,0,0)" text-anchor="end">1</text>
  <text x="370.85" y="387" font-family="serif" font-size="10" fill="rgb(0,0,0)" text-anchor="middle">Key</text>
  <text x="34.2" y="194" font-family="serif" font-size="10" fill="rgb(0,0,0)" text-anchor="middle" transform="rotate(-90,34.2,194)">Position (normalized)</text>
  <text x="350" y="22" font-family="serif" font-size="12" fill="rgb(0,0,0)" font-weight="bold" text-anchor="middle">CDF of Uniformly Distributed Keys</text>
</svg>
