<svg xmlns="http://www.w3.org/2000/svg" width="700" height="400" viewBox="0 0 700 400" role="img">
  <title>Error Bound ε vs Number of Segments</title>
  <rect width="700" height="400" fill="white"/>
  <rect x="0" y="0" width="700" height="400" fill="rgb(255,255,255)"/>
  <polyline points="146.59915,59 150.21257,194 157.43942,261.5 171.89313,294.98 200.80057,311.72 258.61542,320.36 374.24515,324.68 605.5046,326.84" fill="none" stroke="rgb(31,119,180)" stroke-width="1.5"/>
  <line x1="52.65" y1="32" x2="52.65" y2="356" stroke="rgb(0,0,0)" stroke-width="1"/>
  <line x1="52.65" y1="356" x2="685" y2="356" stroke="rgb(0,0,0)" stroke-width="1"/>
  <text x="52.65" y="368.6" font-family="serif" font-size="9" fill="rgb(0,0,0)" text-anchor="middle">-50</text>
  <text x="142.98572" y="368.6" font-family="serif" font-size="9" fill="rgb(0,0,0)" text-anchor="middle">0</text>
  <text x="233.32144" y="368.6" font-family="serif" font-size="9" fill="rgb(0,0,0)" text-anchor="middle">50</text>
  <text x="323.65714" y="368.6" font-family="serif" font-size="9" fill="rgb(0,0,0)" text-anchor="middle">100</text>
  <text x="413.99286" y="368.6" font-family="serif" font-size="9" fill="rgb(0,0,0)" text-anchor="middle">150</text>
  <text x="504.32855" y="368.6" font-family="serif" font-size="9" fill="rgb(0,0,0)" text-anchor="middle">200</text>
  <text x="594.6643" y="368.6" font-family="serif" font-size="9" fill="rgb(0,0,0)" text-anchor="middle">250</text>
  <text x="685" y="368.6" font-family="serif" font-size="9" fill="rgb(0,0,0)" text-anchor="middle">300</text>
  <text x="49.050003" y="329" font-family="serif" font-size="9" fill="rgb(0,0,0)" text-anchor="end">0</text>
  <text x="49.050003" y="275" font-family="serif" font-size="9" fill="rgb(0,0,0)" text-anchor="end">100</text>
  <text x="49.050003" y="221" font-family="serif" font-size="9" fill="rgb(0,0,0)" text-anchor="end">200</text>
  <text x="49.050003" y="167" font-family="serif" font-size="9" fill="rgb(0,0,0)" text-anchor="end">300</text>
  <text x="49.050003" y="113" font-family="serif" font-size="9" fill="rgb(0,0,0)" text-anchor="end">400</text>
  <text x="49.050003" y="59" font-family="serif" font-size="9" fill="rgb(0,0,0)" text-anchor="end">500</text>
  <text x="368.82498" y="387" font-family="serif" font-size="10" fill="rgb(0,0,0)" text-anchor="middle">ε (max error in positions)</text>
  <text x="30.150002" y="194" font-family="serif" font-size="10" fill="rgb(0,0,0)" text-anchor="middle" transform="rotate(-90,30.150002,194)">Number of Segments</text>
  <text x="350" y="22" font-family="serif" font-size="12" fill="rgb(0,0,0)" font-weight="bold" text-anchor="middle">Error Bound ε vs Number of Segments</text>
</svg>
