<svg xmlns="http://www.w3.org/2000/svg" width="700" height="400" viewBox="0 0 700 400" role="img">
  <title>Absolute Prediction Error Comparison</title>
  <rect width="700" height="400" fill="white"/>
  <rect x="0" y="0" width="700" height="400" fill="rgb(255,255,255)"/>
  <polyline points="89.191666,315.5 91.46875,306.33304 93.745834,297.19153 96.02292,288.07813 98.3,278.9958 100.57709,269.94766 102.85417,260.93732 105.13125,251.96869 107.40834,243.04605 109.68542,234.1741 111.9625,225.35811 114.239586,216.60373 116.51667,207.9173 118.793755,199.30571 121.07083,190.77655 123.347916,182.33817 125.62501,173.99962 127.902084,165.77098 130.17917,157.6631 132.45624,149.688 134.73334,141.85869 137.01042,134.18939 139.2875,126.69557 141.56458,119.39409 143.84167,112.30319 146.11874,105.44261 148.39584,98.83374 150.67291,92.49951 152.95001,86.46475 155.22708,80.75586 157.50417,75.40112 159.78125,70.43054 162.05833,65.87598 164.33542,61.770874 166.61249,58.1503 168.88959,55.05066 171.16667,52.509674 173.44376,50.565796 175.72083,49.258057 177.99792,48.625427 180.275,48.706482 182.5521,49.538483 184.82916,51.15674 187.10623,53.59378 189.38333,56.878326 191.66043,61.0343 193.9375,66.07971 196.2146,72.02554 198.49167,78.874695 200.76874,86.62085 203.04584,95.24756 205.3229,104.72743 207.6,115.02153 209.87708,126.07904 212.15417,137.83728 214.43124,150.22202 216.70834,163.14821 218.98541,176.52097 221.26248,190.23721 223.53958,204.18726 225.81668,218.2569 228.09375,232.3297 230.37085,246.28922 232.64792,260.02136 234.92499,273.4166 237.20209,286.37207 239.47916,298.79318 241.75626,310.59525 244.03333,309.29553 246.31042,298.94128 248.5875,289.39227 250.8646,280.68674 253.14166,272.85126 255.41873,265.90143 257.69583,259.84253 259.97293,254.67058 262.25,250.37334 264.5271,246.93135 266.80417,244.31918 269.08124,242.50635 271.35834,241.45844 273.6354,241.13797 275.9125,241.50533 278.18958,242.51938 280.46667,244.13821 282.74374,246.31966 285.02084,249.02168 287.2979,252.20276 289.57498,255.82219 291.85208,259.84018 294.12918,264.21808 296.40625,268.9184 298.68335,273.90482 300.96042,279.14215 303.2375,284.5964 305.51456,290.2345 307.79166,296.02435 310.06876,301.93463 312.34583,307.93466 314.62292,313.99423 316.9,310.9165 319.17706,304.82727 321.45416,298.7677 323.73123,292.76767 326.00833,286.8574 328.2854,281.06754 330.56247,275.42944 332.83957,269.9752 335.11667,264.73785 337.39377,259.75143 339.67084,255.05112 341.9479,250.67322 344.225,246.65521 346.50208,243.0358 348.77917,239.8547 351.05624,237.1527 353.3333,234.97125 355.6104,233.35242 357.88748,232.33835 360.16458,231.97101 362.44165,232.29146 364.71872,233.33937 366.99582,235.15219 369.27292,237.76437 371.55002,241.20636 373.8271,245.50362 376.10416,250.67557 378.38126,256.73444 380.65833,263.6843 382.93542,271.51978 385.2125,280.2253 387.48956,289.77432 389.76666,300.12854 392.04373,311.2378 394.32083,307.96014 396.5979,295.53903 398.87497,282.58356 401.15207,269.18832 403.42917,255.45618 405.70627,241.49667 407.98334,227.42387 410.2604,213.35423 412.5375,199.40419 414.81458,185.68794 417.09167,172.31517 419.36874,159.38899 421.6458,147.00424 423.9229,135.246 426.19998,124.18851 428.47708,113.89441 430.75415,104.41455 433.03122,95.78784 435.30832,88.04169 437.58542,81.192505 439.86252,75.24667 442.1396,70.20126 444.41666,66.04532 446.69376,62.760742 448.97083,60.3237 451.24792,58.705444 453.525,57.873444 455.80206,57.79239 458.07916,58.424988 460.35623,59.732758 462.63333,61.676636 464.9104,64.21765 467.18747,67.31726 469.46457,70.937836 471.74167,75.04294 474.01877,79.597534 476.29584,84.568085 478.5729,89.92282 480.85,95.631714 483.12708,101.666504 485.40417,108.00069 487.68124,114.60957 489.9583,121.47014 492.2354,128.56107 494.51248,135.86255 496.78958,143.35637 499.06665,151.02567 501.34372,158.85498 503.62082,166.83008 505.89792,174.93793 508.17502,183.1666 510.4521,191.50511 512.7292,199.94351 515.0063,208.47269 517.2833,217.08426 519.5604,225.7707 521.8375,234.52507 524.11456,243.34108 526.39166,252.21301 528.66876,261.13568 530.94586,270.1043 533.2229,279.11462 535.5,288.16275 537.7771,297.24512 540.0542,306.3585 542.3313,315.5" fill="none" stroke="rgb(31,119,180)" stroke-width="1.5"/>
  <polyline points="89.191666,315.5 91.46875,314.79956 93.745834,314.1246 96.02292,313.47775 98.3,312.8619 100.57709,312.28033 102.85417,311.73654 105.13125,311.23444 107.40834,310.77832 109.68542,310.37292 111.9625,310.02344 114.239586,309.7356 116.51667,309.51572 118.793755,309.37067 121.07083,309.30804 123.347916,309.33615 125.62501,309.46417 127.902084,309.70206 130.17917,310.06073 132.45624,310.55215 134.73334,311.18936 137.01042,311.9866 139.2875,312.95932 141.56458,314.1244 143.84167,315.5 146.11874,315.5 148.39584,309.67535 150.67291,304.1254 152.95001,298.87485 155.22708,293.9502 157.50417,289.3797 159.78125,285.1934 162.05833,281.42303 164.33542,278.10217 166.61249,275.26584 168.88959,272.95044 171.16667,271.1937 173.44376,270.03406 175.72083,269.51056 177.99792,269.66217 180.275,270.52747 182.5521,272.14368 184.82916,274.5462 187.10623,277.7675 189.38333,281.83627 191.66043,286.7765 193.9375,292.60614 196.2146,299.3362 198.49167,306.9696 200.76874,315.5 203.04584,315.5 205.3229,313.4836 207.6,312.28146 209.87708,311.8427 212.15417,312.10474 214.43124,312.99323 216.70834,314.42316 218.98541,314.70032 221.26248,312.48032 223.53958,310.02652 225.81668,307.45313 228.09375,304.8766 230.37085,302.4133 232.64792,300.17743 234.92499,298.2784 237.20209,296.8192 239.47916,295.89435 241.75626,295.5885 244.03333,295.97552 246.31042,297.11752 248.5875,299.06476 250.8646,301.85547 253.14166,305.51624 255.41873,310.06265 257.69583,315.5 259.97293,315.5 262.25,308.73093 264.5271,302.81714 266.80417,297.73312 269.08124,293.4485 271.35834,289.92877 273.6354,287.13647 275.9125,285.032 278.18958,283.57425 280.46667,282.72125 282.74374,282.4309 285.02084,282.66107 287.2979,283.37036 289.57498,284.51797 291.85208,286.06415 294.12918,287.9702 296.40625,290.19873 298.68335,292.71332 300.96042,295.47885 303.2375,298.46127 305.51456,301.62756 307.79166,304.9456 310.06876,308.38406 312.34583,311.91226 314.62292,315.5 316.9,315.5 319.17706,312.31534 321.45416,309.16034 323.73123,306.06494 326.00833,303.05923 328.2854,300.17398 330.56247,297.44046 332.83957,294.8908 335.11667,292.55804 337.39377,290.47623 339.67084,288.6805 341.9479,287.20718 344.225,286.09378 346.50208,285.37894 348.77917,285.10245 351.05624,285.30502 353.3333,286.02817 355.6104,287.3139 357.88748,289.20447 360.16458,291.7417 362.44165,294.96674 364.71872,298.91925 366.99582,303.63666 369.27292,309.15344 371.55002,315.5 373.8271,315.5 376.10416,309.3552 378.38126,304.09735 380.65833,299.73044 382.93542,296.24915 385.2125,293.63794 387.48956,291.8702 389.76666,290.90768 392.04373,290.7002 394.32083,291.1855 396.5979,292.28986 398.87497,293.9286 401.15207,296.00708 403.42917,298.42245 405.70627,301.06525 407.98334,303.8213 410.2604,306.5742 412.5375,309.20746 414.81458,311.60696 417.09167,313.663 419.36874,315.2724 421.6458,314.6596 423.9229,314.2181 426.19998,314.47733 428.47708,315.5 430.75415,315.5 433.03122,306.72388 435.30832,298.82828 437.58542,291.8297 439.86252,285.73444 442.1396,280.5396 444.41666,276.23422 446.69376,272.80023 448.97083,270.21378 451.24792,268.4461 453.525,267.46466 455.80206,267.2342 458.07916,267.71738 460.35623,268.87573 462.63333,270.67017 464.9104,273.06177 467.18747,276.01196 469.46457,279.4831 471.74167,283.43878 474.01877,287.84393 476.29584,292.66507 478.5729,297.8704 480.85,303.42987 483.12708,309.31525 485.40417,315.5 487.68124,315.5 489.9583,313.99014 492.2354,312.7106 494.51248,311.64166 496.78958,310.76505 499.06665,310.0639 501.34372,309.5228 503.62082,309.12747 505.89792,308.86487 508.17502,308.7231 510.4521,308.6912 512.7292,308.75916 515.0063,308.91788 517.2833,309.15906 519.5604,309.47504 521.8375,309.85898 524.11456,310.30457 526.39166,310.80606 528.66876,311.35828 530.94586,311.95648 533.2229,312.59637 535.5,313.27405 537.7771,313.98596 540.0542,314.72894 542.3313,315.5" fill="none" stroke="rgb(255,127,14)" stroke-width="1.5"/>
  <line x1="43.65" y1="32" x2="43.65" y2="356" stroke="rgb(0,0,0)" stroke-width="1"/>
  <line x1="43.65" y1="356" x2="590.15" y2="356" stroke="rgb(0,0,0)" stroke-width="1"/>
  <text x="89.191666" y="368.6" font-family="serif" font-size="9" fill="rgb(0,0,0)" text-anchor="middle">0</text>
  <text x="203.04584" y="368.6" font-family="serif" font-size="9" fill="rgb(0,0,0)" text-anchor="middle">50</text>
  <text x="316.9" y="368.6" font-family="serif" font-size="9" fill="rgb(0,0,0)" text-anchor="middle">100</text>
  <text x="430.75415" y="368.6" font-family="serif" font-size="9" fill="rgb(0,0,0)" text-anchor="middle">150</text>
  <text x="544.60834" y="368.6" font-family="serif" font-size="9" fill="rgb(0,0,0)" text-anchor="middle">200</text>
  <text x="40.050003" y="356" font-family="serif" font-size="9" fill="rgb(0,0,0)" text-anchor="end">-1</text>
  <text x="40.050003" y="315.5" font-family="serif" font-size="9" fill="rgb(0,0,0)" text-anchor="end">0</text>
  <text x="40.050003" y="275" font-family="serif" font-size="9" fill="rgb(0,0,0)" text-anchor="end">1</text>
  <text x="40.050003" y="234.5" font-family="serif" font-size="9" fill="rgb(0,0,0)" text-anchor="end">2</text>
  <text x="40.050003" y="194" font-family="serif" font-size="9" fill="rgb(0,0,0)" text-anchor="end">3</text>
  <text x="40.050003" y="153.5" font-family="serif" font-size="9" fill="rgb(0,0,0)" text-anchor="end">4</text>
  <text x="40.050003" y="113" font-family="serif" font-size="9" fill="rgb(0,0,0)" text-anchor="end">5</text>
  <text x="40.050003" y="72.5" font-family="serif" font-size="9" fill="rgb(0,0,0)" text-anchor="end">6</text>
  <text x="40.050003" y="32" font-family="serif" font-size="9" fill="rgb(0,0,0)" text-anchor="end">7</text>
  <text x="316.9" y="387" font-family="serif" font-size="10" fill="rgb(0,0,0)" text-anchor="middle">Key</text>
  <text x="21.150002" y="194" font-family="serif" font-size="10" fill="rgb(0,0,0)" text-anchor="middle" transform="rotate(-90,21.150002,194)">|Error| (positions)</text>
  <rect x="605.15" y="37" width="12" height="12" fill="rgb(31,119,180)" rx="2"/>
  <text x="622.15" y="47.2" font-family="serif" font-size="9" fill="rgb(0,0,0)">Single Linear Model</text>
  <rect x="605.15" y="50.5" width="12" height="12" fill="rgb(255,127,14)" rx="2"/>
  <text x="622.15" y="60.7" font-family="serif" font-size="9" fill="rgb(0,0,0)">PGM (8 segments)</text>
  <text x="350" y="22" font-family="serif" font-size="12" fill="rgb(0,0,0)" font-weight="bold" text-anchor="middle">Absolute Prediction Error Comparison</text>
</svg>
