<svg xmlns="http://www.w3.org/2000/svg" width="700" height="400" viewBox="0 0 700 400" role="img">
  <title>Bimodal Key Distribution</title>
  <rect width="700" height="400" fill="white"/>
  <rect x="0" y="0" width="700" height="400" fill="rgb(255,255,255)"/>
  <rect x="86.09503" y="53.600006" width="27.397028" height="302.4" fill="rgb(31,119,180)" stroke="rgb(255,255,255)" stroke-width="0.5"/>
  <rect x="114.05118" y="161.59999" width="27.397028" height="194.40001" fill="rgb(31,119,180)" stroke="rgb(255,255,255)" stroke-width="0.5"/>
  <rect x="142.00732" y="134.6" width="27.397028" height="221.4" fill="rgb(31,119,180)" stroke="rgb(255,255,255)" stroke-width="0.5"/>
  <rect x="169.96347" y="145.40001" width="27.397028" height="210.59999" fill="rgb(31,119,180)" stroke="rgb(255,255,255)" stroke-width="0.5"/>
  <rect x="197.91965" y="134.6" width="27.397028" height="221.4" fill="rgb(31,119,180)" stroke="rgb(255,255,255)" stroke-width="0.5"/>
  <rect x="225.87578" y="204.8" width="27.397028" height="151.2" fill="rgb(31,119,180)" stroke="rgb(255,255,255)" stroke-width="0.5"/>
  <rect x="253.83194" y="356" width="27.397028" height="0" fill="rgb(31,119,180)" stroke="rgb(255,255,255)" stroke-width="0.5"/>
  <rect x="281.7881" y="356" width="27.397028" height="0" fill="rgb(31,119,180)" stroke="rgb(255,255,255)" stroke-width="0.5"/>
  <rect x="309.74423" y="356" width="27.397028" height="0" fill="rgb(31,119,180)" stroke="rgb(255,255,255)" stroke-width="0.5"/>
  <rect x="337.70038" y="356" width="27.397028" height="0" fill="rgb(31,119,180)" stroke="rgb(255,255,255)" stroke-width="0.5"/>
  <rect x="365.65652" y="356" width="27.397028" height="0" fill="rgb(31,119,180)" stroke="rgb(255,255,255)" stroke-width="0.5"/>
  <rect x="393.6127" y="356" width="27.397028" height="0" fill="rgb(31,119,180)" stroke="rgb(255,255,255)" stroke-width="0.5"/>
  <rect x="421.56885" y="356" width="27.397028" height="0" fill="rgb(31,119,180)" stroke="rgb(255,255,255)" stroke-width="0.5"/>
  <rect x="449.525" y="356" width="27.397028" height="0" fill="rgb(31,119,180)" stroke="rgb(255,255,255)" stroke-width="0.5"/>
  <rect x="477.48114" y="161.59999" width="27.397028" height="194.40001" fill="rgb(31,119,180)" stroke="rgb(255,255,255)" stroke-width="0.5"/>
  <rect x="505.4373" y="140" width="27.397028" height="216" fill="rgb(31,119,180)" stroke="rgb(255,255,255)" stroke-width="0.5"/>
  <rect x="533.39343" y="161.59999" width="27.397028" height="194.40001" fill="rgb(31,119,180)" stroke="rgb(255,255,255)" stroke-width="0.5"/>
  <rect x="561.3496" y="96.79999" width="27.397028" height="259.2" fill="rgb(31,119,180)" stroke="rgb(255,255,255)" stroke-width="0.5"/>
  <rect x="589.3058" y="75.20001" width="27.397028" height="280.8" fill="rgb(31,119,180)" stroke="rgb(255,255,255)" stroke-width="0.5"/>
  <rect x="617.26196" y="102.2" width="27.397028" height="253.8" fill="rgb(31,119,180)" stroke="rgb(255,255,255)" stroke-width="0.5"/>
  <line x1="45" y1="32" x2="45" y2="356" stroke="rgb(0,0,0)" stroke-width="1"/>
  <line x1="45" y1="356" x2="685" y2="356" stroke="rgb(0,0,0)" stroke-width="1"/>
  <text x="45" y="368.6" font-family="serif" font-size="9" fill="rgb(0,0,0)" text-anchor="middle">10</text>
  <text x="125" y="368.6" font-family="serif" font-size="9" fill="rgb(0,0,0)" text-anchor="middle">20</text>
  <text x="205" y="368.6" font-family="serif" font-size="9" fill="rgb(0,0,0)" text-anchor="middle">30</text>
  <text x="285" y="368.6" font-family="serif" font-size="9" fill="rgb(0,0,0)" text-anchor="middle">40</text>
  <text x="365" y="368.6" font-family="serif" font-size="9" fill="rgb(0,0,0)" text-anchor="middle">50</text>
  <text x="445" y="368.6" font-family="serif" font-size="9" fill="rgb(0,0,0)" text-anchor="middle">60</text>
  <text x="525" y="368.6" font-family="serif" font-size="9" fill="rgb(0,0,0)" text-anchor="middle">70</text>
  <text x="605" y="368.6" font-family="serif" font-size="9" fill="rgb(0,0,0)" text-anchor="middle">80</text>
  <text x="685" y="368.6" font-family="serif" font-size="9" fill="rgb(0,0,0)" text-anchor="middle">90</text>
  <text x="41.4" y="356" font-family="serif" font-size="9" fill="rgb(0,0,0)" text-anchor="end">0</text>
  <text x="41.4" y="302" font-family="serif" font-size="9" fill="rgb(0,0,0)" text-anchor="end">10</text>
  <text x="41.4" y="248" font-family="serif" font-size="9" fill="rgb(0,0,0)" text-anchor="end">20</text>
  <text x="41.4" y="194" font-family="serif" font-size="9" fill="rgb(0,0,0)" text-anchor="end">30</text>
  <text x="41.4" y="140" font-family="serif" font-size="9" fill="rgb(0,0,0)" text-anchor="end">40</text>
  <text x="41.4" y="86" font-family="serif" font-size="9" fill="rgb(0,0,0)" text-anchor="end">50</text>
  <text x="41.4" y="32" font-family="serif" font-size="9" fill="rgb(0,0,0)" text-anchor="end">60</text>
  <text x="365" y="387" font-family="serif" font-size="10" fill="rgb(0,0,0)" text-anchor="middle">Key Value</text>
  <text x="22.5" y="194" font-family="serif" font-size="10" fill="rgb(0,0,0)" text-anchor="middle" transform="rotate(-90,22.5,194)">Frequency</text>
  <text x="350" y="22" font-family="serif" font-size="12" fill="rgb(0,0,0)" font-weight="bold" text-anchor="middle">Bimodal Key Distribution</text>
</svg>
