<svg xmlns="http://www.w3.org/2000/svg" width="700" height="400" viewBox="0 0 700 400" role="img">
  <title>Prediction Error of Single Linear Model</title>
  <rect width="700" height="400" fill="white"/>
  <rect x="0" y="0" width="700" height="400" fill="rgb(255,255,255)"/>
  <path d="M45,194 L48.2,199.23827 L51.4,204.46199 L54.6,209.66963 L57.8,214.85956 L61,220.0299 L64.2,225.17867 L67.4,230.3036 L70.6,235.40225 L73.8,240.47194 L77,245.50966 L80.2,250.51215 L83.399994,255.47583 L86.6,260.39673 L89.8,265.27054 L93,270.0925 L96.2,274.85736 L99.4,279.55945 L102.600006,284.1925 L105.8,288.74973 L109,293.2236 L112.2,297.60608 L115.4,301.88824 L118.6,306.06052 L121.799995,310.11246 L125,314.03278 L128.2,317.8093 L131.4,321.42883 L134.6,324.8773 L137.79999,328.1395 L141,331.19937 L144.2,334.03967 L147.4,336.6423 L150.6,338.98807 L153.8,341.05698 L157,342.8282 L160.20001,344.28018 L163.4,345.39096 L166.6,346.13828 L169.79999,346.49976 L173,346.45343 L176.2,345.97803 L179.4,345.05328 L182.6,343.6607 L185.8,341.7838 L189,339.40897 L192.2,336.52588 L195.4,333.12827 L198.59999,329.21445 L201.8,324.7881 L205,319.85852 L208.2,314.44147 L211.4,308.55914 L214.59999,302.24054 L217.8,295.52155 L221,288.44455 L224.2,281.05817 L227.4,273.4166 L230.59999,265.57874 L233.79999,257.6073 L237,249.56749 L240.20001,241.52588 L243.4,233.54903 L246.6,225.70209 L249.79999,218.04765 L253,210.64455 L256.2,203.54677 L259.40002,196.80272 L262.6,190.45459 L265.8,184.53789 L269,179.0813 L272.2,174.1067 L275.40002,169.62929 L278.6,165.65796 L281.8,162.19572 L285,159.24033 L288.2,156.78476 L291.4,154.81792 L294.59998,153.32524 L297.8,152.28934 L301,151.69054 L304.2,151.50742 L307.4,151.71733 L310.6,152.29678 L313.8,153.22183 L317,154.46838 L320.2,156.01237 L323.4,157.83015 L326.6,159.8984 L329.8,162.1944 L333,164.69606 L336.2,167.38194 L339.4,170.23134 L342.6,173.22409 L345.8,176.3408 L349,179.56258 L352.19998,182.87106 L355.40002,186.24838 L358.6,189.67696 L361.8,193.13956 L365,196.61914 L368.2,200.09871 L371.4,203.56133 L374.59998,206.9899 L377.8,210.3672 L381,213.67569 L384.19998,216.89748 L387.40002,220.01418 L390.6,223.00694 L393.80002,225.85632 L397,228.54222 L400.2,231.04388 L403.4,233.33987 L406.6,235.40811 L409.8,237.22588 L413,238.7699 L416.19998,240.01642 L419.4,240.94148 L422.59998,241.52094 L425.80002,241.73085 L429,241.54773 L432.2,240.94893 L435.40002,239.91302 L438.6,238.42035 L441.8,236.4535 L445,233.99794 L448.2,231.04254 L451.4,227.5803 L454.59998,223.60898 L457.8,219.13156 L461,214.15697 L464.19998,208.7004 L467.40002,202.78368 L470.6,196.43555 L473.80002,189.69151 L477,182.59373 L480.2,175.19061 L483.4,167.53618 L486.6,159.68925 L489.8,151.71237 L493,143.67078 L496.19998,135.63098 L499.4,127.65953 L502.59998,119.821686 L505.80002,112.1801 L509,104.79372 L512.2,97.716705 L515.4,90.99771 L518.6,84.67914 L521.8,78.796814 L525,73.37973 L528.2,68.450195 L531.4,64.0238 L534.6,60.110016 L537.8,56.71237 L541,53.829315 L544.19995,51.454468 L547.4,49.577576 L550.6,48.184967 L553.80005,47.260254 L557,46.78482 L560.2,46.738525 L563.4,47.100006 L566.6,47.84729 L569.8,48.95807 L573,50.410065 L576.2,52.181274 L579.39996,54.250183 L582.6,56.595978 L585.80005,59.198578 L589,62.03891 L592.2,65.098755 L595.4,68.36096 L598.6,71.80942 L601.8,75.428955 L605,79.205475 L608.2,83.12579 L611.4,87.177734 L614.6,91.35004 L617.8,95.6322 L621,100.01465 L624.19995,104.488556 L627.4,109.045746 L630.60004,113.67882 L633.8,118.38092 L637,123.14578 L640.2,127.96773 L643.4,132.84154 L646.6,137.76244 L649.8,142.72612 L653,147.72862 L656.2,152.76634 L659.39996,157.836 L662.6,162.93466 L665.80005,168.05959 L669,173.20836 L672.2,178.37872 L675.4,183.56863 L678.6,188.77629 L681.8,194 L681.8,194 L678.6,194 L675.4,194 L672.2,194 L669,194 L665.80005,194 L662.6,194 L659.39996,194 L656.2,194 L653,194 L649.8,194 L646.6,194 L643.4,194 L640.2,194 L637,194 L633.8,194 L630.60004,194 L627.4,194 L624.19995,194 L621,194 L617.8,194 L614.6,194 L611.4,194 L608.2,194 L605,194 L601.8,194 L598.6,194 L595.4,194 L592.2,194 L589,194 L585.80005,194 L582.6,194 L579.39996,194 L576.2,194 L573,194 L569.8,194 L566.6,194 L563.4,194 L560.2,194 L557,194 L553.80005,194 L550.6,194 L547.4,194 L544.19995,194 L541,194 L537.8,194 L534.6,194 L531.4,194 L528.2,194 L525,194 L521.8,194 L518.6,194 L515.4,194 L512.2,194 L509,194 L505.80002,194 L502.59998,194 L499.4,194 L496.19998,194 L493,194 L489.8,194 L486.6,194 L483.4,194 L480.2,194 L477,194 L473.80002,194 L470.6,194 L467.40002,194 L464.19998,194 L461,194 L457.8,194 L454.59998,194 L451.4,194 L448.2,194 L445,194 L441.8,194 L438.6,194 L435.40002,194 L432.2,194 L429,194 L425.80002,194 L422.59998,194 L419.4,194 L416.19998,194 L413,194 L409.8,194 L406.6,194 L403.4,194 L400.2,194 L397,194 L393.80002,194 L390.6,194 L387.40002,194 L384.19998,194 L381,194 L377.8,194 L374.59998,194 L371.4,194 L368.2,194 L365,194 L361.8,194 L358.6,194 L355.40002,194 L352.19998,194 L349,194 L345.8,194 L342.6,194 L339.4,194 L336.2,194 L333,194 L329.8,194 L326.6,194 L323.4,194 L320.2,194 L317,194 L313.8,194 L310.6,194 L307.4,194 L304.2,194 L301,194 L297.8,194 L294.59998,194 L291.4,194 L288.2,194 L285,194 L281.8,194 L278.6,194 L275.40002,194 L272.2,194 L269,194 L265.8,194 L262.6,194 L259.40002,194 L256.2,194 L253,194 L249.79999,194 L246.6,194 L243.4,194 L240.20001,194 L237,194 L233.79999,194 L230.59999,194 L227.4,194 L224.2,194 L221,194 L217.8,194 L214.59999,194 L211.4,194 L208.2,194 L205,194 L201.8,194 L198.59999,194 L195.4,194 L192.2,194 L189,194 L185.8,194 L182.6,194 L179.4,194 L176.2,194 L173,194 L169.79999,194 L166.6,194 L163.4,194 L160.20001,194 L157,194 L153.8,194 L150.6,194 L147.4,194 L144.2,194 L141,194 L137.79999,194 L134.6,194 L131.4,194 L128.2,194 L125,194 L121.799995,194 L118.6,194 L115.4,194 L112.2,194 L109,194 L105.8,194 L102.600006,194 L99.4,194 L96.2,194 L93,194 L89.8,194 L86.6,194 L83.399994,194 L80.2,194 L77,194 L73.8,194 L70.6,194 L67.4,194 L64.2,194 L61,194 L57.8,194 L54.6,194 L51.4,194 L48.2,194 L45,194Z" fill="rgba(31,119,180,0.300)"/>
  <polyline points="45,194 48.2,199.23827 51.4,204.46199 54.6,209.66963 57.8,214.85956 61,220.0299 64.2,225.17867 67.4,230.3036 70.6,235.40225 73.8,240.47194 77,245.50966 80.2,250.51215 83.399994,255.47583 86.6,260.39673 89.8,265.27054 93,270.0925 96.2,274.85736 99.4,279.55945 102.600006,284.1925 105.8,288.74973 109,293.2236 112.2,297.60608 115.4,301.88824 118.6,306.06052 121.799995,310.11246 125,314.03278 128.2,317.8093 131.4,321.42883 134.6,324.8773 137.79999,328.1395 141,331.19937 144.2,334.03967 147.4,336.6423 150.6,338.98807 153.8,341.05698 157,342.8282 160.20001,344.28018 163.4,345.39096 166.6,346.13828 169.79999,346.49976 173,346.45343 176.2,345.97803 179.4,345.05328 182.6,343.6607 185.8,341.7838 189,339.40897 192.2,336.52588 195.4,333.12827 198.59999,329.21445 201.8,324.7881 205,319.85852 208.2,314.44147 211.4,308.55914 214.59999,302.24054 217.8,295.52155 221,288.44455 224.2,281.05817 227.4,273.4166 230.59999,265.57874 233.79999,257.6073 237,249.56749 240.20001,241.52588 243.4,233.54903 246.6,225.70209 249.79999,218.04765 253,210.64455 256.2,203.54677 259.40002,196.80272 262.6,190.45459 265.8,184.53789 269,179.0813 272.2,174.1067 275.40002,169.62929 278.6,165.65796 281.8,162.19572 285,159.24033 288.2,156.78476 291.4,154.81792 294.59998,153.32524 297.8,152.28934 301,151.69054 304.2,151.50742 307.4,151.71733 310.6,152.29678 313.8,153.22183 317,154.46838 320.2,156.01237 323.4,157.83015 326.6,159.8984 329.8,162.1944 333,164.69606 336.2,167.38194 339.4,170.23134 342.6,173.22409 345.8,176.3408 349,179.56258 352.19998,182.87106 355.40002,186.24838 358.6,189.67696 361.8,193.13956 365,196.61914 368.2,200.09871 371.4,203.56133 374.59998,206.9899 377.8,210.3672 381,213.67569 384.19998,216.89748 387.40002,220.01418 390.6,223.00694 393.80002,225.85632 397,228.54222 400.2,231.04388 403.4,233.33987 406.6,235.40811 409.8,237.22588 413,238.7699 416.19998,240.01642 419.4,240.94148 422.59998,241.52094 425.80002,241.73085 429,241.54773 432.2,240.94893 435.40002,239.91302 438.6,238.42035 441.8,236.4535 445,233.99794 448.2,231.04254 451.4,227.5803 454.59998,223.60898 457.8,219.13156 461,214.15697 464.19998,208.7004 467.40002,202.78368 470.6,196.43555 473.80002,189.69151 477,182.59373 480.2,175.19061 483.4,167.53618 486.6,159.68925 489.8,151.71237 493,143.67078 496.19998,135.63098 499.4,127.65953 502.59998,119.821686 505.80002,112.1801 509,104.79372 512.2,97.716705 515.4,90.99771 518.6,84.67914 521.8,78.796814 525,73.37973 528.2,68.450195 531.4,64.0238 534.6,60.110016 537.8,56.71237 541,53.829315 544.19995,51.454468 547.4,49.577576 550.6,48.184967 553.80005,47.260254 557,46.78482 560.2,46.738525 563.4,47.100006 566.6,47.84729 569.8,48.95807 573,50.410065 576.2,52.181274 579.39996,54.250183 582.6,56.595978 585.80005,59.198578 589,62.03891 592.2,65.098755 595.4,68.36096 598.6,71.80942 601.8,75.428955 605,79.205475 608.2,83.12579 611.4,87.177734 614.6,91.35004 617.8,95.6322 621,100.01465 624.19995,104.488556 627.4,109.045746 630.60004,113.67882 633.8,118.38092 637,123.14578 640.2,127.96773 643.4,132.84154 646.6,137.76244 649.8,142.72612 653,147.72862 656.2,152.76634 659.39996,157.836 662.6,162.93466 665.80005,168.05959 669,173.20836 672.2,178.37872 675.4,183.56863 678.6,188.77629 681.8,194" fill="none" stroke="rgb(31,119,180)" stroke-width="1.5"/>
  <line x1="45" y1="194" x2="685" y2="194" stroke="rgb(188,188,188)" stroke-width="1" stroke-dasharray="4,4"/>
  <line x1="45" y1="32" x2="45" y2="356" stroke="rgb(0,0,0)" stroke-width="1"/>
  <line x1="45" y1="356" x2="685" y2="356" stroke="rgb(0,0,0)" stroke-width="1"/>
  <text x="45" y="368.6" font-family="serif" font-size="9" fill="rgb(0,0,0)" text-anchor="middle">0</text>
  <text x="109" y="368.6" font-family="serif" font-size="9" fill="rgb(0,0,0)" text-anchor="middle">20</text>
  <text x="173" y="368.6" font-family="serif" font-size="9" fill="rgb(0,0,0)" text-anchor="middle">40</text>
  <text x="237" y="368.6" font-family="serif" font-size="9" fill="rgb(0,0,0)" text-anchor="middle">60</text>
  <text x="301" y="368.6" font-family="serif" font-size="9" fill="rgb(0,0,0)" text-anchor="middle">80</text>
  <text x="365" y="368.6" font-family="serif" font-size="9" fill="rgb(0,0,0)" text-anchor="middle">100</text>
  <text x="429" y="368.6" font-family="serif" font-size="9" fill="rgb(0,0,0)" text-anchor="middle">120</text>
  <text x="493" y="368.6" font-family="serif" font-size="9" fill="rgb(0,0,0)" text-anchor="middle">140</text>
  <text x="557" y="368.6" font-family="serif" font-size="9" fill="rgb(0,0,0)" text-anchor="middle">160</text>
  <text x="621" y="368.6" font-family="serif" font-size="9" fill="rgb(0,0,0)" text-anchor="middle">180</text>
  <text x="685" y="368.6" font-family="serif" font-size="9" fill="rgb(0,0,0)" text-anchor="middle">200</text>
  <text x="41.4" y="332.85715" font-family="serif" font-size="9" fill="rgb(0,0,0)" text-anchor="end">-6</text>
  <text x="41.4" y="286.5714" font-family="serif" font-size="9" fill="rgb(0,0,0)" text-anchor="end">-4</text>
  <text x="41.4" y="240.2857" font-family="serif" font-size="9" fill="rgb(0,0,0)" text-anchor="end">-2</text>
  <text x="41.4" y="194" font-family="serif" font-size="9" fill="rgb(0,0,0)" text-anchor="end">0</text>
  <text x="41.4" y="147.7143" font-family="serif" font-size="9" fill="rgb(0,0,0)" text-anchor="end">2</text>
  <text x="41.4" y="101.42857" font-family="serif" font-size="9" fill="rgb(0,0,0)" text-anchor="end">4</text>
  <text x="41.4" y="55.142853" font-family="serif" font-size="9" fill="rgb(0,0,0)" text-anchor="end">6</text>
  <text x="365" y="387" font-family="serif" font-size="10" fill="rgb(0,0,0)" text-anchor="middle">Key</text>
  <text x="22.5" y="194" font-family="serif" font-size="10" fill="rgb(0,0,0)" text-anchor="middle" transform="rotate(-90,22.5,194)">Error (positions)</text>
  <text x="350" y="22" font-family="serif" font-size="12" fill="rgb(0,0,0)" font-weight="bold" text-anchor="middle">Prediction Error of Single Linear Model</text>
</svg>
