<svg xmlns="http://www.w3.org/2000/svg" width="700" height="400" viewBox="0 0 700 400" role="img">
  <title>Single Linear Model vs Actual CDF</title>
  <rect width="700" height="400" fill="white"/>
  <rect x="0" y="0" width="700" height="400" fill="rgb(255,255,255)"/>
  <polyline points="103.441666,329 105.77875,327.9488 108.11583,326.89673 110.45291,325.84372 112.78999,324.78967 115.127075,323.7345 117.464165,322.67804 119.80125,321.62024 122.138336,320.56085 124.47542,319.49982 126.8125,318.4369 129.14958,317.37192 131.48666,316.3047 133.82375,315.23495 136.16083,314.16248 138.49791,313.08698 140.83499,312.00815 143.17207,310.92566 145.50916,309.8391 147.84624,308.74817 150.18333,307.65237 152.52042,306.5512 154.8575,305.44424 157.19458,304.33084 159.53166,303.21042 161.86874,302.0823 164.20583,300.94583 166.54291,299.80017 168.87999,298.64456 171.21707,297.4781 173.55415,296.29977 175.89125,295.10867 178.22833,293.90372 180.56541,292.68378 182.9025,291.44766 185.23958,290.1942 187.57666,288.92212 189.91374,287.63013 192.25082,286.31696 194.5879,284.98126 196.92499,283.62177 199.26207,282.23724 201.59915,280.8265 203.93623,279.3885 206.27333,277.92224 208.61041,276.4269 210.9475,274.90195 213.28458,273.347 215.62166,271.7619 217.95874,270.14688 220.2958,268.50256 222.63289,266.82977 224.96999,265.12985 227.30707,263.40448 229.64415,261.65576 231.98123,259.88614 234.31831,258.09848 236.6554,256.29596 238.99248,254.48196 241.32957,252.66017 243.66666,250.83441 246.00374,249.00851 248.34082,247.18643 250.6779,245.37189 253.01498,243.5686 255.35207,241.77998 257.68915,240.00916 260.02625,238.25897 262.36334,236.53188 264.7004,234.82996 267.0375,233.15488 269.37457,231.5079 271.71164,229.88992 274.04874,228.30148 276.38583,226.74275 278.7229,225.21356 281.06,223.71353 283.39706,222.24202 285.73416,220.79817 288.07123,219.38095 290.40833,217.98924 292.7454,216.62177 295.0825,215.27722 297.4196,213.95425 299.75665,212.65143 302.09375,211.36736 304.43082,210.10063 306.7679,208.84988 309.10498,207.61375 311.44208,206.3909 313.77917,205.18005 316.11624,203.97995 318.45334,202.78937 320.7904,201.60718 323.1275,200.43219 325.46457,199.26334 327.80167,198.09956 330.13876,196.93979 332.47583,195.783 334.81293,194.6282 337.15,193.47438 339.48706,192.32057 341.82416,191.16579 344.16122,190.009 346.49832,188.84923 348.8354,187.68542 351.1725,186.5166 353.50955,185.34163 355.84668,184.15941 358.18375,182.96884 360.52084,181.76872 362.8579,180.55788 365.195,179.33502 367.53207,178.09889 369.86917,176.84814 372.20624,175.58142 374.54333,174.29736 376.8804,172.99454 379.2175,171.67155 381.55457,170.32703 383.89163,168.95955 386.22873,167.56784 388.5658,166.15063 390.90292,164.70676 393.24,163.23524 395.5771,161.73521 397.91415,160.20604 400.25125,158.6473 402.58832,157.05885 404.9254,155.44089 407.26248,153.79391 409.59958,152.11884 411.93665,150.41692 414.27374,148.6898 416.6108,146.93964 418.9479,145.16881 421.28497,143.38017 423.62207,141.57689 425.95917,139.76236 428.29626,137.94026 430.63333,136.11438 432.97043,134.28862 435.3075,132.46683 437.64456,130.65283 439.98166,128.85028 442.31873,127.06264 444.65582,125.29303 446.9929,123.5443 449.33,121.81894 451.66705,120.119 454.00415,118.44623 456.34122,116.801895 458.6783,115.186905 461.0154,113.60182 463.3525,112.046844 465.68958,110.52188 468.02667,109.02655 470.36374,107.56029 472.70084,106.12225 475.0379,104.71155 477.375,103.32701 479.71207,101.96753 482.04913,100.63185 484.38623,99.318665 486.7233,98.02664 489.0604,96.75458 491.39746,95.50113 493.73456,94.265015 496.07166,93.045074 498.40875,91.84009 500.74582,90.64899 503.08292,89.4707 505.41998,88.30423 507.75708,87.14859 510.09415,86.00296 512.4312,84.866486 514.7683,83.73837 517.1054,82.61795 519.44244,81.50455 521.77954,80.39755 524.11664,79.29642 526.4537,78.20059 528.7908,77.10965 531.12787,76.02316 533.46497,74.94064 535.80206,73.86182 538.13916,72.786285 540.4762,71.71384 542.8133,70.644104 545.1504,69.57684 547.4875,68.5119 549.8245,67.448975 552.1616,66.38791 554.4987,65.32855 556.8358,64.27072 559.17285,63.214294 561.50995,62.15912 563.84705,61.105072 566.18414,60.052063 568.52124,59" fill="none" stroke="rgb(31,119,180)" stroke-width="1.5"/>
  <polyline points="103.441666,329 105.77875,327.64322 108.11583,326.28644 110.45291,324.92966 112.78999,323.57288 115.127075,322.21606 117.464165,320.8593 119.80125,319.5025 122.138336,318.14572 124.47542,316.78894 126.8125,315.43216 129.14958,314.07538 131.48666,312.7186 133.82375,311.36182 136.16083,310.00504 138.49791,308.64825 140.83499,307.29144 143.17207,305.93466 145.50916,304.57788 147.84624,303.2211 150.18333,301.86432 152.52042,300.50754 154.8575,299.15076 157.19458,297.79398 159.53166,296.4372 161.86874,295.0804 164.20583,293.72363 166.54291,292.36682 168.87999,291.01007 171.21707,289.65326 173.55415,288.29648 175.89125,286.9397 178.22833,285.58292 180.56541,284.22614 182.9025,282.86935 185.23958,281.51257 187.57666,280.15576 189.91374,278.799 192.25082,277.4422 194.5879,276.08542 196.92499,274.72864 199.26207,273.37186 201.59915,272.01508 203.93623,270.6583 206.27333,269.3015 208.61041,267.94473 210.9475,266.58795 213.28458,265.23117 215.62166,263.8744 217.95874,262.51758 220.2958,261.1608 222.63289,259.80402 224.96999,258.44724 227.30707,257.09045 229.64415,255.73367 231.98123,254.37689 234.31831,253.0201 236.6554,251.66333 238.99248,250.30653 241.32957,248.94974 243.66666,247.59297 246.00374,246.23618 248.34082,244.8794 250.6779,243.52261 253.01498,242.16583 255.35207,240.80905 257.68915,239.45226 260.02625,238.09549 262.36334,236.7387 264.7004,235.3819 267.0375,234.02513 269.37457,232.66833 271.71164,231.31155 274.04874,229.95477 276.38583,228.59799 278.7229,227.24121 281.06,225.88441 283.39706,224.52765 285.73416,223.17085 288.07123,221.81407 290.40833,220.45729 292.7454,219.10051 295.0825,217.74371 297.4196,216.38693 299.75665,215.03015 302.09375,213.67337 304.43082,212.31657 306.7679,210.95981 309.10498,209.60301 311.44208,208.24623 313.77917,206.88945 316.11624,205.53267 318.45334,204.17587 320.7904,202.8191 323.1275,201.46231 325.46457,200.10553 327.80167,198.74873 330.13876,197.39197 332.47583,196.03517 334.81293,194.67839 337.15,193.32161 339.48706,191.96481 341.82416,190.60803 344.16122,189.25127 346.49832,187.89447 348.8354,186.53769 351.1725,185.18091 353.50955,183.82411 355.84668,182.46733 358.18375,181.11057 360.52084,179.75377 362.8579,178.39699 365.195,177.0402 367.53207,175.68341 369.86917,174.32663 372.20624,172.96986 374.54333,171.61307 376.8804,170.25629 379.2175,168.8995 381.55457,167.54271 383.89163,166.18593 386.22873,164.82916 388.5658,163.47235 390.90292,162.11559 393.24,160.75879 395.5771,159.40201 397.91415,158.04523 400.25125,156.68843 402.58832,155.33165 404.9254,153.97488 407.26248,152.61809 409.59958,151.2613 411.93665,149.90453 414.27374,148.54773 416.6108,147.19095 418.9479,145.83418 421.28497,144.47739 423.62207,143.1206 425.95917,141.76382 428.29626,140.40703 430.63333,139.05025 432.97043,137.69348 435.3075,136.33669 437.64456,134.9799 439.98166,133.62311 442.31873,132.26633 444.65582,130.90955 446.9929,129.55275 449.33,128.19598 451.66705,126.8392 454.00415,125.48241 456.34122,124.125626 458.6783,122.768845 461.0154,121.41205 463.3525,120.05528 465.68958,118.6985 468.02667,117.341705 470.36374,115.984924 472.70084,114.62814 475.0379,113.27135 477.375,111.91458 479.71207,110.5578 482.04913,109.201004 484.38623,107.84422 486.7233,106.48744 489.0604,105.130646 491.39746,103.77388 493.73456,102.41708 496.07166,101.0603 498.40875,99.70352 500.74582,98.34671 503.08292,96.98996 505.41998,95.63318 507.75708,94.27637 510.09415,92.919586 512.4312,91.562805 514.7683,90.206024 517.1054,88.84924 519.44244,87.49246 521.77954,86.13568 524.11664,84.7789 526.4537,83.42212 528.7908,82.06531 531.12787,80.70856 533.46497,79.351776 535.80206,77.994965 538.13916,76.63818 540.4762,75.2814 542.8133,73.92462 545.1504,72.56784 547.4875,71.21106 549.8245,69.85428 552.1616,68.4975 554.4987,67.140686 556.8358,65.783905 559.17285,64.427155 561.50995,63.070343 563.84705,61.713562 566.18414,60.35678 568.52124,59" fill="none" stroke="rgb(255,127,14)" stroke-width="1.5"/>
  <line x1="56.7" y1="32" x2="56.7" y2="356" stroke="rgb(0,0,0)" stroke-width="1"/>
  <line x1="56.7" y1="356" x2="617.6" y2="356" stroke="rgb(0,0,0)" stroke-width="1"/>
  <text x="103.441666" y="368.6" font-family="serif" font-size="9" fill="rgb(0,0,0)" text-anchor="middle">0</text>
  <text x="220.2958" y="368.6" font-family="serif" font-size="9" fill="rgb(0,0,0)" text-anchor="middle">50</text>
  <text x="337.15" y="368.6" font-family="serif" font-size="9" fill="rgb(0,0,0)" text-anchor="middle">100</text>
  <text x="454.00415" y="368.6" font-family="serif" font-size="9" fill="rgb(0,0,0)" text-anchor="middle">150</text>
  <text x="570.85834" y="368.6" font-family="serif" font-size="9" fill="rgb(0,0,0)" text-anchor="middle">200</text>
  <text x="53.100002" y="329" font-family="serif" font-size="9" fill="rgb(0,0,0)" text-anchor="end">0</text>
  <text x="53.100002" y="275" font-family="serif" font-size="9" fill="rgb(0,0,0)" text-anchor="end">0.20</text>
  <text x="53.100002" y="221" font-family="serif" font-size="9" fill="rgb(0,0,0)" text-anchor="end">0.40</text>
  <text x="53.100002" y="167" font-family="serif" font-size="9" fill="rgb(0,0,0)" text-anchor="end">0.60</text>
  <text x="53.100002" y="113" font-family="serif" font-size="9" fill="rgb(0,0,0)" text-anchor="end">0.80</text>
  <text x="53.100002" y="59" font-family="serif" font-size="9" fill="rgb(0,0,0)" text-anchor="end">1</text>
  <text x="337.15" y="387" font-family="serif" font-size="10" fill="rgb(0,0,0)" text-anchor="middle">Key</text>
  <text x="34.2" y="194" font-family="serif" font-size="10" fill="rgb(0,0,0)" text-anchor="middle" transform="rotate(-90,34.2,194)">Position (normalized)</text>
  <rect x="632.6" y="37" width="12" height="12" fill="rgb(31,119,180)" rx="2"/>
  <text x="649.6" y="47.2" font-family="serif" font-size="9" fill="rgb(0,0,0)">Actual CDF</text>
  <rect x="632.6" y="50.5" width="12" height="12" fill="rgb(255,127,14)" rx="2"/>
  <text x="649.6" y="60.7" font-family="serif" font-size="9" fill="rgb(0,0,0)">Linear Model</text>
  <text x="350" y="22" font-family="serif" font-size="12" fill="rgb(0,0,0)" font-weight="bold" text-anchor="middle">Single Linear Model vs Actual CDF</text>
</svg>
