<svg xmlns="http://www.w3.org/2000/svg" width="700" height="400" viewBox="0 0 700 400" role="img">
  <title>Lookup Cost: Comparisons per Query (1M keys)</title>
  <rect width="700" height="400" fill="white"/>
  <rect x="0" y="0" width="700" height="400" fill="rgb(255,255,255)"/>
  <rect x="61" y="32" width="128" height="339" fill="rgb(31,119,180)"/>
  <rect x="221" y="354.05" width="128" height="16.950012" fill="rgb(255,127,14)"/>
  <rect x="381" y="32" width="128" height="339" fill="rgb(44,160,44)"/>
  <rect x="541" y="320.15" width="128" height="50.850006" fill="rgb(214,39,40)"/>
  <line x1="45" y1="32" x2="45" y2="371" stroke="rgb(0,0,0)" stroke-width="1"/>
  <line x1="45" y1="371" x2="685" y2="371" stroke="rgb(0,0,0)" stroke-width="1"/>
  <text x="125" y="383.6" font-family="serif" font-size="9" fill="rgb(0,0,0)" text-anchor="middle">B-Tree</text>
  <text x="285" y="383.6" font-family="serif" font-size="9" fill="rgb(0,0,0)" text-anchor="middle">Hash Map</text>
  <text x="445" y="383.6" font-family="serif" font-size="9" fill="rgb(0,0,0)" text-anchor="middle">Binary Search</text>
  <text x="605" y="383.6" font-family="serif" font-size="9" fill="rgb(0,0,0)" text-anchor="middle">Learned (PGM)</text>
  <text x="41.4" y="371" font-family="serif" font-size="9" fill="rgb(0,0,0)" text-anchor="end">0</text>
  <text x="41.4" y="337.1" font-family="serif" font-size="9" fill="rgb(0,0,0)" text-anchor="end">2</text>
  <text x="41.4" y="303.2" font-family="serif" font-size="9" fill="rgb(0,0,0)" text-anchor="end">4</text>
  <text x="41.4" y="269.3" font-family="serif" font-size="9" fill="rgb(0,0,0)" text-anchor="end">6</text>
  <text x="41.4" y="235.4" font-family="serif" font-size="9" fill="rgb(0,0,0)" text-anchor="end">8</text>
  <text x="41.4" y="201.5" font-family="serif" font-size="9" fill="rgb(0,0,0)" text-anchor="end">10</text>
  <text x="41.4" y="167.59999" font-family="serif" font-size="9" fill="rgb(0,0,0)" text-anchor="end">12</text>
  <text x="41.4" y="133.7" font-family="serif" font-size="9" fill="rgb(0,0,0)" text-anchor="end">14</text>
  <text x="41.4" y="99.79999" font-family="serif" font-size="9" fill="rgb(0,0,0)" text-anchor="end">16</text>
  <text x="41.4" y="65.899994" font-family="serif" font-size="9" fill="rgb(0,0,0)" text-anchor="end">18</text>
  <text x="41.4" y="32" font-family="serif" font-size="9" fill="rgb(0,0,0)" text-anchor="end">20</text>
  <text x="22.5" y="201.5" font-family="serif" font-size="10" fill="rgb(0,0,0)" text-anchor="middle" transform="rotate(-90,22.5,201.5)">Avg. Comparisons / Memory Accesses</text>
  <text x="350" y="22" font-family="serif" font-size="12" fill="rgb(0,0,0)" font-weight="bold" text-anchor="middle">Lookup Cost: Comparisons per Query (1M keys)</text>
</svg>
