<svg xmlns="http://www.w3.org/2000/svg" width="700" height="400" viewBox="0 0 700 400" role="img">
  <title>Memory Overhead per Key (64-bit integers)</title>
  <rect width="700" height="400" fill="white"/>
  <rect x="0" y="0" width="700" height="400" fill="rgb(255,255,255)"/>
  <rect x="61" y="133.7" width="128" height="237.3" fill="rgb(31,119,180)"/>
  <rect x="221" y="65.899994" width="128" height="305.1" fill="rgb(255,127,14)"/>
  <rect x="381" y="337.1" width="128" height="33.899994" fill="rgb(44,160,44)"/>
  <rect x="541" y="336.2525" width="128" height="34.747498" fill="rgb(214,39,40)"/>
  <line x1="45" y1="32" x2="45" y2="371" stroke="rgb(0,0,0)" stroke-width="1"/>
  <line x1="45" y1="371" x2="685" y2="371" stroke="rgb(0,0,0)" stroke-width="1"/>
  <text x="125" y="383.6" font-family="serif" font-size="9" fill="rgb(0,0,0)" text-anchor="middle">B-Tree</text>
  <text x="285" y="383.6" font-family="serif" font-size="9" fill="rgb(0,0,0)" text-anchor="middle">Hash Map</text>
  <text x="445" y="383.6" font-family="serif" font-size="9" fill="rgb(0,0,0)" text-anchor="middle">Sorted Array</text>
  <text x="605" y="383.6" font-family="serif" font-size="9" fill="rgb(0,0,0)" text-anchor="middle">PGM-Index</text>
  <text x="41.4" y="371" font-family="serif" font-size="9" fill="rgb(0,0,0)" text-anchor="end">0</text>
  <text x="41.4" y="328.625" font-family="serif" font-size="9" fill="rgb(0,0,0)" text-anchor="end">10</text>
  <text x="41.4" y="286.25" font-family="serif" font-size="9" fill="rgb(0,0,0)" text-anchor="end">20</text>
  <text x="41.4" y="243.875" font-family="serif" font-size="9" fill="rgb(0,0,0)" text-anchor="end">30</text>
  <text x="41.4" y="201.5" font-family="serif" font-size="9" fill="rgb(0,0,0)" text-anchor="end">40</text>
  <text x="41.4" y="159.125" font-family="serif" font-size="9" fill="rgb(0,0,0)" text-anchor="end">50</text>
  <text x="41.4" y="116.75" font-family="serif" font-size="9" fill="rgb(0,0,0)" text-anchor="end">60</text>
  <text x="41.4" y="74.375" font-family="serif" font-size="9" fill="rgb(0,0,0)" text-anchor="end">70</text>
  <text x="41.4" y="32" font-family="serif" font-size="9" fill="rgb(0,0,0)" text-anchor="end">80</text>
  <text x="22.5" y="201.5" font-family="serif" font-size="10" fill="rgb(0,0,0)" text-anchor="middle" transform="rotate(-90,22.5,201.5)">Bytes per Key</text>
  <text x="350" y="22" font-family="serif" font-size="12" fill="rgb(0,0,0)" font-weight="bold" text-anchor="middle">Memory Overhead per Key (64-bit integers)</text>
</svg>
