<svg xmlns="http://www.w3.org/2000/svg" width="700" height="400" viewBox="0 0 700 400" role="img">
  <title>Piecewise Linear Approximation (PGM-Index)</title>
  <rect width="700" height="400" fill="white"/>
  <rect x="0" y="0" width="700" height="400" fill="rgb(255,255,255)"/>
  <polyline points="97.55417,329 99.59688,327.9488 101.63959,326.89673 103.68229,325.84372 105.725,324.78967 107.7677,323.7345 109.81041,322.67804 111.85312,321.62024 113.89583,320.56085 115.93854,319.49982 117.98125,318.4369 120.02396,317.37192 122.066666,316.3047 124.109375,315.23495 126.152084,314.16248 128.19478,313.08698 130.2375,312.00815 132.28021,310.92566 134.3229,309.8391 136.36562,308.74817 138.40833,307.65237 140.45103,306.5512 142.49374,305.44424 144.53645,304.33084 146.57916,303.21042 148.62187,302.0823 150.66458,300.94583 152.70729,299.80017 154.75,298.64456 156.79271,297.4781 158.8354,296.29977 160.87813,295.10867 162.92082,293.90372 164.96353,292.68378 167.00624,291.44766 169.04895,290.1942 171.09166,288.92212 173.13437,287.63013 175.17708,286.31696 177.21979,284.98126 179.2625,283.62177 181.3052,282.23724 183.3479,280.8265 185.39061,279.3885 187.43333,277.92224 189.47603,276.4269 191.51874,274.90195 193.56145,273.347 195.60416,271.7619 197.64687,270.14688 199.68956,268.50256 201.73227,266.82977 203.775,265.12985 205.8177,263.40448 207.86041,261.65576 209.9031,259.88614 211.94582,258.09848 213.98853,256.29596 216.03123,254.48196 218.07396,252.66017 220.11665,250.83441 222.15936,249.00851 224.20207,247.18643 226.24478,245.37189 228.28749,243.5686 230.33018,241.77998 232.3729,240.00916 234.41562,238.25897 236.45833,236.53188 238.50102,234.82996 240.54373,233.15488 242.58644,231.5079 244.62915,229.88992 246.67186,228.30148 248.71457,226.74275 250.75728,225.21356 252.79999,223.71353 254.8427,222.24202 256.8854,220.79817 258.9281,219.38095 260.97083,217.98924 263.01352,216.62177 265.05624,215.27722 267.09897,213.95425 269.14166,212.65143 271.18436,211.36736 273.22708,210.10063 275.26978,208.84988 277.3125,207.61375 279.3552,206.3909 281.39792,205.18005 283.4406,203.97995 285.48334,202.78937 287.52603,201.60718 289.56873,200.43219 291.61145,199.26334 293.65414,198.09956 295.69687,196.93979 297.73956,195.783 299.7823,194.6282 301.82498,193.47438 303.8677,192.32057 305.9104,191.16579 307.9531,190.009 309.99582,188.84923 312.0385,187.68542 314.08124,186.5166 316.12393,185.34163 318.1667,184.15941 320.20938,182.96884 322.25208,181.76872 324.2948,180.55788 326.3375,179.33502 328.38022,178.09889 330.4229,176.84814 332.4656,175.58142 334.50833,174.29736 336.55103,172.99454 338.59375,171.67155 340.63644,170.32703 342.67914,168.95955 344.72186,167.56784 346.76456,166.15063 348.8073,164.70676 350.85,163.23524 352.8927,161.73521 354.93542,160.20604 356.97812,158.6473 359.02084,157.05885 361.06354,155.44089 363.10623,153.79391 365.14896,152.11884 367.19165,150.41692 369.23438,148.6898 371.27707,146.93964 373.31976,145.16881 375.3625,143.38017 377.40518,141.57689 379.44794,139.76236 381.49063,137.94026 383.53333,136.11438 385.57605,134.28862 387.61874,132.46683 389.66147,130.65283 391.70416,128.85028 393.74686,127.06264 395.78958,125.29303 397.83228,123.5443 399.875,121.81894 401.9177,120.119 403.9604,118.44623 406.0031,116.801895 408.0458,115.186905 410.08853,113.60182 412.13126,112.046844 414.17395,110.52188 416.21667,109.02655 418.25937,107.56029 420.30206,106.12225 422.3448,104.71155 424.38748,103.32701 426.4302,101.96753 428.4729,100.63185 430.5156,99.318665 432.55832,98.02664 434.601,96.75458 436.64374,95.50113 438.68643,94.265015 440.72916,93.045074 442.77188,91.84009 444.81458,90.64899 446.8573,89.4707 448.9,88.30423 450.9427,87.14859 452.9854,86.00296 455.0281,84.866486 457.07083,83.73837 459.11353,82.61795 461.15622,81.50455 463.19894,80.39755 465.24164,79.29642 467.28436,78.20059 469.32706,77.10965 471.36978,76.02316 473.4125,74.94064 475.4552,73.86182 477.49792,72.786285 479.54062,71.71384 481.5833,70.644104 483.62604,69.57684 485.66873,68.5119 487.71146,67.448975 489.75415,66.38791 491.79684,65.32855 493.83957,64.27072 495.88226,63.214294 497.925,62.15912 499.96768,61.105072 502.0104,60.052063 504.05313,59" fill="none" stroke="rgb(31,119,180)" stroke-width="1.5"/>
  <polyline points="97.55417,329 99.59688,327.92545 101.63959,326.85086 103.68229,325.7763 105.725,324.70172 107.7677,323.62717 109.81041,322.5526 111.85312,321.47803 113.89583,320.40347 115.93854,319.32892 117.98125,318.25433 120.02396,317.17978 122.066666,316.1052 124.109375,315.03064 126.152084,313.9561 128.19478,312.8815 130.2375,311.80695 132.28021,310.7324 134.3229,309.6578 136.36562,308.58325 138.40833,307.50867 140.45103,306.4341 142.49374,305.35956 144.53645,304.28497 146.57916,303.21042 148.62187,302.0823 150.66458,300.75168 152.70729,299.42102 154.75,298.0904 156.79271,296.75974 158.8354,295.4291 160.87813,294.09845 162.92082,292.76782 164.96353,291.43716 167.00624,290.10654 169.04895,288.77588 171.09166,287.44525 173.13437,286.1146 175.17708,284.78397 177.21979,283.4533 179.2625,282.12268 181.3052,280.79202 183.3479,279.4614 185.39061,278.13074 187.43333,276.8001 189.47603,275.46945 191.51874,274.13882 193.56145,272.80817 195.60416,271.47754 197.64687,270.14688 199.68956,268.50256 201.73227,266.76257 203.775,265.02258 205.8177,263.2826 207.86041,261.5426 209.9031,259.80258 211.94582,258.0626 213.98853,256.3226 216.03123,254.58261 218.07396,252.84262 220.11665,251.10263 222.15936,249.36264 224.20207,247.62265 226.24478,245.88266 228.28749,244.14267 230.33018,242.40268 232.3729,240.66269 234.41562,238.92268 236.45833,237.1827 238.50102,235.4427 240.54373,233.7027 242.58644,231.9627 244.62915,230.22272 246.67186,228.48273 248.71457,226.74275 250.75728,225.21356 252.79999,223.93916 254.8427,222.66478 256.8854,221.3904 258.9281,220.116 260.97083,218.84161 263.01352,217.56721 265.05624,216.29283 267.09897,215.01843 269.14166,213.74405 271.18436,212.46965 273.22708,211.19527 275.26978,209.92088 277.3125,208.64648 279.3552,207.3721 281.39792,206.09772 283.4406,204.82332 285.48334,203.54892 287.52603,202.27454 289.56873,201.00015 291.61145,199.72575 293.65414,198.45137 295.69687,197.17699 297.73956,195.90259 299.7823,194.6282 301.82498,193.47438 303.8677,192.21442 305.9104,190.95445 307.9531,189.6945 309.99582,188.43454 312.0385,187.17458 314.08124,185.91461 316.12393,184.65465 318.1667,183.39467 320.20938,182.1347 322.25208,180.87474 324.2948,179.61478 326.3375,178.35483 328.38022,177.09486 330.4229,175.8349 332.4656,174.57492 334.50833,173.31496 336.55103,172.055 338.59375,170.79503 340.63644,169.53506 342.67914,168.27512 344.72186,167.01515 346.76456,165.75519 348.8073,164.49521 350.85,163.23524 352.8927,161.73521 354.93542,160.00122 356.97812,158.2672 359.02084,156.5332 361.06354,154.7992 363.10623,153.06517 365.14896,151.33118 367.19165,149.59717 369.23438,147.86314 371.27707,146.12915 373.31976,144.39513 375.3625,142.66112 377.40518,140.92712 379.44794,139.1931 381.49063,137.4591 383.53333,135.7251 385.57605,133.99107 387.61874,132.25708 389.66147,130.52306 391.70416,128.78905 393.74686,127.05505 395.78958,125.32103 397.83228,123.58702 399.875,121.85303 401.9177,120.119 403.9604,118.44623 406.0031,117.09444 408.0458,115.742615 410.08853,114.39082 412.13126,113.03902 414.17395,111.68721 416.21667,110.33542 418.25937,108.98361 420.30206,107.631805 422.3448,106.28 424.38748,104.92821 426.4302,103.576385 428.4729,102.224594 430.5156,100.87279 432.55832,99.520996 434.601,98.16919 436.64374,96.81738 438.68643,95.465576 440.72916,94.11377 442.77188,92.76196 444.81458,91.41016 446.8573,90.05835 448.9,88.70657 450.9427,87.35477 452.9854,86.00296 455.0281,84.866486 457.07083,83.7887 459.11353,82.71091 461.15622,81.63315 463.19894,80.55539 465.24164,79.47763 467.28436,78.39984 469.32706,77.32208 471.36978,76.24429 473.4125,75.166534 475.4552,74.088776 477.49792,73.01102 479.54062,71.93323 481.5833,70.85547 483.62604,69.77771 485.66873,68.69992 487.71146,67.62216 489.75415,66.54437 491.79684,65.46661 493.83957,64.388855 495.88226,63.311096 497.925,62.233307 499.96768,61.155518 502.0104,60.07776 504.05313,59" fill="none" stroke="rgb(255,127,14)" stroke-width="1.5"/>
  <line x1="56.7" y1="32" x2="56.7" y2="356" stroke="rgb(0,0,0)" stroke-width="1"/>
  <line x1="56.7" y1="356" x2="546.94995" y2="356" stroke="rgb(0,0,0)" stroke-width="1"/>
  <text x="97.55417" y="368.6" font-family="serif" font-size="9" fill="rgb(0,0,0)" text-anchor="middle">0</text>
  <text x="199.68956" y="368.6" font-family="serif" font-size="9" fill="rgb(0,0,0)" text-anchor="middle">50</text>
  <text x="301.82498" y="368.6" font-family="serif" font-size="9" fill="rgb(0,0,0)" text-anchor="middle">100</text>
  <text x="403.9604" y="368.6" font-family="serif" font-size="9" fill="rgb(0,0,0)" text-anchor="middle">150</text>
  <text x="506.09583" y="368.6" font-family="serif" font-size="9" fill="rgb(0,0,0)" text-anchor="middle">200</text>
  <text x="53.100002" y="329" font-family="serif" font-size="9" fill="rgb(0,0,0)" text-anchor="end">0</text>
  <text x="53.100002" y="275" font-family="serif" font-size="9" fill="rgb(0,0,0)" text-anchor="end">0.20</text>
  <text x="53.100002" y="221" font-family="serif" font-size="9" fill="rgb(0,0,0)" text-anchor="end">0.40</text>
  <text x="53.100002" y="167" font-family="serif" font-size="9" fill="rgb(0,0,0)" text-anchor="end">0.60</text>
  <text x="53.100002" y="113" font-family="serif" font-size="9" fill="rgb(0,0,0)" text-anchor="end">0.80</text>
  <text x="53.100002" y="59" font-family="serif" font-size="9" fill="rgb(0,0,0)" text-anchor="end">1</text>
  <text x="301.82498" y="387" font-family="serif" font-size="10" fill="rgb(0,0,0)" text-anchor="middle">Key</text>
  <text x="34.2" y="194" font-family="serif" font-size="10" fill="rgb(0,0,0)" text-anchor="middle" transform="rotate(-90,34.2,194)">Position (normalized)</text>
  <rect x="561.94995" y="37" width="12" height="12" fill="rgb(31,119,180)" rx="2"/>
  <text x="578.94995" y="47.2" font-family="serif" font-size="9" fill="rgb(0,0,0)">Actual CDF</text>
  <rect x="561.94995" y="50.5" width="12" height="12" fill="rgb(255,127,14)" rx="2"/>
  <text x="578.94995" y="60.7" font-family="serif" font-size="9" fill="rgb(0,0,0)">Piecewise Linear (8 segments)</text>
  <text x="350" y="22" font-family="serif" font-size="12" fill="rgb(0,0,0)" font-weight="bold" text-anchor="middle">Piecewise Linear Approximation (PGM-Index)</text>
</svg>
