<svg xmlns="http://www.w3.org/2000/svg" width="900" height="500" viewBox="0 0 900 500" role="img">
  <title>Pipeline Status Distribution</title>
  <rect width="900" height="500" fill="white"/>
  <rect x="0" y="0" width="900" height="500" fill="rgb(255,255,255)"/>
  <line x1="57.8" y1="454.1" x2="885" y2="454.1" stroke="rgb(241,241,241)" stroke-width="0.5"/>
  <line x1="57.8" y1="421.72308" x2="885" y2="421.72308" stroke="rgb(241,241,241)" stroke-width="0.5"/>
  <line x1="57.8" y1="389.34616" x2="885" y2="389.34616" stroke="rgb(241,241,241)" stroke-width="0.5"/>
  <line x1="57.8" y1="356.96924" x2="885" y2="356.96924" stroke="rgb(241,241,241)" stroke-width="0.5"/>
  <line x1="57.8" y1="324.59232" x2="885" y2="324.59232" stroke="rgb(241,241,241)" stroke-width="0.5"/>
  <line x1="57.8" y1="292.2154" x2="885" y2="292.2154" stroke="rgb(241,241,241)" stroke-width="0.5"/>
  <line x1="57.8" y1="259.83847" x2="885" y2="259.83847" stroke="rgb(241,241,241)" stroke-width="0.5"/>
  <line x1="57.8" y1="227.46152" x2="885" y2="227.46152" stroke="rgb(241,241,241)" stroke-width="0.5"/>
  <line x1="57.8" y1="195.08461" x2="885" y2="195.08461" stroke="rgb(241,241,241)" stroke-width="0.5"/>
  <line x1="57.8" y1="162.70769" x2="885" y2="162.70769" stroke="rgb(241,241,241)" stroke-width="0.5"/>
  <line x1="57.8" y1="130.33076" x2="885" y2="130.33076" stroke="rgb(241,241,241)" stroke-width="0.5"/>
  <line x1="57.8" y1="97.95384" x2="885" y2="97.95384" stroke="rgb(241,241,241)" stroke-width="0.5"/>
  <line x1="57.8" y1="65.57692" x2="885" y2="65.57692" stroke="rgb(241,241,241)" stroke-width="0.5"/>
  <line x1="57.8" y1="33.2" x2="885" y2="33.2" stroke="rgb(241,241,241)" stroke-width="0.5"/>
  <rect x="107.432" y="48.352406" width="66.176" height="405.7476" fill="rgb(31,119,180)"/>
  <rect x="190.15201" y="310.60547" width="66.176" height="143.49454" fill="rgb(255,127,14)"/>
  <rect x="272.872" y="452.35165" width="66.176" height="1.748352" fill="rgb(44,160,44)"/>
  <rect x="355.59198" y="453.2582" width="66.176" height="0.8417969" fill="rgb(214,39,40)"/>
  <rect x="438.31198" y="453.5172" width="66.176" height="0.5827942" fill="rgb(148,103,189)"/>
  <rect x="521.03204" y="453.77625" width="66.176" height="0.323761" fill="rgb(140,86,75)"/>
  <rect x="603.75195" y="454.03525" width="66.176" height="0.0647583" fill="rgb(227,119,194)"/>
  <rect x="686.472" y="454.03525" width="66.176" height="0.0647583" fill="rgb(127,127,127)"/>
  <rect x="769.19196" y="454.03525" width="66.176" height="0.0647583" fill="rgb(188,189,34)"/>
  <line x1="57.8" y1="33.2" x2="57.8" y2="454.1" stroke="rgb(0,0,0)" stroke-width="1"/>
  <line x1="57.8" y1="454.1" x2="885" y2="454.1" stroke="rgb(0,0,0)" stroke-width="1"/>
  <text x="140.52" y="467.96" font-family="sans-serif" font-size="9.9" fill="rgb(0,0,0)" text-anchor="middle">follow_up</text>
  <text x="223.24" y="467.96" font-family="sans-serif" font-size="9.9" fill="rgb(0,0,0)" text-anchor="middle">in_review</text>
  <text x="305.96002" y="467.96" font-family="sans-serif" font-size="9.9" fill="rgb(0,0,0)" text-anchor="middle">flagged</text>
  <text x="388.68" y="467.96" font-family="sans-serif" font-size="9.9" fill="rgb(0,0,0)" text-anchor="middle">dormant</text>
  <text x="471.4" y="467.96" font-family="sans-serif" font-size="9.9" fill="rgb(0,0,0)" text-anchor="middle">skipped</text>
  <text x="554.12006" y="467.96" font-family="sans-serif" font-size="9.9" fill="rgb(0,0,0)" text-anchor="middle">not_in_conf_city</text>
  <text x="636.83997" y="467.96" font-family="sans-serif" font-size="9.9" fill="rgb(0,0,0)" text-anchor="middle">no_response</text>
  <text x="719.56" y="467.96" font-family="sans-serif" font-size="9.9" fill="rgb(0,0,0)" text-anchor="middle">denied</text>
  <text x="802.27997" y="467.96" font-family="sans-serif" font-size="9.9" fill="rgb(0,0,0)" text-anchor="middle">ready</text>
  <text x="53.84" y="454.1" font-family="sans-serif" font-size="9.9" fill="rgb(0,0,0)" text-anchor="end">0</text>
  <text x="53.84" y="421.72308" font-family="sans-serif" font-size="9.9" fill="rgb(0,0,0)" text-anchor="end">500</text>
  <text x="53.84" y="389.34616" font-family="sans-serif" font-size="9.9" fill="rgb(0,0,0)" text-anchor="end">1000</text>
  <text x="53.84" y="356.96924" font-family="sans-serif" font-size="9.9" fill="rgb(0,0,0)" text-anchor="end">1500</text>
  <text x="53.84" y="324.59232" font-family="sans-serif" font-size="9.9" fill="rgb(0,0,0)" text-anchor="end">2000</text>
  <text x="53.84" y="292.2154" font-family="sans-serif" font-size="9.9" fill="rgb(0,0,0)" text-anchor="end">2500</text>
  <text x="53.84" y="259.83847" font-family="sans-serif" font-size="9.9" fill="rgb(0,0,0)" text-anchor="end">3000</text>
  <text x="53.84" y="227.46152" font-family="sans-serif" font-size="9.9" fill="rgb(0,0,0)" text-anchor="end">3500</text>
  <text x="53.84" y="195.08461" font-family="sans-serif" font-size="9.9" fill="rgb(0,0,0)" text-anchor="end">4000</text>
  <text x="53.84" y="162.70769" font-family="sans-serif" font-size="9.9" fill="rgb(0,0,0)" text-anchor="end">4500</text>
  <text x="53.84" y="130.33076" font-family="sans-serif" font-size="9.9" fill="rgb(0,0,0)" text-anchor="end">5000</text>
  <text x="53.84" y="97.95384" font-family="sans-serif" font-size="9.9" fill="rgb(0,0,0)" text-anchor="end">5500</text>
  <text x="53.84" y="65.57692" font-family="sans-serif" font-size="9.9" fill="rgb(0,0,0)" text-anchor="end">6000</text>
  <text x="53.84" y="33.2" font-family="sans-serif" font-size="9.9" fill="rgb(0,0,0)" text-anchor="end">6500</text>
  <text x="471.4" y="488.2" font-family="sans-serif" font-size="11" fill="rgb(0,0,0)" text-anchor="middle">Status</text>
  <text x="33.05" y="243.65" font-family="sans-serif" font-size="11" fill="rgb(0,0,0)" text-anchor="middle" transform="rotate(-90,33.05,243.65)">Count</text>
  <text x="450" y="23.2" font-family="sans-serif" font-size="13.200001" fill="rgb(0,0,0)" font-weight="bold" text-anchor="middle">Pipeline Status Distribution</text>
</svg>
