<svg xmlns="http://www.w3.org/2000/svg" width="900" height="500" viewBox="0 0 900 500" role="img">
  <title>Lead Volume by Source</title>
  <rect width="900" height="500" fill="white"/>
  <rect x="0" y="0" width="900" height="500" fill="rgb(255,255,255)"/>
  <line x1="57.8" y1="454.1" x2="885" y2="454.1" stroke="rgb(241,241,241)" stroke-width="0.5"/>
  <line x1="57.8" y1="401.48752" x2="885" y2="401.48752" stroke="rgb(241,241,241)" stroke-width="0.5"/>
  <line x1="57.8" y1="348.875" x2="885" y2="348.875" stroke="rgb(241,241,241)" stroke-width="0.5"/>
  <line x1="57.8" y1="296.2625" x2="885" y2="296.2625" stroke="rgb(241,241,241)" stroke-width="0.5"/>
  <line x1="57.8" y1="243.65" x2="885" y2="243.65" stroke="rgb(241,241,241)" stroke-width="0.5"/>
  <line x1="57.8" y1="191.03749" x2="885" y2="191.03749" stroke="rgb(241,241,241)" stroke-width="0.5"/>
  <line x1="57.8" y1="138.425" x2="885" y2="138.425" stroke="rgb(241,241,241)" stroke-width="0.5"/>
  <line x1="57.8" y1="85.812485" x2="885" y2="85.812485" stroke="rgb(241,241,241)" stroke-width="0.5"/>
  <line x1="57.8" y1="33.2" x2="885" y2="33.2" stroke="rgb(241,241,241)" stroke-width="0.5"/>
  <rect x="107.432" y="43.617268" width="66.176" height="410.48273" fill="rgb(31,119,180)"/>
  <rect x="190.15201" y="313.72986" width="66.176" height="140.37015" fill="rgb(255,127,14)"/>
  <rect x="272.872" y="388.4396" width="66.176" height="65.6604" fill="rgb(44,160,44)"/>
  <rect x="355.59198" y="408.9585" width="66.176" height="45.14151" fill="rgb(214,39,40)"/>
  <rect x="438.31198" y="423.26907" width="66.176" height="30.830933" fill="rgb(148,103,189)"/>
  <rect x="521.03204" y="434.42294" width="66.176" height="19.677063" fill="rgb(140,86,75)"/>
  <rect x="603.75195" y="436.94833" width="66.176" height="17.151672" fill="rgb(227,119,194)"/>
  <rect x="686.472" y="441.36777" width="66.176" height="12.732239" fill="rgb(127,127,127)"/>
  <rect x="769.19196" y="443.78796" width="66.176" height="10.312042" fill="rgb(188,189,34)"/>
  <line x1="57.8" y1="33.2" x2="57.8" y2="454.1" stroke="rgb(0,0,0)" stroke-width="1"/>
  <line x1="57.8" y1="454.1" x2="885" y2="454.1" stroke="rgb(0,0,0)" stroke-width="1"/>
  <text x="140.52" y="467.96" font-family="sans-serif" font-size="9.9" fill="rgb(0,0,0)" text-anchor="middle">google_search</text>
  <text x="223.24" y="467.96" font-family="sans-serif" font-size="9.9" fill="rgb(0,0,0)" text-anchor="middle">url_on_sheet</text>
  <text x="305.96002" y="467.96" font-family="sans-serif" font-size="9.9" fill="rgb(0,0,0)" text-anchor="middle">other</text>
  <text x="388.68" y="467.96" font-family="sans-serif" font-size="9.9" fill="rgb(0,0,0)" text-anchor="middle">linksheets</text>
  <text x="471.4" y="467.96" font-family="sans-serif" font-size="9.9" fill="rgb(0,0,0)" text-anchor="middle">cvent</text>
  <text x="554.12006" y="467.96" font-family="sans-serif" font-size="9.9" fill="rgb(0,0,0)" text-anchor="middle">hotel_search</text>
  <text x="636.83997" y="467.96" font-family="sans-serif" font-size="9.9" fill="rgb(0,0,0)" text-anchor="middle">linkedin</text>
  <text x="719.56" y="467.96" font-family="sans-serif" font-size="9.9" fill="rgb(0,0,0)" text-anchor="middle">10times</text>
  <text x="802.27997" y="467.96" font-family="sans-serif" font-size="9.9" fill="rgb(0,0,0)" text-anchor="middle">city_type_in</text>
  <text x="53.84" y="454.1" font-family="sans-serif" font-size="9.9" fill="rgb(0,0,0)" text-anchor="end">0</text>
  <text x="53.84" y="401.48752" font-family="sans-serif" font-size="9.9" fill="rgb(0,0,0)" text-anchor="end">500</text>
  <text x="53.84" y="348.875" font-family="sans-serif" font-size="9.9" fill="rgb(0,0,0)" text-anchor="end">1000</text>
  <text x="53.84" y="296.2625" font-family="sans-serif" font-size="9.9" fill="rgb(0,0,0)" text-anchor="end">1500</text>
  <text x="53.84" y="243.65" font-family="sans-serif" font-size="9.9" fill="rgb(0,0,0)" text-anchor="end">2000</text>
  <text x="53.84" y="191.03749" font-family="sans-serif" font-size="9.9" fill="rgb(0,0,0)" text-anchor="end">2500</text>
  <text x="53.84" y="138.425" font-family="sans-serif" font-size="9.9" fill="rgb(0,0,0)" text-anchor="end">3000</text>
  <text x="53.84" y="85.812485" font-family="sans-serif" font-size="9.9" fill="rgb(0,0,0)" text-anchor="end">3500</text>
  <text x="53.84" y="33.2" font-family="sans-serif" font-size="9.9" fill="rgb(0,0,0)" text-anchor="end">4000</text>
  <text x="471.4" y="488.2" font-family="sans-serif" font-size="11" fill="rgb(0,0,0)" text-anchor="middle">Source</text>
  <text x="33.05" y="243.65" font-family="sans-serif" font-size="11" fill="rgb(0,0,0)" text-anchor="middle" transform="rotate(-90,33.05,243.65)">Number of Leads</text>
  <text x="450" y="23.2" font-family="sans-serif" font-size="13.200001" fill="rgb(0,0,0)" font-weight="bold" text-anchor="middle">Lead Volume by Source</text>
</svg>
