<svg xmlns="http://www.w3.org/2000/svg" width="1100" height="500" viewBox="0 0 1100 500" role="img">
  <title>Researcher: Volume vs Reply Rate</title>
  <rect width="1100" height="500" fill="white"/>
  <rect x="0" y="0" width="1100" height="500" fill="rgb(255,255,255)"/>
  <line x1="56.315" y1="454.1" x2="997.7101" y2="454.1" stroke="rgb(241,241,241)" stroke-width="0.5"/>
  <line x1="56.315" y1="407.33334" x2="997.7101" y2="407.33334" stroke="rgb(241,241,241)" stroke-width="0.5"/>
  <line x1="56.315" y1="360.56668" x2="997.7101" y2="360.56668" stroke="rgb(241,241,241)" stroke-width="0.5"/>
  <line x1="56.315" y1="313.8" x2="997.7101" y2="313.8" stroke="rgb(241,241,241)" stroke-width="0.5"/>
  <line x1="56.315" y1="267.03333" x2="997.7101" y2="267.03333" stroke="rgb(241,241,241)" stroke-width="0.5"/>
  <line x1="56.315" y1="220.26665" x2="997.7101" y2="220.26665" stroke="rgb(241,241,241)" stroke-width="0.5"/>
  <line x1="56.315" y1="173.49998" x2="997.7101" y2="173.49998" stroke="rgb(241,241,241)" stroke-width="0.5"/>
  <line x1="56.315" y1="126.73332" x2="997.7101" y2="126.73332" stroke="rgb(241,241,241)" stroke-width="0.5"/>
  <line x1="56.315" y1="79.96666" x2="997.7101" y2="79.96666" stroke="rgb(241,241,241)" stroke-width="0.5"/>
  <line x1="56.315" y1="33.2" x2="997.7101" y2="33.2" stroke="rgb(241,241,241)" stroke-width="0.5"/>
  <rect x="150.4545" y="33.433857" width="23.53489" height="420.66614" fill="rgb(31,119,180)"/>
  <rect x="209.2917" y="74.120834" width="23.53489" height="379.97916" fill="rgb(31,119,180)"/>
  <rect x="268.12888" y="226.58017" width="23.53489" height="227.51982" fill="rgb(31,119,180)"/>
  <rect x="326.9661" y="239.90866" width="23.53489" height="214.19133" fill="rgb(31,119,180)"/>
  <rect x="385.80328" y="381.84552" width="23.53489" height="72.254486" fill="rgb(31,119,180)"/>
  <rect x="444.64047" y="388.62668" width="23.53489" height="65.47333" fill="rgb(31,119,180)"/>
  <rect x="503.47766" y="388.8605" width="23.53489" height="65.2395" fill="rgb(31,119,180)"/>
  <rect x="562.3149" y="416.45285" width="23.53489" height="37.647156" fill="rgb(31,119,180)"/>
  <rect x="621.15204" y="418.32352" width="23.53489" height="35.77649" fill="rgb(31,119,180)"/>
  <rect x="679.98926" y="419.025" width="23.53489" height="35.075012" fill="rgb(31,119,180)"/>
  <rect x="738.8264" y="420.66183" width="23.53489" height="33.43817" fill="rgb(31,119,180)"/>
  <rect x="797.66364" y="422.06485" width="23.53489" height="32.035156" fill="rgb(31,119,180)"/>
  <rect x="856.5008" y="422.06485" width="23.53489" height="32.035156" fill="rgb(31,119,180)"/>
  <rect x="915.338" y="423.93552" width="23.53489" height="30.16449" fill="rgb(31,119,180)"/>
  <rect x="173.9894" y="425.3745" width="23.53489" height="28.725494" fill="rgb(255,127,14)"/>
  <rect x="232.82658" y="421.4353" width="23.53489" height="32.664703" fill="rgb(255,127,14)"/>
  <rect x="291.66376" y="431.75006" width="23.53489" height="22.349945" fill="rgb(255,127,14)"/>
  <rect x="350.50095" y="426.0196" width="23.53489" height="28.080414" fill="rgb(255,127,14)"/>
  <rect x="409.33813" y="429.1275" width="23.53489" height="24.972504" fill="rgb(255,127,14)"/>
  <rect x="468.17532" y="431.5518" width="23.53489" height="22.548218" fill="rgb(255,127,14)"/>
  <rect x="527.0125" y="423.08984" width="23.53489" height="31.010162" fill="rgb(255,127,14)"/>
  <rect x="585.84973" y="451.19525" width="23.53489" height="2.9047546" fill="rgb(255,127,14)"/>
  <rect x="644.6869" y="449.51505" width="23.53489" height="4.584961" fill="rgb(255,127,14)"/>
  <rect x="703.5241" y="422.92224" width="23.53489" height="31.177765" fill="rgb(255,127,14)"/>
  <rect x="762.36127" y="426.30164" width="23.53489" height="27.79837" fill="rgb(255,127,14)"/>
  <rect x="821.1985" y="428.4978" width="23.53489" height="25.602203" fill="rgb(255,127,14)"/>
  <rect x="880.03564" y="454.1" width="23.53489" height="0" fill="rgb(255,127,14)"/>
  <rect x="938.87286" y="430.5354" width="23.53489" height="23.564606" fill="rgb(255,127,14)"/>
  <line x1="56.315" y1="33.2" x2="56.315" y2="454.1" stroke="rgb(0,0,0)" stroke-width="1"/>
  <line x1="56.315" y1="454.1" x2="997.7101" y2="454.1" stroke="rgb(0,0,0)" stroke-width="1"/>
  <text x="173.98938" y="467.96" font-family="sans-serif" font-size="9.9" fill="rgb(0,0,0)" text-anchor="middle">Evangeline</text>
  <text x="232.82658" y="467.96" font-family="sans-serif" font-size="9.9" fill="rgb(0,0,0)" text-anchor="middle">Shem</text>
  <text x="291.66376" y="467.96" font-family="sans-serif" font-size="9.9" fill="rgb(0,0,0)" text-anchor="middle">Sarah</text>
  <text x="350.50098" y="467.96" font-family="sans-serif" font-size="9.9" fill="rgb(0,0,0)" text-anchor="middle">Lester</text>
  <text x="409.33817" y="467.96" font-family="sans-serif" font-size="9.9" fill="rgb(0,0,0)" text-anchor="middle">Judith</text>
  <text x="468.17535" y="467.96" font-family="sans-serif" font-size="9.9" fill="rgb(0,0,0)" text-anchor="middle">Shiloh</text>
  <text x="527.0125" y="467.96" font-family="sans-serif" font-size="9.9" fill="rgb(0,0,0)" text-anchor="middle">Prosper</text>
  <text x="585.84973" y="467.96" font-family="sans-serif" font-size="9.9" fill="rgb(0,0,0)" text-anchor="middle">Mahalie</text>
  <text x="644.68695" y="467.96" font-family="sans-serif" font-size="9.9" fill="rgb(0,0,0)" text-anchor="middle">Jr</text>
  <text x="703.5241" y="467.96" font-family="sans-serif" font-size="9.9" fill="rgb(0,0,0)" text-anchor="middle">Camille</text>
  <text x="762.3613" y="467.96" font-family="sans-serif" font-size="9.9" fill="rgb(0,0,0)" text-anchor="middle">Karen</text>
  <text x="821.1985" y="467.96" font-family="sans-serif" font-size="9.9" fill="rgb(0,0,0)" text-anchor="middle">Cid</text>
  <text x="880.0357" y="467.96" font-family="sans-serif" font-size="9.9" fill="rgb(0,0,0)" text-anchor="middle">Kyser</text>
  <text x="938.87286" y="467.96" font-family="sans-serif" font-size="9.9" fill="rgb(0,0,0)" text-anchor="middle">Vincent</text>
  <text x="52.355" y="454.1" font-family="sans-serif" font-size="9.9" fill="rgb(0,0,0)" text-anchor="end">0</text>
  <text x="52.355" y="407.33334" font-family="sans-serif" font-size="9.9" fill="rgb(0,0,0)" text-anchor="end">200</text>
  <text x="52.355" y="360.56668" font-family="sans-serif" font-size="9.9" fill="rgb(0,0,0)" text-anchor="end">400</text>
  <text x="52.355" y="313.8" font-family="sans-serif" font-size="9.9" fill="rgb(0,0,0)" text-anchor="end">600</text>
  <text x="52.355" y="267.03333" font-family="sans-serif" font-size="9.9" fill="rgb(0,0,0)" text-anchor="end">800</text>
  <text x="52.355" y="220.26665" font-family="sans-serif" font-size="9.9" fill="rgb(0,0,0)" text-anchor="end">1000</text>
  <text x="52.355" y="173.49998" font-family="sans-serif" font-size="9.9" fill="rgb(0,0,0)" text-anchor="end">1200</text>
  <text x="52.355" y="126.73332" font-family="sans-serif" font-size="9.9" fill="rgb(0,0,0)" text-anchor="end">1400</text>
  <text x="52.355" y="79.96666" font-family="sans-serif" font-size="9.9" fill="rgb(0,0,0)" text-anchor="end">1600</text>
  <text x="52.355" y="33.2" font-family="sans-serif" font-size="9.9" fill="rgb(0,0,0)" text-anchor="end">1800</text>
  <text x="527.0125" y="488.2" font-family="sans-serif" font-size="11" fill="rgb(0,0,0)" text-anchor="middle">Researcher</text>
  <text x="31.564999" y="243.65" font-family="sans-serif" font-size="11" fill="rgb(0,0,0)" text-anchor="middle" transform="rotate(-90,31.564999,243.65)">Count / Rate×10</text>
  <rect x="1012.7101" y="38.2" width="12" height="12" fill="rgb(31,119,180)" rx="2"/>
  <text x="1029.7101" y="48.4" font-family="sans-serif" font-size="9.9" fill="rgb(0,0,0)">Volume</text>
  <rect x="1012.7101" y="53.05" width="12" height="12" fill="rgb(255,127,14)" rx="2"/>
  <text x="1029.7101" y="63.25" font-family="sans-serif" font-size="9.9" fill="rgb(0,0,0)">Reply Rate (x10)</text>
  <text x="550" y="23.2" font-family="sans-serif" font-size="13.200001" fill="rgb(0,0,0)" font-weight="bold" text-anchor="middle">Researcher: Volume vs Reply Rate</text>
</svg>
