<svg xmlns="http://www.w3.org/2000/svg" width="1100" height="500" viewBox="0 0 1100 500" role="img">
  <title>Conference Month: Volume &amp; Reply Rate</title>
  <rect width="1100" height="500" fill="white"/>
  <rect x="0" y="0" width="1100" height="500" fill="rgb(255,255,255)"/>
  <line x1="56.315" y1="454.1" x2="996.22504" y2="454.1" stroke="rgb(241,241,241)" stroke-width="0.5"/>
  <line x1="56.315" y1="415.83636" x2="996.22504" y2="415.83636" stroke="rgb(241,241,241)" stroke-width="0.5"/>
  <line x1="56.315" y1="377.57272" x2="996.22504" y2="377.57272" stroke="rgb(241,241,241)" stroke-width="0.5"/>
  <line x1="56.315" y1="339.30908" x2="996.22504" y2="339.30908" stroke="rgb(241,241,241)" stroke-width="0.5"/>
  <line x1="56.315" y1="301.04547" x2="996.22504" y2="301.04547" stroke="rgb(241,241,241)" stroke-width="0.5"/>
  <line x1="56.315" y1="262.7818" x2="996.22504" y2="262.7818" stroke="rgb(241,241,241)" stroke-width="0.5"/>
  <line x1="56.315" y1="224.51817" x2="996.22504" y2="224.51817" stroke="rgb(241,241,241)" stroke-width="0.5"/>
  <line x1="56.315" y1="186.25453" x2="996.22504" y2="186.25453" stroke="rgb(241,241,241)" stroke-width="0.5"/>
  <line x1="56.315" y1="147.99089" x2="996.22504" y2="147.99089" stroke="rgb(241,241,241)" stroke-width="0.5"/>
  <line x1="56.315" y1="109.72728" x2="996.22504" y2="109.72728" stroke="rgb(241,241,241)" stroke-width="0.5"/>
  <line x1="56.315" y1="71.46361" x2="996.22504" y2="71.46361" stroke="rgb(241,241,241)" stroke-width="0.5"/>
  <line x1="56.315" y1="33.2" x2="996.22504" y2="33.2" stroke="rgb(241,241,241)" stroke-width="0.5"/>
  <rect x="99.695465" y="225.66608" width="28.920311" height="228.43391" fill="rgb(31,119,180)"/>
  <rect x="171.99625" y="131.53755" width="28.920311" height="322.56244" fill="rgb(31,119,180)"/>
  <rect x="244.29701" y="46.974934" width="28.920311" height="407.12506" fill="rgb(31,119,180)"/>
  <rect x="316.5978" y="64.57619" width="28.920311" height="389.5238" fill="rgb(31,119,180)"/>
  <rect x="388.89856" y="135.74654" width="28.920311" height="318.35345" fill="rgb(31,119,180)"/>
  <rect x="461.19934" y="215.71754" width="28.920311" height="238.38245" fill="rgb(31,119,180)"/>
  <rect x="533.5001" y="306.01974" width="28.920311" height="148.08026" fill="rgb(31,119,180)"/>
  <rect x="605.8009" y="335.1001" width="28.920311" height="118.99991" fill="rgb(31,119,180)"/>
  <rect x="678.1017" y="164.82689" width="28.920311" height="289.2731" fill="rgb(31,119,180)"/>
  <rect x="750.40247" y="107.04881" width="28.920311" height="347.05118" fill="rgb(31,119,180)"/>
  <rect x="822.7032" y="197.73363" width="28.920311" height="256.36636" fill="rgb(31,119,180)"/>
  <rect x="895.00397" y="279.2352" width="28.920311" height="174.8648" fill="rgb(31,119,180)"/>
  <rect x="128.61577" y="232.97849" width="28.920311" height="221.1215" fill="rgb(255,127,14)"/>
  <rect x="200.91655" y="252.1152" width="28.920311" height="201.98479" fill="rgb(255,127,14)"/>
  <rect x="273.21732" y="196.97124" width="28.920311" height="257.12875" fill="rgb(255,127,14)"/>
  <rect x="345.5181" y="219.1808" width="28.920311" height="234.91919" fill="rgb(255,127,14)"/>
  <rect x="417.81888" y="304.6327" width="28.920311" height="149.46732" fill="rgb(255,127,14)"/>
  <rect x="490.11966" y="242.20665" width="28.920311" height="211.89334" fill="rgb(255,127,14)"/>
  <rect x="562.4205" y="226.69336" width="28.920311" height="227.40663" fill="rgb(255,127,14)"/>
  <rect x="634.7212" y="263.39697" width="28.920311" height="190.70302" fill="rgb(255,127,14)"/>
  <rect x="707.022" y="249.11623" width="28.920311" height="204.98376" fill="rgb(255,127,14)"/>
  <rect x="779.32275" y="209.4152" width="28.920311" height="244.68478" fill="rgb(255,127,14)"/>
  <rect x="851.62354" y="254.21532" width="28.920311" height="199.88467" fill="rgb(255,127,14)"/>
  <rect x="923.92426" y="244.78032" width="28.920311" height="209.31967" fill="rgb(255,127,14)"/>
  <line x1="56.315" y1="33.2" x2="56.315" y2="454.1" stroke="rgb(0,0,0)" stroke-width="1"/>
  <line x1="56.315" y1="454.1" x2="996.22504" y2="454.1" stroke="rgb(0,0,0)" stroke-width="1"/>
  <text x="128.61577" y="467.96" font-family="sans-serif" font-size="9.9" fill="rgb(0,0,0)" text-anchor="middle">January</text>
  <text x="200.91655" y="467.96" font-family="sans-serif" font-size="9.9" fill="rgb(0,0,0)" text-anchor="middle">February</text>
  <text x="273.21732" y="467.96" font-family="sans-serif" font-size="9.9" fill="rgb(0,0,0)" text-anchor="middle">March</text>
  <text x="345.5181" y="467.96" font-family="sans-serif" font-size="9.9" fill="rgb(0,0,0)" text-anchor="middle">April</text>
  <text x="417.81888" y="467.96" font-family="sans-serif" font-size="9.9" fill="rgb(0,0,0)" text-anchor="middle">May</text>
  <text x="490.11963" y="467.96" font-family="sans-serif" font-size="9.9" fill="rgb(0,0,0)" text-anchor="middle">June</text>
  <text x="562.4204" y="467.96" font-family="sans-serif" font-size="9.9" fill="rgb(0,0,0)" text-anchor="middle">July</text>
  <text x="634.7212" y="467.96" font-family="sans-serif" font-size="9.9" fill="rgb(0,0,0)" text-anchor="middle">August</text>
  <text x="707.022" y="467.96" font-family="sans-serif" font-size="9.9" fill="rgb(0,0,0)" text-anchor="middle">September</text>
  <text x="779.32275" y="467.96" font-family="sans-serif" font-size="9.9" fill="rgb(0,0,0)" text-anchor="middle">October</text>
  <text x="851.6235" y="467.96" font-family="sans-serif" font-size="9.9" fill="rgb(0,0,0)" text-anchor="middle">November</text>
  <text x="923.92426" y="467.96" font-family="sans-serif" font-size="9.9" fill="rgb(0,0,0)" text-anchor="middle">December</text>
  <text x="52.355" y="454.1" font-family="sans-serif" font-size="9.9" fill="rgb(0,0,0)" text-anchor="end">0</text>
  <text x="52.355" y="415.83636" font-family="sans-serif" font-size="9.9" fill="rgb(0,0,0)" text-anchor="end">100</text>
  <text x="52.355" y="377.57272" font-family="sans-serif" font-size="9.9" fill="rgb(0,0,0)" text-anchor="end">200</text>
  <text x="52.355" y="339.30908" font-family="sans-serif" font-size="9.9" fill="rgb(0,0,0)" text-anchor="end">300</text>
  <text x="52.355" y="301.04547" font-family="sans-serif" font-size="9.9" fill="rgb(0,0,0)" text-anchor="end">400</text>
  <text x="52.355" y="262.7818" font-family="sans-serif" font-size="9.9" fill="rgb(0,0,0)" text-anchor="end">500</text>
  <text x="52.355" y="224.51817" font-family="sans-serif" font-size="9.9" fill="rgb(0,0,0)" text-anchor="end">600</text>
  <text x="52.355" y="186.25453" font-family="sans-serif" font-size="9.9" fill="rgb(0,0,0)" text-anchor="end">700</text>
  <text x="52.355" y="147.99089" font-family="sans-serif" font-size="9.9" fill="rgb(0,0,0)" text-anchor="end">800</text>
  <text x="52.355" y="109.72728" font-family="sans-serif" font-size="9.9" fill="rgb(0,0,0)" text-anchor="end">900</text>
  <text x="52.355" y="71.46361" font-family="sans-serif" font-size="9.9" fill="rgb(0,0,0)" text-anchor="end">1000</text>
  <text x="52.355" y="33.2" font-family="sans-serif" font-size="9.9" fill="rgb(0,0,0)" text-anchor="end">1100</text>
  <text x="526.27" y="488.2" font-family="sans-serif" font-size="11" fill="rgb(0,0,0)" text-anchor="middle">Month</text>
  <text x="31.564999" y="243.65" font-family="sans-serif" font-size="11" fill="rgb(0,0,0)" text-anchor="middle" transform="rotate(-90,31.564999,243.65)">Count / Rate×50</text>
  <rect x="1011.22504" y="38.2" width="12" height="12" fill="rgb(31,119,180)" rx="2"/>
  <text x="1028.2251" y="48.4" font-family="sans-serif" font-size="9.9" fill="rgb(0,0,0)">Volume</text>
  <rect x="1011.22504" y="53.05" width="12" height="12" fill="rgb(255,127,14)" rx="2"/>
  <text x="1028.2251" y="63.25" font-family="sans-serif" font-size="9.9" fill="rgb(0,0,0)">Reply Rate (x50)</text>
  <text x="550" y="23.2" font-family="sans-serif" font-size="13.200001" fill="rgb(0,0,0)" font-weight="bold" text-anchor="middle">Conference Month: Volume &amp; Reply Rate</text>
</svg>
