<svg xmlns="http://www.w3.org/2000/svg" width="900" height="500" viewBox="0 0 900 500" role="img">
  <title>Reply Rate vs Outreach Count</title>
  <rect width="900" height="500" fill="white"/>
  <rect x="0" y="0" width="900" height="500" fill="rgb(255,255,255)"/>
  <line x1="46.415" y1="454.1" x2="885" y2="454.1" stroke="rgb(241,241,241)" stroke-width="0.5"/>
  <line x1="46.415" y1="401.48752" x2="885" y2="401.48752" stroke="rgb(241,241,241)" stroke-width="0.5"/>
  <line x1="46.415" y1="348.875" x2="885" y2="348.875" stroke="rgb(241,241,241)" stroke-width="0.5"/>
  <line x1="46.415" y1="296.2625" x2="885" y2="296.2625" stroke="rgb(241,241,241)" stroke-width="0.5"/>
  <line x1="46.415" y1="243.65" x2="885" y2="243.65" stroke="rgb(241,241,241)" stroke-width="0.5"/>
  <line x1="46.415" y1="191.03749" x2="885" y2="191.03749" stroke="rgb(241,241,241)" stroke-width="0.5"/>
  <line x1="46.415" y1="138.425" x2="885" y2="138.425" stroke="rgb(241,241,241)" stroke-width="0.5"/>
  <line x1="46.415" y1="85.812485" x2="885" y2="85.812485" stroke="rgb(241,241,241)" stroke-width="0.5"/>
  <line x1="46.415" y1="33.2" x2="885" y2="33.2" stroke="rgb(241,241,241)" stroke-width="0.5"/>
  <line x1="46.415" y1="33.2" x2="46.415" y2="454.1" stroke="rgb(241,241,241)" stroke-width="0.5"/>
  <line x1="151.23813" y1="33.2" x2="151.23813" y2="454.1" stroke="rgb(241,241,241)" stroke-width="0.5"/>
  <line x1="256.06125" y1="33.2" x2="256.06125" y2="454.1" stroke="rgb(241,241,241)" stroke-width="0.5"/>
  <line x1="360.8844" y1="33.2" x2="360.8844" y2="454.1" stroke="rgb(241,241,241)" stroke-width="0.5"/>
  <line x1="465.70752" y1="33.2" x2="465.70752" y2="454.1" stroke="rgb(241,241,241)" stroke-width="0.5"/>
  <line x1="570.53064" y1="33.2" x2="570.53064" y2="454.1" stroke="rgb(241,241,241)" stroke-width="0.5"/>
  <line x1="675.35376" y1="33.2" x2="675.35376" y2="454.1" stroke="rgb(241,241,241)" stroke-width="0.5"/>
  <line x1="780.1769" y1="33.2" x2="780.1769" y2="454.1" stroke="rgb(241,241,241)" stroke-width="0.5"/>
  <line x1="885" y1="33.2" x2="885" y2="454.1" stroke="rgb(241,241,241)" stroke-width="0.5"/>
  <polyline points="151.23813,431.61603 172.20276,342.63284 193.16739,277.65564 214.13202,154.57338 235.09662,185.05879 256.06125,132.57915 277.02588,130.92738 297.9905,113.3145 318.95514,114.50102 339.91977,216.33195 360.8844,128.40355 381.84903,121.5493 402.81366,103.01076 423.77826,169.85872 444.7429,123.09419 465.70752,115.44484 486.67212,132.65205 507.63678,157.79332 528.6014,153.21153 549.56604,234.88126 570.53064,137.9734 591.49524,219.68785 612.4599,241.68927 633.4245,164.48991 654.38916,266.1982 675.35376,198.34479 696.31836,63.061146 717.283,205.92784 738.2476,228.61786 759.2123,294.6682 780.1769,115.504684" fill="none" stroke="rgb(31,119,180)" stroke-width="2"/>
  <line x1="46.415" y1="33.2" x2="46.415" y2="454.1" stroke="rgb(0,0,0)" stroke-width="1"/>
  <line x1="46.415" y1="454.1" x2="885" y2="454.1" stroke="rgb(0,0,0)" stroke-width="1"/>
  <text x="46.415" y="467.96" font-family="sans-serif" font-size="9.9" fill="rgb(0,0,0)" text-anchor="middle">-5</text>
  <text x="151.23813" y="467.96" font-family="sans-serif" font-size="9.9" fill="rgb(0,0,0)" text-anchor="middle">0</text>
  <text x="256.06125" y="467.96" font-family="sans-serif" font-size="9.9" fill="rgb(0,0,0)" text-anchor="middle">5</text>
  <text x="360.8844" y="467.96" font-family="sans-serif" font-size="9.9" fill="rgb(0,0,0)" text-anchor="middle">10</text>
  <text x="465.70752" y="467.96" font-family="sans-serif" font-size="9.9" fill="rgb(0,0,0)" text-anchor="middle">15</text>
  <text x="570.53064" y="467.96" font-family="sans-serif" font-size="9.9" fill="rgb(0,0,0)" text-anchor="middle">20</text>
  <text x="675.35376" y="467.96" font-family="sans-serif" font-size="9.9" fill="rgb(0,0,0)" text-anchor="middle">25</text>
  <text x="780.1769" y="467.96" font-family="sans-serif" font-size="9.9" fill="rgb(0,0,0)" text-anchor="middle">30</text>
  <text x="885" y="467.96" font-family="sans-serif" font-size="9.9" fill="rgb(0,0,0)" text-anchor="middle">35</text>
  <text x="42.455" y="454.1" font-family="sans-serif" font-size="9.9" fill="rgb(0,0,0)" text-anchor="end">0</text>
  <text x="42.455" y="401.48752" font-family="sans-serif" font-size="9.9" fill="rgb(0,0,0)" text-anchor="end">2</text>
  <text x="42.455" y="348.875" font-family="sans-serif" font-size="9.9" fill="rgb(0,0,0)" text-anchor="end">4</text>
  <text x="42.455" y="296.2625" font-family="sans-serif" font-size="9.9" fill="rgb(0,0,0)" text-anchor="end">6</text>
  <text x="42.455" y="243.65" font-family="sans-serif" font-size="9.9" fill="rgb(0,0,0)" text-anchor="end">8</text>
  <text x="42.455" y="191.03749" font-family="sans-serif" font-size="9.9" fill="rgb(0,0,0)" text-anchor="end">10</text>
  <text x="42.455" y="138.425" font-family="sans-serif" font-size="9.9" fill="rgb(0,0,0)" text-anchor="end">12</text>
  <text x="42.455" y="85.812485" font-family="sans-serif" font-size="9.9" fill="rgb(0,0,0)" text-anchor="end">14</text>
  <text x="42.455" y="33.2" font-family="sans-serif" font-size="9.9" fill="rgb(0,0,0)" text-anchor="end">16</text>
  <text x="465.70752" y="488.2" font-family="sans-serif" font-size="11" fill="rgb(0,0,0)" text-anchor="middle">Number of Outreach Attempts</text>
  <text x="21.665" y="243.65" font-family="sans-serif" font-size="11" fill="rgb(0,0,0)" text-anchor="middle" transform="rotate(-90,21.665,243.65)">Reply Rate (%)</text>
  <text x="450" y="23.2" font-family="sans-serif" font-size="13.200001" fill="rgb(0,0,0)" font-weight="bold" text-anchor="middle">Reply Rate vs Outreach Count</text>
</svg>
