<svg xmlns="http://www.w3.org/2000/svg" width="600" height="600" viewBox="0 0 600 600" role="img">
  <title>Bid Outcomes (151 total bids)</title>
  <rect width="600" height="600" fill="white"/>
  <rect x="0" y="0" width="600" height="600" fill="rgb(255,255,255)"/>
  <path d="M276.64252,106.963974 A194.68602,194.68602 0 1 1 108.7186,203.14009 L276.64252,301.65 Z" fill="rgb(31,119,180)" stroke="rgb(255,255,255)" stroke-width="1.5"/>
  <path d="M108.7186,203.14009 A194.68602,194.68602 0 0 1 228.53993,113.00009 L276.64252,301.65 Z" fill="rgb(255,127,14)" stroke="rgb(255,255,255)" stroke-width="1.5"/>
  <path d="M228.53993,113.00009 A194.68602,194.68602 0 0 1 252.4026,108.4789 L276.64252,301.65 Z" fill="rgb(44,160,44)" stroke="rgb(255,255,255)" stroke-width="1.5"/>
  <path d="M252.4026,108.4789 A194.68602,194.68602 0 0 1 276.64252,106.963974 L276.64252,301.65 Z" fill="rgb(214,39,40)" stroke="rgb(255,255,255)" stroke-width="1.5"/>
  <rect x="535" y="38.2" width="12" height="12" fill="rgb(31,119,180)" rx="2"/>
  <text x="552" y="48.4" font-family="sans-serif" font-size="9.9" fill="rgb(0,0,0)">abandoned</text>
  <rect x="535" y="53.05" width="12" height="12" fill="rgb(255,127,14)" rx="2"/>
  <text x="552" y="63.25" font-family="sans-serif" font-size="9.9" fill="rgb(0,0,0)">lost</text>
  <rect x="535" y="67.9" width="12" height="12" fill="rgb(44,160,44)" rx="2"/>
  <text x="552" y="78.100006" font-family="sans-serif" font-size="9.9" fill="rgb(0,0,0)">won</text>
  <rect x="535" y="82.75" width="12" height="12" fill="rgb(214,39,40)" rx="2"/>
  <text x="552" y="92.95" font-family="sans-serif" font-size="9.9" fill="rgb(0,0,0)">in_process</text>
  <text x="300" y="23.2" font-family="sans-serif" font-size="13.200001" fill="rgb(0,0,0)" font-weight="bold" text-anchor="middle">Bid Outcomes (151 total bids)</text>
</svg>
