<svg xmlns="http://www.w3.org/2000/svg" width="700" height="500" viewBox="0 0 700 500" role="img">
  <title>Reply Rate by City Tier (%)</title>
  <rect width="700" height="500" fill="white"/>
  <rect x="0" y="0" width="700" height="500" fill="rgb(255,255,255)"/>
  <line x1="46.415" y1="454.1" x2="685" y2="454.1" stroke="rgb(241,241,241)" stroke-width="0.5"/>
  <line x1="46.415" y1="407.33334" x2="685" y2="407.33334" stroke="rgb(241,241,241)" stroke-width="0.5"/>
  <line x1="46.415" y1="360.56668" x2="685" y2="360.56668" stroke="rgb(241,241,241)" stroke-width="0.5"/>
  <line x1="46.415" y1="313.8" x2="685" y2="313.8" stroke="rgb(241,241,241)" stroke-width="0.5"/>
  <line x1="46.415" y1="267.03333" x2="685" y2="267.03333" stroke="rgb(241,241,241)" stroke-width="0.5"/>
  <line x1="46.415" y1="220.26665" x2="685" y2="220.26665" stroke="rgb(241,241,241)" stroke-width="0.5"/>
  <line x1="46.415" y1="173.49998" x2="685" y2="173.49998" stroke="rgb(241,241,241)" stroke-width="0.5"/>
  <line x1="46.415" y1="126.73332" x2="685" y2="126.73332" stroke="rgb(241,241,241)" stroke-width="0.5"/>
  <line x1="46.415" y1="79.96666" x2="685" y2="79.96666" stroke="rgb(241,241,241)" stroke-width="0.5"/>
  <line x1="46.415" y1="33.2" x2="685" y2="33.2" stroke="rgb(241,241,241)" stroke-width="0.5"/>
  <rect x="62.37962" y="104.12019" width="127.71702" height="349.9798" fill="rgb(31,119,180)"/>
  <rect x="222.02588" y="139.83296" width="127.71702" height="314.26703" fill="rgb(255,127,14)"/>
  <rect x="381.67212" y="330.36032" width="127.71702" height="123.739685" fill="rgb(44,160,44)"/>
  <rect x="541.31836" y="43.311695" width="127.71702" height="410.7883" fill="rgb(214,39,40)"/>
  <line x1="46.415" y1="33.2" x2="46.415" y2="454.1" stroke="rgb(0,0,0)" stroke-width="1"/>
  <line x1="46.415" y1="454.1" x2="685" y2="454.1" stroke="rgb(0,0,0)" stroke-width="1"/>
  <text x="126.23813" y="467.96" font-family="sans-serif" font-size="9.9" fill="rgb(0,0,0)" text-anchor="middle">major</text>
  <text x="285.8844" y="467.96" font-family="sans-serif" font-size="9.9" fill="rgb(0,0,0)" text-anchor="middle">minor</text>
  <text x="445.53064" y="467.96" font-family="sans-serif" font-size="9.9" fill="rgb(0,0,0)" text-anchor="middle">international</text>
  <text x="605.1769" y="467.96" font-family="sans-serif" font-size="9.9" fill="rgb(0,0,0)" text-anchor="middle">virtual</text>
  <text x="42.455" y="454.1" font-family="sans-serif" font-size="9.9" fill="rgb(0,0,0)" text-anchor="end">0</text>
  <text x="42.455" y="407.33334" font-family="sans-serif" font-size="9.9" fill="rgb(0,0,0)" text-anchor="end">2</text>
  <text x="42.455" y="360.56668" font-family="sans-serif" font-size="9.9" fill="rgb(0,0,0)" text-anchor="end">4</text>
  <text x="42.455" y="313.8" font-family="sans-serif" font-size="9.9" fill="rgb(0,0,0)" text-anchor="end">6</text>
  <text x="42.455" y="267.03333" font-family="sans-serif" font-size="9.9" fill="rgb(0,0,0)" text-anchor="end">8</text>
  <text x="42.455" y="220.26665" font-family="sans-serif" font-size="9.9" fill="rgb(0,0,0)" text-anchor="end">10</text>
  <text x="42.455" y="173.49998" font-family="sans-serif" font-size="9.9" fill="rgb(0,0,0)" text-anchor="end">12</text>
  <text x="42.455" y="126.73332" font-family="sans-serif" font-size="9.9" fill="rgb(0,0,0)" text-anchor="end">14</text>
  <text x="42.455" y="79.96666" font-family="sans-serif" font-size="9.9" fill="rgb(0,0,0)" text-anchor="end">16</text>
  <text x="42.455" y="33.2" font-family="sans-serif" font-size="9.9" fill="rgb(0,0,0)" text-anchor="end">18</text>
  <text x="365.70752" y="488.2" font-family="sans-serif" font-size="11" fill="rgb(0,0,0)" text-anchor="middle">City Tier</text>
  <text x="21.665" y="243.65" font-family="sans-serif" font-size="11" fill="rgb(0,0,0)" text-anchor="middle" transform="rotate(-90,21.665,243.65)">Reply Rate (%)</text>
  <text x="350" y="23.2" font-family="sans-serif" font-size="13.200001" fill="rgb(0,0,0)" font-weight="bold" text-anchor="middle">Reply Rate by City Tier (%)</text>
</svg>
