<svg xmlns="http://www.w3.org/2000/svg" width="600" height="600" viewBox="0 0 600 600" role="img">
  <title>Confusion Matrix</title>
  <rect width="600" height="600" fill="white"/>
  <rect x="0" y="0" width="600" height="600" fill="rgb(255,255,255)"/>
  <rect x="79.08501" y="33.2" width="230.45749" height="260.44998" fill="rgb(253,231,37)" stroke="rgb(0,0,0)" stroke-width="1"/>
  <rect x="309.54248" y="33.2" width="230.45749" height="260.44998" fill="rgb(68,1,84)" stroke="rgb(0,0,0)" stroke-width="1"/>
  <rect x="79.08501" y="293.65" width="230.45749" height="260.44998" fill="rgb(71,50,107)" stroke="rgb(0,0,0)" stroke-width="1"/>
  <rect x="309.54248" y="293.65" width="230.45749" height="260.44998" fill="rgb(68,2,84)" stroke="rgb(0,0,0)" stroke-width="1"/>
  <text x="194.31375" y="163.42499" font-family="sans-serif" font-size="80.66012" fill="rgb(0,0,0)" text-anchor="middle">1477</text>
  <text x="424.77124" y="163.42499" font-family="sans-serif" font-size="80.66012" fill="rgb(255,255,255)" text-anchor="middle">28</text>
  <text x="194.31375" y="423.875" font-family="sans-serif" font-size="80.66012" fill="rgb(255,255,255)" text-anchor="middle">172</text>
  <text x="424.77124" y="423.875" font-family="sans-serif" font-size="80.66012" fill="rgb(255,255,255)" text-anchor="middle">31</text>
  <text x="194.31375" y="569" font-family="sans-serif" font-size="9.9" fill="rgb(0,0,0)" text-anchor="middle">0</text>
  <text x="424.77124" y="569" font-family="sans-serif" font-size="9.9" fill="rgb(0,0,0)" text-anchor="middle">1</text>
  <text x="74.08501" y="163.42499" font-family="sans-serif" font-size="9.9" fill="rgb(0,0,0)" text-anchor="end">0</text>
  <text x="74.08501" y="423.875" font-family="sans-serif" font-size="9.9" fill="rgb(0,0,0)" text-anchor="end">1</text>
  <text x="309.54248" y="590" font-family="sans-serif" font-size="11" fill="rgb(0,0,0)" text-anchor="middle">Predicted</text>
  <text x="44.43501" y="293.65" font-family="sans-serif" font-size="11" fill="rgb(0,0,0)" text-anchor="middle" transform="rotate(-90,44.43501,293.65)">True</text>
  <rect x="555" y="38.2" width="15" height="9.3553" fill="rgb(253,231,37)"/>
  <rect x="555" y="47.0553" width="15" height="9.3553" fill="rgb(245,230,41)"/>
  <rect x="555" y="55.9106" width="15" height="9.3553" fill="rgb(237,229,45)"/>
  <rect x="555" y="64.7659" width="15" height="9.3553" fill="rgb(229,228,48)"/>
  <rect x="555" y="73.6212" width="15" height="9.3553" fill="rgb(220,226,50)"/>
  <rect x="555" y="82.4765" width="15" height="9.3553" fill="rgb(212,225,53)"/>
  <rect x="555" y="91.3318" width="15" height="9.3553" fill="rgb(204,224,55)"/>
  <rect x="555" y="100.1871" width="15" height="9.3553" fill="rgb(195,223,58)"/>
  <rect x="555" y="109.042404" width="15" height="9.3553" fill="rgb(186,221,60)"/>
  <rect x="555" y="117.897705" width="15" height="9.3553" fill="rgb(177,220,61)"/>
  <rect x="555" y="126.753006" width="15" height="9.3553" fill="rgb(168,219,63)"/>
  <rect x="555" y="135.6083" width="15" height="9.3553" fill="rgb(159,217,65)"/>
  <rect x="555" y="144.4636" width="15" height="9.3553" fill="rgb(149,216,66)"/>
  <rect x="555" y="153.3189" width="15" height="9.3553" fill="rgb(141,214,71)"/>
  <rect x="555" y="162.1742" width="15" height="9.3553" fill="rgb(135,211,77)"/>
  <rect x="555" y="171.0295" width="15" height="9.3553" fill="rgb(129,209,83)"/>
  <rect x="555" y="179.8848" width="15" height="9.3553" fill="rgb(122,206,88)"/>
  <rect x="555" y="188.7401" width="15" height="9.3553" fill="rgb(116,204,93)"/>
  <rect x="555" y="197.5954" width="15" height="9.3553" fill="rgb(109,201,97)"/>
  <rect x="555" y="206.4507" width="15" height="9.3553" fill="rgb(103,199,101)"/>
  <rect x="555" y="215.306" width="15" height="9.3553" fill="rgb(96,196,105)"/>
  <rect x="555" y="224.1613" width="15" height="9.3553" fill="rgb(88,193,109)"/>
  <rect x="555" y="233.0166" width="15" height="9.3553" fill="rgb(80,191,112)"/>
  <rect x="555" y="241.8719" width="15" height="9.3553" fill="rgb(72,188,115)"/>
  <rect x="555" y="250.72719" width="15" height="9.3553" fill="rgb(63,186,118)"/>
  <rect x="555" y="259.5825" width="15" height="9.3553" fill="rgb(53,183,121)"/>
  <rect x="555" y="268.4378" width="15" height="9.3553" fill="rgb(52,177,124)"/>
  <rect x="555" y="277.2931" width="15" height="9.3553" fill="rgb(52,170,126)"/>
  <rect x="555" y="286.1484" width="15" height="9.3553" fill="rgb(51,164,129)"/>
  <rect x="555" y="295.00372" width="15" height="9.3553" fill="rgb(51,158,131)"/>
  <rect x="555" y="303.859" width="15" height="9.3553" fill="rgb(51,152,133)"/>
  <rect x="555" y="312.71432" width="15" height="9.3553" fill="rgb(50,145,135)"/>
  <rect x="555" y="321.5696" width="15" height="9.3553" fill="rgb(50,139,136)"/>
  <rect x="555" y="330.4249" width="15" height="9.3553" fill="rgb(50,133,138)"/>
  <rect x="555" y="339.2802" width="15" height="9.3553" fill="rgb(49,126,139)"/>
  <rect x="555" y="348.1355" width="15" height="9.3553" fill="rgb(49,120,140)"/>
  <rect x="555" y="356.9908" width="15" height="9.3553" fill="rgb(49,114,141)"/>
  <rect x="555" y="365.8461" width="15" height="9.3553" fill="rgb(49,107,142)"/>
  <rect x="555" y="374.70142" width="15" height="9.3553" fill="rgb(52,100,140)"/>
  <rect x="555" y="383.5567" width="15" height="9.3553" fill="rgb(58,93,135)"/>
  <rect x="555" y="392.41202" width="15" height="9.3553" fill="rgb(62,86,130)"/>
  <rect x="555" y="401.2673" width="15" height="9.3553" fill="rgb(65,79,126)"/>
  <rect x="555" y="410.12262" width="15" height="9.3553" fill="rgb(67,72,121)"/>
  <rect x="555" y="418.9779" width="15" height="9.3553" fill="rgb(69,65,116)"/>
  <rect x="555" y="427.83322" width="15" height="9.3553" fill="rgb(70,58,112)"/>
  <rect x="555" y="436.6885" width="15" height="9.3553" fill="rgb(71,50,107)"/>
  <rect x="555" y="445.54382" width="15" height="9.3553" fill="rgb(71,43,102)"/>
  <rect x="555" y="454.3991" width="15" height="9.3553" fill="rgb(71,35,98)"/>
  <rect x="555" y="463.2544" width="15" height="9.3553" fill="rgb(70,26,93)"/>
  <rect x="555" y="472.1097" width="15" height="9.3553" fill="rgb(69,15,89)"/>
  <text x="575" y="46.12" font-family="sans-serif" font-size="9.9" fill="rgb(0,0,0)">1477</text>
  <text x="575" y="480.965" font-family="sans-serif" font-size="9.9" fill="rgb(0,0,0)">28</text>
  <text x="300" y="23.2" font-family="sans-serif" font-size="13.200001" fill="rgb(0,0,0)" font-weight="bold" text-anchor="middle">Confusion Matrix</text>
</svg>
