<svg xmlns="http://www.w3.org/2000/svg" width="800" height="500" viewBox="0 0 800 500" role="img">
  <title>Classification Report (accuracy: 0.883)</title>
  <rect width="800" height="500" fill="white"/>
  <rect x="0" y="0" width="800" height="500" fill="rgb(255,255,255)"/>
  <line x1="55.82" y1="454.1" x2="720" y2="454.1" stroke="rgb(241,241,241)" stroke-width="0.5"/>
  <line x1="55.82" y1="412.01" x2="720" y2="412.01" stroke="rgb(241,241,241)" stroke-width="0.5"/>
  <line x1="55.82" y1="369.92" x2="720" y2="369.92" stroke="rgb(241,241,241)" stroke-width="0.5"/>
  <line x1="55.82" y1="327.83002" x2="720" y2="327.83002" stroke="rgb(241,241,241)" stroke-width="0.5"/>
  <line x1="55.82" y1="285.74" x2="720" y2="285.74" stroke="rgb(241,241,241)" stroke-width="0.5"/>
  <line x1="55.82" y1="243.65" x2="720" y2="243.65" stroke="rgb(241,241,241)" stroke-width="0.5"/>
  <line x1="55.82" y1="201.55998" x2="720" y2="201.55998" stroke="rgb(241,241,241)" stroke-width="0.5"/>
  <line x1="55.82" y1="159.46999" x2="720" y2="159.46999" stroke="rgb(241,241,241)" stroke-width="0.5"/>
  <line x1="55.82" y1="117.37999" x2="720" y2="117.37999" stroke="rgb(241,241,241)" stroke-width="0.5"/>
  <line x1="55.82" y1="75.28999" x2="720" y2="75.28999" stroke="rgb(241,241,241)" stroke-width="0.5"/>
  <line x1="55.82" y1="33.2" x2="720" y2="33.2" stroke="rgb(241,241,241)" stroke-width="0.5"/>
  <rect x="158.00154" y="77.10222" width="68.12102" height="376.99777" fill="rgb(31,119,180)"/>
  <rect x="413.4554" y="232.94916" width="68.12102" height="221.15083" fill="rgb(31,119,180)"/>
  <rect x="226.12259" y="41.03069" width="68.12102" height="413.0693" fill="rgb(255,127,14)"/>
  <rect x="481.57642" y="389.82465" width="68.12102" height="64.27536" fill="rgb(255,127,14)"/>
  <rect x="294.2436" y="59.88991" width="68.12102" height="394.21008" fill="rgb(44,160,44)"/>
  <rect x="549.6974" y="354.4977" width="68.12102" height="99.602295" fill="rgb(44,160,44)"/>
  <line x1="55.82" y1="33.2" x2="55.82" y2="454.1" stroke="rgb(0,0,0)" stroke-width="1"/>
  <line x1="55.82" y1="454.1" x2="720" y2="454.1" stroke="rgb(0,0,0)" stroke-width="1"/>
  <text x="260.18307" y="467.96" font-family="sans-serif" font-size="9.9" fill="rgb(0,0,0)" text-anchor="middle">Class 0</text>
  <text x="515.6369" y="467.96" font-family="sans-serif" font-size="9.9" fill="rgb(0,0,0)" text-anchor="middle">Class 1</text>
  <text x="51.86" y="454.1" font-family="sans-serif" font-size="9.9" fill="rgb(0,0,0)" text-anchor="end">0</text>
  <text x="51.86" y="412.01" font-family="sans-serif" font-size="9.9" fill="rgb(0,0,0)" text-anchor="end">0.10</text>
  <text x="51.86" y="369.92" font-family="sans-serif" font-size="9.9" fill="rgb(0,0,0)" text-anchor="end">0.20</text>
  <text x="51.86" y="327.83002" font-family="sans-serif" font-size="9.9" fill="rgb(0,0,0)" text-anchor="end">0.30</text>
  <text x="51.86" y="285.74" font-family="sans-serif" font-size="9.9" fill="rgb(0,0,0)" text-anchor="end">0.40</text>
  <text x="51.86" y="243.65" font-family="sans-serif" font-size="9.9" fill="rgb(0,0,0)" text-anchor="end">0.50</text>
  <text x="51.86" y="201.55998" font-family="sans-serif" font-size="9.9" fill="rgb(0,0,0)" text-anchor="end">0.60</text>
  <text x="51.86" y="159.46999" font-family="sans-serif" font-size="9.9" fill="rgb(0,0,0)" text-anchor="end">0.70</text>
  <text x="51.86" y="117.37999" font-family="sans-serif" font-size="9.9" fill="rgb(0,0,0)" text-anchor="end">0.80</text>
  <text x="51.86" y="75.28999" font-family="sans-serif" font-size="9.9" fill="rgb(0,0,0)" text-anchor="end">0.90</text>
  <text x="51.86" y="33.2" font-family="sans-serif" font-size="9.9" fill="rgb(0,0,0)" text-anchor="end">1.00</text>
  <text x="387.91" y="488.2" font-family="sans-serif" font-size="11" fill="rgb(0,0,0)" text-anchor="middle">Class</text>
  <text x="31.07" y="243.65" font-family="sans-serif" font-size="11" fill="rgb(0,0,0)" text-anchor="middle" transform="rotate(-90,31.07,243.65)">Score</text>
  <rect x="735" y="38.2" width="12" height="12" fill="rgb(31,119,180)" rx="2"/>
  <text x="752" y="48.4" font-family="sans-serif" font-size="9.9" fill="rgb(0,0,0)">Precision</text>
  <rect x="735" y="53.05" width="12" height="12" fill="rgb(255,127,14)" rx="2"/>
  <text x="752" y="63.25" font-family="sans-serif" font-size="9.9" fill="rgb(0,0,0)">Recall</text>
  <rect x="735" y="67.9" width="12" height="12" fill="rgb(44,160,44)" rx="2"/>
  <text x="752" y="78.100006" font-family="sans-serif" font-size="9.9" fill="rgb(0,0,0)">F1-score</text>
  <text x="400" y="23.2" font-family="sans-serif" font-size="13.200001" fill="rgb(0,0,0)" font-weight="bold" text-anchor="middle">Classification Report (accuracy: 0.883)</text>
</svg>
