<svg xmlns="http://www.w3.org/2000/svg" width="600" height="600" viewBox="0 0 600 600" role="img">
  <title>ROC (AUC = 0.748)</title>
  <rect width="600" height="600" fill="white"/>
  <rect x="0" y="0" width="600" height="600" fill="rgb(255,255,255)"/>
  <line x1="59.285" y1="554.1" x2="490.28503" y2="554.1" stroke="rgb(241,241,241)" stroke-width="0.5"/>
  <line x1="59.285" y1="510.69165" x2="490.28503" y2="510.69165" stroke="rgb(241,241,241)" stroke-width="0.5"/>
  <line x1="59.285" y1="467.28333" x2="490.28503" y2="467.28333" stroke="rgb(241,241,241)" stroke-width="0.5"/>
  <line x1="59.285" y1="423.875" x2="490.28503" y2="423.875" stroke="rgb(241,241,241)" stroke-width="0.5"/>
  <line x1="59.285" y1="380.46664" x2="490.28503" y2="380.46664" stroke="rgb(241,241,241)" stroke-width="0.5"/>
  <line x1="59.285" y1="337.05835" x2="490.28503" y2="337.05835" stroke="rgb(241,241,241)" stroke-width="0.5"/>
  <line x1="59.285" y1="293.65" x2="490.28503" y2="293.65" stroke="rgb(241,241,241)" stroke-width="0.5"/>
  <line x1="59.285" y1="250.24165" x2="490.28503" y2="250.24165" stroke="rgb(241,241,241)" stroke-width="0.5"/>
  <line x1="59.285" y1="206.8333" x2="490.28503" y2="206.8333" stroke="rgb(241,241,241)" stroke-width="0.5"/>
  <line x1="59.285" y1="163.42497" x2="490.28503" y2="163.42497" stroke="rgb(241,241,241)" stroke-width="0.5"/>
  <line x1="59.285" y1="120.01668" x2="490.28503" y2="120.01668" stroke="rgb(241,241,241)" stroke-width="0.5"/>
  <line x1="59.285" y1="76.60832" x2="490.28503" y2="76.60832" stroke="rgb(241,241,241)" stroke-width="0.5"/>
  <line x1="59.285" y1="33.2" x2="490.28503" y2="33.2" stroke="rgb(241,241,241)" stroke-width="0.5"/>
  <line x1="59.285" y1="33.2" x2="59.285" y2="554.1" stroke="rgb(241,241,241)" stroke-width="0.5"/>
  <line x1="120.85643" y1="33.2" x2="120.85643" y2="554.1" stroke="rgb(241,241,241)" stroke-width="0.5"/>
  <line x1="182.42787" y1="33.2" x2="182.42787" y2="554.1" stroke="rgb(241,241,241)" stroke-width="0.5"/>
  <line x1="243.9993" y1="33.2" x2="243.9993" y2="554.1" stroke="rgb(241,241,241)" stroke-width="0.5"/>
  <line x1="305.57074" y1="33.2" x2="305.57074" y2="554.1" stroke="rgb(241,241,241)" stroke-width="0.5"/>
  <line x1="367.14218" y1="33.2" x2="367.14218" y2="554.1" stroke="rgb(241,241,241)" stroke-width="0.5"/>
  <line x1="428.7136" y1="33.2" x2="428.7136" y2="554.1" stroke="rgb(241,241,241)" stroke-width="0.5"/>
  <line x1="490.28503" y1="33.2" x2="490.28503" y2="554.1" stroke="rgb(241,241,241)" stroke-width="0.5"/>
  <polyline points="120.85643,510.69165 121.06099,510.69165 121.06099,508.5533 121.06099,506.41498 121.06099,504.2766 121.06099,502.13828 121.26554,502.13828 121.47011,502.13828 121.67465,502.13828 121.87921,502.13828 121.87921,499.99994 121.87921,497.8616 122.08377,497.8616 122.08377,495.72327 122.08377,493.5849 122.28833,493.5849 122.28833,491.44656 122.28833,489.30823 122.49288,489.30823 122.69743,489.30823 122.69743,487.1699 122.69743,485.03156 122.69743,482.8932 122.90199,482.8932 122.90199,480.75485 123.10655,480.75485 123.10655,478.61652 123.10655,476.47818 123.31111,476.47818 123.31111,474.33984 123.515656,474.33984 123.72023,474.33984 123.72023,472.2015 123.72023,470.06317 123.72023,467.9248 123.72023,465.78647 123.924774,465.78647 124.12933,465.78647 124.33389,465.78647 124.53844,465.78647 124.743,465.78647 124.743,463.64813 124.947556,463.64813 124.947556,461.5098 125.152115,461.5098 125.152115,459.37146 125.152115,457.2331 125.152115,455.0948 125.356674,455.0948 125.56123,455.0948 125.56123,452.95642 125.56123,450.81808 125.56123,448.67975 125.76578,448.67975 125.76578,446.5414 125.97034,446.5414 126.1749,446.5414 126.379456,446.5414 126.379456,444.40308 126.584015,444.40308 126.584015,442.2647 126.584015,440.12637 126.78856,440.12637 126.78856,437.98804 126.78856,435.8497 126.78856,433.71136 126.99312,433.71136 127.19768,433.71136 127.19768,431.573 127.40224,431.573 127.40224,429.4347 127.40224,427.29633 127.6068,427.29633 127.81134,427.29633 128.0159,427.29633 128.22046,427.29633 128.42502,427.29633 128.62958,427.29633 128.83412,427.29633 128.83412,425.158 129.03868,425.158 129.24324,425.158 129.24324,423.01965 129.4478,423.01965 129.65234,423.01965 129.8569,423.01965 130.06146,423.01965 130.26602,423.01965 130.47058,423.01965 130.67513,423.01965 130.87968,423.01965 130.87968,420.8813 131.08424,420.8813 131.2888,420.8813 131.2888,418.74298 131.49336,418.74298 131.69792,418.74298 131.69792,416.6046 131.90247,416.6046 131.90247,414.4663 131.90247,412.32794 132.10703,412.32794 132.10703,410.1896 132.31158,410.1896 132.31158,408.05127 132.31158,405.9129 132.51614,405.9129 132.7207,405.9129 132.92525,405.9129 133.1298,405.9129 133.33437,405.9129 133.53893,405.9129 133.74348,405.9129 133.74348,403.7746 133.94803,403.7746 133.94803,401.63623 134.15259,401.63623 134.15259,399.4979 134.35715,399.4979 134.5617,399.4979 134.5617,397.35956 134.76625,397.35956 134.97083,397.35956 135.17537,397.35956 135.37993,397.35956 135.58449,397.35956 135.78903,397.35956 135.99359,397.35956 135.99359,395.2212 136.19815,395.2212 136.40271,395.2212 136.60727,395.2212 136.81181,395.2212 137.01637,395.2212 137.22093,395.2212 137.42549,395.2212 137.63005,395.2212 137.83461,395.2212 138.03915,395.2212 138.03915,393.0829 138.03915,390.94452 138.24371,390.94452 138.44827,390.94452 138.65283,390.94452 138.65283,388.80618 138.85739,388.80618 139.06194,388.80618 139.06194,386.66785 139.06194,384.5295 139.2665,384.5295 139.47105,384.5295 139.6756,384.5295 139.88016,384.5295 140.08472,384.5295 140.08472,382.39117 140.28928,382.39117 140.49384,382.39117 140.6984,382.39117 140.6984,380.2528 140.90294,380.2528 141.1075,380.2528 141.31206,380.2528 141.31206,378.1145 141.51662,378.1145 141.72118,378.1145 141.92572,378.1145 142.13028,378.1145 142.33484,378.1145 142.5394,378.1145 142.74396,378.1145 142.9485,378.1145 143.15306,378.1145 143.35762,378.1145 143.35762,375.97614 143.35762,373.8378 143.56218,373.8378 143.76674,373.8378 143.9713,373.8378 144.17584,373.8378 144.3804,373.8378 144.58496,373.8378 144.7895,373.8378 144.7895,371.69946 144.99408,371.69946 145.19862,371.69946 145.40318,371.69946 145.60774,371.69946 145.60774,369.5611 145.81229,369.5611 146.01685,369.5611 146.2214,369.5611 146.42596,369.5611 146.63052,369.5611 146.83508,369.5611 147.03963,369.5611 147.03963,367.4228 147.24419,367.4228 147.44875,367.4228 147.6533,367.4228 147.85786,367.4228 148.06241,367.4228 148.26697,367.4228 148.47153,367.4228 148.67609,367.4228 148.88065,367.4228 149.08519,367.4228 149.28975,367.4228 149.49431,367.4228 149.69887,367.4228 149.90343,367.4228 150.10799,367.4228 150.10799,365.28442 150.31253,365.28442 150.51709,365.28442 150.72165,365.28442 150.72165,363.1461 150.9262,363.1461 151.13075,363.1461 151.13075,361.00775 151.33531,361.00775 151.53987,361.00775 151.74443,361.00775 151.74443,358.8694 151.94899,358.8694 151.94899,356.73108 152.15353,356.73108 152.3581,356.73108 152.3581,354.5927 152.56265,354.5927 152.56265,352.45438 152.76721,352.45438 152.97177,352.45438 153.17632,352.45438 153.38087,352.45438 153.58543,352.45438 153.79,352.45438 153.99455,352.45438 154.1991,352.45438 154.40366,352.45438 154.60822,352.45438 154.81277,352.45438 154.81277,350.31604 154.81277,348.17767 155.01733,348.17767 155.22188,348.17767 155.42644,348.17767 155.631,348.17767 155.83556,348.17767 156.0401,348.17767 156.0401,346.03937 156.24467,346.03937 156.44922,346.03937 156.65378,346.03937 156.85834,346.03937 157.06288,346.03937 157.26744,346.03937 157.472,346.03937 157.67656,346.03937 157.67656,343.901 157.88112,343.901 158.08568,343.901 158.29022,343.901 158.49478,343.901 158.69934,343.901 158.9039,343.901 158.9039,341.76266 159.10846,341.76266 159.313,341.76266 159.51756,341.76266 159.72212,341.76266 159.92668,341.76266 160.13124,341.76266 160.33578,341.76266 160.54034,341.76266 160.7449,341.76266 160.94946,341.76266 161.15402,341.76266 161.35857,341.76266 161.56313,341.76266 161.56313,339.62433 161.56313,337.486 161.76768,337.486 161.97224,337.486 162.17679,337.486 162.38135,337.486 162.5859,337.486 162.79047,337.486 162.79047,335.34766 162.99503,335.34766 163.19957,335.34766 163.40413,335.34766 163.60869,335.34766 163.81325,335.34766 164.0178,335.34766 164.22237,335.34766 164.42691,335.34766 164.42691,333.20932 164.42691,331.07098 164.63147,331.07098 164.83603,331.07098 164.83603,328.93262 165.04059,328.93262 165.24515,328.93262 165.44969,328.93262 165.65425,328.93262 165.85881,328.93262 166.06337,328.93262 166.26793,328.93262 166.26793,326.7943 166.26793,324.65594 166.47247,324.65594 166.47247,322.5176 166.67703,322.5176 166.88159,322.5176 167.08614,322.5176 167.29071,322.5176 167.49527,322.5176 167.69981,322.5176 167.90437,322.5176 168.10892,322.5176 168.31349,322.5176 168.31349,320.37927 168.31349,318.2409 168.51804,318.2409 168.51804,316.1026 168.7226,316.1026 168.92715,316.1026 169.1317,316.1026 169.33627,316.1026 169.54082,316.1026 169.74538,316.1026 169.94994,316.1026 170.1545,316.1026 170.1545,313.96423 170.35905,313.96423 170.5636,313.96423 170.76816,313.96423 170.76816,311.8259 170.97272,311.8259 170.97272,309.68756 170.97272,307.5492 171.17728,307.5492 171.38184,307.5492 171.38184,305.4109 171.58638,305.4109 171.79094,305.4109 171.9955,305.4109 172.20006,305.4109 172.40462,305.4109 172.60916,305.4109 172.81372,305.4109 173.01828,305.4109 173.22284,305.4109 173.22284,303.27252 173.42738,303.27252 173.63194,303.27252 173.8365,303.27252 173.8365,301.1342 173.8365,298.99585 174.04106,298.99585 174.04106,296.8575 174.24562,296.8575 174.45016,296.8575 174.65472,296.8575 174.85928,296.8575 175.06384,296.8575 175.2684,296.8575 175.47295,296.8575 175.6775,296.8575 175.88206,296.8575 176.08662,296.8575 176.29118,296.8575 176.49573,296.8575 176.70029,296.8575 176.90485,296.8575 177.1094,296.8575 177.31396,296.8575 177.51851,296.8575 177.72308,296.8575 177.92763,296.8575 178.13219,296.8575 178.33673,296.8575 178.54129,296.8575 178.74586,296.8575 178.95041,296.8575 178.95041,294.71918 179.15497,294.71918 179.35951,294.71918 179.56409,294.71918 179.76863,294.71918 179.97319,294.71918 180.17775,294.71918 180.3823,294.71918 180.58687,294.71918 180.58687,292.5808 180.79141,292.5808 180.99597,292.5808 181.20053,292.5808 181.40508,292.5808 181.60965,292.5808 181.60965,290.44247 181.8142,290.44247 181.8142,288.30414 182.01875,288.30414 182.22331,288.30414 182.42787,288.30414 182.63243,288.30414 182.83698,288.30414 183.04153,288.30414 183.24608,288.30414 183.45065,288.30414 183.65521,288.30414 183.85976,288.30414 183.85976,286.1658 184.06432,286.1658 184.26888,286.1658 184.47343,286.1658 184.67798,286.1658 184.88254,286.1658 184.88254,284.02747 185.0871,284.02747 185.29166,284.02747 185.29166,281.8891 185.49622,281.8891 185.70076,281.8891 185.90532,281.8891 185.90532,279.75076 185.90532,277.61243 185.90532,275.4741 186.10988,275.4741 186.31444,275.4741 186.519,275.4741 186.72354,275.4741 186.9281,275.4741 187.13266,275.4741 187.33722,275.4741 187.54178,275.4741 187.74632,275.4741 187.95088,275.4741 188.15546,275.4741 188.36,275.4741 188.56456,275.4741 188.7691,275.4741 188.97368,275.4741 189.17822,275.4741 189.38278,275.4741 189.58734,275.4741 189.79189,275.4741 189.99646,275.4741 190.201,275.4741 190.40556,275.4741 190.61012,275.4741 190.61012,273.33575 190.81467,273.33575 191.01924,273.33575 191.22379,273.33575 191.22379,271.19742 191.42834,271.19742 191.42834,269.05905 191.6329,269.05905 191.83746,269.05905 192.04202,269.05905 192.24657,269.05905 192.45113,269.05905 192.45113,266.92072 192.65567,266.92072 192.86024,266.92072 193.0648,266.92072 193.26935,266.92072 193.4739,266.92072 193.67847,266.92072 193.88303,266.92072 194.08757,266.92072 194.29213,266.92072 194.29213,264.78238 194.49669,264.78238 194.70125,264.78238 194.70125,262.64404 194.9058,262.64404 195.11035,262.64404 195.11035,260.5057 195.31491,260.5057 195.51947,260.5057 195.72403,260.5057 195.92859,260.5057 196.13313,260.5057 196.33769,260.5057 196.54225,260.5057 196.74681,260.5057 196.95137,260.5057 197.15591,260.5057 197.36047,260.5057 197.56503,260.5057 197.56503,258.36734 197.76959,258.36734 197.97415,258.36734 198.1787,258.36734 198.38326,258.36734 198.58781,258.36734 198.79237,258.36734 198.99692,258.36734 199.20148,258.36734 199.40605,258.36734 199.6106,258.36734 199.81516,258.36734 200.0197,258.36734 200.22426,258.36734 200.42882,258.36734 200.63338,258.36734 200.83794,258.36734 201.04248,258.36734 201.04248,256.229 201.24706,256.229 201.4516,256.229 201.65616,256.229 201.86072,256.229 202.06526,256.229 202.26984,256.229 202.47438,256.229 202.47438,254.09065 202.67894,254.09065 202.8835,254.09065 203.08804,254.09065 203.29262,254.09065 203.49716,254.09065 203.70172,254.09065 203.70172,251.95232 203.70172,249.81398 203.90627,249.81398 203.90627,247.67564 204.11084,247.67564 204.3154,247.67564 204.51994,247.67564 204.7245,247.67564 204.92905,247.67564 205.13362,247.67564 205.33817,247.67564 205.54272,247.67564 205.74728,247.67564 205.95184,247.67564 206.1564,247.67564 206.36095,247.67564 206.5655,247.67564 206.77007,247.67564 206.97462,247.67564 207.17918,247.67564 207.38373,247.67564 207.58829,247.67564 207.79285,247.67564 207.9974,247.67564 208.20197,247.67564 208.40651,247.67564 208.61107,247.67564 208.61107,245.53728 208.81563,245.53728 209.02019,245.53728 209.02019,243.39894 209.22475,243.39894 209.42929,243.39894 209.63385,243.39894 209.83841,243.39894 210.04297,243.39894 210.24751,243.39894 210.45207,243.39894 210.65665,243.39894 210.86119,243.39894 211.06575,243.39894 211.2703,243.39894 211.47485,243.39894 211.67941,243.39894 211.67941,241.2606 211.88397,241.2606 211.88397,239.12227 212.08853,239.12227 212.29308,239.12227 212.49763,239.12227 212.7022,239.12227 212.90675,239.12227 213.11131,239.12227 213.31586,239.12227 213.52043,239.12227 213.72498,239.12227 213.92953,239.12227 214.1341,239.12227 214.33864,239.12227 214.54321,239.12227 214.54321,236.98393 214.54321,234.84557 214.54321,232.70723 214.74776,232.70723 214.95232,232.70723 214.95232,230.5689 215.15686,230.5689 215.36142,230.5689 215.566,230.5689 215.77054,230.5689 215.77054,228.43056 215.9751,228.43056 216.17964,228.43056 216.38422,228.43056 216.58876,228.43056 216.58876,226.29222 216.79332,226.29222 216.99788,226.29222 217.20242,226.29222 217.20242,224.15388 217.407,224.15388 217.61154,224.15388 217.61154,222.01552 217.8161,222.01552 218.02066,222.01552 218.22522,222.01552 218.42978,222.01552 218.63432,222.01552 218.63432,219.87718 218.83888,219.87718 219.04344,219.87718 219.248,219.87718 219.45256,219.87718 219.6571,219.87718 219.6571,217.73885 219.6571,215.60051 219.86166,215.60051 220.06621,215.60051 220.27078,215.60051 220.47533,215.60051 220.67989,215.60051 220.88445,215.60051 221.089,215.60051 221.29356,215.60051 221.49811,215.60051 221.70267,215.60051 221.90723,215.60051 222.11179,215.60051 222.31635,215.60051 222.52089,215.60051 222.52089,213.46217 222.72545,213.46217 222.93001,213.46217 223.13457,213.46217 223.33913,213.46217 223.54367,213.46217 223.54367,211.32384 223.74823,211.32384 223.95279,211.32384 224.15735,211.32384 224.36191,211.32384 224.56645,211.32384 224.77101,211.32384 224.77101,209.1855 224.97557,209.1855 225.18013,209.1855 225.38467,209.1855 225.58923,209.1855 225.58923,207.04716 225.79381,207.04716 225.99835,207.04716 226.20291,207.04716 226.40746,207.04716 226.61201,207.04716 226.81657,207.04716 227.02113,207.04716 227.2257,207.04716 227.2257,204.90883 227.43024,204.90883 227.63481,204.90883 227.83936,204.90883 228.04391,204.90883 228.24847,204.90883 228.45302,204.90883 228.6576,204.90883 228.6576,202.7705 228.86214,202.7705 228.86214,200.63216 228.86214,198.49379 229.0667,198.49379 229.27126,198.49379 229.4758,198.49379 229.68037,198.49379 229.68037,196.35545 229.88492,196.35545 230.08948,196.35545 230.29402,196.35545 230.4986,196.35545 230.70316,196.35545 230.9077,196.35545 231.11226,196.35545 231.3168,196.35545 231.3168,194.21712 231.52138,194.21712 231.72592,194.21712 231.93048,194.21712 232.13504,194.21712 232.33958,194.21712 232.33958,192.07878 232.54416,192.07878 232.7487,192.07878 232.95326,192.07878 233.15782,192.07878 233.36238,192.07878 233.56694,192.07878 233.77148,192.07878 233.77148,189.94044 233.97604,189.94044 234.1806,189.94044 234.38516,189.94044 234.58972,189.94044 234.79427,189.94044 234.99883,189.94044 235.20338,189.94044 235.40794,189.94044 235.6125,189.94044 235.81705,189.94044 236.0216,189.94044 236.22617,189.94044 236.43073,189.94044 236.63527,189.94044 236.83983,189.94044 237.04439,189.94044 237.24895,189.94044 237.4535,189.94044 237.65805,189.94044 237.86261,189.94044 237.86261,187.80208 238.06717,187.80208 238.27173,187.80208 238.47629,187.80208 238.68083,187.80208 238.88539,187.80208 239.08995,187.80208 239.29451,187.80208 239.49907,187.80208 239.70361,187.80208 239.90819,187.80208 240.11273,187.80208 240.11273,185.66374 240.31729,185.66374 240.31729,183.5254 240.52185,183.5254 240.7264,183.5254 240.7264,181.38707 240.93097,181.38707 241.13551,181.38707 241.34007,181.38707 241.54462,181.38707 241.74918,181.38707 241.95375,181.38707 242.1583,181.38707 242.36285,181.38707 242.5674,181.38707 242.77197,181.38707 242.97652,181.38707 243.18108,181.38707 243.38564,181.38707 243.59018,181.38707 243.79475,181.38707 243.9993,181.38707 244.20386,181.38707 244.40842,181.38707 244.61298,181.38707 244.81754,181.38707 245.02208,181.38707 245.22664,181.38707 245.4312,181.38707 245.63576,181.38707 245.63576,179.24873 245.84032,179.24873 246.04486,179.24873 246.24942,179.24873 246.45396,179.24873 246.45396,177.11037 246.65854,177.11037 246.8631,177.11037 247.06764,177.11037 247.2722,177.11037 247.2722,174.97203 247.47676,174.97203 247.68132,174.97203 247.88586,174.97203 248.09042,174.97203 248.29498,174.97203 248.49954,174.97203 248.7041,174.97203 248.7041,172.8337 248.90865,172.8337 249.1132,172.8337 249.31776,172.8337 249.52232,172.8337 249.52232,170.69536 249.72688,170.69536 249.93143,170.69536 250.13599,170.69536 250.34055,170.69536 250.5451,170.69536 250.74966,170.69536 250.95421,170.69536 251.15877,170.69536 251.36333,170.69536 251.36333,168.55702 251.56789,168.55702 251.77245,168.55702 251.77245,166.41869 251.97699,166.41869 252.18156,166.41869 252.38611,166.41869 252.59067,166.41869 252.79521,166.41869 252.99977,166.41869 253.20435,166.41869 253.40889,166.41869 253.61345,166.41869 253.818,166.41869 254.02255,166.41869 254.22711,166.41869 254.43167,166.41869 254.63623,166.41869 254.84077,166.41869 255.04535,166.41869 255.2499,166.41869 255.45445,166.41869 255.45445,164.28032 255.65901,164.28032 255.86356,164.28032 256.0681,164.28032 256.27267,164.28032 256.47723,164.28032 256.6818,164.28032 256.88635,164.28032 257.0909,164.28032 257.29544,164.28032 257.5,164.28032 257.5,162.14198 257.70456,162.14198 257.90912,162.14198 258.11368,162.14198 258.31824,162.14198 258.5228,162.14198 258.72733,162.14198 258.93192,162.14198 259.13644,162.14198 259.341,162.14198 259.54556,162.14198 259.75012,162.14198 259.95468,162.14198 260.15924,162.14198 260.3638,162.14198 260.56836,162.14198 260.56836,160.00365 260.77292,160.00365 260.97748,160.00365 261.182,160.00365 261.38657,160.00365 261.59113,160.00365 261.7957,160.00365 262.00024,160.00365 262.00024,157.86531 262.2048,157.86531 262.40936,157.86531 262.61392,157.86531 262.61392,155.72697 262.81848,155.72697 263.02304,155.72697 263.22757,155.72697 263.43213,155.72697 263.6367,155.72697 263.84125,155.72697 264.0458,155.72697 264.25037,155.72697 264.45493,155.72697 264.6595,155.72697 264.86404,155.72697 265.06857,155.72697 265.27313,155.72697 265.4777,155.72697 265.68225,155.72697 265.8868,155.72697 266.09137,155.72697 266.29593,155.72697 266.29593,153.58861 266.5005,153.58861 266.5005,151.45027 266.70505,151.45027 266.9096,151.45027 267.11414,151.45027 267.11414,149.31194 267.31873,149.31194 267.52325,149.31194 267.7278,149.31194 267.93237,149.31194 268.13693,149.31194 268.3415,149.31194 268.54605,149.31194 268.7506,149.31194 268.95514,149.31194 269.15973,149.31194 269.3643,149.31194 269.56882,149.31194 269.77338,149.31194 269.97794,149.31194 270.1825,149.31194 270.38705,149.31194 270.5916,149.31194 270.79617,149.31194 271.0007,149.31194 271.0007,147.1736 271.2053,147.1736 271.40982,147.1736 271.61438,147.1736 271.81894,147.1736 272.0235,147.1736 272.22806,147.1736 272.43262,147.1736 272.63718,147.1736 272.84174,147.1736 273.0463,147.1736 273.25085,147.1736 273.45538,147.1736 273.65994,147.1736 273.8645,147.1736 274.06906,147.1736 274.27362,147.1736 274.47818,147.1736 274.68274,147.1736 274.88727,147.1736 275.09186,147.1736 275.29642,147.1736 275.50095,147.1736 275.70554,147.1736 275.91006,147.1736 276.11462,147.1736 276.31918,147.1736 276.52374,147.1736 276.7283,147.1736 276.93283,147.1736 277.13742,147.1736 277.34198,147.1736 277.5465,147.1736 277.75107,147.1736 277.95563,147.1736 278.1602,147.1736 278.36475,147.1736 278.5693,147.1736 278.77386,147.1736 278.9784,147.1736 279.18298,147.1736 279.38754,147.1736 279.38754,145.03526 279.59207,145.03526 279.79663,145.03526 280.00122,145.03526 280.00122,142.89693 280.20575,142.89693 280.4103,142.89693 280.61487,142.89693 280.81943,142.89693 281.024,142.89693 281.22852,142.89693 281.4331,142.89693 281.63763,142.89693 281.63763,140.75856 281.8422,140.75856 282.04678,140.75856 282.2513,140.75856 282.45587,140.75856 282.45587,138.62022 282.66043,138.62022 282.865,138.62022 283.06955,138.62022 283.27408,138.62022 283.47867,138.62022 283.6832,138.62022 283.88776,138.62022 284.09232,138.62022 284.29688,138.62022 284.50143,138.62022 284.706,138.62022 284.706,136.48189 284.91055,136.48189 285.1151,136.48189 285.31964,136.48189 285.52423,136.48189 285.52423,134.34355 285.7288,134.34355 285.93332,134.34355 286.13788,134.34355 286.34244,134.34355 286.547,134.34355 286.75156,134.34355 286.95612,134.34355 287.16068,134.34355 287.3652,134.34355 287.56976,134.34355 287.77435,134.34355 287.97888,134.34355 288.18344,134.34355 288.388,134.34355 288.59256,134.34355 288.79712,134.34355 289.00168,134.34355 289.20624,134.34355 289.4108,134.34355 289.61533,134.34355 289.81992,134.34355 290.02444,134.34355 290.229,134.34355 290.43356,134.34355 290.63812,134.34355 290.84268,134.34355 291.0472,134.34355 291.2518,134.34355 291.45636,134.34355 291.6609,134.34355 291.86548,134.34355 292.07,134.34355 292.27457,134.34355 292.47913,134.34355 292.6837,134.34355 292.88824,134.34355 293.09277,134.34355 293.29736,134.34355 293.50192,134.34355 293.70645,134.34355 293.70645,132.20522 293.911,132.20522 294.11557,132.20522 294.11557,130.06685 294.32013,130.06685 294.5247,130.06685 294.72925,130.06685 294.9338,130.06685 295.13837,130.06685 295.34293,130.06685 295.5475,130.06685 295.752,130.06685 295.95657,130.06685 296.16116,130.06685 296.3657,130.06685 296.57025,130.06685 296.7748,130.06685 296.97937,130.06685 297.18393,130.06685 297.38846,130.06685 297.59305,130.06685 297.79758,130.06685 298.00214,130.06685 298.20673,130.06685 298.41125,130.06685 298.6158,130.06685 298.82037,130.06685 299.02493,130.06685 299.2295,130.06685 299.43402,130.06685 299.6386,130.06685 299.84317,130.06685 300.0477,130.06685 300.25226,130.06685 300.45682,130.06685 300.66138,130.06685 300.86594,130.06685 301.0705,130.06685 301.27505,130.06685 301.47958,130.06685 301.68417,130.06685 301.88873,130.06685 302.09326,130.06685 302.29782,130.06685 302.29782,127.92851 302.50238,127.92851 302.70694,127.92851 302.9115,127.92851 303.11606,127.92851 303.11606,125.79018 303.32062,125.79018 303.52515,125.79018 303.7297,125.79018 303.9343,125.79018 304.13882,125.79018 304.34338,125.79018 304.54797,125.79018 304.7525,125.79018 304.95706,125.79018 305.16162,125.79018 305.36618,125.79018 305.57074,125.79018 305.77527,125.79018 305.97986,125.79018 306.1844,125.79018 306.38895,125.79018 306.5935,125.79018 306.79807,125.79018 307.00262,125.79018 307.20715,125.79018 307.41174,125.79018 307.6163,125.79018 307.82083,125.79018 308.02542,125.79018 308.22995,125.79018 308.4345,125.79018 308.63907,125.79018 308.84363,125.79018 309.0482,125.79018 309.25275,125.79018 309.4573,125.79018 309.4573,123.65184 309.66187,123.65184 309.8664,123.65184 310.07095,123.65184 310.27554,123.65184 310.48007,123.65184 310.68463,123.65184 310.8892,123.65184 311.09375,123.65184 311.2983,123.65184 311.50287,123.65184 311.70743,123.65184 311.91196,123.65184 312.11652,123.65184 312.3211,123.65184 312.52563,123.65184 312.7302,123.65184 312.93475,123.65184 313.1393,123.65184 313.34387,123.65184 313.5484,123.65184 313.753,123.65184 313.95755,123.65184 314.16208,123.65184 314.36667,123.65184 314.5712,123.65184 314.77576,123.65184 314.98032,123.65184 315.18488,123.65184 315.38943,123.65184 315.594,123.65184 315.594,121.513504 315.79855,121.513504 316.0031,121.513504 316.20764,121.513504 316.20764,119.37517 316.41223,119.37517 316.61676,119.37517 316.82132,119.37517 317.0259,119.37517 317.23044,119.37517 317.435,119.37517 317.63956,119.37517 317.84412,119.37517 318.04868,119.37517 318.2532,119.37517 318.4578,119.37517 318.4578,117.2368 318.66235,117.2368 318.86688,117.2368 319.07144,117.2368 319.276,117.2368 319.276,115.098465 319.276,112.96013 319.48056,112.96013 319.68512,112.96013 319.88968,112.96013 320.09424,112.96013 320.29877,112.96013 320.50336,112.96013 320.70792,112.96013 320.91245,112.96013 321.117,112.96013 321.32156,112.96013 321.52612,112.96013 321.73068,112.96013 321.93524,112.96013 322.1398,112.96013 322.34433,112.96013 322.5489,112.96013 322.75348,112.96013 322.958,112.96013 323.16257,112.96013 323.36716,112.96013 323.5717,112.96013 323.77625,112.96013 323.9808,112.96013 324.18536,112.96013 324.38992,112.96013 324.59445,112.96013 324.79904,112.96013 325.00357,112.96013 325.20813,112.96013 325.4127,112.96013 325.61725,112.96013 325.8218,112.96013 326.02634,112.96013 326.23093,112.96013 326.4355,112.96013 326.64,112.96013 326.8446,112.96013 327.04913,112.96013 327.2537,112.96013 327.45825,112.96013 327.6628,112.96013 327.86737,112.96013 327.86737,110.82179 328.07193,110.82179 328.2765,110.82179 328.48105,110.82179 328.68558,110.82179 328.89014,110.82179 329.09473,110.82179 329.29926,110.82179 329.5038,110.82179 329.70837,110.82179 329.91293,110.82179 330.1175,110.82179 330.32205,110.82179 330.5266,110.82179 330.73114,110.82179 330.9357,110.82179 331.1403,110.82179 331.34482,110.82179 331.54938,110.82179 331.75394,110.82179 331.9585,110.82179 332.16306,110.82179 332.36758,110.82179 332.57217,110.82179 332.7767,110.82179 332.98126,110.82179 333.18585,110.82179 333.39038,110.82179 333.59494,110.82179 333.7995,110.82179 334.00406,110.82179 334.20862,110.82179 334.41315,110.82179 334.61774,110.82179 334.8223,110.82179 335.02682,110.82179 335.23138,110.82179 335.43594,110.82179 335.6405,110.82179 335.84506,110.82179 336.04962,110.82179 336.25418,110.82179 336.4587,110.82179 336.6633,110.82179 336.86786,110.82179 337.0724,110.82179 337.27695,110.82179 337.4815,110.82179 337.68607,110.82179 337.89063,110.82179 338.09518,110.82179 338.29974,110.82179 338.5043,110.82179 338.70883,110.82179 338.91342,110.82179 339.11795,110.82179 339.3225,110.82179 339.5271,110.82179 339.73163,110.82179 339.9362,110.82179 340.14075,110.82179 340.14075,108.68346 340.3453,108.68346 340.54987,108.68346 340.7544,108.68346 340.95898,108.68346 341.1635,108.68346 341.36807,108.68346 341.57263,108.68346 341.7772,108.68346 341.98175,108.68346 342.18628,108.68346 342.39087,108.68346 342.59543,108.68346 342.79996,108.68346 342.79996,106.54509 343.00455,106.54509 343.2091,106.54509 343.41364,106.54509 343.41364,104.40675 343.6182,104.40675 343.82275,104.40675 344.0273,104.40675 344.23187,104.40675 344.43643,104.40675 344.43643,102.26842 344.641,102.26842 344.84552,102.26842 345.05008,102.26842 345.25467,102.26842 345.4592,102.26842 345.66376,102.26842 345.86832,102.26842 346.07288,102.26842 346.27744,102.26842 346.482,102.26842 346.68655,102.26842 346.89108,102.26842 347.09564,102.26842 347.30023,102.26842 347.30023,100.13008 347.50476,100.13008 347.70932,100.13008 347.91388,100.13008 348.11844,100.13008 348.323,100.13008 348.52753,100.13008 348.73212,100.13008 348.93668,100.13008 349.1412,100.13008 349.3458,100.13008 349.55032,100.13008 349.75488,100.13008 349.95944,100.13008 350.164,100.13008 350.36856,100.13008 350.5731,100.13008 350.77768,100.13008 350.77768,97.991745 350.77768,95.85338 350.98224,95.85338 351.18677,95.85338 351.39133,95.85338 351.5959,95.85338 351.80045,95.85338 352.005,95.85338 352.20956,95.85338 352.41412,95.85338 352.61868,95.85338 352.82324,95.85338 353.0278,95.85338 353.23233,95.85338 353.4369,95.85338 353.64148,95.85338 353.846,95.85338 354.05057,95.85338 354.25513,95.85338 354.4597,95.85338 354.66425,95.85338 354.86877,95.85338 355.07336,95.85338 355.2779,95.85338 355.48245,95.85338 355.48245,93.71504 355.68704,93.71504 355.89157,93.71504 356.09613,93.71504 356.3007,93.71504 356.50525,93.71504 356.7098,93.71504 356.91434,93.71504 357.11893,93.71504 357.3235,93.71504 357.528,93.71504 357.73257,93.71504 357.93713,93.71504 358.1417,93.71504 358.34625,93.71504 358.5508,93.71504 358.75537,93.71504 358.9599,93.71504 358.9599,91.576706 359.1645,91.576706 359.36905,91.576706 359.57358,91.576706 359.57358,89.43837 359.77814,89.43837 359.9827,89.43837 360.18726,89.43837 360.3918,89.43837 360.59637,89.43837 360.80093,89.43837 361.00546,89.43837 361.21002,89.43837 361.4146,89.43837 361.61914,89.43837 361.8237,89.43837 362.0283,89.43837 362.0283,87.30003 362.23282,87.30003 362.43738,87.30003 362.64194,87.30003 362.8465,87.30003 363.05106,87.30003 363.25558,87.30003 363.46017,87.30003 363.6647,87.30003 363.86926,87.30003 364.07382,87.30003 364.27838,87.30003 364.48294,87.30003 364.68747,87.30003 364.89206,87.30003 365.09662,87.30003 365.30115,87.30003 365.50574,87.30003 365.71027,87.30003 365.91483,87.30003 366.1194,87.30003 366.32394,87.30003 366.5285,87.30003 366.73303,87.30003 366.93762,87.30003 367.14218,87.30003 367.3467,87.30003 367.55127,87.30003 367.75586,87.30003 367.9604,87.30003 368.16495,87.30003 368.3695,87.30003 368.57407,87.30003 368.57407,85.1617 368.77863,85.1617 368.77863,83.02333 368.9832,83.02333 369.18774,83.02333 369.39227,83.02333 369.59683,83.02333 369.80142,83.02333 370.00595,83.02333 370.2105,83.02333 370.41507,83.02333 370.61963,83.02333 370.61963,80.884995 370.8242,80.884995 371.02872,80.884995 371.2333,80.884995 371.43784,80.884995 371.6424,80.884995 371.847,80.884995 372.0515,80.884995 372.25607,80.884995 372.46063,80.884995 372.6652,80.884995 372.86975,80.884995 373.07428,80.884995 373.27887,80.884995 373.48343,80.884995 373.68796,80.884995 373.89252,80.884995 374.09708,80.884995 374.30164,80.884995 374.5062,80.884995 374.5062,78.74666 374.71075,78.74666 374.9153,78.74666 375.11984,78.74666 375.32443,78.74666 375.529,78.74666 375.73352,78.74666 375.93808,78.74666 376.14264,78.74666 376.3472,78.74666 376.55176,78.74666 376.75632,78.74666 376.96088,78.74666 377.16544,78.74666 377.36996,78.74666 377.57455,78.74666 377.77908,78.74666 377.98364,78.74666 378.1882,78.74666 378.39276,78.74666 378.59732,78.74666 378.80188,78.74666 379.00644,78.74666 379.211,78.74666 379.41553,78.74666 379.62012,78.74666 379.82465,78.74666 380.0292,78.74666 380.23376,78.74666 380.43832,78.74666 380.64288,78.74666 380.8474,78.74666 381.052,78.74666 381.25656,78.74666 381.4611,78.74666 381.66565,78.74666 381.87024,78.74666 382.07477,78.74666 382.27933,78.74666 382.4839,78.74666 382.68845,78.74666 382.893,78.74666 383.09756,78.74666 383.30212,78.74666 383.50665,78.74666 383.7112,78.74666 383.9158,78.74666 384.12033,78.74666 384.3249,78.74666 384.52945,78.74666 384.734,78.74666 384.93857,78.74666 384.93857,76.60832 385.14313,76.60832 385.3477,76.60832 385.55222,76.60832 385.75677,76.60832 385.96136,76.60832 386.1659,76.60832 386.37045,76.60832 386.575,76.60832 386.77957,76.60832 386.98413,76.60832 387.18866,76.60832 387.39325,76.60832 387.5978,76.60832 387.80234,76.60832 388.0069,76.60832 388.21146,76.60832 388.41602,76.60832 388.62057,76.60832 388.82513,76.60832 389.0297,76.60832 389.23422,76.60832 389.4388,76.60832 389.64337,76.60832 389.8479,76.60832 390.05246,76.60832 390.25702,76.60832 390.46158,76.60832 390.66614,76.60832 390.8707,76.60832 391.07526,76.60832 391.27982,76.60832 391.48434,76.60832 391.68893,76.60832 391.89346,76.60832 392.09802,76.60832 392.3026,76.60832 392.50714,76.60832 392.7117,76.60832 392.91626,76.60832 393.12082,76.60832 393.32538,76.60832 393.5299,76.60832 393.7345,76.60832 393.93903,76.60832 394.1436,76.60832 394.34814,76.60832 394.5527,76.60832 394.75726,76.60832 394.9618,76.60832 395.16638,76.60832 395.37094,76.60832 395.57547,76.60832 395.78006,76.60832 395.98462,76.60832 396.18915,76.60832 396.3937,76.60832 396.59827,76.60832 396.80283,76.60832 397.0074,76.60832 397.21194,76.60832 397.4165,76.60832 397.62103,76.60832 397.8256,76.60832 398.03018,76.60832 398.2347,76.60832 398.43927,76.60832 398.64383,76.60832 398.8484,76.60832 399.05295,76.60832 399.2575,76.60832 399.46207,76.60832 399.6666,76.60832 399.87115,76.60832 400.07574,76.60832 400.28027,76.60832 400.48483,76.60832 400.6894,76.60832 400.89395,76.60832 401.0985,76.60832 401.30304,76.60832 401.50763,76.60832 401.7122,76.60832 401.91672,76.60832 402.1213,76.60832 402.32584,76.60832 402.5304,76.60832 402.73495,76.60832 402.9395,76.60832 403.14407,76.60832 403.3486,76.60832 403.5532,76.60832 403.75775,76.60832 403.96228,76.60832 404.16684,76.60832 404.3714,76.60832 404.57596,76.60832 404.78052,76.60832 404.98508,76.60832 405.18964,76.60832 405.39417,76.60832 405.59875,76.60832 405.8033,76.60832 406.00784,76.60832 406.2124,76.60832 406.417,76.60832 406.62152,76.60832 406.82608,76.60832 407.03064,76.60832 407.2352,76.60832 407.43976,76.60832 407.6443,76.60832 407.84888,76.60832 408.0534,76.60832 408.25797,76.60832 408.46255,76.60832 408.66708,76.60832 408.87164,76.60832 409.0762,76.60832 409.28076,76.60832 409.48532,76.60832 409.68985,76.60832 409.89444,76.60832 410.09897,76.60832 410.30353,76.60832 410.5081,76.60832 410.71265,76.60832 410.9172,76.60832 411.12177,76.60832 411.32632,76.60832 411.53088,76.60832 411.7354,76.60832 411.94,76.60832 412.14456,76.60832 412.3491,76.60832 412.55365,76.60832 412.7582,76.60832 412.96277,76.60832 413.16733,76.60832 413.3719,76.60832 413.57645,76.60832 413.78098,76.60832 413.98553,76.60832 414.19012,76.60832 414.39465,76.60832 414.5992,76.60832 414.80377,76.60832 415.00833,76.60832 415.2129,76.60832 415.41745,76.60832 415.622,76.60832 415.82657,76.60832 416.0311,76.60832 416.2357,76.60832 416.44022,76.60832 416.64478,76.60832 416.84933,76.60832 417.0539,76.60832 417.25845,76.60832 417.46298,76.60832 417.66757,76.60832 417.87213,76.60832 418.07666,76.60832 418.28125,76.60832 418.48578,76.60832 418.69034,76.60832 418.8949,76.60832 419.09946,76.60832 419.30402,76.60832 419.50854,76.60832 419.71313,76.60832 419.9177,76.60832 420.12222,76.60832 420.32678,76.60832 420.53137,76.60832 420.7359,76.60832 420.94046,76.60832 421.14502,76.60832 421.34958,76.60832 421.55414,76.60832 421.7587,76.60832 421.96326,76.60832 422.1678,76.60832 422.37234,76.60832 422.57693,76.60832 422.78146,76.60832 422.98602,76.60832 423.19058,76.60832 423.39514,76.60832 423.5997,76.60832 423.80423,76.60832 424.00882,76.60832 424.21335,76.60832 424.4179,76.60832 424.6225,76.60832 424.82703,76.60832 425.0316,76.60832 425.23615,76.60832 425.4407,76.60832 425.64526,76.60832 425.8498,76.60832 426.05438,76.60832 426.25894,76.60832 426.46347,76.60832 426.66803,76.60832 426.8726,76.60832 427.07715,76.60832 427.2817,76.60832 427.48627,76.60832 427.69083,76.60832 427.89536,76.60832 428.09995,76.60832 428.3045,76.60832 428.50903,76.60832 428.7136,76.60832" fill="none" stroke="rgb(31,119,180)" stroke-width="2"/>
  <polyline points="120.85643,510.69165 428.7136,76.60832" fill="none" stroke="rgb(255,127,14)" stroke-width="2"/>
  <line x1="59.285" y1="33.2" x2="59.285" y2="554.1" stroke="rgb(0,0,0)" stroke-width="1"/>
  <line x1="59.285" y1="554.1" x2="490.28503" y2="554.1" stroke="rgb(0,0,0)" stroke-width="1"/>
  <text x="59.285" y="567.95996" font-family="sans-serif" font-size="9.9" fill="rgb(0,0,0)" text-anchor="middle">-0.20</text>
  <text x="120.85643" y="567.95996" font-family="sans-serif" font-size="9.9" fill="rgb(0,0,0)" text-anchor="middle">0</text>
  <text x="182.42787" y="567.95996" font-family="sans-serif" font-size="9.9" fill="rgb(0,0,0)" text-anchor="middle">0.20</text>
  <text x="243.9993" y="567.95996" font-family="sans-serif" font-size="9.9" fill="rgb(0,0,0)" text-anchor="middle">0.40</text>
  <text x="305.57074" y="567.95996" font-family="sans-serif" font-size="9.9" fill="rgb(0,0,0)" text-anchor="middle">0.60</text>
  <text x="367.14218" y="567.95996" font-family="sans-serif" font-size="9.9" fill="rgb(0,0,0)" text-anchor="middle">0.80</text>
  <text x="428.7136" y="567.95996" font-family="sans-serif" font-size="9.9" fill="rgb(0,0,0)" text-anchor="middle">1</text>
  <text x="490.28503" y="567.95996" font-family="sans-serif" font-size="9.9" fill="rgb(0,0,0)" text-anchor="middle">1.2</text>
  <text x="55.325" y="554.1" font-family="sans-serif" font-size="9.9" fill="rgb(0,0,0)" text-anchor="end">-0.10</text>
  <text x="55.325" y="510.69165" font-family="sans-serif" font-size="9.9" fill="rgb(0,0,0)" text-anchor="end">0</text>
  <text x="55.325" y="467.28333" font-family="sans-serif" font-size="9.9" fill="rgb(0,0,0)" text-anchor="end">0.10</text>
  <text x="55.325" y="423.875" font-family="sans-serif" font-size="9.9" fill="rgb(0,0,0)" text-anchor="end">0.20</text>
  <text x="55.325" y="380.46664" font-family="sans-serif" font-size="9.9" fill="rgb(0,0,0)" text-anchor="end">0.30</text>
  <text x="55.325" y="337.05835" font-family="sans-serif" font-size="9.9" fill="rgb(0,0,0)" text-anchor="end">0.40</text>
  <text x="55.325" y="293.65" font-family="sans-serif" font-size="9.9" fill="rgb(0,0,0)" text-anchor="end">0.50</text>
  <text x="55.325" y="250.24165" font-family="sans-serif" font-size="9.9" fill="rgb(0,0,0)" text-anchor="end">0.60</text>
  <text x="55.325" y="206.8333" font-family="sans-serif" font-size="9.9" fill="rgb(0,0,0)" text-anchor="end">0.70</text>
  <text x="55.325" y="163.42497" font-family="sans-serif" font-size="9.9" fill="rgb(0,0,0)" text-anchor="end">0.80</text>
  <text x="55.325" y="120.01668" font-family="sans-serif" font-size="9.9" fill="rgb(0,0,0)" text-anchor="end">0.90</text>
  <text x="55.325" y="76.60832" font-family="sans-serif" font-size="9.9" fill="rgb(0,0,0)" text-anchor="end">1.00</text>
  <text x="55.325" y="33.2" font-family="sans-serif" font-size="9.9" fill="rgb(0,0,0)" text-anchor="end">1.1</text>
  <text x="274.785" y="588.19995" font-family="sans-serif" font-size="11" fill="rgb(0,0,0)" text-anchor="middle">False Positive Rate</text>
  <text x="34.535" y="293.65" font-family="sans-serif" font-size="11" fill="rgb(0,0,0)" text-anchor="middle" transform="rotate(-90,34.535,293.65)">True Positive Rate</text>
  <rect x="505.28503" y="38.2" width="12" height="12" fill="rgb(31,119,180)" rx="2"/>
  <text x="522.28503" y="48.4" font-family="sans-serif" font-size="9.9" fill="rgb(0,0,0)">ROC Curve</text>
  <rect x="505.28503" y="53.05" width="12" height="12" fill="rgb(255,127,14)" rx="2"/>
  <text x="522.28503" y="63.25" font-family="sans-serif" font-size="9.9" fill="rgb(0,0,0)">Random Classifier</text>
  <text x="300" y="23.2" font-family="sans-serif" font-size="13.200001" fill="rgb(0,0,0)" font-weight="bold" text-anchor="middle">ROC (AUC = 0.748)</text>
</svg>
