<svg xmlns="http://www.w3.org/2000/svg" width="1100" height="500" viewBox="0 0 1100 500" role="img">
  <title>City Tier Composition by Year</title>
  <rect width="1100" height="500" fill="white"/>
  <rect x="0" y="0" width="1100" height="500" fill="rgb(255,255,255)"/>
  <line x1="56.315" y1="454.1" x2="1014.04504" y2="454.1" stroke="rgb(241,241,241)" stroke-width="0.5"/>
  <line x1="56.315" y1="419.025" x2="1014.04504" y2="419.025" stroke="rgb(241,241,241)" stroke-width="0.5"/>
  <line x1="56.315" y1="383.95" x2="1014.04504" y2="383.95" stroke="rgb(241,241,241)" stroke-width="0.5"/>
  <line x1="56.315" y1="348.875" x2="1014.04504" y2="348.875" stroke="rgb(241,241,241)" stroke-width="0.5"/>
  <line x1="56.315" y1="313.8" x2="1014.04504" y2="313.8" stroke="rgb(241,241,241)" stroke-width="0.5"/>
  <line x1="56.315" y1="278.725" x2="1014.04504" y2="278.725" stroke="rgb(241,241,241)" stroke-width="0.5"/>
  <line x1="56.315" y1="243.65" x2="1014.04504" y2="243.65" stroke="rgb(241,241,241)" stroke-width="0.5"/>
  <line x1="56.315" y1="208.575" x2="1014.04504" y2="208.575" stroke="rgb(241,241,241)" stroke-width="0.5"/>
  <line x1="56.315" y1="173.49998" x2="1014.04504" y2="173.49998" stroke="rgb(241,241,241)" stroke-width="0.5"/>
  <line x1="56.315" y1="138.425" x2="1014.04504" y2="138.425" stroke="rgb(241,241,241)" stroke-width="0.5"/>
  <line x1="56.315" y1="103.34999" x2="1014.04504" y2="103.34999" stroke="rgb(241,241,241)" stroke-width="0.5"/>
  <line x1="56.315" y1="68.27498" x2="1014.04504" y2="68.27498" stroke="rgb(241,241,241)" stroke-width="0.5"/>
  <line x1="56.315" y1="33.2" x2="1014.04504" y2="33.2" stroke="rgb(241,241,241)" stroke-width="0.5"/>
  <rect x="100.51793" y="423.93552" width="58.937237" height="30.16449" fill="rgb(31,119,180)"/>
  <rect x="174.18947" y="348.875" width="58.937237" height="105.225006" fill="rgb(31,119,180)"/>
  <rect x="247.86102" y="358.34525" width="58.937237" height="95.75476" fill="rgb(31,119,180)"/>
  <rect x="321.53256" y="242.247" width="58.937237" height="211.853" fill="rgb(31,119,180)"/>
  <rect x="395.2041" y="303.62827" width="58.937237" height="150.47174" fill="rgb(31,119,180)"/>
  <rect x="468.87564" y="322.9195" width="58.937237" height="131.18051" fill="rgb(31,119,180)"/>
  <rect x="542.5472" y="338.00177" width="58.937237" height="116.098236" fill="rgb(31,119,180)"/>
  <rect x="616.21875" y="347.82275" width="58.937237" height="106.27725" fill="rgb(31,119,180)"/>
  <rect x="689.89026" y="219.44824" width="58.937237" height="234.65175" fill="rgb(31,119,180)"/>
  <rect x="763.5618" y="308.53876" width="58.937237" height="145.56125" fill="rgb(31,119,180)"/>
  <rect x="837.23334" y="450.94327" width="58.937237" height="3.1567383" fill="rgb(31,119,180)"/>
  <rect x="910.9049" y="454.1" width="58.937237" height="0" fill="rgb(31,119,180)"/>
  <rect x="100.51793" y="415.51752" width="58.937237" height="8.417999" fill="rgb(255,127,14)"/>
  <rect x="174.18947" y="316.60602" width="58.937237" height="32.268982" fill="rgb(255,127,14)"/>
  <rect x="247.86102" y="330.98676" width="58.937237" height="27.35849" fill="rgb(255,127,14)"/>
  <rect x="321.53256" y="162.27599" width="58.937237" height="79.97101" fill="rgb(255,127,14)"/>
  <rect x="395.2041" y="244.70224" width="58.937237" height="58.92601" fill="rgb(255,127,14)"/>
  <rect x="468.87564" y="254.52324" width="58.937237" height="68.39624" fill="rgb(255,127,14)"/>
  <rect x="542.5472" y="258.3815" width="58.937237" height="79.62027" fill="rgb(255,127,14)"/>
  <rect x="616.21875" y="296.964" width="58.937237" height="50.858765" fill="rgb(255,127,14)"/>
  <rect x="689.89026" y="154.20876" width="58.937237" height="65.23949" fill="rgb(255,127,14)"/>
  <rect x="763.5618" y="253.82175" width="58.937237" height="54.716995" fill="rgb(255,127,14)"/>
  <rect x="837.23334" y="449.891" width="58.937237" height="1.0522766" fill="rgb(255,127,14)"/>
  <rect x="910.9049" y="454.1" width="58.937237" height="0" fill="rgb(255,127,14)"/>
  <rect x="100.51793" y="396.22626" width="58.937237" height="19.29126" fill="rgb(44,160,44)"/>
  <rect x="174.18947" y="251.3665" width="58.937237" height="65.2395" fill="rgb(44,160,44)"/>
  <rect x="247.86102" y="287.143" width="58.937237" height="43.84375" fill="rgb(44,160,44)"/>
  <rect x="321.53256" y="50.38677" width="58.937237" height="111.88922" fill="rgb(44,160,44)"/>
  <rect x="395.2041" y="160.1715" width="58.937237" height="84.53075" fill="rgb(44,160,44)"/>
  <rect x="468.87564" y="179.81349" width="58.937237" height="74.70975" fill="rgb(44,160,44)"/>
  <rect x="542.5472" y="84.05876" width="58.937237" height="174.32272" fill="rgb(44,160,44)"/>
  <rect x="616.21875" y="238.038" width="58.937237" height="58.92598" fill="rgb(44,160,44)"/>
  <rect x="689.89026" y="88.96925" width="58.937237" height="65.2395" fill="rgb(44,160,44)"/>
  <rect x="763.5618" y="243.29924" width="58.937237" height="10.522507" fill="rgb(44,160,44)"/>
  <rect x="837.23334" y="449.1895" width="58.937237" height="0.70147705" fill="rgb(44,160,44)"/>
  <rect x="910.9049" y="454.1" width="58.937237" height="0" fill="rgb(44,160,44)"/>
  <rect x="100.51793" y="394.4725" width="58.937237" height="1.7537537" fill="rgb(214,39,40)"/>
  <rect x="174.18947" y="249.262" width="58.937237" height="2.1045074" fill="rgb(214,39,40)"/>
  <rect x="247.86102" y="283.98624" width="58.937237" height="3.1567535" fill="rgb(214,39,40)"/>
  <rect x="321.53256" y="44.424" width="58.937237" height="5.9627686" fill="rgb(214,39,40)"/>
  <rect x="395.2041" y="158.41774" width="58.937237" height="1.7537537" fill="rgb(214,39,40)"/>
  <rect x="468.87564" y="177.70897" width="58.937237" height="2.1045227" fill="rgb(214,39,40)"/>
  <rect x="542.5472" y="81.6035" width="58.937237" height="2.4552612" fill="rgb(214,39,40)"/>
  <rect x="616.21875" y="235.58275" width="58.937237" height="2.455246" fill="rgb(214,39,40)"/>
  <rect x="689.89026" y="85.11101" width="58.937237" height="3.8582458" fill="rgb(214,39,40)"/>
  <rect x="763.5618" y="242.9485" width="58.937237" height="0.35073853" fill="rgb(214,39,40)"/>
  <rect x="837.23334" y="449.1895" width="58.937237" height="0" fill="rgb(214,39,40)"/>
  <rect x="910.9049" y="454.1" width="58.937237" height="0" fill="rgb(214,39,40)"/>
  <line x1="56.315" y1="33.2" x2="56.315" y2="454.1" stroke="rgb(0,0,0)" stroke-width="1"/>
  <line x1="56.315" y1="454.1" x2="1014.04504" y2="454.1" stroke="rgb(0,0,0)" stroke-width="1"/>
  <text x="129.98654" y="467.96" font-family="sans-serif" font-size="9.9" fill="rgb(0,0,0)" text-anchor="middle">2015</text>
  <text x="203.6581" y="467.96" font-family="sans-serif" font-size="9.9" fill="rgb(0,0,0)" text-anchor="middle">2016</text>
  <text x="277.32962" y="467.96" font-family="sans-serif" font-size="9.9" fill="rgb(0,0,0)" text-anchor="middle">2017</text>
  <text x="351.0012" y="467.96" font-family="sans-serif" font-size="9.9" fill="rgb(0,0,0)" text-anchor="middle">2018</text>
  <text x="424.67273" y="467.96" font-family="sans-serif" font-size="9.9" fill="rgb(0,0,0)" text-anchor="middle">2019</text>
  <text x="498.34427" y="467.96" font-family="sans-serif" font-size="9.9" fill="rgb(0,0,0)" text-anchor="middle">2020</text>
  <text x="572.0158" y="467.96" font-family="sans-serif" font-size="9.9" fill="rgb(0,0,0)" text-anchor="middle">2021</text>
  <text x="645.6874" y="467.96" font-family="sans-serif" font-size="9.9" fill="rgb(0,0,0)" text-anchor="middle">2022</text>
  <text x="719.3589" y="467.96" font-family="sans-serif" font-size="9.9" fill="rgb(0,0,0)" text-anchor="middle">2023</text>
  <text x="793.03046" y="467.96" font-family="sans-serif" font-size="9.9" fill="rgb(0,0,0)" text-anchor="middle">2024</text>
  <text x="866.70197" y="467.96" font-family="sans-serif" font-size="9.9" fill="rgb(0,0,0)" text-anchor="middle">2025</text>
  <text x="940.37354" y="467.96" font-family="sans-serif" font-size="9.9" fill="rgb(0,0,0)" text-anchor="middle">2026</text>
  <text x="52.355" y="454.1" font-family="sans-serif" font-size="9.9" fill="rgb(0,0,0)" text-anchor="end">0</text>
  <text x="52.355" y="419.025" font-family="sans-serif" font-size="9.9" fill="rgb(0,0,0)" text-anchor="end">100</text>
  <text x="52.355" y="383.95" font-family="sans-serif" font-size="9.9" fill="rgb(0,0,0)" text-anchor="end">200</text>
  <text x="52.355" y="348.875" font-family="sans-serif" font-size="9.9" fill="rgb(0,0,0)" text-anchor="end">300</text>
  <text x="52.355" y="313.8" font-family="sans-serif" font-size="9.9" fill="rgb(0,0,0)" text-anchor="end">400</text>
  <text x="52.355" y="278.725" font-family="sans-serif" font-size="9.9" fill="rgb(0,0,0)" text-anchor="end">500</text>
  <text x="52.355" y="243.65" font-family="sans-serif" font-size="9.9" fill="rgb(0,0,0)" text-anchor="end">600</text>
  <text x="52.355" y="208.575" font-family="sans-serif" font-size="9.9" fill="rgb(0,0,0)" text-anchor="end">700</text>
  <text x="52.355" y="173.49998" font-family="sans-serif" font-size="9.9" fill="rgb(0,0,0)" text-anchor="end">800</text>
  <text x="52.355" y="138.425" font-family="sans-serif" font-size="9.9" fill="rgb(0,0,0)" text-anchor="end">900</text>
  <text x="52.355" y="103.34999" font-family="sans-serif" font-size="9.9" fill="rgb(0,0,0)" text-anchor="end">1000</text>
  <text x="52.355" y="68.27498" font-family="sans-serif" font-size="9.9" fill="rgb(0,0,0)" text-anchor="end">1100</text>
  <text x="52.355" y="33.2" font-family="sans-serif" font-size="9.9" fill="rgb(0,0,0)" text-anchor="end">1200</text>
  <text x="535.18" y="488.2" font-family="sans-serif" font-size="11" fill="rgb(0,0,0)" text-anchor="middle">Year</text>
  <text x="31.564999" y="243.65" font-family="sans-serif" font-size="11" fill="rgb(0,0,0)" text-anchor="middle" transform="rotate(-90,31.564999,243.65)">Number of Leads</text>
  <rect x="1029.045" y="38.2" width="12" height="12" fill="rgb(31,119,180)" rx="2"/>
  <text x="1046.045" y="48.4" font-family="sans-serif" font-size="9.9" fill="rgb(0,0,0)">major</text>
  <rect x="1029.045" y="53.05" width="12" height="12" fill="rgb(255,127,14)" rx="2"/>
  <text x="1046.045" y="63.25" font-family="sans-serif" font-size="9.9" fill="rgb(0,0,0)">minor</text>
  <rect x="1029.045" y="67.9" width="12" height="12" fill="rgb(44,160,44)" rx="2"/>
  <text x="1046.045" y="78.100006" font-family="sans-serif" font-size="9.9" fill="rgb(0,0,0)">international</text>
  <rect x="1029.045" y="82.75" width="12" height="12" fill="rgb(214,39,40)" rx="2"/>
  <text x="1046.045" y="92.95" font-family="sans-serif" font-size="9.9" fill="rgb(0,0,0)">virtual</text>
  <text x="550" y="23.2" font-family="sans-serif" font-size="13.200001" fill="rgb(0,0,0)" font-weight="bold" text-anchor="middle">City Tier Composition by Year</text>
</svg>
