<svg xmlns="http://www.w3.org/2000/svg" width="900" height="500" viewBox="0 0 900 500" role="img">
  <title>Reply Rate: Major vs International (by year found)</title>
  <rect width="900" height="500" fill="white"/>
  <rect x="0" y="0" width="900" height="500" fill="rgb(255,255,255)"/>
  <line x1="47.9" y1="454.1" x2="814.045" y2="454.1" stroke="rgb(241,241,241)" stroke-width="0.5"/>
  <line x1="47.9" y1="407.33334" x2="814.045" y2="407.33334" stroke="rgb(241,241,241)" stroke-width="0.5"/>
  <line x1="47.9" y1="360.56668" x2="814.045" y2="360.56668" stroke="rgb(241,241,241)" stroke-width="0.5"/>
  <line x1="47.9" y1="313.8" x2="814.045" y2="313.8" stroke="rgb(241,241,241)" stroke-width="0.5"/>
  <line x1="47.9" y1="267.03333" x2="814.045" y2="267.03333" stroke="rgb(241,241,241)" stroke-width="0.5"/>
  <line x1="47.9" y1="220.26665" x2="814.045" y2="220.26665" stroke="rgb(241,241,241)" stroke-width="0.5"/>
  <line x1="47.9" y1="173.49998" x2="814.045" y2="173.49998" stroke="rgb(241,241,241)" stroke-width="0.5"/>
  <line x1="47.9" y1="126.73332" x2="814.045" y2="126.73332" stroke="rgb(241,241,241)" stroke-width="0.5"/>
  <line x1="47.9" y1="79.96666" x2="814.045" y2="79.96666" stroke="rgb(241,241,241)" stroke-width="0.5"/>
  <line x1="47.9" y1="33.2" x2="814.045" y2="33.2" stroke="rgb(241,241,241)" stroke-width="0.5"/>
  <line x1="47.9" y1="33.2" x2="47.9" y2="454.1" stroke="rgb(241,241,241)" stroke-width="0.5"/>
  <line x1="124.514496" y1="33.2" x2="124.514496" y2="454.1" stroke="rgb(241,241,241)" stroke-width="0.5"/>
  <line x1="201.129" y1="33.2" x2="201.129" y2="454.1" stroke="rgb(241,241,241)" stroke-width="0.5"/>
  <line x1="277.7435" y1="33.2" x2="277.7435" y2="454.1" stroke="rgb(241,241,241)" stroke-width="0.5"/>
  <line x1="354.35797" y1="33.2" x2="354.35797" y2="454.1" stroke="rgb(241,241,241)" stroke-width="0.5"/>
  <line x1="430.97247" y1="33.2" x2="430.97247" y2="454.1" stroke="rgb(241,241,241)" stroke-width="0.5"/>
  <line x1="507.58698" y1="33.2" x2="507.58698" y2="454.1" stroke="rgb(241,241,241)" stroke-width="0.5"/>
  <line x1="584.2015" y1="33.2" x2="584.2015" y2="454.1" stroke="rgb(241,241,241)" stroke-width="0.5"/>
  <line x1="660.816" y1="33.2" x2="660.816" y2="454.1" stroke="rgb(241,241,241)" stroke-width="0.5"/>
  <line x1="737.4305" y1="33.2" x2="737.4305" y2="454.1" stroke="rgb(241,241,241)" stroke-width="0.5"/>
  <line x1="814.045" y1="33.2" x2="814.045" y2="454.1" stroke="rgb(241,241,241)" stroke-width="0.5"/>
  <circle cx="124.514496" cy="165.70555" r="3.0901935" fill="rgba(31,119,180,0.700)"/>
  <circle cx="201.129" cy="218.21097" r="3.0901935" fill="rgba(31,119,180,0.700)"/>
  <circle cx="277.7435" cy="233.73917" r="3.0901935" fill="rgba(31,119,180,0.700)"/>
  <circle cx="354.35797" cy="108.41911" r="3.0901935" fill="rgba(31,119,180,0.700)"/>
  <circle cx="430.97247" cy="131.98521" r="3.0901935" fill="rgba(31,119,180,0.700)"/>
  <circle cx="507.58698" cy="91.128494" r="3.0901935" fill="rgba(31,119,180,0.700)"/>
  <circle cx="584.2015" cy="91.85124" r="3.0901935" fill="rgba(31,119,180,0.700)"/>
  <circle cx="660.816" cy="109.396805" r="3.0901935" fill="rgba(31,119,180,0.700)"/>
  <circle cx="737.4305" cy="213.50522" r="3.0901935" fill="rgba(31,119,180,0.700)"/>
  <circle cx="124.514496" cy="412.86487" r="3.0901935" fill="rgba(255,127,14,0.700)"/>
  <circle cx="201.129" cy="388.62668" r="3.0901935" fill="rgba(255,127,14,0.700)"/>
  <circle cx="277.7435" cy="376.2533" r="3.0901935" fill="rgba(255,127,14,0.700)"/>
  <circle cx="354.35797" cy="423.24564" r="3.0901935" fill="rgba(255,127,14,0.700)"/>
  <circle cx="430.97247" cy="402.06384" r="3.0901935" fill="rgba(255,127,14,0.700)"/>
  <circle cx="507.58698" cy="392.65405" r="3.0901935" fill="rgba(255,127,14,0.700)"/>
  <circle cx="584.2015" cy="306.00555" r="3.0901935" fill="rgba(255,127,14,0.700)"/>
  <circle cx="660.816" cy="274.57635" r="3.0901935" fill="rgba(255,127,14,0.700)"/>
  <circle cx="737.4305" cy="422.92224" r="3.0901935" fill="rgba(255,127,14,0.700)"/>
  <line x1="47.9" y1="33.2" x2="47.9" y2="454.1" stroke="rgb(0,0,0)" stroke-width="1"/>
  <line x1="47.9" y1="454.1" x2="814.045" y2="454.1" stroke="rgb(0,0,0)" stroke-width="1"/>
  <text x="47.9" y="467.96" font-family="sans-serif" font-size="9.9" fill="rgb(0,0,0)" text-anchor="middle">2015</text>
  <text x="124.514496" y="467.96" font-family="sans-serif" font-size="9.9" fill="rgb(0,0,0)" text-anchor="middle">2016</text>
  <text x="201.129" y="467.96" font-family="sans-serif" font-size="9.9" fill="rgb(0,0,0)" text-anchor="middle">2017</text>
  <text x="277.7435" y="467.96" font-family="sans-serif" font-size="9.9" fill="rgb(0,0,0)" text-anchor="middle">2018</text>
  <text x="354.35797" y="467.96" font-family="sans-serif" font-size="9.9" fill="rgb(0,0,0)" text-anchor="middle">2019</text>
  <text x="430.97247" y="467.96" font-family="sans-serif" font-size="9.9" fill="rgb(0,0,0)" text-anchor="middle">2020</text>
  <text x="507.58698" y="467.96" font-family="sans-serif" font-size="9.9" fill="rgb(0,0,0)" text-anchor="middle">2021</text>
  <text x="584.2015" y="467.96" font-family="sans-serif" font-size="9.9" fill="rgb(0,0,0)" text-anchor="middle">2022</text>
  <text x="660.816" y="467.96" font-family="sans-serif" font-size="9.9" fill="rgb(0,0,0)" text-anchor="middle">2023</text>
  <text x="737.4305" y="467.96" font-family="sans-serif" font-size="9.9" fill="rgb(0,0,0)" text-anchor="middle">2024</text>
  <text x="814.045" y="467.96" font-family="sans-serif" font-size="9.9" fill="rgb(0,0,0)" text-anchor="middle">2025</text>
  <text x="43.940002" y="454.1" font-family="sans-serif" font-size="9.9" fill="rgb(0,0,0)" text-anchor="end">2</text>
  <text x="43.940002" y="407.33334" font-family="sans-serif" font-size="9.9" fill="rgb(0,0,0)" text-anchor="end">4</text>
  <text x="43.940002" y="360.56668" font-family="sans-serif" font-size="9.9" fill="rgb(0,0,0)" text-anchor="end">6</text>
  <text x="43.940002" y="313.8" font-family="sans-serif" font-size="9.9" fill="rgb(0,0,0)" text-anchor="end">8</text>
  <text x="43.940002" y="267.03333" font-family="sans-serif" font-size="9.9" fill="rgb(0,0,0)" text-anchor="end">10</text>
  <text x="43.940002" y="220.26665" font-family="sans-serif" font-size="9.9" fill="rgb(0,0,0)" text-anchor="end">12</text>
  <text x="43.940002" y="173.49998" font-family="sans-serif" font-size="9.9" fill="rgb(0,0,0)" text-anchor="end">14</text>
  <text x="43.940002" y="126.73332" font-family="sans-serif" font-size="9.9" fill="rgb(0,0,0)" text-anchor="end">16</text>
  <text x="43.940002" y="79.96666" font-family="sans-serif" font-size="9.9" fill="rgb(0,0,0)" text-anchor="end">18</text>
  <text x="43.940002" y="33.2" font-family="sans-serif" font-size="9.9" fill="rgb(0,0,0)" text-anchor="end">20</text>
  <text x="430.97247" y="488.2" font-family="sans-serif" font-size="11" fill="rgb(0,0,0)" text-anchor="middle">Year</text>
  <text x="23.150002" y="243.65" font-family="sans-serif" font-size="11" fill="rgb(0,0,0)" text-anchor="middle" transform="rotate(-90,23.150002,243.65)">Reply Rate (%)</text>
  <rect x="829.045" y="38.2" width="12" height="12" fill="rgb(31,119,180)" rx="2"/>
  <text x="846.045" y="48.4" font-family="sans-serif" font-size="9.9" fill="rgb(0,0,0)">major</text>
  <rect x="829.045" y="53.05" width="12" height="12" fill="rgb(255,127,14)" rx="2"/>
  <text x="846.045" y="63.25" font-family="sans-serif" font-size="9.9" fill="rgb(0,0,0)">international</text>
  <text x="450" y="23.2" font-family="sans-serif" font-size="13.200001" fill="rgb(0,0,0)" font-weight="bold" text-anchor="middle">Reply Rate: Major vs International (by year found)</text>
</svg>
