<svg xmlns="http://www.w3.org/2000/svg" width="900" height="500" viewBox="0 0 900 500" role="img">
  <title>Cumulative Pipeline Growth</title>
  <rect width="900" height="500" fill="white"/>
  <rect x="0" y="0" width="900" height="500" fill="rgb(255,255,255)"/>
  <line x1="61.265" y1="454.1" x2="885" y2="454.1" stroke="rgb(241,241,241)" stroke-width="0.5"/>
  <line x1="61.265" y1="412.01" x2="885" y2="412.01" stroke="rgb(241,241,241)" stroke-width="0.5"/>
  <line x1="61.265" y1="369.92" x2="885" y2="369.92" stroke="rgb(241,241,241)" stroke-width="0.5"/>
  <line x1="61.265" y1="327.83002" x2="885" y2="327.83002" stroke="rgb(241,241,241)" stroke-width="0.5"/>
  <line x1="61.265" y1="285.74" x2="885" y2="285.74" stroke="rgb(241,241,241)" stroke-width="0.5"/>
  <line x1="61.265" y1="243.65" x2="885" y2="243.65" stroke="rgb(241,241,241)" stroke-width="0.5"/>
  <line x1="61.265" y1="201.55998" x2="885" y2="201.55998" stroke="rgb(241,241,241)" stroke-width="0.5"/>
  <line x1="61.265" y1="159.46999" x2="885" y2="159.46999" stroke="rgb(241,241,241)" stroke-width="0.5"/>
  <line x1="61.265" y1="117.37999" x2="885" y2="117.37999" stroke="rgb(241,241,241)" stroke-width="0.5"/>
  <line x1="61.265" y1="75.28999" x2="885" y2="75.28999" stroke="rgb(241,241,241)" stroke-width="0.5"/>
  <line x1="61.265" y1="33.2" x2="885" y2="33.2" stroke="rgb(241,241,241)" stroke-width="0.5"/>
  <line x1="61.265" y1="33.2" x2="61.265" y2="454.1" stroke="rgb(241,241,241)" stroke-width="0.5"/>
  <line x1="124.62923" y1="33.2" x2="124.62923" y2="454.1" stroke="rgb(241,241,241)" stroke-width="0.5"/>
  <line x1="187.99347" y1="33.2" x2="187.99347" y2="454.1" stroke="rgb(241,241,241)" stroke-width="0.5"/>
  <line x1="251.3577" y1="33.2" x2="251.3577" y2="454.1" stroke="rgb(241,241,241)" stroke-width="0.5"/>
  <line x1="314.72192" y1="33.2" x2="314.72192" y2="454.1" stroke="rgb(241,241,241)" stroke-width="0.5"/>
  <line x1="378.08618" y1="33.2" x2="378.08618" y2="454.1" stroke="rgb(241,241,241)" stroke-width="0.5"/>
  <line x1="441.45038" y1="33.2" x2="441.45038" y2="454.1" stroke="rgb(241,241,241)" stroke-width="0.5"/>
  <line x1="504.81464" y1="33.2" x2="504.81464" y2="454.1" stroke="rgb(241,241,241)" stroke-width="0.5"/>
  <line x1="568.17883" y1="33.2" x2="568.17883" y2="454.1" stroke="rgb(241,241,241)" stroke-width="0.5"/>
  <line x1="631.5431" y1="33.2" x2="631.5431" y2="454.1" stroke="rgb(241,241,241)" stroke-width="0.5"/>
  <line x1="694.90735" y1="33.2" x2="694.90735" y2="454.1" stroke="rgb(241,241,241)" stroke-width="0.5"/>
  <line x1="758.27155" y1="33.2" x2="758.27155" y2="454.1" stroke="rgb(241,241,241)" stroke-width="0.5"/>
  <line x1="821.6358" y1="33.2" x2="821.6358" y2="454.1" stroke="rgb(241,241,241)" stroke-width="0.5"/>
  <line x1="885" y1="33.2" x2="885" y2="454.1" stroke="rgb(241,241,241)" stroke-width="0.5"/>
  <polyline points="124.62923,404.4759 187.99347,378.08545 251.3577,356.40912 314.72192,304.1754 378.08618,266.3786 441.45038,230.22328 504.81464,181.18843 568.17883,153.32484 631.5431,104.83717 694.90735,73.05922 758.27155,57.528004 821.6358,52.729755" fill="none" stroke="rgb(31,119,180)" stroke-width="2"/>
  <line x1="61.265" y1="33.2" x2="61.265" y2="454.1" stroke="rgb(0,0,0)" stroke-width="1"/>
  <line x1="61.265" y1="454.1" x2="885" y2="454.1" stroke="rgb(0,0,0)" stroke-width="1"/>
  <text x="61.265" y="467.96" font-family="sans-serif" font-size="9.9" fill="rgb(0,0,0)" text-anchor="middle">2014</text>
  <text x="124.62923" y="467.96" font-family="sans-serif" font-size="9.9" fill="rgb(0,0,0)" text-anchor="middle">2015</text>
  <text x="187.99347" y="467.96" font-family="sans-serif" font-size="9.9" fill="rgb(0,0,0)" text-anchor="middle">2016</text>
  <text x="251.3577" y="467.96" font-family="sans-serif" font-size="9.9" fill="rgb(0,0,0)" text-anchor="middle">2017</text>
  <text x="314.72192" y="467.96" font-family="sans-serif" font-size="9.9" fill="rgb(0,0,0)" text-anchor="middle">2018</text>
  <text x="378.08618" y="467.96" font-family="sans-serif" font-size="9.9" fill="rgb(0,0,0)" text-anchor="middle">2019</text>
  <text x="441.45038" y="467.96" font-family="sans-serif" font-size="9.9" fill="rgb(0,0,0)" text-anchor="middle">2020</text>
  <text x="504.81464" y="467.96" font-family="sans-serif" font-size="9.9" fill="rgb(0,0,0)" text-anchor="middle">2021</text>
  <text x="568.17883" y="467.96" font-family="sans-serif" font-size="9.9" fill="rgb(0,0,0)" text-anchor="middle">2022</text>
  <text x="631.5431" y="467.96" font-family="sans-serif" font-size="9.9" fill="rgb(0,0,0)" text-anchor="middle">2023</text>
  <text x="694.90735" y="467.96" font-family="sans-serif" font-size="9.9" fill="rgb(0,0,0)" text-anchor="middle">2024</text>
  <text x="758.27155" y="467.96" font-family="sans-serif" font-size="9.9" fill="rgb(0,0,0)" text-anchor="middle">2025</text>
  <text x="821.6358" y="467.96" font-family="sans-serif" font-size="9.9" fill="rgb(0,0,0)" text-anchor="middle">2026</text>
  <text x="885" y="467.96" font-family="sans-serif" font-size="9.9" fill="rgb(0,0,0)" text-anchor="middle">2027</text>
  <text x="57.305" y="454.1" font-family="sans-serif" font-size="9.9" fill="rgb(0,0,0)" text-anchor="end">-1000</text>
  <text x="57.305" y="412.01" font-family="sans-serif" font-size="9.9" fill="rgb(0,0,0)" text-anchor="end">0</text>
  <text x="57.305" y="369.92" font-family="sans-serif" font-size="9.9" fill="rgb(0,0,0)" text-anchor="end">1000</text>
  <text x="57.305" y="327.83002" font-family="sans-serif" font-size="9.9" fill="rgb(0,0,0)" text-anchor="end">2000</text>
  <text x="57.305" y="285.74" font-family="sans-serif" font-size="9.9" fill="rgb(0,0,0)" text-anchor="end">3000</text>
  <text x="57.305" y="243.65" font-family="sans-serif" font-size="9.9" fill="rgb(0,0,0)" text-anchor="end">4000</text>
  <text x="57.305" y="201.55998" font-family="sans-serif" font-size="9.9" fill="rgb(0,0,0)" text-anchor="end">5000</text>
  <text x="57.305" y="159.46999" font-family="sans-serif" font-size="9.9" fill="rgb(0,0,0)" text-anchor="end">6000</text>
  <text x="57.305" y="117.37999" font-family="sans-serif" font-size="9.9" fill="rgb(0,0,0)" text-anchor="end">7000</text>
  <text x="57.305" y="75.28999" font-family="sans-serif" font-size="9.9" fill="rgb(0,0,0)" text-anchor="end">8000</text>
  <text x="57.305" y="33.2" font-family="sans-serif" font-size="9.9" fill="rgb(0,0,0)" text-anchor="end">9000</text>
  <text x="473.1325" y="488.2" font-family="sans-serif" font-size="11" fill="rgb(0,0,0)" text-anchor="middle">Year</text>
  <text x="36.515" y="243.65" font-family="sans-serif" font-size="11" fill="rgb(0,0,0)" text-anchor="middle" transform="rotate(-90,36.515,243.65)">Total Leads (Cumulative)</text>
  <text x="450" y="23.2" font-family="sans-serif" font-size="13.200001" fill="rgb(0,0,0)" font-weight="bold" text-anchor="middle">Cumulative Pipeline Growth</text>
</svg>
