<svg xmlns="http://www.w3.org/2000/svg" width="700" height="500" viewBox="0 0 700 500" role="img">
  <title>Income Distribution by Education Level</title>
  <rect width="700" height="500" fill="white"/>
  <rect x="0" y="0" width="700" height="500" fill="rgb(255,255,255)"/>
  <line x1="52.85" y1="321.15192" x2="685" y2="321.15192" stroke="rgb(241,241,241)" stroke-width="0.5"/>
  <line x1="52.85" y1="261.16193" x2="685" y2="261.16193" stroke="rgb(241,241,241)" stroke-width="0.5"/>
  <line x1="52.85" y1="201.17195" x2="685" y2="201.17195" stroke="rgb(241,241,241)" stroke-width="0.5"/>
  <line x1="52.85" y1="141.18196" x2="685" y2="141.18196" stroke="rgb(241,241,241)" stroke-width="0.5"/>
  <line x1="52.85" y1="81.191986" x2="685" y2="81.191986" stroke="rgb(241,241,241)" stroke-width="0.5"/>
  <rect x="94.99333" y="173.57655" width="126.43001" height="95.08411" fill="rgba(31,119,180,0.600)" stroke="rgb(31,119,180)" stroke-width="1.5"/>
  <line x1="158.20834" y1="268.66068" x2="158.20834" y2="311.55353" stroke="rgb(0,0,0)" stroke-width="1"/>
  <line x1="126.60084" y1="311.55353" x2="189.81583" y2="311.55353" stroke="rgb(0,0,0)" stroke-width="1"/>
  <line x1="158.20834" y1="173.57655" x2="158.20834" y2="52.39678" stroke="rgb(0,0,0)" stroke-width="1"/>
  <line x1="126.60084" y1="52.39678" x2="189.81583" y2="52.39678" stroke="rgb(0,0,0)" stroke-width="1"/>
  <rect x="305.71002" y="221.56853" width="126.43001" height="58.79019" fill="rgba(255,127,14,0.600)" stroke="rgb(255,127,14)" stroke-width="1.5"/>
  <line x1="368.92502" y1="280.35873" x2="368.92502" y2="311.55353" stroke="rgb(0,0,0)" stroke-width="1"/>
  <line x1="337.3175" y1="311.55353" x2="400.53253" y2="311.55353" stroke="rgb(0,0,0)" stroke-width="1"/>
  <line x1="368.92502" y1="221.56853" x2="368.92502" y2="135.18297" stroke="rgb(0,0,0)" stroke-width="1"/>
  <line x1="337.3175" y1="135.18297" x2="400.53253" y2="135.18297" stroke="rgb(0,0,0)" stroke-width="1"/>
  <rect x="516.4267" y="220.36873" width="126.43001" height="58.79019" fill="rgba(44,160,44,0.600)" stroke="rgb(44,160,44)" stroke-width="1.5"/>
  <line x1="579.64166" y1="279.15894" x2="579.64166" y2="311.55353" stroke="rgb(0,0,0)" stroke-width="1"/>
  <line x1="548.0342" y1="311.55353" x2="611.24915" y2="311.55353" stroke="rgb(0,0,0)" stroke-width="1"/>
  <line x1="579.64166" y1="220.36873" x2="579.64166" y2="135.18297" stroke="rgb(0,0,0)" stroke-width="1"/>
  <line x1="548.0342" y1="135.18297" x2="611.24915" y2="135.18297" stroke="rgb(0,0,0)" stroke-width="1"/>
  <line x1="94.99333" y1="226.36772" x2="221.42334" y2="226.36772" stroke="rgb(0,0,0)" stroke-width="1.5"/>
  <line x1="305.71002" y1="256.36273" x2="432.14" y2="256.36273" stroke="rgb(0,0,0)" stroke-width="1.5"/>
  <circle cx="368.92502" cy="131.58356" r="1.8541162" fill="rgb(0,0,0)"/>
  <circle cx="368.92502" cy="131.58356" r="1.8541162" fill="rgb(0,0,0)"/>
  <circle cx="368.92502" cy="131.58356" r="1.8541162" fill="rgb(0,0,0)"/>
  <circle cx="368.92502" cy="131.58356" r="1.8541162" fill="rgb(0,0,0)"/>
  <circle cx="368.92502" cy="130.38376" r="1.8541162" fill="rgb(0,0,0)"/>
  <circle cx="368.92502" cy="127.98416" r="1.8541162" fill="rgb(0,0,0)"/>
  <circle cx="368.92502" cy="127.98416" r="1.8541162" fill="rgb(0,0,0)"/>
  <circle cx="368.92502" cy="126.78436" r="1.8541162" fill="rgb(0,0,0)"/>
  <circle cx="368.92502" cy="125.584564" r="1.8541162" fill="rgb(0,0,0)"/>
  <circle cx="368.92502" cy="124.384766" r="1.8541162" fill="rgb(0,0,0)"/>
  <circle cx="368.92502" cy="124.384766" r="1.8541162" fill="rgb(0,0,0)"/>
  <circle cx="368.92502" cy="123.18497" r="1.8541162" fill="rgb(0,0,0)"/>
  <circle cx="368.92502" cy="119.58557" r="1.8541162" fill="rgb(0,0,0)"/>
  <circle cx="368.92502" cy="119.58557" r="1.8541162" fill="rgb(0,0,0)"/>
  <circle cx="368.92502" cy="119.58557" r="1.8541162" fill="rgb(0,0,0)"/>
  <circle cx="368.92502" cy="118.38577" r="1.8541162" fill="rgb(0,0,0)"/>
  <circle cx="368.92502" cy="117.185974" r="1.8541162" fill="rgb(0,0,0)"/>
  <circle cx="368.92502" cy="117.185974" r="1.8541162" fill="rgb(0,0,0)"/>
  <circle cx="368.92502" cy="117.185974" r="1.8541162" fill="rgb(0,0,0)"/>
  <circle cx="368.92502" cy="117.185974" r="1.8541162" fill="rgb(0,0,0)"/>
  <circle cx="368.92502" cy="115.986176" r="1.8541162" fill="rgb(0,0,0)"/>
  <circle cx="368.92502" cy="115.986176" r="1.8541162" fill="rgb(0,0,0)"/>
  <circle cx="368.92502" cy="115.986176" r="1.8541162" fill="rgb(0,0,0)"/>
  <circle cx="368.92502" cy="114.78638" r="1.8541162" fill="rgb(0,0,0)"/>
  <circle cx="368.92502" cy="114.78638" r="1.8541162" fill="rgb(0,0,0)"/>
  <circle cx="368.92502" cy="114.78638" r="1.8541162" fill="rgb(0,0,0)"/>
  <circle cx="368.92502" cy="114.78638" r="1.8541162" fill="rgb(0,0,0)"/>
  <circle cx="368.92502" cy="113.58656" r="1.8541162" fill="rgb(0,0,0)"/>
  <circle cx="368.92502" cy="113.58656" r="1.8541162" fill="rgb(0,0,0)"/>
  <circle cx="368.92502" cy="113.58656" r="1.8541162" fill="rgb(0,0,0)"/>
  <circle cx="368.92502" cy="112.386765" r="1.8541162" fill="rgb(0,0,0)"/>
  <circle cx="368.92502" cy="112.386765" r="1.8541162" fill="rgb(0,0,0)"/>
  <circle cx="368.92502" cy="112.386765" r="1.8541162" fill="rgb(0,0,0)"/>
  <circle cx="368.92502" cy="107.58757" r="1.8541162" fill="rgb(0,0,0)"/>
  <circle cx="368.92502" cy="106.38777" r="1.8541162" fill="rgb(0,0,0)"/>
  <circle cx="368.92502" cy="106.38777" r="1.8541162" fill="rgb(0,0,0)"/>
  <circle cx="368.92502" cy="105.18797" r="1.8541162" fill="rgb(0,0,0)"/>
  <circle cx="368.92502" cy="105.18797" r="1.8541162" fill="rgb(0,0,0)"/>
  <circle cx="368.92502" cy="105.18797" r="1.8541162" fill="rgb(0,0,0)"/>
  <circle cx="368.92502" cy="103.988174" r="1.8541162" fill="rgb(0,0,0)"/>
  <circle cx="368.92502" cy="103.988174" r="1.8541162" fill="rgb(0,0,0)"/>
  <circle cx="368.92502" cy="102.788376" r="1.8541162" fill="rgb(0,0,0)"/>
  <circle cx="368.92502" cy="102.788376" r="1.8541162" fill="rgb(0,0,0)"/>
  <circle cx="368.92502" cy="102.788376" r="1.8541162" fill="rgb(0,0,0)"/>
  <circle cx="368.92502" cy="102.788376" r="1.8541162" fill="rgb(0,0,0)"/>
  <circle cx="368.92502" cy="102.788376" r="1.8541162" fill="rgb(0,0,0)"/>
  <circle cx="368.92502" cy="101.58858" r="1.8541162" fill="rgb(0,0,0)"/>
  <circle cx="368.92502" cy="100.38878" r="1.8541162" fill="rgb(0,0,0)"/>
  <circle cx="368.92502" cy="100.38878" r="1.8541162" fill="rgb(0,0,0)"/>
  <circle cx="368.92502" cy="100.38878" r="1.8541162" fill="rgb(0,0,0)"/>
  <circle cx="368.92502" cy="100.38878" r="1.8541162" fill="rgb(0,0,0)"/>
  <circle cx="368.92502" cy="99.18898" r="1.8541162" fill="rgb(0,0,0)"/>
  <circle cx="368.92502" cy="99.18898" r="1.8541162" fill="rgb(0,0,0)"/>
  <circle cx="368.92502" cy="99.18898" r="1.8541162" fill="rgb(0,0,0)"/>
  <circle cx="368.92502" cy="99.18898" r="1.8541162" fill="rgb(0,0,0)"/>
  <circle cx="368.92502" cy="99.18898" r="1.8541162" fill="rgb(0,0,0)"/>
  <circle cx="368.92502" cy="95.58957" r="1.8541162" fill="rgb(0,0,0)"/>
  <circle cx="368.92502" cy="95.58957" r="1.8541162" fill="rgb(0,0,0)"/>
  <circle cx="368.92502" cy="95.58957" r="1.8541162" fill="rgb(0,0,0)"/>
  <circle cx="368.92502" cy="95.58957" r="1.8541162" fill="rgb(0,0,0)"/>
  <circle cx="368.92502" cy="94.38977" r="1.8541162" fill="rgb(0,0,0)"/>
  <circle cx="368.92502" cy="93.18997" r="1.8541162" fill="rgb(0,0,0)"/>
  <circle cx="368.92502" cy="93.18997" r="1.8541162" fill="rgb(0,0,0)"/>
  <circle cx="368.92502" cy="93.18997" r="1.8541162" fill="rgb(0,0,0)"/>
  <circle cx="368.92502" cy="93.18997" r="1.8541162" fill="rgb(0,0,0)"/>
  <circle cx="368.92502" cy="91.99017" r="1.8541162" fill="rgb(0,0,0)"/>
  <circle cx="368.92502" cy="91.99017" r="1.8541162" fill="rgb(0,0,0)"/>
  <circle cx="368.92502" cy="90.790375" r="1.8541162" fill="rgb(0,0,0)"/>
  <circle cx="368.92502" cy="89.590576" r="1.8541162" fill="rgb(0,0,0)"/>
  <circle cx="368.92502" cy="88.39078" r="1.8541162" fill="rgb(0,0,0)"/>
  <circle cx="368.92502" cy="88.39078" r="1.8541162" fill="rgb(0,0,0)"/>
  <circle cx="368.92502" cy="87.19098" r="1.8541162" fill="rgb(0,0,0)"/>
  <circle cx="368.92502" cy="79.99219" r="1.8541162" fill="rgb(0,0,0)"/>
  <line x1="516.4267" y1="250.36372" x2="642.8567" y2="250.36372" stroke="rgb(0,0,0)" stroke-width="1.5"/>
  <circle cx="579.64166" cy="131.58356" r="1.8541162" fill="rgb(0,0,0)"/>
  <circle cx="579.64166" cy="131.58356" r="1.8541162" fill="rgb(0,0,0)"/>
  <circle cx="579.64166" cy="131.58356" r="1.8541162" fill="rgb(0,0,0)"/>
  <circle cx="579.64166" cy="131.58356" r="1.8541162" fill="rgb(0,0,0)"/>
  <circle cx="579.64166" cy="130.38376" r="1.8541162" fill="rgb(0,0,0)"/>
  <circle cx="579.64166" cy="130.38376" r="1.8541162" fill="rgb(0,0,0)"/>
  <circle cx="579.64166" cy="130.38376" r="1.8541162" fill="rgb(0,0,0)"/>
  <circle cx="579.64166" cy="129.18396" r="1.8541162" fill="rgb(0,0,0)"/>
  <circle cx="579.64166" cy="129.18396" r="1.8541162" fill="rgb(0,0,0)"/>
  <circle cx="579.64166" cy="129.18396" r="1.8541162" fill="rgb(0,0,0)"/>
  <circle cx="579.64166" cy="127.98416" r="1.8541162" fill="rgb(0,0,0)"/>
  <circle cx="579.64166" cy="127.98416" r="1.8541162" fill="rgb(0,0,0)"/>
  <circle cx="579.64166" cy="127.98416" r="1.8541162" fill="rgb(0,0,0)"/>
  <circle cx="579.64166" cy="125.584564" r="1.8541162" fill="rgb(0,0,0)"/>
  <circle cx="579.64166" cy="124.384766" r="1.8541162" fill="rgb(0,0,0)"/>
  <circle cx="579.64166" cy="124.384766" r="1.8541162" fill="rgb(0,0,0)"/>
  <circle cx="579.64166" cy="124.384766" r="1.8541162" fill="rgb(0,0,0)"/>
  <circle cx="579.64166" cy="124.384766" r="1.8541162" fill="rgb(0,0,0)"/>
  <circle cx="579.64166" cy="124.384766" r="1.8541162" fill="rgb(0,0,0)"/>
  <circle cx="579.64166" cy="123.18497" r="1.8541162" fill="rgb(0,0,0)"/>
  <circle cx="579.64166" cy="123.18497" r="1.8541162" fill="rgb(0,0,0)"/>
  <circle cx="579.64166" cy="123.18497" r="1.8541162" fill="rgb(0,0,0)"/>
  <circle cx="579.64166" cy="123.18497" r="1.8541162" fill="rgb(0,0,0)"/>
  <circle cx="579.64166" cy="119.58557" r="1.8541162" fill="rgb(0,0,0)"/>
  <circle cx="579.64166" cy="119.58557" r="1.8541162" fill="rgb(0,0,0)"/>
  <circle cx="579.64166" cy="119.58557" r="1.8541162" fill="rgb(0,0,0)"/>
  <circle cx="579.64166" cy="118.38577" r="1.8541162" fill="rgb(0,0,0)"/>
  <circle cx="579.64166" cy="118.38577" r="1.8541162" fill="rgb(0,0,0)"/>
  <circle cx="579.64166" cy="118.38577" r="1.8541162" fill="rgb(0,0,0)"/>
  <circle cx="579.64166" cy="118.38577" r="1.8541162" fill="rgb(0,0,0)"/>
  <circle cx="579.64166" cy="118.38577" r="1.8541162" fill="rgb(0,0,0)"/>
  <circle cx="579.64166" cy="117.185974" r="1.8541162" fill="rgb(0,0,0)"/>
  <circle cx="579.64166" cy="117.185974" r="1.8541162" fill="rgb(0,0,0)"/>
  <circle cx="579.64166" cy="114.78638" r="1.8541162" fill="rgb(0,0,0)"/>
  <circle cx="579.64166" cy="113.58656" r="1.8541162" fill="rgb(0,0,0)"/>
  <circle cx="579.64166" cy="113.58656" r="1.8541162" fill="rgb(0,0,0)"/>
  <circle cx="579.64166" cy="112.386765" r="1.8541162" fill="rgb(0,0,0)"/>
  <circle cx="579.64166" cy="112.386765" r="1.8541162" fill="rgb(0,0,0)"/>
  <circle cx="579.64166" cy="111.186966" r="1.8541162" fill="rgb(0,0,0)"/>
  <circle cx="579.64166" cy="111.186966" r="1.8541162" fill="rgb(0,0,0)"/>
  <circle cx="579.64166" cy="111.186966" r="1.8541162" fill="rgb(0,0,0)"/>
  <circle cx="579.64166" cy="111.186966" r="1.8541162" fill="rgb(0,0,0)"/>
  <circle cx="579.64166" cy="107.58757" r="1.8541162" fill="rgb(0,0,0)"/>
  <circle cx="579.64166" cy="107.58757" r="1.8541162" fill="rgb(0,0,0)"/>
  <circle cx="579.64166" cy="107.58757" r="1.8541162" fill="rgb(0,0,0)"/>
  <circle cx="579.64166" cy="107.58757" r="1.8541162" fill="rgb(0,0,0)"/>
  <circle cx="579.64166" cy="106.38777" r="1.8541162" fill="rgb(0,0,0)"/>
  <circle cx="579.64166" cy="106.38777" r="1.8541162" fill="rgb(0,0,0)"/>
  <circle cx="579.64166" cy="106.38777" r="1.8541162" fill="rgb(0,0,0)"/>
  <circle cx="579.64166" cy="106.38777" r="1.8541162" fill="rgb(0,0,0)"/>
  <circle cx="579.64166" cy="105.18797" r="1.8541162" fill="rgb(0,0,0)"/>
  <circle cx="579.64166" cy="105.18797" r="1.8541162" fill="rgb(0,0,0)"/>
  <circle cx="579.64166" cy="105.18797" r="1.8541162" fill="rgb(0,0,0)"/>
  <circle cx="579.64166" cy="105.18797" r="1.8541162" fill="rgb(0,0,0)"/>
  <circle cx="579.64166" cy="105.18797" r="1.8541162" fill="rgb(0,0,0)"/>
  <circle cx="579.64166" cy="103.988174" r="1.8541162" fill="rgb(0,0,0)"/>
  <circle cx="579.64166" cy="102.788376" r="1.8541162" fill="rgb(0,0,0)"/>
  <circle cx="579.64166" cy="102.788376" r="1.8541162" fill="rgb(0,0,0)"/>
  <circle cx="579.64166" cy="102.788376" r="1.8541162" fill="rgb(0,0,0)"/>
  <circle cx="579.64166" cy="102.788376" r="1.8541162" fill="rgb(0,0,0)"/>
  <circle cx="579.64166" cy="102.788376" r="1.8541162" fill="rgb(0,0,0)"/>
  <circle cx="579.64166" cy="102.788376" r="1.8541162" fill="rgb(0,0,0)"/>
  <circle cx="579.64166" cy="101.58858" r="1.8541162" fill="rgb(0,0,0)"/>
  <circle cx="579.64166" cy="101.58858" r="1.8541162" fill="rgb(0,0,0)"/>
  <circle cx="579.64166" cy="101.58858" r="1.8541162" fill="rgb(0,0,0)"/>
  <circle cx="579.64166" cy="101.58858" r="1.8541162" fill="rgb(0,0,0)"/>
  <circle cx="579.64166" cy="101.58858" r="1.8541162" fill="rgb(0,0,0)"/>
  <circle cx="579.64166" cy="100.38878" r="1.8541162" fill="rgb(0,0,0)"/>
  <circle cx="579.64166" cy="100.38878" r="1.8541162" fill="rgb(0,0,0)"/>
  <circle cx="579.64166" cy="100.38878" r="1.8541162" fill="rgb(0,0,0)"/>
  <circle cx="579.64166" cy="95.58957" r="1.8541162" fill="rgb(0,0,0)"/>
  <circle cx="579.64166" cy="95.58957" r="1.8541162" fill="rgb(0,0,0)"/>
  <circle cx="579.64166" cy="93.18997" r="1.8541162" fill="rgb(0,0,0)"/>
  <circle cx="579.64166" cy="93.18997" r="1.8541162" fill="rgb(0,0,0)"/>
  <circle cx="579.64166" cy="91.99017" r="1.8541162" fill="rgb(0,0,0)"/>
  <circle cx="579.64166" cy="91.99017" r="1.8541162" fill="rgb(0,0,0)"/>
  <circle cx="579.64166" cy="91.99017" r="1.8541162" fill="rgb(0,0,0)"/>
  <circle cx="579.64166" cy="91.99017" r="1.8541162" fill="rgb(0,0,0)"/>
  <circle cx="579.64166" cy="91.99017" r="1.8541162" fill="rgb(0,0,0)"/>
  <circle cx="579.64166" cy="90.790375" r="1.8541162" fill="rgb(0,0,0)"/>
  <circle cx="579.64166" cy="90.790375" r="1.8541162" fill="rgb(0,0,0)"/>
  <circle cx="579.64166" cy="90.790375" r="1.8541162" fill="rgb(0,0,0)"/>
  <circle cx="579.64166" cy="89.590576" r="1.8541162" fill="rgb(0,0,0)"/>
  <circle cx="579.64166" cy="89.590576" r="1.8541162" fill="rgb(0,0,0)"/>
  <circle cx="579.64166" cy="89.590576" r="1.8541162" fill="rgb(0,0,0)"/>
  <circle cx="579.64166" cy="88.39078" r="1.8541162" fill="rgb(0,0,0)"/>
  <circle cx="579.64166" cy="88.39078" r="1.8541162" fill="rgb(0,0,0)"/>
  <circle cx="579.64166" cy="87.19098" r="1.8541162" fill="rgb(0,0,0)"/>
  <circle cx="579.64166" cy="87.19098" r="1.8541162" fill="rgb(0,0,0)"/>
  <circle cx="579.64166" cy="78.79239" r="1.8541162" fill="rgb(0,0,0)"/>
  <circle cx="579.64166" cy="77.592575" r="1.8541162" fill="rgb(0,0,0)"/>
  <line x1="52.85" y1="33.2" x2="52.85" y2="321.15192" stroke="rgb(0,0,0)" stroke-width="1"/>
  <line x1="52.85" y1="321.15192" x2="685" y2="321.15192" stroke="rgb(0,0,0)" stroke-width="1"/>
  <text x="158.20834" y="335.0119" font-family="sans-serif" font-size="9.9" fill="rgb(0,0,0)" text-anchor="middle">Undergraduate</text>
  <text x="368.92502" y="335.0119" font-family="sans-serif" font-size="9.9" fill="rgb(0,0,0)" text-anchor="middle">Graduate</text>
  <text x="579.64166" y="335.0119" font-family="sans-serif" font-size="9.9" fill="rgb(0,0,0)" text-anchor="middle">Advanced/Professional</text>
  <text x="48.89" y="321.15192" font-family="sans-serif" font-size="9.9" fill="rgb(0,0,0)" text-anchor="end">0</text>
  <text x="48.89" y="261.16193" font-family="sans-serif" font-size="9.9" fill="rgb(0,0,0)" text-anchor="end">50</text>
  <text x="48.89" y="201.17195" font-family="sans-serif" font-size="9.9" fill="rgb(0,0,0)" text-anchor="end">100</text>
  <text x="48.89" y="141.18196" font-family="sans-serif" font-size="9.9" fill="rgb(0,0,0)" text-anchor="end">150</text>
  <text x="48.89" y="81.191986" font-family="sans-serif" font-size="9.9" fill="rgb(0,0,0)" text-anchor="end">200</text>
  <text x="368.92502" y="355.25192" font-family="sans-serif" font-size="11" fill="rgb(0,0,0)" text-anchor="middle">Education Level</text>
  <text x="28.099998" y="177.17595" font-family="sans-serif" font-size="11" fill="rgb(0,0,0)" text-anchor="middle" transform="rotate(-90,28.099998,177.17595)">Income ($K)</text>
  <text x="350" y="23.2" font-family="sans-serif" font-size="13.200001" fill="rgb(0,0,0)" font-weight="bold" text-anchor="middle">Income Distribution by Education Level</text>
</svg>
