<svg xmlns="http://www.w3.org/2000/svg" width="600" height="400" viewBox="0 0 600 400" role="img">
  <title>Personal Loan — Class Counts</title>
  <rect width="600" height="400" fill="white"/>
  <rect x="0" y="0" width="600" height="400" fill="rgb(255,255,255)"/>
  <line x1="57.8" y1="354.1" x2="585" y2="354.1" stroke="rgb(241,241,241)" stroke-width="0.5"/>
  <line x1="57.8" y1="322.01" x2="585" y2="322.01" stroke="rgb(241,241,241)" stroke-width="0.5"/>
  <line x1="57.8" y1="289.92" x2="585" y2="289.92" stroke="rgb(241,241,241)" stroke-width="0.5"/>
  <line x1="57.8" y1="257.83" x2="585" y2="257.83" stroke="rgb(241,241,241)" stroke-width="0.5"/>
  <line x1="57.8" y1="225.73999" x2="585" y2="225.73999" stroke="rgb(241,241,241)" stroke-width="0.5"/>
  <line x1="57.8" y1="193.65" x2="585" y2="193.65" stroke="rgb(241,241,241)" stroke-width="0.5"/>
  <line x1="57.8" y1="161.55998" x2="585" y2="161.55998" stroke="rgb(241,241,241)" stroke-width="0.5"/>
  <line x1="57.8" y1="129.47" x2="585" y2="129.47" stroke="rgb(241,241,241)" stroke-width="0.5"/>
  <line x1="57.8" y1="97.37999" x2="585" y2="97.37999" stroke="rgb(241,241,241)" stroke-width="0.5"/>
  <line x1="57.8" y1="65.28999" x2="585" y2="65.28999" stroke="rgb(241,241,241)" stroke-width="0.5"/>
  <line x1="57.8" y1="33.2" x2="585" y2="33.2" stroke="rgb(241,241,241)" stroke-width="0.5"/>
  <rect x="57.799984" y="64.00639" width="234.31114" height="290.0936" fill="rgb(31,119,180)"/>
  <rect x="350.68887" y="323.2936" width="234.31114" height="30.806396" fill="rgb(255,127,14)"/>
  <line x1="57.8" y1="33.2" x2="57.8" y2="354.1" stroke="rgb(0,0,0)" stroke-width="1"/>
  <line x1="57.8" y1="354.1" x2="585" y2="354.1" stroke="rgb(0,0,0)" stroke-width="1"/>
  <text x="174.95555" y="367.96" font-family="sans-serif" font-size="9.9" fill="rgb(0,0,0)" text-anchor="middle">Declined (0)</text>
  <text x="467.84445" y="367.96" font-family="sans-serif" font-size="9.9" fill="rgb(0,0,0)" text-anchor="middle">Accepted (1)</text>
  <text x="53.84" y="354.1" font-family="sans-serif" font-size="9.9" fill="rgb(0,0,0)" text-anchor="end">0</text>
  <text x="53.84" y="322.01" font-family="sans-serif" font-size="9.9" fill="rgb(0,0,0)" text-anchor="end">500</text>
  <text x="53.84" y="289.92" font-family="sans-serif" font-size="9.9" fill="rgb(0,0,0)" text-anchor="end">1000</text>
  <text x="53.84" y="257.83" font-family="sans-serif" font-size="9.9" fill="rgb(0,0,0)" text-anchor="end">1500</text>
  <text x="53.84" y="225.73999" font-family="sans-serif" font-size="9.9" fill="rgb(0,0,0)" text-anchor="end">2000</text>
  <text x="53.84" y="193.65" font-family="sans-serif" font-size="9.9" fill="rgb(0,0,0)" text-anchor="end">2500</text>
  <text x="53.84" y="161.55998" font-family="sans-serif" font-size="9.9" fill="rgb(0,0,0)" text-anchor="end">3000</text>
  <text x="53.84" y="129.47" font-family="sans-serif" font-size="9.9" fill="rgb(0,0,0)" text-anchor="end">3500</text>
  <text x="53.84" y="97.37999" font-family="sans-serif" font-size="9.9" fill="rgb(0,0,0)" text-anchor="end">4000</text>
  <text x="53.84" y="65.28999" font-family="sans-serif" font-size="9.9" fill="rgb(0,0,0)" text-anchor="end">4500</text>
  <text x="53.84" y="33.2" font-family="sans-serif" font-size="9.9" fill="rgb(0,0,0)" text-anchor="end">5000</text>
  <text x="321.4" y="388.2" font-family="sans-serif" font-size="11" fill="rgb(0,0,0)" text-anchor="middle">Class</text>
  <text x="33.05" y="193.65" font-family="sans-serif" font-size="11" fill="rgb(0,0,0)" text-anchor="middle" transform="rotate(-90,33.05,193.65)">Count</text>
  <text x="300" y="23.2" font-family="sans-serif" font-size="13.200001" fill="rgb(0,0,0)" font-weight="bold" text-anchor="middle">Personal Loan — Class Counts</text>
</svg>
