<svg xmlns="http://www.w3.org/2000/svg" width="900" height="500" viewBox="0 0 900 500" role="img">
  <title>Permutation Feature Importance (Random Forest)</title>
  <rect width="900" height="500" fill="white"/>
  <rect x="0" y="0" width="900" height="500" fill="rgb(255,255,255)"/>
  <line x1="46.415" y1="454.1" x2="885" y2="454.1" stroke="rgb(241,241,241)" stroke-width="0.5"/>
  <line x1="46.415" y1="419.025" x2="885" y2="419.025" stroke="rgb(241,241,241)" stroke-width="0.5"/>
  <line x1="46.415" y1="383.95" x2="885" y2="383.95" stroke="rgb(241,241,241)" stroke-width="0.5"/>
  <line x1="46.415" y1="348.875" x2="885" y2="348.875" stroke="rgb(241,241,241)" stroke-width="0.5"/>
  <line x1="46.415" y1="313.8" x2="885" y2="313.8" stroke="rgb(241,241,241)" stroke-width="0.5"/>
  <line x1="46.415" y1="278.725" x2="885" y2="278.725" stroke="rgb(241,241,241)" stroke-width="0.5"/>
  <line x1="46.415" y1="243.65" x2="885" y2="243.65" stroke="rgb(241,241,241)" stroke-width="0.5"/>
  <line x1="46.415" y1="208.575" x2="885" y2="208.575" stroke="rgb(241,241,241)" stroke-width="0.5"/>
  <line x1="46.415" y1="173.49998" x2="885" y2="173.49998" stroke="rgb(241,241,241)" stroke-width="0.5"/>
  <line x1="46.415" y1="138.425" x2="885" y2="138.425" stroke="rgb(241,241,241)" stroke-width="0.5"/>
  <line x1="46.415" y1="103.34999" x2="885" y2="103.34999" stroke="rgb(241,241,241)" stroke-width="0.5"/>
  <line x1="46.415" y1="68.27498" x2="885" y2="68.27498" stroke="rgb(241,241,241)" stroke-width="0.5"/>
  <line x1="46.415" y1="33.2" x2="885" y2="33.2" stroke="rgb(241,241,241)" stroke-width="0.5"/>
  <rect x="44.73783" y="404.995" width="1.6771702" height="28.059986" fill="rgb(31,119,180)"/>
  <rect x="46.415" y="369.92" width="0" height="28.059986" fill="rgb(255,127,14)"/>
  <rect x="46.415" y="334.845" width="1.6771702" height="28.059986" fill="rgb(44,160,44)"/>
  <rect x="46.415" y="299.77" width="4.192925" height="28.059986" fill="rgb(214,39,40)"/>
  <rect x="46.415" y="264.695" width="8.38585" height="28.059986" fill="rgb(148,103,189)"/>
  <rect x="46.415" y="229.62" width="8.38585" height="28.059986" fill="rgb(140,86,75)"/>
  <rect x="46.415" y="194.545" width="26.834723" height="28.059986" fill="rgb(227,119,194)"/>
  <rect x="46.415" y="159.47" width="58.70095" height="28.059986" fill="rgb(127,127,127)"/>
  <rect x="46.415" y="124.39502" width="259.12277" height="28.059986" fill="rgb(188,189,34)"/>
  <rect x="46.415" y="89.32001" width="350.52856" height="28.059986" fill="rgb(23,190,207)"/>
  <rect x="46.415" y="54.244987" width="758.91943" height="28.059986" fill="rgb(31,119,180)"/>
  <line x1="46.415" y1="33.2" x2="46.415" y2="454.1" stroke="rgb(0,0,0)" stroke-width="1"/>
  <line x1="46.415" y1="454.1" x2="885" y2="454.1" stroke="rgb(0,0,0)" stroke-width="1"/>
  <text x="46.415" y="467.96" font-family="sans-serif" font-size="9.9" fill="rgb(0,0,0)" text-anchor="middle">0</text>
  <text x="130.2735" y="467.96" font-family="sans-serif" font-size="9.9" fill="rgb(0,0,0)" text-anchor="middle">0.02</text>
  <text x="214.13202" y="467.96" font-family="sans-serif" font-size="9.9" fill="rgb(0,0,0)" text-anchor="middle">0.04</text>
  <text x="297.9905" y="467.96" font-family="sans-serif" font-size="9.9" fill="rgb(0,0,0)" text-anchor="middle">0.06</text>
  <text x="381.84903" y="467.96" font-family="sans-serif" font-size="9.9" fill="rgb(0,0,0)" text-anchor="middle">0.08</text>
  <text x="465.70752" y="467.96" font-family="sans-serif" font-size="9.9" fill="rgb(0,0,0)" text-anchor="middle">0.10</text>
  <text x="549.56604" y="467.96" font-family="sans-serif" font-size="9.9" fill="rgb(0,0,0)" text-anchor="middle">0.12</text>
  <text x="633.4245" y="467.96" font-family="sans-serif" font-size="9.9" fill="rgb(0,0,0)" text-anchor="middle">0.14</text>
  <text x="717.283" y="467.96" font-family="sans-serif" font-size="9.9" fill="rgb(0,0,0)" text-anchor="middle">0.16</text>
  <text x="801.1415" y="467.96" font-family="sans-serif" font-size="9.9" fill="rgb(0,0,0)" text-anchor="middle">0.18</text>
  <text x="885" y="467.96" font-family="sans-serif" font-size="9.9" fill="rgb(0,0,0)" text-anchor="middle">0.20</text>
  <text x="42.455" y="419.025" font-family="sans-serif" font-size="9.9" fill="rgb(0,0,0)" text-anchor="end">Online</text>
  <text x="42.455" y="383.95" font-family="sans-serif" font-size="9.9" fill="rgb(0,0,0)" text-anchor="end">Securities Account</text>
  <text x="42.455" y="348.875" font-family="sans-serif" font-size="9.9" fill="rgb(0,0,0)" text-anchor="end">CreditCard</text>
  <text x="42.455" y="313.8" font-family="sans-serif" font-size="9.9" fill="rgb(0,0,0)" text-anchor="end">Experience</text>
  <text x="42.455" y="278.725" font-family="sans-serif" font-size="9.9" fill="rgb(0,0,0)" text-anchor="end">Mortgage</text>
  <text x="42.455" y="243.65" font-family="sans-serif" font-size="9.9" fill="rgb(0,0,0)" text-anchor="end">Age</text>
  <text x="42.455" y="208.575" font-family="sans-serif" font-size="9.9" fill="rgb(0,0,0)" text-anchor="end">CD Account</text>
  <text x="42.455" y="173.49998" font-family="sans-serif" font-size="9.9" fill="rgb(0,0,0)" text-anchor="end">CCAvg</text>
  <text x="42.455" y="138.425" font-family="sans-serif" font-size="9.9" fill="rgb(0,0,0)" text-anchor="end">Family</text>
  <text x="42.455" y="103.34999" font-family="sans-serif" font-size="9.9" fill="rgb(0,0,0)" text-anchor="end">Education</text>
  <text x="42.455" y="68.27498" font-family="sans-serif" font-size="9.9" fill="rgb(0,0,0)" text-anchor="end">Income</text>
  <text x="465.70752" y="488.2" font-family="sans-serif" font-size="11" fill="rgb(0,0,0)" text-anchor="middle">Mean Accuracy Decrease</text>
  <text x="-50.76499" y="243.65" font-family="sans-serif" font-size="11" fill="rgb(0,0,0)" text-anchor="middle" transform="rotate(-90,-50.76499,243.65)">Feature</text>
  <text x="450" y="23.2" font-family="sans-serif" font-size="13.200001" fill="rgb(0,0,0)" font-weight="bold" text-anchor="middle">Permutation Feature Importance (Random Forest)</text>
</svg>
