<svg xmlns="http://www.w3.org/2000/svg" width="900" height="500" viewBox="0 0 900 500" role="img">
  <title>Permutation Feature Importance (Random Forest)</title>
  <rect width="900" height="500" fill="white"/>
  <rect x="0" y="0" width="900" height="500" fill="rgb(255,255,255)"/>
  <line x1="55.82" y1="454.1" x2="885" y2="454.1" stroke="rgb(241,241,241)" stroke-width="0.5"/>
  <line x1="55.82" y1="412.01" x2="885" y2="412.01" stroke="rgb(241,241,241)" stroke-width="0.5"/>
  <line x1="55.82" y1="369.92" x2="885" y2="369.92" stroke="rgb(241,241,241)" stroke-width="0.5"/>
  <line x1="55.82" y1="327.83002" x2="885" y2="327.83002" stroke="rgb(241,241,241)" stroke-width="0.5"/>
  <line x1="55.82" y1="285.74" x2="885" y2="285.74" stroke="rgb(241,241,241)" stroke-width="0.5"/>
  <line x1="55.82" y1="243.65" x2="885" y2="243.65" stroke="rgb(241,241,241)" stroke-width="0.5"/>
  <line x1="55.82" y1="201.55998" x2="885" y2="201.55998" stroke="rgb(241,241,241)" stroke-width="0.5"/>
  <line x1="55.82" y1="159.46999" x2="885" y2="159.46999" stroke="rgb(241,241,241)" stroke-width="0.5"/>
  <line x1="55.82" y1="117.37999" x2="885" y2="117.37999" stroke="rgb(241,241,241)" stroke-width="0.5"/>
  <line x1="55.82" y1="75.28999" x2="885" y2="75.28999" stroke="rgb(241,241,241)" stroke-width="0.5"/>
  <line x1="55.82" y1="33.2" x2="885" y2="33.2" stroke="rgb(241,241,241)" stroke-width="0.5"/>
  <rect x="97.279" y="73.1855" width="55.278667" height="380.9145" fill="rgb(31,119,180)"/>
  <rect x="166.37733" y="278.1638" width="55.278667" height="175.9362" fill="rgb(255,127,14)"/>
  <rect x="235.47568" y="324.04193" width="55.278667" height="130.05807" fill="rgb(44,160,44)"/>
  <rect x="304.574" y="424.637" width="55.278667" height="29.463013" fill="rgb(214,39,40)"/>
  <rect x="373.67233" y="440.6312" width="55.278667" height="13.468811" fill="rgb(148,103,189)"/>
  <rect x="442.77066" y="449.891" width="55.278667" height="4.209015" fill="rgb(140,86,75)"/>
  <rect x="511.869" y="449.891" width="55.278667" height="4.209015" fill="rgb(227,119,194)"/>
  <rect x="580.96735" y="451.9955" width="55.278667" height="2.1044922" fill="rgb(127,127,127)"/>
  <rect x="650.0657" y="453.2582" width="55.278667" height="0.8417969" fill="rgb(188,189,34)"/>
  <rect x="719.164" y="454.1" width="55.278667" height="0" fill="rgb(23,190,207)"/>
  <rect x="788.2623" y="454.1" width="55.278667" height="0.8417969" fill="rgb(31,119,180)"/>
  <line x1="55.82" y1="33.2" x2="55.82" y2="454.1" stroke="rgb(0,0,0)" stroke-width="1"/>
  <line x1="55.82" y1="454.1" x2="885" y2="454.1" stroke="rgb(0,0,0)" stroke-width="1"/>
  <text x="124.918335" y="467.96" font-family="sans-serif" font-size="9.9" fill="rgb(0,0,0)" text-anchor="middle">Income</text>
  <text x="194.01666" y="467.96" font-family="sans-serif" font-size="9.9" fill="rgb(0,0,0)" text-anchor="middle">Education</text>
  <text x="263.115" y="467.96" font-family="sans-serif" font-size="9.9" fill="rgb(0,0,0)" text-anchor="middle">Family</text>
  <text x="332.21335" y="467.96" font-family="sans-serif" font-size="9.9" fill="rgb(0,0,0)" text-anchor="middle">CCAvg</text>
  <text x="401.31168" y="467.96" font-family="sans-serif" font-size="9.9" fill="rgb(0,0,0)" text-anchor="middle">CD Account</text>
  <text x="470.41" y="467.96" font-family="sans-serif" font-size="9.9" fill="rgb(0,0,0)" text-anchor="middle">Age</text>
  <text x="539.5083" y="467.96" font-family="sans-serif" font-size="9.9" fill="rgb(0,0,0)" text-anchor="middle">Mortgage</text>
  <text x="608.6067" y="467.96" font-family="sans-serif" font-size="9.9" fill="rgb(0,0,0)" text-anchor="middle">Experience</text>
  <text x="677.705" y="467.96" font-family="sans-serif" font-size="9.9" fill="rgb(0,0,0)" text-anchor="middle">CreditCard</text>
  <text x="746.80334" y="467.96" font-family="sans-serif" font-size="9.9" fill="rgb(0,0,0)" text-anchor="middle">Securities Account</text>
  <text x="815.9017" y="467.96" font-family="sans-serif" font-size="9.9" fill="rgb(0,0,0)" text-anchor="middle">Online</text>
  <text x="51.86" y="454.1" font-family="sans-serif" font-size="9.9" fill="rgb(0,0,0)" text-anchor="end">0</text>
  <text x="51.86" y="412.01" font-family="sans-serif" font-size="9.9" fill="rgb(0,0,0)" text-anchor="end">0.02</text>
  <text x="51.86" y="369.92" font-family="sans-serif" font-size="9.9" fill="rgb(0,0,0)" text-anchor="end">0.04</text>
  <text x="51.86" y="327.83002" font-family="sans-serif" font-size="9.9" fill="rgb(0,0,0)" text-anchor="end">0.06</text>
  <text x="51.86" y="285.74" font-family="sans-serif" font-size="9.9" fill="rgb(0,0,0)" text-anchor="end">0.08</text>
  <text x="51.86" y="243.65" font-family="sans-serif" font-size="9.9" fill="rgb(0,0,0)" text-anchor="end">0.10</text>
  <text x="51.86" y="201.55998" font-family="sans-serif" font-size="9.9" fill="rgb(0,0,0)" text-anchor="end">0.12</text>
  <text x="51.86" y="159.46999" font-family="sans-serif" font-size="9.9" fill="rgb(0,0,0)" text-anchor="end">0.14</text>
  <text x="51.86" y="117.37999" font-family="sans-serif" font-size="9.9" fill="rgb(0,0,0)" text-anchor="end">0.16</text>
  <text x="51.86" y="75.28999" font-family="sans-serif" font-size="9.9" fill="rgb(0,0,0)" text-anchor="end">0.18</text>
  <text x="51.86" y="33.2" font-family="sans-serif" font-size="9.9" fill="rgb(0,0,0)" text-anchor="end">0.20</text>
  <text x="470.41" y="488.2" font-family="sans-serif" font-size="11" fill="rgb(0,0,0)" text-anchor="middle">Feature</text>
  <text x="31.07" y="243.65" font-family="sans-serif" font-size="11" fill="rgb(0,0,0)" text-anchor="middle" transform="rotate(-90,31.07,243.65)">Mean Accuracy Decrease</text>
  <text x="450" y="23.2" font-family="sans-serif" font-size="13.200001" fill="rgb(0,0,0)" font-weight="bold" text-anchor="middle">Permutation Feature Importance (Random Forest)</text>
</svg>
