<svg xmlns="http://www.w3.org/2000/svg" width="600" height="400" viewBox="0 0 600 400" role="img">
  <title>Distribution of Experience</title>
  <rect width="600" height="400" fill="white"/>
  <rect x="0" y="0" width="600" height="400" fill="rgb(255,255,255)"/>
  <line x1="52.85" y1="354.1" x2="585" y2="354.1" stroke="rgb(241,241,241)" stroke-width="0.5"/>
  <line x1="52.85" y1="300.61667" x2="585" y2="300.61667" stroke="rgb(241,241,241)" stroke-width="0.5"/>
  <line x1="52.85" y1="247.13332" x2="585" y2="247.13332" stroke="rgb(241,241,241)" stroke-width="0.5"/>
  <line x1="52.85" y1="193.65" x2="585" y2="193.65" stroke="rgb(241,241,241)" stroke-width="0.5"/>
  <line x1="52.85" y1="140.16666" x2="585" y2="140.16666" stroke="rgb(241,241,241)" stroke-width="0.5"/>
  <line x1="52.85" y1="86.683334" x2="585" y2="86.683334" stroke="rgb(241,241,241)" stroke-width="0.5"/>
  <line x1="52.85" y1="33.2" x2="585" y2="33.2" stroke="rgb(241,241,241)" stroke-width="0.5"/>
  <rect x="53.019497" y="148.724" width="16.610966" height="205.37599" fill="rgb(31,119,180)" stroke="rgb(255,255,255)" stroke-width="0.5"/>
  <rect x="69.96946" y="263.17834" width="16.610966" height="90.92166" fill="rgb(31,119,180)" stroke="rgb(255,255,255)" stroke-width="0.5"/>
  <rect x="86.919426" y="95.24065" width="16.610966" height="258.85934" fill="rgb(31,119,180)" stroke="rgb(255,255,255)" stroke-width="0.5"/>
  <rect x="103.869385" y="197.92865" width="16.610966" height="156.17134" fill="rgb(31,119,180)" stroke="rgb(255,255,255)" stroke-width="0.5"/>
  <rect x="120.81935" y="97.37999" width="16.610966" height="256.72" fill="rgb(31,119,180)" stroke="rgb(255,255,255)" stroke-width="0.5"/>
  <rect x="137.76932" y="226.80965" width="16.610966" height="127.290344" fill="rgb(31,119,180)" stroke="rgb(255,255,255)" stroke-width="0.5"/>
  <rect x="154.71927" y="70.63832" width="16.610966" height="283.46167" fill="rgb(31,119,180)" stroke="rgb(255,255,255)" stroke-width="0.5"/>
  <rect x="171.66925" y="230.01866" width="16.610966" height="124.08133" fill="rgb(31,119,180)" stroke="rgb(255,255,255)" stroke-width="0.5"/>
  <rect x="188.6192" y="244.99399" width="16.610966" height="109.106" fill="rgb(31,119,180)" stroke="rgb(255,255,255)" stroke-width="0.5"/>
  <rect x="205.56918" y="93.10133" width="16.610966" height="260.99866" fill="rgb(31,119,180)" stroke="rgb(255,255,255)" stroke-width="0.5"/>
  <rect x="222.51913" y="226.80965" width="16.610966" height="127.290344" fill="rgb(31,119,180)" stroke="rgb(255,255,255)" stroke-width="0.5"/>
  <rect x="239.46909" y="84.54399" width="16.610966" height="269.556" fill="rgb(31,119,180)" stroke="rgb(255,255,255)" stroke-width="0.5"/>
  <rect x="256.41907" y="207.55566" width="16.610966" height="146.54433" fill="rgb(31,119,180)" stroke="rgb(255,255,255)" stroke-width="0.5"/>
  <rect x="273.36902" y="51.384327" width="16.610966" height="302.71567" fill="rgb(31,119,180)" stroke="rgb(255,255,255)" stroke-width="0.5"/>
  <rect x="290.319" y="233.22766" width="16.610966" height="120.87233" fill="rgb(31,119,180)" stroke="rgb(255,255,255)" stroke-width="0.5"/>
  <rect x="307.26895" y="221.46133" width="16.610966" height="132.63866" fill="rgb(31,119,180)" stroke="rgb(255,255,255)" stroke-width="0.5"/>
  <rect x="324.21893" y="59.94167" width="16.610966" height="294.15833" fill="rgb(31,119,180)" stroke="rgb(255,255,255)" stroke-width="0.5"/>
  <rect x="341.16888" y="202.20732" width="16.610966" height="151.89267" fill="rgb(31,119,180)" stroke="rgb(255,255,255)" stroke-width="0.5"/>
  <rect x="358.11887" y="77.05632" width="16.610966" height="277.04367" fill="rgb(31,119,180)" stroke="rgb(255,255,255)" stroke-width="0.5"/>
  <rect x="375.06882" y="206.486" width="16.610966" height="147.614" fill="rgb(31,119,180)" stroke="rgb(255,255,255)" stroke-width="0.5"/>
  <rect x="392.0188" y="86.683334" width="16.610966" height="267.41666" fill="rgb(31,119,180)" stroke="rgb(255,255,255)" stroke-width="0.5"/>
  <rect x="408.96875" y="242.85466" width="16.610966" height="111.24533" fill="rgb(31,119,180)" stroke="rgb(255,255,255)" stroke-width="0.5"/>
  <rect x="425.9187" y="189.37134" width="16.610966" height="164.72865" fill="rgb(31,119,180)" stroke="rgb(255,255,255)" stroke-width="0.5"/>
  <rect x="442.86868" y="95.24065" width="16.610966" height="258.85934" fill="rgb(31,119,180)" stroke="rgb(255,255,255)" stroke-width="0.5"/>
  <rect x="459.81863" y="201.13766" width="16.610966" height="152.96233" fill="rgb(31,119,180)" stroke="rgb(255,255,255)" stroke-width="0.5"/>
  <rect x="476.76862" y="108.07666" width="16.610966" height="246.02333" fill="rgb(31,119,180)" stroke="rgb(255,255,255)" stroke-width="0.5"/>
  <rect x="493.71857" y="259.96933" width="16.610966" height="94.13066" fill="rgb(31,119,180)" stroke="rgb(255,255,255)" stroke-width="0.5"/>
  <rect x="510.66852" y="202.20732" width="16.610966" height="151.89267" fill="rgb(31,119,180)" stroke="rgb(255,255,255)" stroke-width="0.5"/>
  <rect x="527.61847" y="308.10434" width="16.610966" height="45.995667" fill="rgb(31,119,180)" stroke="rgb(255,255,255)" stroke-width="0.5"/>
  <rect x="544.5684" y="342.33368" width="16.610966" height="11.766327" fill="rgb(31,119,180)" stroke="rgb(255,255,255)" stroke-width="0.5"/>
  <line x1="52.85" y1="33.2" x2="52.85" y2="354.1" stroke="rgb(0,0,0)" stroke-width="1"/>
  <line x1="52.85" y1="354.1" x2="585" y2="354.1" stroke="rgb(0,0,0)" stroke-width="1"/>
  <text x="52.85" y="367.96" font-family="sans-serif" font-size="9.9" fill="rgb(0,0,0)" text-anchor="middle">0</text>
  <text x="171.10556" y="367.96" font-family="sans-serif" font-size="9.9" fill="rgb(0,0,0)" text-anchor="middle">10</text>
  <text x="289.3611" y="367.96" font-family="sans-serif" font-size="9.9" fill="rgb(0,0,0)" text-anchor="middle">20</text>
  <text x="407.6167" y="367.96" font-family="sans-serif" font-size="9.9" fill="rgb(0,0,0)" text-anchor="middle">30</text>
  <text x="525.87225" y="367.96" font-family="sans-serif" font-size="9.9" fill="rgb(0,0,0)" text-anchor="middle">40</text>
  <text x="48.89" y="354.1" font-family="sans-serif" font-size="9.9" fill="rgb(0,0,0)" text-anchor="end">0</text>
  <text x="48.89" y="300.61667" font-family="sans-serif" font-size="9.9" fill="rgb(0,0,0)" text-anchor="end">50</text>
  <text x="48.89" y="247.13332" font-family="sans-serif" font-size="9.9" fill="rgb(0,0,0)" text-anchor="end">100</text>
  <text x="48.89" y="193.65" font-family="sans-serif" font-size="9.9" fill="rgb(0,0,0)" text-anchor="end">150</text>
  <text x="48.89" y="140.16666" font-family="sans-serif" font-size="9.9" fill="rgb(0,0,0)" text-anchor="end">200</text>
  <text x="48.89" y="86.683334" font-family="sans-serif" font-size="9.9" fill="rgb(0,0,0)" text-anchor="end">250</text>
  <text x="48.89" y="33.2" font-family="sans-serif" font-size="9.9" fill="rgb(0,0,0)" text-anchor="end">300</text>
  <text x="318.92502" y="388.2" font-family="sans-serif" font-size="11" fill="rgb(0,0,0)" text-anchor="middle">Experience</text>
  <text x="28.099998" y="193.65" font-family="sans-serif" font-size="11" fill="rgb(0,0,0)" text-anchor="middle" transform="rotate(-90,28.099998,193.65)">Frequency</text>
  <text x="300" y="23.2" font-family="sans-serif" font-size="13.200001" fill="rgb(0,0,0)" font-weight="bold" text-anchor="middle">Distribution of Experience</text>
</svg>
