<svg xmlns="http://www.w3.org/2000/svg" width="900" height="500" viewBox="0 0 900 500" role="img">
  <title>5-Fold CV Accuracy by Model</title>
  <rect width="900" height="500" fill="white"/>
  <rect x="0" y="0" width="900" height="500" fill="rgb(255,255,255)"/>
  <line x1="55.82" y1="454.1" x2="885" y2="454.1" stroke="rgb(241,241,241)" stroke-width="0.5"/>
  <line x1="55.82" y1="412.01" x2="885" y2="412.01" stroke="rgb(241,241,241)" stroke-width="0.5"/>
  <line x1="55.82" y1="369.92" x2="885" y2="369.92" stroke="rgb(241,241,241)" stroke-width="0.5"/>
  <line x1="55.82" y1="327.83002" x2="885" y2="327.83002" stroke="rgb(241,241,241)" stroke-width="0.5"/>
  <line x1="55.82" y1="285.74" x2="885" y2="285.74" stroke="rgb(241,241,241)" stroke-width="0.5"/>
  <line x1="55.82" y1="243.65" x2="885" y2="243.65" stroke="rgb(241,241,241)" stroke-width="0.5"/>
  <line x1="55.82" y1="201.55998" x2="885" y2="201.55998" stroke="rgb(241,241,241)" stroke-width="0.5"/>
  <line x1="55.82" y1="159.46999" x2="885" y2="159.46999" stroke="rgb(241,241,241)" stroke-width="0.5"/>
  <line x1="55.82" y1="117.37999" x2="885" y2="117.37999" stroke="rgb(241,241,241)" stroke-width="0.5"/>
  <line x1="55.82" y1="75.28999" x2="885" y2="75.28999" stroke="rgb(241,241,241)" stroke-width="0.5"/>
  <line x1="55.82" y1="33.2" x2="885" y2="33.2" stroke="rgb(241,241,241)" stroke-width="0.5"/>
  <rect x="67.665436" y="40.776203" width="94.76343" height="413.3238" fill="rgb(31,119,180)"/>
  <rect x="186.11972" y="38.250813" width="94.76343" height="415.84918" fill="rgb(255,127,14)"/>
  <rect x="304.574" y="38.166615" width="94.76343" height="415.93338" fill="rgb(44,160,44)"/>
  <rect x="423.0283" y="82.10857" width="94.76343" height="371.99142" fill="rgb(214,39,40)"/>
  <rect x="541.48254" y="54.07665" width="94.76343" height="400.02335" fill="rgb(148,103,189)"/>
  <rect x="659.9368" y="49.9518" width="94.76343" height="404.1482" fill="rgb(140,86,75)"/>
  <rect x="778.3911" y="53.739918" width="94.76343" height="400.36008" fill="rgb(227,119,194)"/>
  <line x1="115.04715" y1="43.11211" x2="115.04715" y2="38.440296" stroke="rgb(0,0,0)" stroke-width="1.5"/>
  <line x1="86.61812" y1="43.11211" x2="143.47617" y2="43.11211" stroke="rgb(0,0,0)" stroke-width="1.5"/>
  <line x1="86.61812" y1="38.440296" x2="143.47617" y2="38.440296" stroke="rgb(0,0,0)" stroke-width="1.5"/>
  <line x1="233.50143" y1="38.846027" x2="233.50143" y2="37.655567" stroke="rgb(0,0,0)" stroke-width="1.5"/>
  <line x1="205.07239" y1="38.846027" x2="261.93045" y2="38.846027" stroke="rgb(0,0,0)" stroke-width="1.5"/>
  <line x1="205.07239" y1="37.655567" x2="261.93045" y2="37.655567" stroke="rgb(0,0,0)" stroke-width="1.5"/>
  <line x1="351.95572" y1="39.560047" x2="351.95572" y2="36.773212" stroke="rgb(0,0,0)" stroke-width="1.5"/>
  <line x1="323.5267" y1="39.560047" x2="380.38474" y2="39.560047" stroke="rgb(0,0,0)" stroke-width="1.5"/>
  <line x1="323.5267" y1="36.773212" x2="380.38474" y2="36.773212" stroke="rgb(0,0,0)" stroke-width="1.5"/>
  <line x1="470.41" y1="83.57631" x2="470.41" y2="80.640854" stroke="rgb(0,0,0)" stroke-width="1.5"/>
  <line x1="441.981" y1="83.57631" x2="498.83902" y2="83.57631" stroke="rgb(0,0,0)" stroke-width="1.5"/>
  <line x1="441.981" y1="80.640854" x2="498.83902" y2="80.640854" stroke="rgb(0,0,0)" stroke-width="1.5"/>
  <line x1="588.86426" y1="55.39696" x2="588.86426" y2="52.756336" stroke="rgb(0,0,0)" stroke-width="1.5"/>
  <line x1="560.43524" y1="55.39696" x2="617.2933" y2="55.39696" stroke="rgb(0,0,0)" stroke-width="1.5"/>
  <line x1="560.43524" y1="52.756336" x2="617.2933" y2="52.756336" stroke="rgb(0,0,0)" stroke-width="1.5"/>
  <line x1="707.31854" y1="51.490253" x2="707.31854" y2="48.41338" stroke="rgb(0,0,0)" stroke-width="1.5"/>
  <line x1="678.8895" y1="51.490253" x2="735.74756" y2="51.490253" stroke="rgb(0,0,0)" stroke-width="1.5"/>
  <line x1="678.8895" y1="48.41338" x2="735.74756" y2="48.41338" stroke="rgb(0,0,0)" stroke-width="1.5"/>
  <line x1="825.7728" y1="55.791553" x2="825.7728" y2="51.688282" stroke="rgb(0,0,0)" stroke-width="1.5"/>
  <line x1="797.3438" y1="55.791553" x2="854.20184" y2="55.791553" stroke="rgb(0,0,0)" stroke-width="1.5"/>
  <line x1="797.3438" y1="51.688282" x2="854.20184" y2="51.688282" stroke="rgb(0,0,0)" stroke-width="1.5"/>
  <line x1="55.82" y1="33.2" x2="55.82" y2="454.1" stroke="rgb(0,0,0)" stroke-width="1"/>
  <line x1="55.82" y1="454.1" x2="885" y2="454.1" stroke="rgb(0,0,0)" stroke-width="1"/>
  <text x="115.04715" y="467.96" font-family="sans-serif" font-size="9.9" fill="rgb(0,0,0)" text-anchor="middle">Decision Tree</text>
  <text x="233.50143" y="467.96" font-family="sans-serif" font-size="9.9" fill="rgb(0,0,0)" text-anchor="middle">Random Forest</text>
  <text x="351.95572" y="467.96" font-family="sans-serif" font-size="9.9" fill="rgb(0,0,0)" text-anchor="middle">Gradient Boosting</text>
  <text x="470.41" y="467.96" font-family="sans-serif" font-size="9.9" fill="rgb(0,0,0)" text-anchor="middle">Gaussian NB</text>
  <text x="588.86426" y="467.96" font-family="sans-serif" font-size="9.9" fill="rgb(0,0,0)" text-anchor="middle">Logistic Regression</text>
  <text x="707.31854" y="467.96" font-family="sans-serif" font-size="9.9" fill="rgb(0,0,0)" text-anchor="middle">KNN (k=5)</text>
  <text x="825.7728" y="467.96" font-family="sans-serif" font-size="9.9" fill="rgb(0,0,0)" text-anchor="middle">LinearSVC</text>
  <text x="51.86" y="454.1" font-family="sans-serif" font-size="9.9" fill="rgb(0,0,0)" text-anchor="end">0</text>
  <text x="51.86" y="412.01" font-family="sans-serif" font-size="9.9" fill="rgb(0,0,0)" text-anchor="end">0.10</text>
  <text x="51.86" y="369.92" font-family="sans-serif" font-size="9.9" fill="rgb(0,0,0)" text-anchor="end">0.20</text>
  <text x="51.86" y="327.83002" font-family="sans-serif" font-size="9.9" fill="rgb(0,0,0)" text-anchor="end">0.30</text>
  <text x="51.86" y="285.74" font-family="sans-serif" font-size="9.9" fill="rgb(0,0,0)" text-anchor="end">0.40</text>
  <text x="51.86" y="243.65" font-family="sans-serif" font-size="9.9" fill="rgb(0,0,0)" text-anchor="end">0.50</text>
  <text x="51.86" y="201.55998" font-family="sans-serif" font-size="9.9" fill="rgb(0,0,0)" text-anchor="end">0.60</text>
  <text x="51.86" y="159.46999" font-family="sans-serif" font-size="9.9" fill="rgb(0,0,0)" text-anchor="end">0.70</text>
  <text x="51.86" y="117.37999" font-family="sans-serif" font-size="9.9" fill="rgb(0,0,0)" text-anchor="end">0.80</text>
  <text x="51.86" y="75.28999" font-family="sans-serif" font-size="9.9" fill="rgb(0,0,0)" text-anchor="end">0.90</text>
  <text x="51.86" y="33.2" font-family="sans-serif" font-size="9.9" fill="rgb(0,0,0)" text-anchor="end">1.00</text>
  <text x="470.41" y="488.2" font-family="sans-serif" font-size="11" fill="rgb(0,0,0)" text-anchor="middle">Model</text>
  <text x="31.07" y="243.65" font-family="sans-serif" font-size="11" fill="rgb(0,0,0)" text-anchor="middle" transform="rotate(-90,31.07,243.65)">Mean Accuracy</text>
  <text x="450" y="23.2" font-family="sans-serif" font-size="13.200001" fill="rgb(0,0,0)" font-weight="bold" text-anchor="middle">5-Fold CV Accuracy by Model</text>
</svg>
