<svg xmlns="http://www.w3.org/2000/svg" width="600" height="600" viewBox="0 0 600 600" role="img">
  <title>ROC (AUC = 0.949)</title>
  <rect width="600" height="600" fill="white"/>
  <rect x="0" y="0" width="600" height="600" fill="rgb(255,255,255)"/>
  <line x1="59.285" y1="554.1" x2="490.28503" y2="554.1" stroke="rgb(241,241,241)" stroke-width="0.5"/>
  <line x1="59.285" y1="510.69165" x2="490.28503" y2="510.69165" stroke="rgb(241,241,241)" stroke-width="0.5"/>
  <line x1="59.285" y1="467.28333" x2="490.28503" y2="467.28333" stroke="rgb(241,241,241)" stroke-width="0.5"/>
  <line x1="59.285" y1="423.875" x2="490.28503" y2="423.875" stroke="rgb(241,241,241)" stroke-width="0.5"/>
  <line x1="59.285" y1="380.46664" x2="490.28503" y2="380.46664" stroke="rgb(241,241,241)" stroke-width="0.5"/>
  <line x1="59.285" y1="337.05835" x2="490.28503" y2="337.05835" stroke="rgb(241,241,241)" stroke-width="0.5"/>
  <line x1="59.285" y1="293.65" x2="490.28503" y2="293.65" stroke="rgb(241,241,241)" stroke-width="0.5"/>
  <line x1="59.285" y1="250.24165" x2="490.28503" y2="250.24165" stroke="rgb(241,241,241)" stroke-width="0.5"/>
  <line x1="59.285" y1="206.8333" x2="490.28503" y2="206.8333" stroke="rgb(241,241,241)" stroke-width="0.5"/>
  <line x1="59.285" y1="163.42497" x2="490.28503" y2="163.42497" stroke="rgb(241,241,241)" stroke-width="0.5"/>
  <line x1="59.285" y1="120.01668" x2="490.28503" y2="120.01668" stroke="rgb(241,241,241)" stroke-width="0.5"/>
  <line x1="59.285" y1="76.60832" x2="490.28503" y2="76.60832" stroke="rgb(241,241,241)" stroke-width="0.5"/>
  <line x1="59.285" y1="33.2" x2="490.28503" y2="33.2" stroke="rgb(241,241,241)" stroke-width="0.5"/>
  <line x1="59.285" y1="33.2" x2="59.285" y2="554.1" stroke="rgb(241,241,241)" stroke-width="0.5"/>
  <line x1="120.85643" y1="33.2" x2="120.85643" y2="554.1" stroke="rgb(241,241,241)" stroke-width="0.5"/>
  <line x1="182.42787" y1="33.2" x2="182.42787" y2="554.1" stroke="rgb(241,241,241)" stroke-width="0.5"/>
  <line x1="243.9993" y1="33.2" x2="243.9993" y2="554.1" stroke="rgb(241,241,241)" stroke-width="0.5"/>
  <line x1="305.57074" y1="33.2" x2="305.57074" y2="554.1" stroke="rgb(241,241,241)" stroke-width="0.5"/>
  <line x1="367.14218" y1="33.2" x2="367.14218" y2="554.1" stroke="rgb(241,241,241)" stroke-width="0.5"/>
  <line x1="428.7136" y1="33.2" x2="428.7136" y2="554.1" stroke="rgb(241,241,241)" stroke-width="0.5"/>
  <line x1="490.28503" y1="33.2" x2="490.28503" y2="554.1" stroke="rgb(241,241,241)" stroke-width="0.5"/>
  <polyline points="120.85643,510.69165 120.85643,506.16995 120.85643,501.64825 120.85643,497.12653 120.85643,492.60486 120.85643,488.08313 120.85643,483.56143 120.85643,479.03973 120.85643,474.51804 120.85643,469.99634 120.85643,465.47464 120.85643,460.95294 120.85643,456.4312 120.85643,451.90955 120.85643,447.38782 120.85643,442.86612 120.85643,438.34442 120.85643,433.82272 120.85643,429.30103 120.85643,424.77933 120.85643,420.25763 120.85643,415.7359 120.85643,411.21423 120.85643,406.6925 120.85643,402.17084 120.85643,397.6491 120.85643,393.1274 120.85643,388.6057 120.85643,384.084 120.85643,379.56232 120.85643,375.04062 120.85643,370.51892 120.85643,365.9972 120.85643,361.47552 120.85643,356.9538 120.85643,352.4321 120.85643,347.9104 120.85643,343.3887 120.85643,338.867 120.85643,334.3453 121.19698,334.3453 121.19698,329.8236 121.19698,325.3019 121.19698,320.7802 121.19698,316.25848 121.19698,311.7368 121.19698,307.2151 121.19698,302.6934 121.19698,298.1717 121.53754,298.1717 121.53754,293.65 121.53754,289.12827 121.87808,289.12827 121.87808,284.6066 121.87808,280.08487 121.87808,275.5632 121.87808,271.04147 122.21863,271.04147 122.21863,266.5198 122.55918,266.5198 122.55918,261.99808 122.55918,257.4764 122.899734,257.4764 122.899734,252.95467 123.24028,252.95467 123.24028,248.43297 123.580826,248.43297 123.580826,243.91127 123.580826,239.38954 123.92139,239.38954 123.92139,234.86787 124.26193,234.86787 124.60248,234.86787 124.60248,230.34615 124.94304,230.34615 124.94304,225.82448 124.94304,221.30275 125.283585,221.30275 125.62413,221.30275 125.96469,221.30275 126.30524,221.30275 126.30524,216.78108 126.30524,212.25935 126.64578,212.25935 126.98633,212.25935 126.98633,207.73766 127.32689,207.73766 127.32689,203.21596 127.667435,203.21596 128.00798,203.21596 128.34853,203.21596 128.68909,203.21596 129.02963,203.21596 129.02963,198.69426 129.02963,194.17256 129.02963,189.65083 129.37018,189.65083 129.71072,189.65083 130.05128,189.65083 130.05128,185.12917 130.39183,185.12917 130.73238,185.12917 131.07294,185.12917 131.07294,180.60744 131.41348,180.60744 131.75403,180.60744 132.09459,180.60744 132.09459,176.08577 132.09459,171.56404 132.43513,171.56404 132.43513,167.04234 132.77568,167.04234 133.11623,167.04234 133.45679,167.04234 133.79733,167.04234 134.13788,167.04234 134.13788,162.52065 134.47842,162.52065 134.81898,162.52065 135.15953,162.52065 135.50008,162.52065 135.84062,162.52065 135.84062,157.99895 136.18118,157.99895 136.52173,157.99895 136.86227,157.99895 137.20284,157.99895 137.54338,157.99895 137.88393,157.99895 138.22449,157.99895 138.56503,157.99895 138.90558,157.99895 139.24614,157.99895 139.58669,157.99895 139.92723,157.99895 140.26778,157.99895 140.60834,157.99895 140.94888,157.99895 141.28943,157.99895 141.62997,157.99895 141.97054,157.99895 142.31108,157.99895 142.65163,157.99895 142.99217,157.99895 143.33273,157.99895 143.67328,157.99895 144.01382,157.99895 144.35439,157.99895 144.69493,157.99895 145.03548,157.99895 145.37604,157.99895 145.37604,153.47725 145.37604,148.95555 145.71658,148.95555 146.05713,148.95555 146.39767,148.95555 146.73824,148.95555 147.07878,148.95555 147.41933,148.95555 147.75987,148.95555 148.10043,148.95555 148.44098,148.95555 148.78152,148.95555 149.12207,148.95555 149.46263,148.95555 149.80318,148.95555 150.14372,148.95555 150.48428,148.95555 150.82483,148.95555 151.16537,148.95555 151.50594,148.95555 151.84648,148.95555 152.18703,148.95555 152.52759,148.95555 152.86813,148.95555 152.86813,144.43385 153.20868,144.43385 153.54922,144.43385 153.88979,144.43385 154.23033,144.43385 154.57088,144.43385 154.91142,144.43385 155.25198,144.43385 155.25198,139.91212 155.59253,139.91212 155.93307,139.91212 156.27362,139.91212 156.61418,139.91212 156.61418,135.39046 156.95473,135.39046 157.29527,135.39046 157.63583,135.39046 157.97638,135.39046 157.97638,130.86873 157.97638,126.34703 158.31693,126.34703 158.65749,126.34703 158.99803,126.34703 159.33858,126.34703 159.67912,126.34703 160.01968,126.34703 160.36023,126.34703 160.70078,126.34703 161.04132,126.34703 161.04132,121.82533 161.38188,121.82533 161.72243,121.82533 162.06297,121.82533 162.40352,121.82533 162.74408,121.82533 163.08463,121.82533 163.42517,121.82533 163.76573,121.82533 164.10628,121.82533 164.44682,121.82533 164.78738,121.82533 165.12793,121.82533 165.46848,121.82533 165.80904,121.82533 166.14958,121.82533 166.49013,121.82533 166.49013,117.303635 166.83067,117.303635 167.17123,117.303635 167.51178,117.303635 167.85233,117.303635 168.19287,117.303635 168.53343,117.303635 168.87398,117.303635 169.21452,117.303635 169.55508,117.303635 169.89561,117.303635 170.23618,117.303635 170.57674,117.303635 170.91727,117.303635 171.25783,117.303635 171.59837,117.303635 171.93892,117.303635 172.27948,117.303635 172.62003,117.303635 172.96057,117.303635 173.30113,117.303635 173.64168,117.303635 173.98222,117.303635 174.32277,117.303635 174.66333,117.303635 175.00388,117.303635 175.34442,117.303635 175.68498,117.303635 176.02553,117.303635 176.36607,117.303635 176.70663,117.303635 177.04716,117.303635 177.04716,112.78194 177.38773,112.78194 177.72829,112.78194 178.06882,112.78194 178.40938,112.78194 178.74992,112.78194 178.74992,108.26024 179.09047,108.26024 179.43103,108.26024 179.77158,108.26024 180.11212,108.26024 180.45267,108.26024 180.79323,108.26024 181.13377,108.26024 181.47432,108.26024 181.81488,108.26024 182.15543,108.26024 182.49597,108.26024 182.83653,108.26024 183.17706,108.26024 183.17706,103.73854 183.51762,103.73854 183.85818,103.73854 184.19872,103.73854 184.53928,103.73854 184.87982,103.73854 185.22037,103.73854 185.56093,103.73854 185.90147,103.73854 186.24202,103.73854 186.24202,99.21684 186.58258,99.21684 186.92313,99.21684 187.26367,99.21684 187.60423,99.21684 187.94478,99.21684 188.28532,99.21684 188.62587,99.21684 188.96643,99.21684 189.30698,99.21684 189.64752,99.21684 189.98808,99.21684 190.32863,99.21684 190.66917,99.21684 191.00974,99.21684 191.35027,99.21684 191.69083,99.21684 192.03139,99.21684 192.37192,99.21684 192.71248,99.21684 193.05302,99.21684 193.39357,99.21684 193.73413,99.21684 194.07468,99.21684 194.41522,99.21684 194.41522,94.695145 194.75578,94.695145 195.09633,94.695145 195.43687,94.695145 195.77742,94.695145 196.11798,94.695145 196.45853,94.695145 196.79907,94.695145 197.13963,94.695145 197.48018,94.695145 197.82072,94.695145 198.16129,94.695145 198.50182,94.695145 198.84238,94.695145 199.18294,94.695145 199.52347,94.695145 199.86403,94.695145 200.20457,94.695145 200.54512,94.695145 200.88568,94.695145 201.22623,94.695145 201.56677,94.695145 201.90732,94.695145 202.24788,94.695145 202.58842,94.695145 202.92897,94.695145 203.26953,94.695145 203.61008,94.695145 203.95062,94.695145 204.29118,94.695145 204.63171,94.695145 204.97227,94.695145 205.31284,94.695145 205.65337,94.695145 205.99393,94.695145 206.33447,94.695145 206.67502,94.695145 207.01558,94.695145 207.35612,94.695145 207.69669,94.695145 208.03723,94.695145 208.37778,94.695145 208.71834,94.695145 209.05887,94.695145 209.39943,94.695145 209.73999,94.695145 210.08052,94.695145 210.42108,94.695145 210.76163,94.695145 211.10217,94.695145 211.44273,94.695145 211.78328,94.695145 212.12383,94.695145 212.46437,94.695145 212.80493,94.695145 213.14548,94.695145 213.48602,94.695145 213.82658,94.695145 214.16713,94.695145 214.50768,94.695145 214.84824,94.695145 215.18877,94.695145 215.52933,94.695145 215.52933,90.173416 215.86989,90.173416 216.21042,90.173416 216.55098,90.173416 216.89153,90.173416 217.23207,90.173416 217.57263,90.173416 217.91318,90.173416 218.25372,90.173416 218.59428,90.173416 218.93483,90.173416 219.27538,90.173416 219.61592,90.173416 219.95648,90.173416 220.29703,90.173416 220.63757,90.173416 220.97813,90.173416 221.31868,90.173416 221.65923,90.173416 221.99979,90.173416 222.34032,90.173416 222.68088,90.173416 223.02142,90.173416 223.36197,90.173416 223.70253,90.173416 224.04308,90.173416 224.38362,90.173416 224.72418,90.173416 225.06473,90.173416 225.40527,90.173416 225.74582,90.173416 226.08638,90.173416 226.42693,90.173416 226.76747,90.173416 227.10803,90.173416 227.44858,90.173416 227.78912,90.173416 228.12968,90.173416 228.47021,90.173416 228.81078,90.173416 229.15134,90.173416 229.49187,90.173416 229.83243,90.173416 230.17297,90.173416 230.51352,90.173416 230.85408,90.173416 231.19463,90.173416 231.53517,90.173416 231.87573,90.173416 232.21628,90.173416 232.55682,90.173416 232.89737,90.173416 233.23793,90.173416 233.57848,90.173416 233.91902,90.173416 234.25958,90.173416 234.60011,90.173416 234.94067,90.173416 235.28123,90.173416 235.62177,90.173416 235.96233,90.173416 236.30287,90.173416 236.64342,90.173416 236.98398,90.173416 237.32452,90.173416 237.66507,90.173416 238.00563,90.173416 238.34618,90.173416 238.68672,90.173416 239.02727,90.173416 239.36783,90.173416 239.70837,90.173416 240.04892,90.173416 240.38948,90.173416 240.73003,90.173416 241.07057,90.173416 241.41113,90.173416 241.75166,90.173416 242.09222,90.173416 242.43279,90.173416 242.77332,90.173416 243.11388,90.173416 243.45442,90.173416 243.79497,90.173416 244.13553,90.173416 244.47607,90.173416 244.81662,90.173416 245.15718,90.173416 245.49773,90.173416 245.83827,90.173416 246.17882,90.173416 246.51938,90.173416 246.85992,90.173416 247.20047,90.173416 247.54103,90.173416 247.88156,90.173416 248.22212,90.173416 248.56268,90.173416 248.90321,90.173416 249.24377,90.173416 249.58432,90.173416 249.92487,90.173416 250.26543,90.173416 250.60597,90.173416 250.94652,90.173416 251.28708,90.173416 251.62762,90.173416 251.96817,90.173416 252.30872,90.173416 252.64928,90.173416 252.98982,90.173416 253.33037,90.173416 253.67093,90.173416 254.01147,90.173416 254.35202,90.173416 254.69258,90.173416 255.03311,90.173416 255.37367,90.173416 255.71423,90.173416 256.05475,90.173416 256.39532,90.173416 256.73587,90.173416 257.07642,90.173416 257.41696,90.173416 257.7575,90.173416 258.09805,90.173416 258.4386,90.173416 258.77917,90.173416 258.77917,85.65172 259.11972,85.65172 259.46027,85.65172 259.8008,85.65172 260.14136,85.65172 260.4819,85.65172 260.82248,85.65172 261.163,85.65172 261.50357,85.65172 261.84412,85.65172 262.18466,85.65172 262.5252,85.65172 262.86575,85.65172 263.2063,85.65172 263.54688,85.65172 263.88742,85.65172 264.22797,85.65172 264.5685,85.65172 264.90906,85.65172 265.2496,85.65172 265.59015,85.65172 265.93073,85.65172 266.27127,85.65172 266.61182,85.65172 266.95236,85.65172 267.2929,85.65172 267.63345,85.65172 267.97403,85.65172 268.31454,85.65172 268.65512,85.65172 268.99567,85.65172 269.3362,85.65172 269.67676,85.65172 270.0173,85.65172 270.35785,85.65172 270.69843,85.65172 271.03897,85.65172 271.37952,85.65172 271.72006,85.65172 272.0606,85.65172 272.40115,85.65172 272.7417,85.65172 273.08228,85.65172 273.42282,85.65172 273.76337,85.65172 274.1039,85.65172 274.44446,85.65172 274.785,85.65172 275.12555,85.65172 275.46613,85.65172 275.80667,85.65172 276.14722,85.65172 276.48776,85.65172 276.8283,85.65172 277.16885,85.65172 277.50943,85.65172 277.84998,85.65172 278.1905,85.65172 278.53107,85.65172 278.8716,85.65172 279.21216,85.65172 279.55273,85.65172 279.89325,85.65172 280.2338,85.65172 280.57437,85.65172 280.91492,85.65172 281.25546,85.65172 281.596,85.65172 281.93655,85.65172 282.2771,85.65172 282.61768,85.65172 282.95822,85.65172 283.29874,85.65172 283.6393,85.65172 283.97986,85.65172 284.3204,85.65172 284.66098,85.65172 285.0015,85.65172 285.34204,85.65172 285.68262,85.65172 286.02316,85.65172 286.3637,85.65172 286.70425,85.65172 287.0448,85.65172 287.38535,85.65172 287.72592,85.65172 288.06647,85.65172 288.407,85.65172 288.74756,85.65172 289.0881,85.65172 289.42865,85.65172 289.76923,85.65172 290.10977,85.65172 290.4503,85.65172 290.79086,85.65172 291.1314,85.65172 291.47195,85.65172 291.81253,85.65172 292.15305,85.65172 292.4936,85.65172 292.83417,85.65172 293.1747,85.65172 293.51526,85.65172 293.8558,85.65172 294.19635,85.65172 294.5369,85.65172 294.87747,85.65172 295.21802,85.65172 295.55856,85.65172 295.8991,85.65172 296.23965,85.65172 296.5802,85.65172 296.92078,85.65172 297.26132,85.65172 297.60184,85.65172 297.9424,85.65172 298.28296,85.65172 298.6235,85.65172 298.96408,85.65172 299.3046,85.65172 299.64514,85.65172 299.98572,85.65172 300.32626,85.65172 300.6668,85.65172 301.00735,85.65172 301.3479,85.65172 301.68845,85.65172 302.02902,85.65172 302.36957,85.65172 302.7101,85.65172 303.05066,85.65172 303.3912,85.65172 303.73175,85.65172 304.07233,85.65172 304.41284,85.65172 304.7534,85.65172 305.09396,85.65172 305.4345,85.65172 305.77505,85.65172 306.1156,85.65172 306.45615,85.65172 306.7967,85.65172 307.13727,85.65172 307.4778,85.65172 307.81836,85.65172 308.1589,85.65172 308.49945,85.65172 308.84,85.65172 309.18057,85.65172 309.52112,85.65172 309.86163,85.65172 310.2022,85.65172 310.54276,85.65172 310.8833,85.65172 311.22388,85.65172 311.5644,85.65172 311.90494,85.65172 312.2455,85.65172 312.58606,85.65172 312.9266,85.65172 313.26715,85.65172 313.6077,85.65172 313.94824,85.65172 314.28882,85.65172 314.62936,85.65172 314.9699,85.65172 315.3105,85.65172 315.651,85.65172 315.99155,85.65172 316.33212,85.65172 316.67267,85.65172 317.0132,85.65172 317.35376,85.65172 317.6943,85.65172 318.03485,85.65172 318.37543,85.65172 318.71597,85.65172 319.05652,85.65172 319.39706,85.65172 319.7376,85.65172 320.07816,85.65172 320.41873,85.65172 320.75928,85.65172 321.0998,85.65172 321.44037,85.65172 321.7809,85.65172 322.12146,85.65172 322.462,85.65172 322.80255,85.65172 323.1431,85.65172 323.48367,85.65172 323.82422,85.65172 324.16476,85.65172 324.5053,85.65172 324.84586,85.65172 325.1864,85.65172 325.52698,85.65172 325.86752,85.65172 326.20804,85.65172 326.5486,85.65172 326.88916,85.65172 327.2297,85.65172 327.57028,85.65172 327.9108,85.65172 328.25134,85.65172 328.59192,85.65172 328.93246,85.65172 329.273,85.65172 329.61356,85.65172 329.9541,85.65172 330.29465,85.65172 330.63522,85.65172 330.97577,85.65172 331.3163,85.65172 331.65686,85.65172 331.9974,85.65172 332.33795,85.65172 332.67853,85.65172 333.01907,85.65172 333.3596,85.65172 333.70016,85.65172 334.0407,85.65172 334.38126,85.65172 334.72183,85.65172 335.06235,85.65172 335.4029,85.65172 335.74347,85.65172 336.084,85.65172 336.42456,85.65172 336.7651,85.65172 337.10565,85.65172 337.4462,85.65172 337.78677,85.65172 337.78677,81.13002 338.12732,81.13002 338.46786,81.13002 338.8084,81.13002 339.14896,81.13002 339.4895,81.13002 339.83008,81.13002 340.17062,81.13002 340.51114,81.13002 340.8517,81.13002 341.19226,81.13002 341.5328,81.13002 341.87338,81.13002 342.2139,81.13002 342.55444,81.13002 342.89502,81.13002 343.23557,81.13002 343.5761,81.13002 343.91666,81.13002 344.2572,81.13002 344.59775,81.13002 344.93832,81.13002 345.27887,81.13002 345.6194,81.13002 345.95996,81.13002 346.3005,81.13002 346.64105,81.13002 346.98163,81.13002 347.32214,81.13002 347.6627,81.13002 348.00327,81.13002 348.3438,81.13002 348.68436,81.13002 349.0249,81.13002 349.36545,81.13002 349.706,81.13002 350.04657,81.13002 350.38712,81.13002 350.72766,81.13002 351.0682,81.13002 351.40875,81.13002 351.7493,81.13002 352.08987,81.13002 352.43042,81.13002 352.77094,81.13002 353.1115,81.13002 353.45206,81.13002 353.7926,81.13002 354.13318,81.13002 354.4737,81.13002 354.81424,81.13002 355.15482,81.13002 355.49536,81.13002 355.8359,81.13002 356.17645,81.13002 356.517,81.13002 356.85754,81.13002 357.19812,81.13002 357.53867,81.13002 357.8792,81.13002 358.21976,81.13002 358.5603,81.13002 358.90085,81.13002 359.24142,81.13002 359.58197,81.13002 359.9225,81.13002 360.26306,81.13002 360.6036,81.13002 360.94415,81.13002 361.28473,81.13002 361.62524,81.13002 361.9658,81.13002 362.30637,81.13002 362.6469,81.13002 362.98746,81.13002 363.328,81.13002 363.66855,81.13002 364.0091,81.13002 364.34967,81.13002 364.69022,81.13002 365.03076,81.13002 365.3713,81.13002 365.71185,81.13002 366.0524,81.13002 366.39297,81.13002 366.73352,81.13002 367.07404,81.13002 367.4146,81.13002 367.75516,81.13002 368.0957,81.13002 368.43625,81.13002 368.7768,81.13002 369.11734,81.13002 369.45792,81.13002 369.79846,81.13002 370.139,81.13002 370.47955,81.13002 370.8201,81.13002 371.16064,81.13002 371.50122,81.13002 371.84177,81.13002 372.18228,81.13002 372.52286,81.13002 372.8634,81.13002 373.20395,81.13002 373.54453,81.13002 373.88504,81.13002 374.2256,81.13002 374.56616,81.13002 374.9067,81.13002 375.24725,81.13002 375.5878,81.13002 375.92834,81.13002 376.2689,81.13002 376.60947,81.13002 376.95,81.13002 377.29056,81.13002 377.6311,81.13002 377.97165,81.13002 378.3122,81.13002 378.65277,81.13002 378.99332,81.13002 379.33383,81.13002 379.6744,81.13002 380.01495,81.13002 380.3555,81.13002 380.69608,81.13002 381.0366,81.13002 381.37714,81.13002 381.7177,81.13002 381.7177,76.60832 382.05826,76.60832 382.3988,76.60832 382.73935,76.60832 383.0799,76.60832 383.42044,76.60832 383.76102,76.60832 384.10156,76.60832 384.4421,76.60832 384.78265,76.60832 385.1232,76.60832 385.46375,76.60832 385.80432,76.60832 386.14487,76.60832 386.48538,76.60832 386.82596,76.60832 387.1665,76.60832 387.50705,76.60832 387.84763,76.60832 388.18814,76.60832 388.5287,76.60832 388.86926,76.60832 389.2098,76.60832 389.55035,76.60832 389.8909,76.60832 390.23145,76.60832 390.572,76.60832 390.91257,76.60832 391.2531,76.60832 391.59366,76.60832 391.9342,76.60832 392.27475,76.60832 392.6153,76.60832 392.95587,76.60832 393.2964,76.60832 393.63693,76.60832 393.9775,76.60832 394.31805,76.60832 394.6586,76.60832 394.99915,76.60832 395.3397,76.60832 395.68024,76.60832 396.0208,76.60832 396.36136,76.60832 396.7019,76.60832 397.04245,76.60832 397.383,76.60832 397.72354,76.60832 398.06412,76.60832 398.40466,76.60832 398.74518,76.60832 399.08575,76.60832 399.4263,76.60832 399.76685,76.60832 400.10742,76.60832 400.44794,76.60832 400.78848,76.60832 401.12906,76.60832 401.4696,76.60832 401.81015,76.60832 402.1507,76.60832 402.49124,76.60832 402.8318,76.60832 403.17236,76.60832 403.5129,76.60832 403.85345,76.60832 404.194,76.60832 404.53455,76.60832 404.8751,76.60832 405.21567,76.60832 405.5562,76.60832 405.89673,76.60832 406.2373,76.60832 406.57785,76.60832 406.9184,76.60832 407.25897,76.60832 407.5995,76.60832 407.94003,76.60832 408.2806,76.60832 408.62115,76.60832 408.9617,76.60832 409.30225,76.60832 409.6428,76.60832 409.98337,76.60832 410.3239,76.60832 410.66446,76.60832 411.005,76.60832 411.34555,76.60832 411.6861,76.60832 412.02667,76.60832 412.36722,76.60832 412.70776,76.60832 413.0483,76.60832 413.38885,76.60832 413.7294,76.60832 414.06998,76.60832 414.4105,76.60832 414.75104,76.60832 415.0916,76.60832 415.43216,76.60832 415.7727,76.60832 416.11325,76.60832 416.4538,76.60832 416.79434,76.60832 417.13492,76.60832 417.47546,76.60832 417.816,76.60832 418.15656,76.60832 418.4971,76.60832 418.83765,76.60832 419.17822,76.60832 419.51877,76.60832 419.85928,76.60832 420.19986,76.60832 420.5404,76.60832 420.88095,76.60832 421.22153,76.60832 421.56204,76.60832 421.9026,76.60832 422.24316,76.60832 422.5837,76.60832 422.92426,76.60832 423.2648,76.60832 423.60535,76.60832 423.9459,76.60832 424.28647,76.60832 424.627,76.60832 424.96756,76.60832 425.3081,76.60832 425.64865,76.60832 425.9892,76.60832 426.32977,76.60832 426.67032,76.60832 427.01083,76.60832 427.3514,76.60832 427.69196,76.60832 428.0325,76.60832 428.37308,76.60832 428.7136,76.60832" fill="none" stroke="rgb(31,119,180)" stroke-width="2"/>
  <polyline points="120.85643,510.69165 428.7136,76.60832" fill="none" stroke="rgb(255,127,14)" stroke-width="2"/>
  <line x1="59.285" y1="33.2" x2="59.285" y2="554.1" stroke="rgb(0,0,0)" stroke-width="1"/>
  <line x1="59.285" y1="554.1" x2="490.28503" y2="554.1" stroke="rgb(0,0,0)" stroke-width="1"/>
  <text x="59.285" y="567.95996" font-family="sans-serif" font-size="9.9" fill="rgb(0,0,0)" text-anchor="middle">-0.20</text>
  <text x="120.85643" y="567.95996" font-family="sans-serif" font-size="9.9" fill="rgb(0,0,0)" text-anchor="middle">0</text>
  <text x="182.42787" y="567.95996" font-family="sans-serif" font-size="9.9" fill="rgb(0,0,0)" text-anchor="middle">0.20</text>
  <text x="243.9993" y="567.95996" font-family="sans-serif" font-size="9.9" fill="rgb(0,0,0)" text-anchor="middle">0.40</text>
  <text x="305.57074" y="567.95996" font-family="sans-serif" font-size="9.9" fill="rgb(0,0,0)" text-anchor="middle">0.60</text>
  <text x="367.14218" y="567.95996" font-family="sans-serif" font-size="9.9" fill="rgb(0,0,0)" text-anchor="middle">0.80</text>
  <text x="428.7136" y="567.95996" font-family="sans-serif" font-size="9.9" fill="rgb(0,0,0)" text-anchor="middle">1</text>
  <text x="490.28503" y="567.95996" font-family="sans-serif" font-size="9.9" fill="rgb(0,0,0)" text-anchor="middle">1.2</text>
  <text x="55.325" y="554.1" font-family="sans-serif" font-size="9.9" fill="rgb(0,0,0)" text-anchor="end">-0.10</text>
  <text x="55.325" y="510.69165" font-family="sans-serif" font-size="9.9" fill="rgb(0,0,0)" text-anchor="end">0</text>
  <text x="55.325" y="467.28333" font-family="sans-serif" font-size="9.9" fill="rgb(0,0,0)" text-anchor="end">0.10</text>
  <text x="55.325" y="423.875" font-family="sans-serif" font-size="9.9" fill="rgb(0,0,0)" text-anchor="end">0.20</text>
  <text x="55.325" y="380.46664" font-family="sans-serif" font-size="9.9" fill="rgb(0,0,0)" text-anchor="end">0.30</text>
  <text x="55.325" y="337.05835" font-family="sans-serif" font-size="9.9" fill="rgb(0,0,0)" text-anchor="end">0.40</text>
  <text x="55.325" y="293.65" font-family="sans-serif" font-size="9.9" fill="rgb(0,0,0)" text-anchor="end">0.50</text>
  <text x="55.325" y="250.24165" font-family="sans-serif" font-size="9.9" fill="rgb(0,0,0)" text-anchor="end">0.60</text>
  <text x="55.325" y="206.8333" font-family="sans-serif" font-size="9.9" fill="rgb(0,0,0)" text-anchor="end">0.70</text>
  <text x="55.325" y="163.42497" font-family="sans-serif" font-size="9.9" fill="rgb(0,0,0)" text-anchor="end">0.80</text>
  <text x="55.325" y="120.01668" font-family="sans-serif" font-size="9.9" fill="rgb(0,0,0)" text-anchor="end">0.90</text>
  <text x="55.325" y="76.60832" font-family="sans-serif" font-size="9.9" fill="rgb(0,0,0)" text-anchor="end">1.00</text>
  <text x="55.325" y="33.2" font-family="sans-serif" font-size="9.9" fill="rgb(0,0,0)" text-anchor="end">1.1</text>
  <text x="274.785" y="588.19995" font-family="sans-serif" font-size="11" fill="rgb(0,0,0)" text-anchor="middle">False Positive Rate</text>
  <text x="34.535" y="293.65" font-family="sans-serif" font-size="11" fill="rgb(0,0,0)" text-anchor="middle" transform="rotate(-90,34.535,293.65)">True Positive Rate</text>
  <rect x="505.28503" y="38.2" width="12" height="12" fill="rgb(31,119,180)" rx="2"/>
  <text x="522.28503" y="48.4" font-family="sans-serif" font-size="9.9" fill="rgb(0,0,0)">ROC Curve</text>
  <rect x="505.28503" y="53.05" width="12" height="12" fill="rgb(255,127,14)" rx="2"/>
  <text x="522.28503" y="63.25" font-family="sans-serif" font-size="9.9" fill="rgb(0,0,0)">Random Classifier</text>
  <text x="300" y="23.2" font-family="sans-serif" font-size="13.200001" fill="rgb(0,0,0)" font-weight="bold" text-anchor="middle">ROC (AUC = 0.949)</text>
</svg>
