<svg xmlns="http://www.w3.org/2000/svg" width="600" height="600" viewBox="0 0 600 600" role="img">
  <title>ROC (AUC = 0.998)</title>
  <rect width="600" height="600" fill="white"/>
  <rect x="0" y="0" width="600" height="600" fill="rgb(255,255,255)"/>
  <line x1="59.285" y1="554.1" x2="490.28503" y2="554.1" stroke="rgb(241,241,241)" stroke-width="0.5"/>
  <line x1="59.285" y1="510.69165" x2="490.28503" y2="510.69165" stroke="rgb(241,241,241)" stroke-width="0.5"/>
  <line x1="59.285" y1="467.28333" x2="490.28503" y2="467.28333" stroke="rgb(241,241,241)" stroke-width="0.5"/>
  <line x1="59.285" y1="423.875" x2="490.28503" y2="423.875" stroke="rgb(241,241,241)" stroke-width="0.5"/>
  <line x1="59.285" y1="380.46664" x2="490.28503" y2="380.46664" stroke="rgb(241,241,241)" stroke-width="0.5"/>
  <line x1="59.285" y1="337.05835" x2="490.28503" y2="337.05835" stroke="rgb(241,241,241)" stroke-width="0.5"/>
  <line x1="59.285" y1="293.65" x2="490.28503" y2="293.65" stroke="rgb(241,241,241)" stroke-width="0.5"/>
  <line x1="59.285" y1="250.24165" x2="490.28503" y2="250.24165" stroke="rgb(241,241,241)" stroke-width="0.5"/>
  <line x1="59.285" y1="206.8333" x2="490.28503" y2="206.8333" stroke="rgb(241,241,241)" stroke-width="0.5"/>
  <line x1="59.285" y1="163.42497" x2="490.28503" y2="163.42497" stroke="rgb(241,241,241)" stroke-width="0.5"/>
  <line x1="59.285" y1="120.01668" x2="490.28503" y2="120.01668" stroke="rgb(241,241,241)" stroke-width="0.5"/>
  <line x1="59.285" y1="76.60832" x2="490.28503" y2="76.60832" stroke="rgb(241,241,241)" stroke-width="0.5"/>
  <line x1="59.285" y1="33.2" x2="490.28503" y2="33.2" stroke="rgb(241,241,241)" stroke-width="0.5"/>
  <line x1="59.285" y1="33.2" x2="59.285" y2="554.1" stroke="rgb(241,241,241)" stroke-width="0.5"/>
  <line x1="120.85643" y1="33.2" x2="120.85643" y2="554.1" stroke="rgb(241,241,241)" stroke-width="0.5"/>
  <line x1="182.42787" y1="33.2" x2="182.42787" y2="554.1" stroke="rgb(241,241,241)" stroke-width="0.5"/>
  <line x1="243.9993" y1="33.2" x2="243.9993" y2="554.1" stroke="rgb(241,241,241)" stroke-width="0.5"/>
  <line x1="305.57074" y1="33.2" x2="305.57074" y2="554.1" stroke="rgb(241,241,241)" stroke-width="0.5"/>
  <line x1="367.14218" y1="33.2" x2="367.14218" y2="554.1" stroke="rgb(241,241,241)" stroke-width="0.5"/>
  <line x1="428.7136" y1="33.2" x2="428.7136" y2="554.1" stroke="rgb(241,241,241)" stroke-width="0.5"/>
  <line x1="490.28503" y1="33.2" x2="490.28503" y2="554.1" stroke="rgb(241,241,241)" stroke-width="0.5"/>
  <polyline points="120.85643,510.69165 120.85643,506.16995 120.85643,501.64825 120.85643,497.12653 120.85643,492.60486 120.85643,488.08313 120.85643,483.56143 120.85643,479.03973 120.85643,474.51804 120.85643,469.99634 120.85643,465.47464 120.85643,460.95294 120.85643,456.4312 120.85643,451.90955 120.85643,447.38782 120.85643,442.86612 120.85643,438.34442 120.85643,433.82272 120.85643,429.30103 120.85643,424.77933 120.85643,420.25763 120.85643,415.7359 120.85643,411.21423 120.85643,406.6925 120.85643,402.17084 120.85643,397.6491 120.85643,393.1274 120.85643,388.6057 120.85643,384.084 120.85643,379.56232 120.85643,375.04062 120.85643,370.51892 120.85643,365.9972 120.85643,361.47552 120.85643,356.9538 120.85643,352.4321 120.85643,347.9104 120.85643,343.3887 120.85643,338.867 120.85643,334.3453 120.85643,329.8236 120.85643,325.3019 120.85643,320.7802 120.85643,316.25848 120.85643,311.7368 120.85643,307.2151 120.85643,302.6934 120.85643,298.1717 120.85643,293.65 120.85643,289.12827 120.85643,284.6066 120.85643,280.08487 120.85643,275.5632 120.85643,271.04147 120.85643,266.5198 120.85643,261.99808 120.85643,257.4764 120.85643,252.95467 120.85643,248.43297 120.85643,243.91127 120.85643,239.38954 120.85643,234.86787 120.85643,230.34615 120.85643,225.82448 120.85643,221.30275 120.85643,216.78108 120.85643,212.25935 120.85643,207.73766 120.85643,203.21596 120.85643,198.69426 120.85643,194.17256 120.85643,189.65083 120.85643,185.12917 120.85643,180.60744 120.85643,176.08577 121.19698,176.08577 121.19698,171.56404 121.19698,167.04234 121.19698,162.52065 121.19698,157.99895 121.19698,153.47725 121.19698,148.95555 121.19698,144.43385 121.19698,139.91212 121.53754,139.91212 121.53754,135.39046 121.53754,130.86873 121.53754,126.34703 121.53754,121.82533 121.53754,117.303635 121.53754,112.78194 121.53754,108.26024 121.53754,103.73854 121.87808,103.73854 122.21863,103.73854 122.21863,99.21684 122.21863,94.695145 122.21863,90.173416 122.55918,90.173416 122.899734,90.173416 123.24028,90.173416 123.580826,90.173416 123.580826,85.65172 123.92139,85.65172 124.26193,85.65172 124.60248,85.65172 124.60248,81.13002 124.94304,81.13002 125.283585,81.13002 125.62413,81.13002 125.96469,81.13002 126.30524,81.13002 126.64578,81.13002 126.98633,81.13002 127.32689,81.13002 127.667435,81.13002 128.00798,81.13002 128.34853,81.13002 128.68909,81.13002 129.02963,81.13002 129.37018,81.13002 129.71072,81.13002 130.05128,81.13002 130.39183,81.13002 130.73238,81.13002 131.07294,81.13002 131.41348,81.13002 131.75403,81.13002 132.09459,81.13002 132.43513,81.13002 132.77568,81.13002 133.11623,81.13002 133.45679,81.13002 133.79733,81.13002 134.13788,81.13002 134.47842,81.13002 134.81898,81.13002 135.15953,81.13002 135.50008,81.13002 135.84062,81.13002 136.18118,81.13002 136.52173,81.13002 136.86227,81.13002 137.20284,81.13002 137.54338,81.13002 137.88393,81.13002 138.22449,81.13002 138.56503,81.13002 138.90558,81.13002 139.24614,81.13002 139.58669,81.13002 139.92723,81.13002 140.26778,81.13002 140.60834,81.13002 140.94888,81.13002 141.28943,81.13002 141.62997,81.13002 141.97054,81.13002 142.31108,81.13002 142.65163,81.13002 142.99217,81.13002 143.33273,81.13002 143.67328,81.13002 144.01382,81.13002 144.35439,81.13002 144.69493,81.13002 145.03548,81.13002 145.37604,81.13002 145.71658,81.13002 146.05713,81.13002 146.39767,81.13002 146.73824,81.13002 147.07878,81.13002 147.41933,81.13002 147.75987,81.13002 148.10043,81.13002 148.44098,81.13002 148.78152,81.13002 149.12207,81.13002 149.46263,81.13002 149.80318,81.13002 150.14372,81.13002 150.48428,81.13002 150.82483,81.13002 151.16537,81.13002 151.50594,81.13002 151.84648,81.13002 152.18703,81.13002 152.52759,81.13002 152.86813,81.13002 153.20868,81.13002 153.54922,81.13002 153.88979,81.13002 154.23033,81.13002 154.57088,81.13002 154.91142,81.13002 155.25198,81.13002 155.59253,81.13002 155.93307,81.13002 156.27362,81.13002 156.61418,81.13002 156.95473,81.13002 157.29527,81.13002 157.63583,81.13002 157.97638,81.13002 158.31693,81.13002 158.31693,76.60832 158.65749,76.60832 158.99803,76.60832 159.33858,76.60832 159.67912,76.60832 160.01968,76.60832 160.36023,76.60832 160.70078,76.60832 161.04132,76.60832 161.38188,76.60832 161.72243,76.60832 162.06297,76.60832 162.40352,76.60832 162.74408,76.60832 163.08463,76.60832 163.42517,76.60832 163.76573,76.60832 164.10628,76.60832 164.44682,76.60832 164.78738,76.60832 165.12793,76.60832 165.46848,76.60832 165.80904,76.60832 166.14958,76.60832 166.49013,76.60832 166.83067,76.60832 167.17123,76.60832 167.51178,76.60832 167.85233,76.60832 168.19287,76.60832 168.53343,76.60832 168.87398,76.60832 169.21452,76.60832 169.55508,76.60832 169.89561,76.60832 170.23618,76.60832 170.57674,76.60832 170.91727,76.60832 171.25783,76.60832 171.59837,76.60832 171.93892,76.60832 172.27948,76.60832 172.62003,76.60832 172.96057,76.60832 173.30113,76.60832 173.64168,76.60832 173.98222,76.60832 174.32277,76.60832 174.66333,76.60832 175.00388,76.60832 175.34442,76.60832 175.68498,76.60832 176.02553,76.60832 176.36607,76.60832 176.70663,76.60832 177.04716,76.60832 177.38773,76.60832 177.72829,76.60832 178.06882,76.60832 178.40938,76.60832 178.74992,76.60832 179.09047,76.60832 179.43103,76.60832 179.77158,76.60832 180.11212,76.60832 180.45267,76.60832 180.79323,76.60832 181.13377,76.60832 181.47432,76.60832 181.81488,76.60832 182.15543,76.60832 182.49597,76.60832 182.83653,76.60832 183.17706,76.60832 183.51762,76.60832 183.85818,76.60832 184.19872,76.60832 184.53928,76.60832 184.87982,76.60832 185.22037,76.60832 185.56093,76.60832 185.90147,76.60832 186.24202,76.60832 186.58258,76.60832 186.92313,76.60832 187.26367,76.60832 187.60423,76.60832 187.94478,76.60832 188.28532,76.60832 188.62587,76.60832 188.96643,76.60832 189.30698,76.60832 189.64752,76.60832 189.98808,76.60832 190.32863,76.60832 190.66917,76.60832 191.00974,76.60832 191.35027,76.60832 191.69083,76.60832 192.03139,76.60832 192.37192,76.60832 192.71248,76.60832 193.05302,76.60832 193.39357,76.60832 193.73413,76.60832 194.07468,76.60832 194.41522,76.60832 194.75578,76.60832 195.09633,76.60832 195.43687,76.60832 195.77742,76.60832 196.11798,76.60832 196.45853,76.60832 196.79907,76.60832 197.13963,76.60832 197.48018,76.60832 197.82072,76.60832 198.16129,76.60832 198.50182,76.60832 198.84238,76.60832 199.18294,76.60832 199.52347,76.60832 199.86403,76.60832 200.20457,76.60832 200.54512,76.60832 200.88568,76.60832 201.22623,76.60832 201.56677,76.60832 201.90732,76.60832 202.24788,76.60832 202.58842,76.60832 202.92897,76.60832 203.26953,76.60832 203.61008,76.60832 203.95062,76.60832 204.29118,76.60832 204.63171,76.60832 204.97227,76.60832 205.31284,76.60832 205.65337,76.60832 205.99393,76.60832 206.33447,76.60832 206.67502,76.60832 207.01558,76.60832 207.35612,76.60832 207.69669,76.60832 208.03723,76.60832 208.37778,76.60832 208.71834,76.60832 209.05887,76.60832 209.39943,76.60832 209.73999,76.60832 210.08052,76.60832 210.42108,76.60832 210.76163,76.60832 211.10217,76.60832 211.44273,76.60832 211.78328,76.60832 212.12383,76.60832 212.46437,76.60832 212.80493,76.60832 213.14548,76.60832 213.48602,76.60832 213.82658,76.60832 214.16713,76.60832 214.50768,76.60832 214.84824,76.60832 215.18877,76.60832 215.52933,76.60832 215.86989,76.60832 216.21042,76.60832 216.55098,76.60832 216.89153,76.60832 217.23207,76.60832 217.57263,76.60832 217.91318,76.60832 218.25372,76.60832 218.59428,76.60832 218.93483,76.60832 219.27538,76.60832 219.61592,76.60832 219.95648,76.60832 220.29703,76.60832 220.63757,76.60832 220.97813,76.60832 221.31868,76.60832 221.65923,76.60832 221.99979,76.60832 222.34032,76.60832 222.68088,76.60832 223.02142,76.60832 223.36197,76.60832 223.70253,76.60832 224.04308,76.60832 224.38362,76.60832 224.72418,76.60832 225.06473,76.60832 225.40527,76.60832 225.74582,76.60832 226.08638,76.60832 226.42693,76.60832 226.76747,76.60832 227.10803,76.60832 227.44858,76.60832 227.78912,76.60832 228.12968,76.60832 228.47021,76.60832 228.81078,76.60832 229.15134,76.60832 229.49187,76.60832 229.83243,76.60832 230.17297,76.60832 230.51352,76.60832 230.85408,76.60832 231.19463,76.60832 231.53517,76.60832 231.87573,76.60832 232.21628,76.60832 232.55682,76.60832 232.89737,76.60832 233.23793,76.60832 233.57848,76.60832 233.91902,76.60832 234.25958,76.60832 234.60011,76.60832 234.94067,76.60832 235.28123,76.60832 235.62177,76.60832 235.96233,76.60832 236.30287,76.60832 236.64342,76.60832 236.98398,76.60832 237.32452,76.60832 237.66507,76.60832 238.00563,76.60832 238.34618,76.60832 238.68672,76.60832 239.02727,76.60832 239.36783,76.60832 239.70837,76.60832 240.04892,76.60832 240.38948,76.60832 240.73003,76.60832 241.07057,76.60832 241.41113,76.60832 241.75166,76.60832 242.09222,76.60832 242.43279,76.60832 242.77332,76.60832 243.11388,76.60832 243.45442,76.60832 243.79497,76.60832 244.13553,76.60832 244.47607,76.60832 244.81662,76.60832 245.15718,76.60832 245.49773,76.60832 245.83827,76.60832 246.17882,76.60832 246.51938,76.60832 246.85992,76.60832 247.20047,76.60832 247.54103,76.60832 247.88156,76.60832 248.22212,76.60832 248.56268,76.60832 248.90321,76.60832 249.24377,76.60832 249.58432,76.60832 249.92487,76.60832 250.26543,76.60832 250.60597,76.60832 250.94652,76.60832 251.28708,76.60832 251.62762,76.60832 251.96817,76.60832 252.30872,76.60832 252.64928,76.60832 252.98982,76.60832 253.33037,76.60832 253.67093,76.60832 254.01147,76.60832 254.35202,76.60832 254.69258,76.60832 255.03311,76.60832 255.37367,76.60832 255.71423,76.60832 256.05475,76.60832 256.39532,76.60832 256.73587,76.60832 257.07642,76.60832 257.41696,76.60832 257.7575,76.60832 258.09805,76.60832 258.4386,76.60832 258.77917,76.60832 259.11972,76.60832 259.46027,76.60832 259.8008,76.60832 260.14136,76.60832 260.4819,76.60832 260.82248,76.60832 261.163,76.60832 261.50357,76.60832 261.84412,76.60832 262.18466,76.60832 262.5252,76.60832 262.86575,76.60832 263.2063,76.60832 263.54688,76.60832 263.88742,76.60832 264.22797,76.60832 264.5685,76.60832 264.90906,76.60832 265.2496,76.60832 265.59015,76.60832 265.93073,76.60832 266.27127,76.60832 266.61182,76.60832 266.95236,76.60832 267.2929,76.60832 267.63345,76.60832 267.97403,76.60832 268.31454,76.60832 268.65512,76.60832 268.99567,76.60832 269.3362,76.60832 269.67676,76.60832 270.0173,76.60832 270.35785,76.60832 270.69843,76.60832 271.03897,76.60832 271.37952,76.60832 271.72006,76.60832 272.0606,76.60832 272.40115,76.60832 272.7417,76.60832 273.08228,76.60832 273.42282,76.60832 273.76337,76.60832 274.1039,76.60832 274.44446,76.60832 274.785,76.60832 275.12555,76.60832 275.46613,76.60832 275.80667,76.60832 276.14722,76.60832 276.48776,76.60832 276.8283,76.60832 277.16885,76.60832 277.50943,76.60832 277.84998,76.60832 278.1905,76.60832 278.53107,76.60832 278.8716,76.60832 279.21216,76.60832 279.55273,76.60832 279.89325,76.60832 280.2338,76.60832 280.57437,76.60832 280.91492,76.60832 281.25546,76.60832 281.596,76.60832 281.93655,76.60832 282.2771,76.60832 282.61768,76.60832 282.95822,76.60832 283.29874,76.60832 283.6393,76.60832 283.97986,76.60832 284.3204,76.60832 284.66098,76.60832 285.0015,76.60832 285.34204,76.60832 285.68262,76.60832 286.02316,76.60832 286.3637,76.60832 286.70425,76.60832 287.0448,76.60832 287.38535,76.60832 287.72592,76.60832 288.06647,76.60832 288.407,76.60832 288.74756,76.60832 289.0881,76.60832 289.42865,76.60832 289.76923,76.60832 290.10977,76.60832 290.4503,76.60832 290.79086,76.60832 291.1314,76.60832 291.47195,76.60832 291.81253,76.60832 292.15305,76.60832 292.4936,76.60832 292.83417,76.60832 293.1747,76.60832 293.51526,76.60832 293.8558,76.60832 294.19635,76.60832 294.5369,76.60832 294.87747,76.60832 295.21802,76.60832 295.55856,76.60832 295.8991,76.60832 296.23965,76.60832 296.5802,76.60832 296.92078,76.60832 297.26132,76.60832 297.60184,76.60832 297.9424,76.60832 298.28296,76.60832 298.6235,76.60832 298.96408,76.60832 299.3046,76.60832 299.64514,76.60832 299.98572,76.60832 300.32626,76.60832 300.6668,76.60832 301.00735,76.60832 301.3479,76.60832 301.68845,76.60832 302.02902,76.60832 302.36957,76.60832 302.7101,76.60832 303.05066,76.60832 303.3912,76.60832 303.73175,76.60832 304.07233,76.60832 304.41284,76.60832 304.7534,76.60832 305.09396,76.60832 305.4345,76.60832 305.77505,76.60832 306.1156,76.60832 306.45615,76.60832 306.7967,76.60832 307.13727,76.60832 307.4778,76.60832 307.81836,76.60832 308.1589,76.60832 308.49945,76.60832 308.84,76.60832 309.18057,76.60832 309.52112,76.60832 309.86163,76.60832 310.2022,76.60832 310.54276,76.60832 310.8833,76.60832 311.22388,76.60832 311.5644,76.60832 311.90494,76.60832 312.2455,76.60832 312.58606,76.60832 312.9266,76.60832 313.26715,76.60832 313.6077,76.60832 313.94824,76.60832 314.28882,76.60832 314.62936,76.60832 314.9699,76.60832 315.3105,76.60832 315.651,76.60832 315.99155,76.60832 316.33212,76.60832 316.67267,76.60832 317.0132,76.60832 317.35376,76.60832 317.6943,76.60832 318.03485,76.60832 318.37543,76.60832 318.71597,76.60832 319.05652,76.60832 319.39706,76.60832 319.7376,76.60832 320.07816,76.60832 320.41873,76.60832 320.75928,76.60832 321.0998,76.60832 321.44037,76.60832 321.7809,76.60832 322.12146,76.60832 322.462,76.60832 322.80255,76.60832 323.1431,76.60832 323.48367,76.60832 323.82422,76.60832 324.16476,76.60832 324.5053,76.60832 324.84586,76.60832 325.1864,76.60832 325.52698,76.60832 325.86752,76.60832 326.20804,76.60832 326.5486,76.60832 326.88916,76.60832 327.2297,76.60832 327.57028,76.60832 327.9108,76.60832 328.25134,76.60832 328.59192,76.60832 328.93246,76.60832 329.273,76.60832 329.61356,76.60832 329.9541,76.60832 330.29465,76.60832 330.63522,76.60832 330.97577,76.60832 331.3163,76.60832 331.65686,76.60832 331.9974,76.60832 332.33795,76.60832 332.67853,76.60832 333.01907,76.60832 333.3596,76.60832 333.70016,76.60832 334.0407,76.60832 334.38126,76.60832 334.72183,76.60832 335.06235,76.60832 335.4029,76.60832 335.74347,76.60832 336.084,76.60832 336.42456,76.60832 336.7651,76.60832 337.10565,76.60832 337.4462,76.60832 337.78677,76.60832 338.12732,76.60832 338.46786,76.60832 338.8084,76.60832 339.14896,76.60832 339.4895,76.60832 339.83008,76.60832 340.17062,76.60832 340.51114,76.60832 340.8517,76.60832 341.19226,76.60832 341.5328,76.60832 341.87338,76.60832 342.2139,76.60832 342.55444,76.60832 342.89502,76.60832 343.23557,76.60832 343.5761,76.60832 343.91666,76.60832 344.2572,76.60832 344.59775,76.60832 344.93832,76.60832 345.27887,76.60832 345.6194,76.60832 345.95996,76.60832 346.3005,76.60832 346.64105,76.60832 346.98163,76.60832 347.32214,76.60832 347.6627,76.60832 348.00327,76.60832 348.3438,76.60832 348.68436,76.60832 349.0249,76.60832 349.36545,76.60832 349.706,76.60832 350.04657,76.60832 350.38712,76.60832 350.72766,76.60832 351.0682,76.60832 351.40875,76.60832 351.7493,76.60832 352.08987,76.60832 352.43042,76.60832 352.77094,76.60832 353.1115,76.60832 353.45206,76.60832 353.7926,76.60832 354.13318,76.60832 354.4737,76.60832 354.81424,76.60832 355.15482,76.60832 355.49536,76.60832 355.8359,76.60832 356.17645,76.60832 356.517,76.60832 356.85754,76.60832 357.19812,76.60832 357.53867,76.60832 357.8792,76.60832 358.21976,76.60832 358.5603,76.60832 358.90085,76.60832 359.24142,76.60832 359.58197,76.60832 359.9225,76.60832 360.26306,76.60832 360.6036,76.60832 360.94415,76.60832 361.28473,76.60832 361.62524,76.60832 361.9658,76.60832 362.30637,76.60832 362.6469,76.60832 362.98746,76.60832 363.328,76.60832 363.66855,76.60832 364.0091,76.60832 364.34967,76.60832 364.69022,76.60832 365.03076,76.60832 365.3713,76.60832 365.71185,76.60832 366.0524,76.60832 366.39297,76.60832 366.73352,76.60832 367.07404,76.60832 367.4146,76.60832 367.75516,76.60832 368.0957,76.60832 368.43625,76.60832 368.7768,76.60832 369.11734,76.60832 369.45792,76.60832 369.79846,76.60832 370.139,76.60832 370.47955,76.60832 370.8201,76.60832 371.16064,76.60832 371.50122,76.60832 371.84177,76.60832 372.18228,76.60832 372.52286,76.60832 372.8634,76.60832 373.20395,76.60832 373.54453,76.60832 373.88504,76.60832 374.2256,76.60832 374.56616,76.60832 374.9067,76.60832 375.24725,76.60832 375.5878,76.60832 375.92834,76.60832 376.2689,76.60832 376.60947,76.60832 376.95,76.60832 377.29056,76.60832 377.6311,76.60832 377.97165,76.60832 378.3122,76.60832 378.65277,76.60832 378.99332,76.60832 379.33383,76.60832 379.6744,76.60832 380.01495,76.60832 380.3555,76.60832 380.69608,76.60832 381.0366,76.60832 381.37714,76.60832 381.7177,76.60832 382.05826,76.60832 382.3988,76.60832 382.73935,76.60832 383.0799,76.60832 383.42044,76.60832 383.76102,76.60832 384.10156,76.60832 384.4421,76.60832 384.78265,76.60832 385.1232,76.60832 385.46375,76.60832 385.80432,76.60832 386.14487,76.60832 386.48538,76.60832 386.82596,76.60832 387.1665,76.60832 387.50705,76.60832 387.84763,76.60832 388.18814,76.60832 388.5287,76.60832 388.86926,76.60832 389.2098,76.60832 389.55035,76.60832 389.8909,76.60832 390.23145,76.60832 390.572,76.60832 390.91257,76.60832 391.2531,76.60832 391.59366,76.60832 391.9342,76.60832 392.27475,76.60832 392.6153,76.60832 392.95587,76.60832 393.2964,76.60832 393.63693,76.60832 393.9775,76.60832 394.31805,76.60832 394.6586,76.60832 394.99915,76.60832 395.3397,76.60832 395.68024,76.60832 396.0208,76.60832 396.36136,76.60832 396.7019,76.60832 397.04245,76.60832 397.383,76.60832 397.72354,76.60832 398.06412,76.60832 398.40466,76.60832 398.74518,76.60832 399.08575,76.60832 399.4263,76.60832 399.76685,76.60832 400.10742,76.60832 400.44794,76.60832 400.78848,76.60832 401.12906,76.60832 401.4696,76.60832 401.81015,76.60832 402.1507,76.60832 402.49124,76.60832 402.8318,76.60832 403.17236,76.60832 403.5129,76.60832 403.85345,76.60832 404.194,76.60832 404.53455,76.60832 404.8751,76.60832 405.21567,76.60832 405.5562,76.60832 405.89673,76.60832 406.2373,76.60832 406.57785,76.60832 406.9184,76.60832 407.25897,76.60832 407.5995,76.60832 407.94003,76.60832 408.2806,76.60832 408.62115,76.60832 408.9617,76.60832 409.30225,76.60832 409.6428,76.60832 409.98337,76.60832 410.3239,76.60832 410.66446,76.60832 411.005,76.60832 411.34555,76.60832 411.6861,76.60832 412.02667,76.60832 412.36722,76.60832 412.70776,76.60832 413.0483,76.60832 413.38885,76.60832 413.7294,76.60832 414.06998,76.60832 414.4105,76.60832 414.75104,76.60832 415.0916,76.60832 415.43216,76.60832 415.7727,76.60832 416.11325,76.60832 416.4538,76.60832 416.79434,76.60832 417.13492,76.60832 417.47546,76.60832 417.816,76.60832 418.15656,76.60832 418.4971,76.60832 418.83765,76.60832 419.17822,76.60832 419.51877,76.60832 419.85928,76.60832 420.19986,76.60832 420.5404,76.60832 420.88095,76.60832 421.22153,76.60832 421.56204,76.60832 421.9026,76.60832 422.24316,76.60832 422.5837,76.60832 422.92426,76.60832 423.2648,76.60832 423.60535,76.60832 423.9459,76.60832 424.28647,76.60832 424.627,76.60832 424.96756,76.60832 425.3081,76.60832 425.64865,76.60832 425.9892,76.60832 426.32977,76.60832 426.67032,76.60832 427.01083,76.60832 427.3514,76.60832 427.69196,76.60832 428.0325,76.60832 428.37308,76.60832 428.7136,76.60832" fill="none" stroke="rgb(31,119,180)" stroke-width="2"/>
  <polyline points="120.85643,510.69165 428.7136,76.60832" fill="none" stroke="rgb(255,127,14)" stroke-width="2"/>
  <line x1="59.285" y1="33.2" x2="59.285" y2="554.1" stroke="rgb(0,0,0)" stroke-width="1"/>
  <line x1="59.285" y1="554.1" x2="490.28503" y2="554.1" stroke="rgb(0,0,0)" stroke-width="1"/>
  <text x="59.285" y="567.95996" font-family="sans-serif" font-size="9.9" fill="rgb(0,0,0)" text-anchor="middle">-0.20</text>
  <text x="120.85643" y="567.95996" font-family="sans-serif" font-size="9.9" fill="rgb(0,0,0)" text-anchor="middle">0</text>
  <text x="182.42787" y="567.95996" font-family="sans-serif" font-size="9.9" fill="rgb(0,0,0)" text-anchor="middle">0.20</text>
  <text x="243.9993" y="567.95996" font-family="sans-serif" font-size="9.9" fill="rgb(0,0,0)" text-anchor="middle">0.40</text>
  <text x="305.57074" y="567.95996" font-family="sans-serif" font-size="9.9" fill="rgb(0,0,0)" text-anchor="middle">0.60</text>
  <text x="367.14218" y="567.95996" font-family="sans-serif" font-size="9.9" fill="rgb(0,0,0)" text-anchor="middle">0.80</text>
  <text x="428.7136" y="567.95996" font-family="sans-serif" font-size="9.9" fill="rgb(0,0,0)" text-anchor="middle">1</text>
  <text x="490.28503" y="567.95996" font-family="sans-serif" font-size="9.9" fill="rgb(0,0,0)" text-anchor="middle">1.2</text>
  <text x="55.325" y="554.1" font-family="sans-serif" font-size="9.9" fill="rgb(0,0,0)" text-anchor="end">-0.10</text>
  <text x="55.325" y="510.69165" font-family="sans-serif" font-size="9.9" fill="rgb(0,0,0)" text-anchor="end">0</text>
  <text x="55.325" y="467.28333" font-family="sans-serif" font-size="9.9" fill="rgb(0,0,0)" text-anchor="end">0.10</text>
  <text x="55.325" y="423.875" font-family="sans-serif" font-size="9.9" fill="rgb(0,0,0)" text-anchor="end">0.20</text>
  <text x="55.325" y="380.46664" font-family="sans-serif" font-size="9.9" fill="rgb(0,0,0)" text-anchor="end">0.30</text>
  <text x="55.325" y="337.05835" font-family="sans-serif" font-size="9.9" fill="rgb(0,0,0)" text-anchor="end">0.40</text>
  <text x="55.325" y="293.65" font-family="sans-serif" font-size="9.9" fill="rgb(0,0,0)" text-anchor="end">0.50</text>
  <text x="55.325" y="250.24165" font-family="sans-serif" font-size="9.9" fill="rgb(0,0,0)" text-anchor="end">0.60</text>
  <text x="55.325" y="206.8333" font-family="sans-serif" font-size="9.9" fill="rgb(0,0,0)" text-anchor="end">0.70</text>
  <text x="55.325" y="163.42497" font-family="sans-serif" font-size="9.9" fill="rgb(0,0,0)" text-anchor="end">0.80</text>
  <text x="55.325" y="120.01668" font-family="sans-serif" font-size="9.9" fill="rgb(0,0,0)" text-anchor="end">0.90</text>
  <text x="55.325" y="76.60832" font-family="sans-serif" font-size="9.9" fill="rgb(0,0,0)" text-anchor="end">1.00</text>
  <text x="55.325" y="33.2" font-family="sans-serif" font-size="9.9" fill="rgb(0,0,0)" text-anchor="end">1.1</text>
  <text x="274.785" y="588.19995" font-family="sans-serif" font-size="11" fill="rgb(0,0,0)" text-anchor="middle">False Positive Rate</text>
  <text x="34.535" y="293.65" font-family="sans-serif" font-size="11" fill="rgb(0,0,0)" text-anchor="middle" transform="rotate(-90,34.535,293.65)">True Positive Rate</text>
  <rect x="505.28503" y="38.2" width="12" height="12" fill="rgb(31,119,180)" rx="2"/>
  <text x="522.28503" y="48.4" font-family="sans-serif" font-size="9.9" fill="rgb(0,0,0)">ROC Curve</text>
  <rect x="505.28503" y="53.05" width="12" height="12" fill="rgb(255,127,14)" rx="2"/>
  <text x="522.28503" y="63.25" font-family="sans-serif" font-size="9.9" fill="rgb(0,0,0)">Random Classifier</text>
  <text x="300" y="23.2" font-family="sans-serif" font-size="13.200001" fill="rgb(0,0,0)" font-weight="bold" text-anchor="middle">ROC (AUC = 0.998)</text>
</svg>
