<svg xmlns="http://www.w3.org/2000/svg" width="600" height="600" viewBox="0 0 600 600" role="img">
  <title>ROC (AUC = 0.998)</title>
  <rect width="600" height="600" fill="white"/>
  <rect x="0" y="0" width="600" height="600" fill="rgb(255,255,255)"/>
  <line x1="55.82" y1="554.1" x2="490.285" y2="554.1" stroke="rgb(241,241,241)" stroke-width="0.5"/>
  <line x1="55.82" y1="502.00998" x2="490.285" y2="502.00998" stroke="rgb(241,241,241)" stroke-width="0.5"/>
  <line x1="55.82" y1="449.91998" x2="490.285" y2="449.91998" stroke="rgb(241,241,241)" stroke-width="0.5"/>
  <line x1="55.82" y1="397.83" x2="490.285" y2="397.83" stroke="rgb(241,241,241)" stroke-width="0.5"/>
  <line x1="55.82" y1="345.74" x2="490.285" y2="345.74" stroke="rgb(241,241,241)" stroke-width="0.5"/>
  <line x1="55.82" y1="293.65" x2="490.285" y2="293.65" stroke="rgb(241,241,241)" stroke-width="0.5"/>
  <line x1="55.82" y1="241.55998" x2="490.285" y2="241.55998" stroke="rgb(241,241,241)" stroke-width="0.5"/>
  <line x1="55.82" y1="189.46999" x2="490.285" y2="189.46999" stroke="rgb(241,241,241)" stroke-width="0.5"/>
  <line x1="55.82" y1="137.37999" x2="490.285" y2="137.37999" stroke="rgb(241,241,241)" stroke-width="0.5"/>
  <line x1="55.82" y1="85.28999" x2="490.285" y2="85.28999" stroke="rgb(241,241,241)" stroke-width="0.5"/>
  <line x1="55.82" y1="33.2" x2="490.285" y2="33.2" stroke="rgb(241,241,241)" stroke-width="0.5"/>
  <line x1="55.82" y1="33.2" x2="55.82" y2="554.1" stroke="rgb(241,241,241)" stroke-width="0.5"/>
  <line x1="142.713" y1="33.2" x2="142.713" y2="554.1" stroke="rgb(241,241,241)" stroke-width="0.5"/>
  <line x1="229.60599" y1="33.2" x2="229.60599" y2="554.1" stroke="rgb(241,241,241)" stroke-width="0.5"/>
  <line x1="316.49902" y1="33.2" x2="316.49902" y2="554.1" stroke="rgb(241,241,241)" stroke-width="0.5"/>
  <line x1="403.392" y1="33.2" x2="403.392" y2="554.1" stroke="rgb(241,241,241)" stroke-width="0.5"/>
  <line x1="490.285" y1="33.2" x2="490.285" y2="554.1" stroke="rgb(241,241,241)" stroke-width="0.5"/>
  <polyline points="55.82,554.1 55.82,548.67395 55.82,543.24786 55.82,537.82184 55.82,532.3958 55.82,526.9697 55.82,521.5437 55.82,516.1177 55.82,510.69165 55.82,505.2656 55.82,499.83957 55.82,494.4135 55.82,488.9875 55.82,483.56143 55.82,478.1354 55.82,472.70935 55.82,467.28333 55.82,461.85727 55.82,456.4312 55.82,451.0052 55.82,445.57916 55.82,440.1531 55.82,434.72705 55.82,429.30103 55.82,423.875 55.82,418.44894 55.82,413.0229 55.82,407.59686 55.82,402.17084 55.82,396.74475 55.82,391.31873 55.82,385.8927 55.82,380.46664 55.82,375.04062 55.82,369.61456 55.82,364.18854 55.82,358.76248 55.82,353.33646 55.82,347.9104 55.82,342.48438 55.82,337.05835 55.82,331.63226 55.82,326.20624 55.82,320.7802 55.82,315.35416 55.82,309.9281 55.82,304.50208 55.82,299.07605 55.82,293.65 55.82,288.22394 55.82,282.7979 55.82,277.37186 55.82,271.94583 55.82,266.5198 55.82,261.09375 55.82,255.66768 55.82,250.24165 55.82,244.8156 55.82,239.38954 55.82,233.96355 55.82,228.53749 55.82,223.11143 55.82,217.68541 55.82,212.25935 55.82,206.8333 55.82,201.40727 55.82,195.98125 55.82,190.55519 55.82,185.12917 55.82,179.70311 55.82,174.27705 55.82,168.85103 55.82,163.42497 55.82,157.99895 55.82,152.57292 56.300602,152.57292 56.300602,147.14687 56.300602,141.72081 56.300602,136.29478 56.300602,130.86873 56.300602,125.4427 56.300602,120.01668 56.300602,114.59062 56.300602,109.164566 56.781204,109.164566 56.781204,103.73854 56.781204,98.312485 56.781204,92.88643 56.781204,87.460434 56.781204,82.03438 56.781204,76.60832 56.781204,71.1823 56.781204,65.75624 57.261806,65.75624 57.742413,65.75624 57.742413,60.33019 57.742413,54.904163 57.742413,49.478138 58.223015,49.478138 58.703617,49.478138 59.18422,49.478138 59.66482,49.478138 59.66482,44.052082 60.145424,44.052082 60.62603,44.052082 61.106632,44.052082 61.106632,38.626026 61.587234,38.626026 62.067837,38.626026 62.54844,38.626026 63.02904,38.626026 63.509644,38.626026 63.99025,38.626026 64.470856,38.626026 64.951454,38.626026 65.43206,38.626026 65.91266,38.626026 66.393265,38.626026 66.87386,38.626026 67.35447,38.626026 67.83507,38.626026 68.315674,38.626026 68.79628,38.626026 69.27688,38.626026 69.757484,38.626026 70.23808,38.626026 70.71869,38.626026 71.199295,38.626026 71.67989,38.626026 72.1605,38.626026 72.6411,38.626026 73.121704,38.626026 73.6023,38.626026 74.08291,38.626026 74.56351,38.626026 75.04411,38.626026 75.52472,38.626026 76.005325,38.626026 76.48592,38.626026 76.96652,38.626026 77.44713,38.626026 77.927734,38.626026 78.40833,38.626026 78.88894,38.626026 79.36954,38.626026 79.85014,38.626026 80.33075,38.626026 80.81135,38.626026 81.291954,38.626026 81.77255,38.626026 82.25316,38.626026 82.733765,38.626026 83.21436,38.626026 83.69496,38.626026 84.17557,38.626026 84.65617,38.626026 85.13677,38.626026 85.61738,38.626026 86.09798,38.626026 86.57858,38.626026 87.05919,38.626026 87.53979,38.626026 88.02039,38.626026 88.50099,38.626026 88.9816,38.626026 89.462204,38.626026 89.94281,38.626026 90.42341,38.626026 90.90401,38.626026 91.38461,38.626026 91.86522,38.626026 92.34582,38.626026 92.826416,38.626026 93.30702,38.626026 93.78763,38.626026 94.268234,38.626026 94.74883,38.626026 95.22943,38.626026 95.71004,38.626026 96.19064,38.626026 96.67125,38.626026 97.15185,38.626026 97.63245,38.626026 98.11305,38.626026 98.59366,38.626026 99.07426,38.626026 99.554855,38.626026 100.03546,38.626026 100.51607,38.626026 100.99667,38.626026 101.47727,38.626026 101.95787,38.626026 102.43848,38.626026 102.91908,38.626026 103.39969,38.626026 103.88029,38.626026 104.360886,38.626026 104.84149,38.626026 105.3221,38.626026 105.802704,38.626026 106.283295,38.626026 106.7639,38.626026 107.24451,38.626026 107.72511,38.626026 108.20571,38.626026 108.68631,38.626026 108.68631,33.2 109.166916,33.2 109.64752,33.2 110.12813,33.2 110.60872,33.2 111.089325,33.2 111.56993,33.2 112.05054,33.2 112.531136,33.2 113.01174,33.2 113.49234,33.2 113.972946,33.2 114.45355,33.2 114.93416,33.2 115.41475,33.2 115.89536,33.2 116.37596,33.2 116.85657,33.2 117.337166,33.2 117.81777,33.2 118.29837,33.2 118.77898,33.2 119.25958,33.2 119.74018,33.2 120.22079,33.2 120.701385,33.2 121.18199,33.2 121.66259,33.2 122.143196,33.2 122.623795,33.2 123.1044,33.2 123.58501,33.2 124.06561,33.2 124.54621,33.2 125.02682,33.2 125.507416,33.2 125.988014,33.2 126.46862,33.2 126.94922,33.2 127.429825,33.2 127.91043,33.2 128.39104,33.2 128.87164,33.2 129.35223,33.2 129.83284,33.2 130.31345,33.2 130.79404,33.2 131.27466,33.2 131.75525,33.2 132.23587,33.2 132.71646,33.2 133.19707,33.2 133.67767,33.2 134.15826,33.2 134.63887,33.2 135.11948,33.2 135.60007,33.2 136.08069,33.2 136.56128,33.2 137.04189,33.2 137.52249,33.2 138.00308,33.2 138.4837,33.2 138.9643,33.2 139.4449,33.2 139.9255,33.2 140.4061,33.2 140.88672,33.2 141.36731,33.2 141.84792,33.2 142.32852,33.2 142.80911,33.2 143.28972,33.2 143.77032,33.2 144.25092,33.2 144.73154,33.2 145.21213,33.2 145.69275,33.2 146.17334,33.2 146.65395,33.2 147.13455,33.2 147.61514,33.2 148.09575,33.2 148.57635,33.2 149.05695,33.2 149.53757,33.2 150.01816,33.2 150.49876,33.2 150.97937,33.2 151.45996,33.2 151.94058,33.2 152.42117,33.2 152.90178,33.2 153.38239,33.2 153.86299,33.2 154.3436,33.2 154.82419,33.2 155.3048,33.2 155.7854,33.2 156.26599,33.2 156.7466,33.2 157.2272,33.2 157.70781,33.2 158.18842,33.2 158.669,33.2 159.14963,33.2 159.63022,33.2 160.11082,33.2 160.59143,33.2 161.07202,33.2 161.55263,33.2 162.03323,33.2 162.51384,33.2 162.99445,33.2 163.47504,33.2 163.95566,33.2 164.43625,33.2 164.91685,33.2 165.39745,33.2 165.87805,33.2 166.35866,33.2 166.83926,33.2 167.31985,33.2 167.80048,33.2 168.28107,33.2 168.76169,33.2 169.24228,33.2 169.72287,33.2 170.20349,33.2 170.68408,33.2 171.16469,33.2 171.6453,33.2 172.1259,33.2 172.60649,33.2 173.0871,33.2 173.5677,33.2 174.04831,33.2 174.5289,33.2 175.0095,33.2 175.49011,33.2 175.97073,33.2 176.45132,33.2 176.93192,33.2 177.41254,33.2 177.89313,33.2 178.37372,33.2 178.85434,33.2 179.33493,33.2 179.81555,33.2 180.29614,33.2 180.77675,33.2 181.25735,33.2 181.73795,33.2 182.21855,33.2 182.69916,33.2 183.17976,33.2 183.66037,33.2 184.14096,33.2 184.62158,33.2 185.10217,33.2 185.58276,33.2 186.06339,33.2 186.54398,33.2 187.0246,33.2 187.50519,33.2 187.98578,33.2 188.4664,33.2 188.94699,33.2 189.42758,33.2 189.9082,33.2 190.3888,33.2 190.86942,33.2 191.35,33.2 191.83063,33.2 192.31122,33.2 192.79181,33.2 193.27243,33.2 193.75302,33.2 194.23364,33.2 194.71423,33.2 195.19482,33.2 195.67545,33.2 196.15604,33.2 196.63663,33.2 197.11725,33.2 197.59784,33.2 198.07843,33.2 198.55905,33.2 199.03964,33.2 199.52026,33.2 200.00085,33.2 200.48148,33.2 200.96207,33.2 201.44269,33.2 201.92328,33.2 202.40387,33.2 202.88449,33.2 203.36508,33.2 203.84567,33.2 204.3263,33.2 204.80688,33.2 205.28748,33.2 205.7681,33.2 206.24869,33.2 206.72931,33.2 207.2099,33.2 207.69049,33.2 208.17111,33.2 208.65173,33.2 209.13232,33.2 209.61292,33.2 210.09354,33.2 210.57413,33.2 211.05472,33.2 211.53534,33.2 212.01593,33.2 212.49652,33.2 212.97714,33.2 213.45773,33.2 213.93835,33.2 214.41895,33.2 214.89954,33.2 215.38016,33.2 215.86075,33.2 216.34137,33.2 216.82196,33.2 217.30258,33.2 217.78317,33.2 218.26376,33.2 218.74438,33.2 219.22498,33.2 219.70557,33.2 220.18619,33.2 220.66678,33.2 221.1474,33.2 221.62799,33.2 222.10858,33.2 222.5892,33.2 223.0698,33.2 223.55038,33.2 224.031,33.2 224.5116,33.2 224.99222,33.2 225.47281,33.2 225.95343,33.2 226.43402,33.2 226.91461,33.2 227.39523,33.2 227.87582,33.2 228.35645,33.2 228.83704,33.2 229.31763,33.2 229.79825,33.2 230.27884,33.2 230.75943,33.2 231.24005,33.2 231.72064,33.2 232.20126,33.2 232.68185,33.2 233.16245,33.2 233.64307,33.2 234.12366,33.2 234.60428,33.2 235.08487,33.2 235.56549,33.2 236.04608,33.2 236.52667,33.2 237.0073,33.2 237.48788,33.2 237.96848,33.2 238.4491,33.2 238.92969,33.2 239.41031,33.2 239.8909,33.2 240.37149,33.2 240.85211,33.2 241.3327,33.2 241.8133,33.2 242.29391,33.2 242.7745,33.2 243.25513,33.2 243.73572,33.2 244.21634,33.2 244.69693,33.2 245.17752,33.2 245.65814,33.2 246.13873,33.2 246.61935,33.2 247.09995,33.2 247.58054,33.2 248.06116,33.2 248.54175,33.2 249.02234,33.2 249.50296,33.2 249.98355,33.2 250.46414,33.2 250.94476,33.2 251.42538,33.2 251.90598,33.2 252.38657,33.2 252.86719,33.2 253.34778,33.2 253.8284,33.2 254.30899,33.2 254.78958,33.2 255.2702,33.2 255.7508,33.2 256.23138,33.2 256.712,33.2 257.1926,33.2 257.6732,33.2 258.1538,33.2 258.6344,33.2 259.11502,33.2 259.5956,33.2 260.07623,33.2 260.55682,33.2 261.03745,33.2 261.51804,33.2 261.99863,33.2 262.47925,33.2 262.95984,33.2 263.44043,33.2 263.92105,33.2 264.40164,33.2 264.88226,33.2 265.36285,33.2 265.84344,33.2 266.32407,33.2 266.80466,33.2 267.28525,33.2 267.76587,33.2 268.24646,33.2 268.72708,33.2 269.20767,33.2 269.6883,33.2 270.16888,33.2 270.64948,33.2 271.1301,33.2 271.6107,33.2 272.0913,33.2 272.5719,33.2 273.0525,33.2 273.5331,33.2 274.0137,33.2 274.49432,33.2 274.97488,33.2 275.4555,33.2 275.9361,33.2 276.41672,33.2 276.8973,33.2 277.37793,33.2 277.85852,33.2 278.33914,33.2 278.81973,33.2 279.30032,33.2 279.78094,33.2 280.26154,33.2 280.74216,33.2 281.22275,33.2 281.70337,33.2 282.18393,33.2 282.66455,33.2 283.14514,33.2 283.62576,33.2 284.10635,33.2 284.58698,33.2 285.06757,33.2 285.5482,33.2 286.02878,33.2 286.50937,33.2 286.99,33.2 287.47058,33.2 287.9512,33.2 288.4318,33.2 288.9124,33.2 289.39297,33.2 289.8736,33.2 290.3542,33.2 290.8348,33.2 291.3154,33.2 291.79602,33.2 292.2766,33.2 292.75723,33.2 293.2378,33.2 293.7184,33.2 294.199,33.2 294.67963,33.2 295.16025,33.2 295.64084,33.2 296.12146,33.2 296.60202,33.2 297.08264,33.2 297.56323,33.2 298.04385,33.2 298.52444,33.2 299.00507,33.2 299.48566,33.2 299.96628,33.2 300.44684,33.2 300.92746,33.2 301.40805,33.2 301.88867,33.2 302.36926,33.2 302.84988,33.2 303.33047,33.2 303.8111,33.2 304.2917,33.2 304.77228,33.2 305.2529,33.2 305.7335,33.2 306.2141,33.2 306.6947,33.2 307.17532,33.2 307.65588,33.2 308.1365,33.2 308.6171,33.2 309.09772,33.2 309.5783,33.2 310.05893,33.2 310.53952,33.2 311.02014,33.2 311.50073,33.2 311.98132,33.2 312.46194,33.2 312.94254,33.2 313.42316,33.2 313.90375,33.2 314.38437,33.2 314.86493,33.2 315.34555,33.2 315.82614,33.2 316.30676,33.2 316.78738,33.2 317.26797,33.2 317.7486,33.2 318.2292,33.2 318.70978,33.2 319.19037,33.2 319.671,33.2 320.15158,33.2 320.6322,33.2 321.1128,33.2 321.5934,33.2 322.07397,33.2 322.5546,33.2 323.0352,33.2 323.5158,33.2 323.9964,33.2 324.47702,33.2 324.9576,33.2 325.43823,33.2 325.91882,33.2 326.3994,33.2 326.88004,33.2 327.36063,33.2 327.84125,33.2 328.32184,33.2 328.80246,33.2 329.28302,33.2 329.76364,33.2 330.24423,33.2 330.72485,33.2 331.20544,33.2 331.68607,33.2 332.16666,33.2 332.64728,33.2 333.12787,33.2 333.60846,33.2 334.08908,33.2 334.56967,33.2 335.0503,33.2 335.53088,33.2 336.0115,33.2 336.49207,33.2 336.9727,33.2 337.45328,33.2 337.9339,33.2 338.4145,33.2 338.8951,33.2 339.3757,33.2 339.85632,33.2 340.33688,33.2 340.8175,33.2 341.2981,33.2 341.77872,33.2 342.2593,33.2 342.73993,33.2 343.22052,33.2 343.7011,33.2 344.18173,33.2 344.66232,33.2 345.14294,33.2 345.62354,33.2 346.10416,33.2 346.58475,33.2 347.06537,33.2 347.54593,33.2 348.02655,33.2 348.50714,33.2 348.98776,33.2 349.46835,33.2 349.94897,33.2 350.42957,33.2 350.91016,33.2 351.39078,33.2 351.87137,33.2 352.352,33.2 352.83258,33.2 353.3132,33.2 353.7938,33.2 354.2744,33.2 354.75497,33.2 355.2356,33.2 355.7162,33.2 356.1968,33.2 356.6774,33.2 357.15802,33.2 357.6386,33.2 358.11923,33.2 358.5998,33.2 359.0804,33.2 359.561,33.2 360.04163,33.2 360.52225,33.2 361.00284,33.2 361.48346,33.2 361.96402,33.2 362.44464,33.2 362.92523,33.2 363.40585,33.2 363.88644,33.2 364.36707,33.2 364.84766,33.2 365.32828,33.2 365.80884,33.2 366.28946,33.2 366.77005,33.2 367.25067,33.2 367.73126,33.2 368.21188,33.2 368.69247,33.2 369.17307,33.2 369.6537,33.2 370.13428,33.2 370.6149,33.2 371.0955,33.2 371.5761,33.2 372.0567,33.2 372.53732,33.2 373.01788,33.2 373.4985,33.2 373.9791,33.2 374.45972,33.2 374.9403,33.2 375.42093,33.2 375.90152,33.2 376.3821,33.2 376.86273,33.2 377.34332,33.2 377.82394,33.2 378.30453,33.2 378.78516,33.2 379.26575,33.2 379.74637,33.2 380.22693,33.2 380.70755,33.2 381.18814,33.2 381.66876,33.2 382.14935,33.2 382.62997,33.2 383.11057,33.2 383.59116,33.2 384.07175,33.2 384.55237,33.2 385.03296,33.2 385.51358,33.2 385.99417,33.2 386.4748,33.2 386.95538,33.2 387.43597,33.2 387.9166,33.2 388.3972,33.2 388.8778,33.2 389.3584,33.2 389.83902,33.2 390.3196,33.2 390.8002,33.2 391.2808,33.2 391.7614,33.2 392.242,33.2 392.72263,33.2 393.20322,33.2 393.68384,33.2 394.16443,33.2 394.64502,33.2 395.12564,33.2 395.60623,33.2 396.08685,33.2 396.56744,33.2 397.04807,33.2 397.52866,33.2 398.00925,33.2 398.48984,33.2 398.97046,33.2 399.45105,33.2 399.93167,33.2 400.41226,33.2 400.89288,33.2 401.37347,33.2 401.85406,33.2 402.33466,33.2 402.81528,33.2 403.29587,33.2 403.7765,33.2 404.2571,33.2 404.7377,33.2 405.2183,33.2 405.69888,33.2 406.1795,33.2 406.6601,33.2 407.14072,33.2 407.6213,33.2 408.10193,33.2 408.58252,33.2 409.0631,33.2 409.5437,33.2 410.02432,33.2 410.5049,33.2 410.98553,33.2 411.46613,33.2 411.94675,33.2 412.42734,33.2 412.90793,33.2 413.38855,33.2 413.86914,33.2 414.34976,33.2 414.83035,33.2 415.31097,33.2 415.79156,33.2 416.27216,33.2 416.75275,33.2 417.23337,33.2 417.71396,33.2 418.19458,33.2 418.67517,33.2 419.1558,33.2 419.63638,33.2 420.11697,33.2 420.5976,33.2 421.0782,33.2 421.5588,33.2 422.0394,33.2 422.52002,33.2 423.0006,33.2 423.4812,33.2 423.9618,33.2 424.4424,33.2 424.923,33.2 425.40363,33.2 425.88422,33.2 426.36484,33.2 426.84543,33.2 427.32602,33.2 427.8066,33.2 428.28723,33.2 428.76782,33.2 429.24844,33.2 429.72903,33.2 430.20966,33.2 430.69025,33.2 431.17084,33.2 431.65146,33.2 432.13205,33.2 432.61267,33.2 433.09326,33.2 433.57388,33.2 434.05447,33.2 434.53506,33.2 435.01566,33.2 435.49628,33.2 435.97687,33.2 436.4575,33.2 436.93808,33.2 437.4187,33.2 437.8993,33.2 438.37988,33.2 438.8605,33.2 439.3411,33.2 439.82172,33.2 440.3023,33.2 440.78293,33.2 441.26352,33.2 441.7441,33.2 442.2247,33.2 442.70532,33.2 443.1859,33.2 443.66653,33.2 444.14713,33.2 444.62775,33.2 445.1083,33.2 445.58893,33.2 446.06952,33.2 446.55014,33.2 447.03076,33.2 447.51135,33.2 447.99197,33.2 448.47256,33.2 448.95316,33.2 449.43375,33.2 449.91437,33.2 450.39496,33.2 450.87558,33.2 451.35617,33.2 451.8368,33.2 452.31735,33.2 452.79797,33.2 453.27856,33.2 453.7592,33.2 454.23978,33.2 454.7204,33.2 455.201,33.2 455.6816,33.2 456.1622,33.2 456.6428,33.2 457.1234,33.2 457.604,33.2 458.08463,33.2 458.56522,33.2 459.04584,33.2 459.5264,33.2 460.00702,33.2 460.4876,33.2 460.96823,33.2 461.44882,33.2 461.92944,33.2 462.41003,33.2 462.89066,33.2 463.37125,33.2 463.85184,33.2 464.33246,33.2 464.81305,33.2 465.29367,33.2 465.77426,33.2 466.25488,33.2 466.73547,33.2 467.21606,33.2 467.69666,33.2 468.17728,33.2 468.65787,33.2 469.1385,33.2 469.61908,33.2 470.0997,33.2 470.58026,33.2 471.06088,33.2 471.54147,33.2 472.0221,33.2 472.5027,33.2 472.9833,33.2 473.4639,33.2 473.94452,33.2 474.4251,33.2 474.9057,33.2 475.38632,33.2 475.8669,33.2 476.34753,33.2 476.82813,33.2 477.30875,33.2 477.7893,33.2 478.26993,33.2 478.75052,33.2 479.23114,33.2 479.71173,33.2 480.19235,33.2 480.67294,33.2 481.15356,33.2 481.63416,33.2 482.11475,33.2 482.59537,33.2 483.07596,33.2 483.55658,33.2 484.03717,33.2 484.5178,33.2 484.99835,33.2 485.47897,33.2 485.95956,33.2 486.4402,33.2 486.92078,33.2 487.4014,33.2 487.882,33.2 488.3626,33.2 488.84317,33.2 489.3238,33.2 489.80438,33.2 490.285,33.2" fill="none" stroke="rgb(31,119,180)" stroke-width="2"/>
  <polyline points="55.82,554.1 490.285,33.2" fill="none" stroke="rgb(255,127,14)" stroke-width="2"/>
  <line x1="55.82" y1="33.2" x2="55.82" y2="554.1" stroke="rgb(0,0,0)" stroke-width="1"/>
  <line x1="55.82" y1="554.1" x2="490.285" y2="554.1" stroke="rgb(0,0,0)" stroke-width="1"/>
  <text x="55.82" y="567.95996" font-family="sans-serif" font-size="9.9" fill="rgb(0,0,0)" text-anchor="middle">0</text>
  <text x="142.713" y="567.95996" font-family="sans-serif" font-size="9.9" fill="rgb(0,0,0)" text-anchor="middle">0.20</text>
  <text x="229.60599" y="567.95996" font-family="sans-serif" font-size="9.9" fill="rgb(0,0,0)" text-anchor="middle">0.40</text>
  <text x="316.49902" y="567.95996" font-family="sans-serif" font-size="9.9" fill="rgb(0,0,0)" text-anchor="middle">0.60</text>
  <text x="403.392" y="567.95996" font-family="sans-serif" font-size="9.9" fill="rgb(0,0,0)" text-anchor="middle">0.80</text>
  <text x="490.285" y="567.95996" font-family="sans-serif" font-size="9.9" fill="rgb(0,0,0)" text-anchor="middle">1</text>
  <text x="51.86" y="554.1" font-family="sans-serif" font-size="9.9" fill="rgb(0,0,0)" text-anchor="end">0</text>
  <text x="51.86" y="502.00998" font-family="sans-serif" font-size="9.9" fill="rgb(0,0,0)" text-anchor="end">0.10</text>
  <text x="51.86" y="449.91998" font-family="sans-serif" font-size="9.9" fill="rgb(0,0,0)" text-anchor="end">0.20</text>
  <text x="51.86" y="397.83" font-family="sans-serif" font-size="9.9" fill="rgb(0,0,0)" text-anchor="end">0.30</text>
  <text x="51.86" y="345.74" font-family="sans-serif" font-size="9.9" fill="rgb(0,0,0)" text-anchor="end">0.40</text>
  <text x="51.86" y="293.65" font-family="sans-serif" font-size="9.9" fill="rgb(0,0,0)" text-anchor="end">0.50</text>
  <text x="51.86" y="241.55998" font-family="sans-serif" font-size="9.9" fill="rgb(0,0,0)" text-anchor="end">0.60</text>
  <text x="51.86" y="189.46999" font-family="sans-serif" font-size="9.9" fill="rgb(0,0,0)" text-anchor="end">0.70</text>
  <text x="51.86" y="137.37999" font-family="sans-serif" font-size="9.9" fill="rgb(0,0,0)" text-anchor="end">0.80</text>
  <text x="51.86" y="85.28999" font-family="sans-serif" font-size="9.9" fill="rgb(0,0,0)" text-anchor="end">0.90</text>
  <text x="51.86" y="33.2" font-family="sans-serif" font-size="9.9" fill="rgb(0,0,0)" text-anchor="end">1.00</text>
  <text x="273.0525" y="588.19995" font-family="sans-serif" font-size="11" fill="rgb(0,0,0)" text-anchor="middle">False Positive Rate</text>
  <text x="31.07" y="293.65" font-family="sans-serif" font-size="11" fill="rgb(0,0,0)" text-anchor="middle" transform="rotate(-90,31.07,293.65)">True Positive Rate</text>
  <rect x="505.285" y="38.2" width="12" height="12" fill="rgb(31,119,180)" rx="2"/>
  <text x="522.28503" y="48.4" font-family="sans-serif" font-size="9.9" fill="rgb(0,0,0)">ROC Curve</text>
  <rect x="505.285" y="53.05" width="12" height="12" fill="rgb(255,127,14)" rx="2"/>
  <text x="522.28503" y="63.25" font-family="sans-serif" font-size="9.9" fill="rgb(0,0,0)">Random Classifier</text>
  <text x="300" y="23.2" font-family="sans-serif" font-size="13.200001" fill="rgb(0,0,0)" font-weight="bold" text-anchor="middle">ROC (AUC = 0.998)</text>
</svg>
