<svg xmlns="http://www.w3.org/2000/svg" width="600" height="600" viewBox="0 0 600 600" role="img">
  <title>ROC (AUC = 0.949)</title>
  <rect width="600" height="600" fill="white"/>
  <rect x="0" y="0" width="600" height="600" fill="rgb(255,255,255)"/>
  <line x1="55.82" y1="554.1" x2="490.285" y2="554.1" stroke="rgb(241,241,241)" stroke-width="0.5"/>
  <line x1="55.82" y1="502.00998" x2="490.285" y2="502.00998" stroke="rgb(241,241,241)" stroke-width="0.5"/>
  <line x1="55.82" y1="449.91998" x2="490.285" y2="449.91998" stroke="rgb(241,241,241)" stroke-width="0.5"/>
  <line x1="55.82" y1="397.83" x2="490.285" y2="397.83" stroke="rgb(241,241,241)" stroke-width="0.5"/>
  <line x1="55.82" y1="345.74" x2="490.285" y2="345.74" stroke="rgb(241,241,241)" stroke-width="0.5"/>
  <line x1="55.82" y1="293.65" x2="490.285" y2="293.65" stroke="rgb(241,241,241)" stroke-width="0.5"/>
  <line x1="55.82" y1="241.55998" x2="490.285" y2="241.55998" stroke="rgb(241,241,241)" stroke-width="0.5"/>
  <line x1="55.82" y1="189.46999" x2="490.285" y2="189.46999" stroke="rgb(241,241,241)" stroke-width="0.5"/>
  <line x1="55.82" y1="137.37999" x2="490.285" y2="137.37999" stroke="rgb(241,241,241)" stroke-width="0.5"/>
  <line x1="55.82" y1="85.28999" x2="490.285" y2="85.28999" stroke="rgb(241,241,241)" stroke-width="0.5"/>
  <line x1="55.82" y1="33.2" x2="490.285" y2="33.2" stroke="rgb(241,241,241)" stroke-width="0.5"/>
  <line x1="55.82" y1="33.2" x2="55.82" y2="554.1" stroke="rgb(241,241,241)" stroke-width="0.5"/>
  <line x1="142.713" y1="33.2" x2="142.713" y2="554.1" stroke="rgb(241,241,241)" stroke-width="0.5"/>
  <line x1="229.60599" y1="33.2" x2="229.60599" y2="554.1" stroke="rgb(241,241,241)" stroke-width="0.5"/>
  <line x1="316.49902" y1="33.2" x2="316.49902" y2="554.1" stroke="rgb(241,241,241)" stroke-width="0.5"/>
  <line x1="403.392" y1="33.2" x2="403.392" y2="554.1" stroke="rgb(241,241,241)" stroke-width="0.5"/>
  <line x1="490.285" y1="33.2" x2="490.285" y2="554.1" stroke="rgb(241,241,241)" stroke-width="0.5"/>
  <polyline points="55.82,554.1 55.82,548.67395 55.82,543.24786 55.82,537.82184 55.82,532.3958 55.82,526.9697 55.82,521.5437 55.82,516.1177 55.82,510.69165 55.82,505.2656 55.82,499.83957 55.82,494.4135 55.82,488.9875 55.82,483.56143 55.82,478.1354 55.82,472.70935 55.82,467.28333 55.82,461.85727 55.82,456.4312 55.82,451.0052 55.82,445.57916 55.82,440.1531 55.82,434.72705 55.82,429.30103 55.82,423.875 55.82,418.44894 55.82,413.0229 55.82,407.59686 55.82,402.17084 55.82,396.74475 55.82,391.31873 55.82,385.8927 55.82,380.46664 55.82,375.04062 55.82,369.61456 55.82,364.18854 55.82,358.76248 55.82,353.33646 55.82,347.9104 55.82,342.48438 56.300602,342.48438 56.300602,337.05835 56.300602,331.63226 56.300602,326.20624 56.300602,320.7802 56.300602,315.35416 56.300602,309.9281 56.300602,304.50208 56.300602,299.07605 56.781204,299.07605 56.781204,293.65 56.781204,288.22394 57.261806,288.22394 57.261806,282.7979 57.261806,277.37186 57.261806,271.94583 57.261806,266.5198 57.742413,266.5198 57.742413,261.09375 58.223015,261.09375 58.223015,255.66768 58.223015,250.24165 58.703617,250.24165 58.703617,244.8156 59.18422,244.8156 59.18422,239.38954 59.66482,239.38954 59.66482,233.96355 59.66482,228.53749 60.145424,228.53749 60.145424,223.11143 60.62603,223.11143 61.106632,223.11143 61.106632,217.68541 61.587234,217.68541 61.587234,212.25935 61.587234,206.8333 62.067837,206.8333 62.54844,206.8333 63.02904,206.8333 63.509644,206.8333 63.509644,201.40727 63.509644,195.98125 63.99025,195.98125 64.470856,195.98125 64.470856,190.55519 64.951454,190.55519 64.951454,185.12917 65.43206,185.12917 65.91266,185.12917 66.393265,185.12917 66.87386,185.12917 67.35447,185.12917 67.35447,179.70311 67.35447,174.27705 67.35447,168.85103 67.83507,168.85103 68.315674,168.85103 68.79628,168.85103 68.79628,163.42497 69.27688,163.42497 69.757484,163.42497 70.23808,163.42497 70.23808,157.99895 70.71869,157.99895 71.199295,157.99895 71.67989,157.99895 71.67989,152.57292 71.67989,147.14687 72.1605,147.14687 72.1605,141.72081 72.6411,141.72081 73.121704,141.72081 73.6023,141.72081 74.08291,141.72081 74.56351,141.72081 74.56351,136.29478 75.04411,136.29478 75.52472,136.29478 76.005325,136.29478 76.48592,136.29478 76.96652,136.29478 76.96652,130.86873 77.44713,130.86873 77.927734,130.86873 78.40833,130.86873 78.88894,130.86873 79.36954,130.86873 79.85014,130.86873 80.33075,130.86873 80.81135,130.86873 81.291954,130.86873 81.77255,130.86873 82.25316,130.86873 82.733765,130.86873 83.21436,130.86873 83.69496,130.86873 84.17557,130.86873 84.65617,130.86873 85.13677,130.86873 85.61738,130.86873 86.09798,130.86873 86.57858,130.86873 87.05919,130.86873 87.53979,130.86873 88.02039,130.86873 88.50099,130.86873 88.9816,130.86873 89.462204,130.86873 89.94281,130.86873 90.42341,130.86873 90.42341,125.4427 90.42341,120.01668 90.90401,120.01668 91.38461,120.01668 91.86522,120.01668 92.34582,120.01668 92.826416,120.01668 93.30702,120.01668 93.78763,120.01668 94.268234,120.01668 94.74883,120.01668 95.22943,120.01668 95.71004,120.01668 96.19064,120.01668 96.67125,120.01668 97.15185,120.01668 97.63245,120.01668 98.11305,120.01668 98.59366,120.01668 99.07426,120.01668 99.554855,120.01668 100.03546,120.01668 100.51607,120.01668 100.99667,120.01668 100.99667,114.59062 101.47727,114.59062 101.95787,114.59062 102.43848,114.59062 102.91908,114.59062 103.39969,114.59062 103.88029,114.59062 104.360886,114.59062 104.360886,109.164566 104.84149,109.164566 105.3221,109.164566 105.802704,109.164566 106.283295,109.164566 106.283295,103.73854 106.7639,103.73854 107.24451,103.73854 107.72511,103.73854 108.20571,103.73854 108.20571,98.312485 108.20571,92.88643 108.68631,92.88643 109.166916,92.88643 109.64752,92.88643 110.12813,92.88643 110.60872,92.88643 111.089325,92.88643 111.56993,92.88643 112.05054,92.88643 112.531136,92.88643 112.531136,87.460434 113.01174,87.460434 113.49234,87.460434 113.972946,87.460434 114.45355,87.460434 114.93416,87.460434 115.41475,87.460434 115.89536,87.460434 116.37596,87.460434 116.85657,87.460434 117.337166,87.460434 117.81777,87.460434 118.29837,87.460434 118.77898,87.460434 119.25958,87.460434 119.74018,87.460434 120.22079,87.460434 120.22079,82.03438 120.701385,82.03438 121.18199,82.03438 121.66259,82.03438 122.143196,82.03438 122.623795,82.03438 123.1044,82.03438 123.58501,82.03438 124.06561,82.03438 124.54621,82.03438 125.02682,82.03438 125.507416,82.03438 125.988014,82.03438 126.46862,82.03438 126.94922,82.03438 127.429825,82.03438 127.91043,82.03438 128.39104,82.03438 128.87164,82.03438 129.35223,82.03438 129.83284,82.03438 130.31345,82.03438 130.79404,82.03438 131.27466,82.03438 131.75525,82.03438 132.23587,82.03438 132.71646,82.03438 133.19707,82.03438 133.67767,82.03438 134.15826,82.03438 134.63887,82.03438 135.11948,82.03438 135.11948,76.60832 135.60007,76.60832 136.08069,76.60832 136.56128,76.60832 137.04189,76.60832 137.52249,76.60832 137.52249,71.1823 138.00308,71.1823 138.4837,71.1823 138.9643,71.1823 139.4449,71.1823 139.9255,71.1823 140.4061,71.1823 140.88672,71.1823 141.36731,71.1823 141.84792,71.1823 142.32852,71.1823 142.80911,71.1823 143.28972,71.1823 143.77032,71.1823 143.77032,65.75624 144.25092,65.75624 144.73154,65.75624 145.21213,65.75624 145.69275,65.75624 146.17334,65.75624 146.65395,65.75624 147.13455,65.75624 147.61514,65.75624 148.09575,65.75624 148.09575,60.33019 148.57635,60.33019 149.05695,60.33019 149.53757,60.33019 150.01816,60.33019 150.49876,60.33019 150.97937,60.33019 151.45996,60.33019 151.94058,60.33019 152.42117,60.33019 152.90178,60.33019 153.38239,60.33019 153.86299,60.33019 154.3436,60.33019 154.82419,60.33019 155.3048,60.33019 155.7854,60.33019 156.26599,60.33019 156.7466,60.33019 157.2272,60.33019 157.70781,60.33019 158.18842,60.33019 158.669,60.33019 159.14963,60.33019 159.63022,60.33019 159.63022,54.904163 160.11082,54.904163 160.59143,54.904163 161.07202,54.904163 161.55263,54.904163 162.03323,54.904163 162.51384,54.904163 162.99445,54.904163 163.47504,54.904163 163.95566,54.904163 164.43625,54.904163 164.91685,54.904163 165.39745,54.904163 165.87805,54.904163 166.35866,54.904163 166.83926,54.904163 167.31985,54.904163 167.80048,54.904163 168.28107,54.904163 168.76169,54.904163 169.24228,54.904163 169.72287,54.904163 170.20349,54.904163 170.68408,54.904163 171.16469,54.904163 171.6453,54.904163 172.1259,54.904163 172.60649,54.904163 173.0871,54.904163 173.5677,54.904163 174.04831,54.904163 174.5289,54.904163 175.0095,54.904163 175.49011,54.904163 175.97073,54.904163 176.45132,54.904163 176.93192,54.904163 177.41254,54.904163 177.89313,54.904163 178.37372,54.904163 178.85434,54.904163 179.33493,54.904163 179.81555,54.904163 180.29614,54.904163 180.77675,54.904163 181.25735,54.904163 181.73795,54.904163 182.21855,54.904163 182.69916,54.904163 183.17976,54.904163 183.66037,54.904163 184.14096,54.904163 184.62158,54.904163 185.10217,54.904163 185.58276,54.904163 186.06339,54.904163 186.54398,54.904163 187.0246,54.904163 187.50519,54.904163 187.98578,54.904163 188.4664,54.904163 188.94699,54.904163 189.42758,54.904163 189.42758,49.478138 189.9082,49.478138 190.3888,49.478138 190.86942,49.478138 191.35,49.478138 191.83063,49.478138 192.31122,49.478138 192.79181,49.478138 193.27243,49.478138 193.75302,49.478138 194.23364,49.478138 194.71423,49.478138 195.19482,49.478138 195.67545,49.478138 196.15604,49.478138 196.63663,49.478138 197.11725,49.478138 197.59784,49.478138 198.07843,49.478138 198.55905,49.478138 199.03964,49.478138 199.52026,49.478138 200.00085,49.478138 200.48148,49.478138 200.96207,49.478138 201.44269,49.478138 201.92328,49.478138 202.40387,49.478138 202.88449,49.478138 203.36508,49.478138 203.84567,49.478138 204.3263,49.478138 204.80688,49.478138 205.28748,49.478138 205.7681,49.478138 206.24869,49.478138 206.72931,49.478138 207.2099,49.478138 207.69049,49.478138 208.17111,49.478138 208.65173,49.478138 209.13232,49.478138 209.61292,49.478138 210.09354,49.478138 210.57413,49.478138 211.05472,49.478138 211.53534,49.478138 212.01593,49.478138 212.49652,49.478138 212.97714,49.478138 213.45773,49.478138 213.93835,49.478138 214.41895,49.478138 214.89954,49.478138 215.38016,49.478138 215.86075,49.478138 216.34137,49.478138 216.82196,49.478138 217.30258,49.478138 217.78317,49.478138 218.26376,49.478138 218.74438,49.478138 219.22498,49.478138 219.70557,49.478138 220.18619,49.478138 220.66678,49.478138 221.1474,49.478138 221.62799,49.478138 222.10858,49.478138 222.5892,49.478138 223.0698,49.478138 223.55038,49.478138 224.031,49.478138 224.5116,49.478138 224.99222,49.478138 225.47281,49.478138 225.95343,49.478138 226.43402,49.478138 226.91461,49.478138 227.39523,49.478138 227.87582,49.478138 228.35645,49.478138 228.83704,49.478138 229.31763,49.478138 229.79825,49.478138 230.27884,49.478138 230.75943,49.478138 231.24005,49.478138 231.72064,49.478138 232.20126,49.478138 232.68185,49.478138 233.16245,49.478138 233.64307,49.478138 234.12366,49.478138 234.60428,49.478138 235.08487,49.478138 235.56549,49.478138 236.04608,49.478138 236.52667,49.478138 237.0073,49.478138 237.48788,49.478138 237.96848,49.478138 238.4491,49.478138 238.92969,49.478138 239.41031,49.478138 239.8909,49.478138 240.37149,49.478138 240.85211,49.478138 241.3327,49.478138 241.8133,49.478138 242.29391,49.478138 242.7745,49.478138 243.25513,49.478138 243.73572,49.478138 244.21634,49.478138 244.69693,49.478138 245.17752,49.478138 245.65814,49.478138 246.13873,49.478138 246.61935,49.478138 247.09995,49.478138 247.58054,49.478138 248.06116,49.478138 248.54175,49.478138 249.02234,49.478138 249.50296,49.478138 249.98355,49.478138 250.46414,49.478138 250.46414,44.052082 250.94476,44.052082 251.42538,44.052082 251.90598,44.052082 252.38657,44.052082 252.86719,44.052082 253.34778,44.052082 253.8284,44.052082 254.30899,44.052082 254.78958,44.052082 255.2702,44.052082 255.7508,44.052082 256.23138,44.052082 256.712,44.052082 257.1926,44.052082 257.6732,44.052082 258.1538,44.052082 258.6344,44.052082 259.11502,44.052082 259.5956,44.052082 260.07623,44.052082 260.55682,44.052082 261.03745,44.052082 261.51804,44.052082 261.99863,44.052082 262.47925,44.052082 262.95984,44.052082 263.44043,44.052082 263.92105,44.052082 264.40164,44.052082 264.88226,44.052082 265.36285,44.052082 265.84344,44.052082 266.32407,44.052082 266.80466,44.052082 267.28525,44.052082 267.76587,44.052082 268.24646,44.052082 268.72708,44.052082 269.20767,44.052082 269.6883,44.052082 270.16888,44.052082 270.64948,44.052082 271.1301,44.052082 271.6107,44.052082 272.0913,44.052082 272.5719,44.052082 273.0525,44.052082 273.5331,44.052082 274.0137,44.052082 274.49432,44.052082 274.97488,44.052082 275.4555,44.052082 275.9361,44.052082 276.41672,44.052082 276.8973,44.052082 277.37793,44.052082 277.85852,44.052082 278.33914,44.052082 278.81973,44.052082 279.30032,44.052082 279.78094,44.052082 280.26154,44.052082 280.74216,44.052082 281.22275,44.052082 281.70337,44.052082 282.18393,44.052082 282.66455,44.052082 283.14514,44.052082 283.62576,44.052082 284.10635,44.052082 284.58698,44.052082 285.06757,44.052082 285.5482,44.052082 286.02878,44.052082 286.50937,44.052082 286.99,44.052082 287.47058,44.052082 287.9512,44.052082 288.4318,44.052082 288.9124,44.052082 289.39297,44.052082 289.8736,44.052082 290.3542,44.052082 290.8348,44.052082 291.3154,44.052082 291.79602,44.052082 292.2766,44.052082 292.75723,44.052082 293.2378,44.052082 293.7184,44.052082 294.199,44.052082 294.67963,44.052082 295.16025,44.052082 295.64084,44.052082 296.12146,44.052082 296.60202,44.052082 297.08264,44.052082 297.56323,44.052082 298.04385,44.052082 298.52444,44.052082 299.00507,44.052082 299.48566,44.052082 299.96628,44.052082 300.44684,44.052082 300.92746,44.052082 301.40805,44.052082 301.88867,44.052082 302.36926,44.052082 302.84988,44.052082 303.33047,44.052082 303.8111,44.052082 304.2917,44.052082 304.77228,44.052082 305.2529,44.052082 305.7335,44.052082 306.2141,44.052082 306.6947,44.052082 307.17532,44.052082 307.65588,44.052082 308.1365,44.052082 308.6171,44.052082 309.09772,44.052082 309.5783,44.052082 310.05893,44.052082 310.53952,44.052082 311.02014,44.052082 311.50073,44.052082 311.98132,44.052082 312.46194,44.052082 312.94254,44.052082 313.42316,44.052082 313.90375,44.052082 314.38437,44.052082 314.86493,44.052082 315.34555,44.052082 315.82614,44.052082 316.30676,44.052082 316.78738,44.052082 317.26797,44.052082 317.7486,44.052082 318.2292,44.052082 318.70978,44.052082 319.19037,44.052082 319.671,44.052082 320.15158,44.052082 320.6322,44.052082 321.1128,44.052082 321.5934,44.052082 322.07397,44.052082 322.5546,44.052082 323.0352,44.052082 323.5158,44.052082 323.9964,44.052082 324.47702,44.052082 324.9576,44.052082 325.43823,44.052082 325.91882,44.052082 326.3994,44.052082 326.88004,44.052082 327.36063,44.052082 327.84125,44.052082 328.32184,44.052082 328.80246,44.052082 329.28302,44.052082 329.76364,44.052082 330.24423,44.052082 330.72485,44.052082 331.20544,44.052082 331.68607,44.052082 332.16666,44.052082 332.64728,44.052082 333.12787,44.052082 333.60846,44.052082 334.08908,44.052082 334.56967,44.052082 335.0503,44.052082 335.53088,44.052082 336.0115,44.052082 336.49207,44.052082 336.9727,44.052082 337.45328,44.052082 337.9339,44.052082 338.4145,44.052082 338.8951,44.052082 339.3757,44.052082 339.85632,44.052082 340.33688,44.052082 340.8175,44.052082 341.2981,44.052082 341.77872,44.052082 342.2593,44.052082 342.73993,44.052082 343.22052,44.052082 343.7011,44.052082 344.18173,44.052082 344.66232,44.052082 345.14294,44.052082 345.62354,44.052082 346.10416,44.052082 346.58475,44.052082 347.06537,44.052082 347.54593,44.052082 348.02655,44.052082 348.50714,44.052082 348.98776,44.052082 349.46835,44.052082 349.94897,44.052082 350.42957,44.052082 350.91016,44.052082 351.39078,44.052082 351.87137,44.052082 352.352,44.052082 352.83258,44.052082 353.3132,44.052082 353.7938,44.052082 354.2744,44.052082 354.75497,44.052082 355.2356,44.052082 355.7162,44.052082 356.1968,44.052082 356.6774,44.052082 357.15802,44.052082 357.6386,44.052082 358.11923,44.052082 358.5998,44.052082 359.0804,44.052082 359.561,44.052082 360.04163,44.052082 360.52225,44.052082 361.00284,44.052082 361.48346,44.052082 361.96402,44.052082 361.96402,38.626026 362.44464,38.626026 362.92523,38.626026 363.40585,38.626026 363.88644,38.626026 364.36707,38.626026 364.84766,38.626026 365.32828,38.626026 365.80884,38.626026 366.28946,38.626026 366.77005,38.626026 367.25067,38.626026 367.73126,38.626026 368.21188,38.626026 368.69247,38.626026 369.17307,38.626026 369.6537,38.626026 370.13428,38.626026 370.6149,38.626026 371.0955,38.626026 371.5761,38.626026 372.0567,38.626026 372.53732,38.626026 373.01788,38.626026 373.4985,38.626026 373.9791,38.626026 374.45972,38.626026 374.9403,38.626026 375.42093,38.626026 375.90152,38.626026 376.3821,38.626026 376.86273,38.626026 377.34332,38.626026 377.82394,38.626026 378.30453,38.626026 378.78516,38.626026 379.26575,38.626026 379.74637,38.626026 380.22693,38.626026 380.70755,38.626026 381.18814,38.626026 381.66876,38.626026 382.14935,38.626026 382.62997,38.626026 383.11057,38.626026 383.59116,38.626026 384.07175,38.626026 384.55237,38.626026 385.03296,38.626026 385.51358,38.626026 385.99417,38.626026 386.4748,38.626026 386.95538,38.626026 387.43597,38.626026 387.9166,38.626026 388.3972,38.626026 388.8778,38.626026 389.3584,38.626026 389.83902,38.626026 390.3196,38.626026 390.8002,38.626026 391.2808,38.626026 391.7614,38.626026 392.242,38.626026 392.72263,38.626026 393.20322,38.626026 393.68384,38.626026 394.16443,38.626026 394.64502,38.626026 395.12564,38.626026 395.60623,38.626026 396.08685,38.626026 396.56744,38.626026 397.04807,38.626026 397.52866,38.626026 398.00925,38.626026 398.48984,38.626026 398.97046,38.626026 399.45105,38.626026 399.93167,38.626026 400.41226,38.626026 400.89288,38.626026 401.37347,38.626026 401.85406,38.626026 402.33466,38.626026 402.81528,38.626026 403.29587,38.626026 403.7765,38.626026 404.2571,38.626026 404.7377,38.626026 405.2183,38.626026 405.69888,38.626026 406.1795,38.626026 406.6601,38.626026 407.14072,38.626026 407.6213,38.626026 408.10193,38.626026 408.58252,38.626026 409.0631,38.626026 409.5437,38.626026 410.02432,38.626026 410.5049,38.626026 410.98553,38.626026 411.46613,38.626026 411.94675,38.626026 412.42734,38.626026 412.90793,38.626026 413.38855,38.626026 413.86914,38.626026 414.34976,38.626026 414.83035,38.626026 415.31097,38.626026 415.79156,38.626026 416.27216,38.626026 416.75275,38.626026 417.23337,38.626026 417.71396,38.626026 418.19458,38.626026 418.67517,38.626026 419.1558,38.626026 419.63638,38.626026 420.11697,38.626026 420.5976,38.626026 421.0782,38.626026 421.5588,38.626026 422.0394,38.626026 422.52002,38.626026 423.0006,38.626026 423.4812,38.626026 423.9618,38.626026 423.9618,33.2 424.4424,33.2 424.923,33.2 425.40363,33.2 425.88422,33.2 426.36484,33.2 426.84543,33.2 427.32602,33.2 427.8066,33.2 428.28723,33.2 428.76782,33.2 429.24844,33.2 429.72903,33.2 430.20966,33.2 430.69025,33.2 431.17084,33.2 431.65146,33.2 432.13205,33.2 432.61267,33.2 433.09326,33.2 433.57388,33.2 434.05447,33.2 434.53506,33.2 435.01566,33.2 435.49628,33.2 435.97687,33.2 436.4575,33.2 436.93808,33.2 437.4187,33.2 437.8993,33.2 438.37988,33.2 438.8605,33.2 439.3411,33.2 439.82172,33.2 440.3023,33.2 440.78293,33.2 441.26352,33.2 441.7441,33.2 442.2247,33.2 442.70532,33.2 443.1859,33.2 443.66653,33.2 444.14713,33.2 444.62775,33.2 445.1083,33.2 445.58893,33.2 446.06952,33.2 446.55014,33.2 447.03076,33.2 447.51135,33.2 447.99197,33.2 448.47256,33.2 448.95316,33.2 449.43375,33.2 449.91437,33.2 450.39496,33.2 450.87558,33.2 451.35617,33.2 451.8368,33.2 452.31735,33.2 452.79797,33.2 453.27856,33.2 453.7592,33.2 454.23978,33.2 454.7204,33.2 455.201,33.2 455.6816,33.2 456.1622,33.2 456.6428,33.2 457.1234,33.2 457.604,33.2 458.08463,33.2 458.56522,33.2 459.04584,33.2 459.5264,33.2 460.00702,33.2 460.4876,33.2 460.96823,33.2 461.44882,33.2 461.92944,33.2 462.41003,33.2 462.89066,33.2 463.37125,33.2 463.85184,33.2 464.33246,33.2 464.81305,33.2 465.29367,33.2 465.77426,33.2 466.25488,33.2 466.73547,33.2 467.21606,33.2 467.69666,33.2 468.17728,33.2 468.65787,33.2 469.1385,33.2 469.61908,33.2 470.0997,33.2 470.58026,33.2 471.06088,33.2 471.54147,33.2 472.0221,33.2 472.5027,33.2 472.9833,33.2 473.4639,33.2 473.94452,33.2 474.4251,33.2 474.9057,33.2 475.38632,33.2 475.8669,33.2 476.34753,33.2 476.82813,33.2 477.30875,33.2 477.7893,33.2 478.26993,33.2 478.75052,33.2 479.23114,33.2 479.71173,33.2 480.19235,33.2 480.67294,33.2 481.15356,33.2 481.63416,33.2 482.11475,33.2 482.59537,33.2 483.07596,33.2 483.55658,33.2 484.03717,33.2 484.5178,33.2 484.99835,33.2 485.47897,33.2 485.95956,33.2 486.4402,33.2 486.92078,33.2 487.4014,33.2 487.882,33.2 488.3626,33.2 488.84317,33.2 489.3238,33.2 489.80438,33.2 490.285,33.2" fill="none" stroke="rgb(31,119,180)" stroke-width="2"/>
  <polyline points="55.82,554.1 490.285,33.2" fill="none" stroke="rgb(255,127,14)" stroke-width="2"/>
  <line x1="55.82" y1="33.2" x2="55.82" y2="554.1" stroke="rgb(0,0,0)" stroke-width="1"/>
  <line x1="55.82" y1="554.1" x2="490.285" y2="554.1" stroke="rgb(0,0,0)" stroke-width="1"/>
  <text x="55.82" y="567.95996" font-family="sans-serif" font-size="9.9" fill="rgb(0,0,0)" text-anchor="middle">0</text>
  <text x="142.713" y="567.95996" font-family="sans-serif" font-size="9.9" fill="rgb(0,0,0)" text-anchor="middle">0.20</text>
  <text x="229.60599" y="567.95996" font-family="sans-serif" font-size="9.9" fill="rgb(0,0,0)" text-anchor="middle">0.40</text>
  <text x="316.49902" y="567.95996" font-family="sans-serif" font-size="9.9" fill="rgb(0,0,0)" text-anchor="middle">0.60</text>
  <text x="403.392" y="567.95996" font-family="sans-serif" font-size="9.9" fill="rgb(0,0,0)" text-anchor="middle">0.80</text>
  <text x="490.285" y="567.95996" font-family="sans-serif" font-size="9.9" fill="rgb(0,0,0)" text-anchor="middle">1</text>
  <text x="51.86" y="554.1" font-family="sans-serif" font-size="9.9" fill="rgb(0,0,0)" text-anchor="end">0</text>
  <text x="51.86" y="502.00998" font-family="sans-serif" font-size="9.9" fill="rgb(0,0,0)" text-anchor="end">0.10</text>
  <text x="51.86" y="449.91998" font-family="sans-serif" font-size="9.9" fill="rgb(0,0,0)" text-anchor="end">0.20</text>
  <text x="51.86" y="397.83" font-family="sans-serif" font-size="9.9" fill="rgb(0,0,0)" text-anchor="end">0.30</text>
  <text x="51.86" y="345.74" font-family="sans-serif" font-size="9.9" fill="rgb(0,0,0)" text-anchor="end">0.40</text>
  <text x="51.86" y="293.65" font-family="sans-serif" font-size="9.9" fill="rgb(0,0,0)" text-anchor="end">0.50</text>
  <text x="51.86" y="241.55998" font-family="sans-serif" font-size="9.9" fill="rgb(0,0,0)" text-anchor="end">0.60</text>
  <text x="51.86" y="189.46999" font-family="sans-serif" font-size="9.9" fill="rgb(0,0,0)" text-anchor="end">0.70</text>
  <text x="51.86" y="137.37999" font-family="sans-serif" font-size="9.9" fill="rgb(0,0,0)" text-anchor="end">0.80</text>
  <text x="51.86" y="85.28999" font-family="sans-serif" font-size="9.9" fill="rgb(0,0,0)" text-anchor="end">0.90</text>
  <text x="51.86" y="33.2" font-family="sans-serif" font-size="9.9" fill="rgb(0,0,0)" text-anchor="end">1.00</text>
  <text x="273.0525" y="588.19995" font-family="sans-serif" font-size="11" fill="rgb(0,0,0)" text-anchor="middle">False Positive Rate</text>
  <text x="31.07" y="293.65" font-family="sans-serif" font-size="11" fill="rgb(0,0,0)" text-anchor="middle" transform="rotate(-90,31.07,293.65)">True Positive Rate</text>
  <rect x="505.285" y="38.2" width="12" height="12" fill="rgb(31,119,180)" rx="2"/>
  <text x="522.28503" y="48.4" font-family="sans-serif" font-size="9.9" fill="rgb(0,0,0)">ROC Curve</text>
  <rect x="505.285" y="53.05" width="12" height="12" fill="rgb(255,127,14)" rx="2"/>
  <text x="522.28503" y="63.25" font-family="sans-serif" font-size="9.9" fill="rgb(0,0,0)">Random Classifier</text>
  <text x="300" y="23.2" font-family="sans-serif" font-size="13.200001" fill="rgb(0,0,0)" font-weight="bold" text-anchor="middle">ROC (AUC = 0.949)</text>
</svg>
